;TYPE=PLATED
;Layer: PTH_Through
;EasyEDA Pro v3.2.149.88089769, 2026-07-20 17:43:02
;Gerber Generator version 0.3
M48
METRIC,LZ,0000.00000
;Hole size 1 = 0.30480 METRIC
T01C0.30480
;Hole size 2 = 0.30500 METRIC
T02C0.30500
;Hole size 3 = 0.38100 METRIC
T03C0.38100
;Hole size 4 = 0.45720 METRIC
T04C0.45720
;Hole size 5 = 0.50800 METRIC
T05C0.50800
;Hole size 6 = 0.60000 METRIC
T06C0.60000
;Hole size 7 = 1.01600 METRIC
T07C1.01600
%
G05
G90
T01
X1.74044Y-2.14725
X1.73815Y-3.47991
X3.41455Y-5.99451
X7.02135Y-8.89011
X0.26495Y-6.22311
X0.36655Y-8.05191
X4.96395Y-14.57971
X1.43335Y-10.61731
X2.93195Y-14.52891
X2.24615Y-14.52891
X-1.16627Y-1.33378
X-1.16627Y0.44422
X-0.27727Y0.44422
X-1.16627Y-0.44478
X-0.27727Y-0.44478
X-2.05527Y-1.33378
X-2.94427Y-0.44478
X-2.05527Y-0.44478
X-2.05527Y1.33322
X-2.05527Y0.44422
X-2.94427Y0.44422
X-1.16627Y1.33322
X1.99215Y-6.42631
X-7.76145Y3.73369
X2.95735Y1.60009
X4.70995Y-3.14971
X-5.60245Y7.31509
X6.61495Y6.57849
X-8.24852Y8.97835
X-5.58152Y8.97835
X-3.80352Y8.97835
X-0.46977Y8.97835
X-2.03629Y8.97835
X1.17173Y8.97835
X4.33149Y8.97835
X2.86398Y8.97835
X6.19773Y8.97835
X9.53148Y8.97835
X7.81383Y8.97835
X-9.13752Y8.97835
X-3.69745Y8.22949
X-3.82445Y7.26429
X-3.97685Y6.3188
X-4.18005Y5.35929
X-4.2932Y2.73285
X-4.25625Y4.41949
X-5.70405Y6.51075
X-5.85645Y5.70642
X-6.03425Y4.90209
X-5.94808Y3.4681
X-5.90725Y1.93029
X-5.88185Y2.69229
X-4.30705Y3.45276
X5.57355Y-12.47151
X6.3524Y-11.47877
X0.23955Y-15.06231
X-2.45285Y5.43549
X-2.60525Y6.73089
X-1.79245Y7.03569
X7.60555Y1.19369
X9.76455Y1.19369
X9.76455Y3.80989
X-9.76805Y-3.81011
X7.47855Y-13.51291
X8.01195Y-14.09711
X-0.24305Y-11.68411
X-7.96465Y-3.86091
X2.42395Y-10.87131
X0.06175Y-16.89111
X0.06175Y-16.12911
X0.01095Y-24.13011
X2.55095Y-24.13011
X-2.52905Y-24.13011
X-5.06905Y-24.13011
X-7.60905Y-24.13011
X-7.60905Y-21.59011
X-7.60905Y-19.05011
X5.09095Y-24.13011
X7.63095Y-24.13011
X7.63095Y-21.59011
X7.63095Y-19.05011
X-0.90345Y-19.53271
X0.77295Y-19.45651
X4.33594Y-20.42523
X3.43128Y-20.42523
X-1.74165Y-19.53271
X-7.43125Y-2.23531
X-7.43125Y-1.62571
X-4.4958Y-12.8778
X7.60555Y1.82869
X7.60555Y-0.55891
X9.76455Y-3.81011
X9.76455Y-1.27011
X-0.254Y-12.4714
X-7.52688Y6.73089
X-7.52688Y7.61989
X-7.52688Y5.84189
X-5.88389Y-7.0854
X-2.51067Y-11.40567
X-0.22366Y-4.69607
X-9.8044Y-19.7612
X-5.45128Y-8.18505
T02
X-2.14805Y-3.81011
X-1.41145Y-3.58151
X-3.49425Y-3.78471
X-4.28165Y-3.55611
X-4.38325Y-2.61631
X-5.34845Y0.53329
X-5.37385Y-0.30491
X0.79835Y3.42889
X0.82375Y2.66689
X-0.26845Y4.59729
X-0.26845Y3.83529
X1.04054Y5.22441
X2.74056Y7.42456
X1.68735Y2.18429
X5.09095Y2.18429
X1.91595Y1.42229
X2.57635Y-3.17511
X3.03355Y0.81269
X3.84635Y-3.17511
X3.82095Y-0.35571
X3.79555Y0.81269
X6.89415Y-0.10489
X6.13215Y-0.10489
X4.48135Y-1.09231
T03
X-3.21485Y4.52109
X1.70761Y-8.48713
X1.70761Y-9.40113
X4.10035Y-6.60411
X-3.49425Y-15.34171
X-3.84985Y-17.04351
X3.79555Y-17.29751
T04
X-3.31645Y-5.18171
T05
X0.39691Y-10.7439
X2.55095Y-12.62391
X-3.2512Y-13.4112
X-4.67076Y-7.16177
X6.91975Y-6.57871
X-2.38897Y-17.04351
X2.72875Y-16.61171
T06
X-4.31398Y-18.24827G85X-4.31398Y-19.14827
X4.33604Y-18.24829G85X4.33604Y-19.14831
X-4.31403Y-22.59834G85X-4.31403Y-23.19834
X4.33594Y-22.59834G85X4.33594Y-23.19834
T07
X-8.87905Y-0.00011
X-8.87905Y-2.54011
X-8.87905Y-5.08011
X-8.87905Y-7.62011
X-8.87905Y-10.16011
X-8.87905Y-12.70011
X-8.87905Y-15.24011
X-8.87905Y-17.78011
X8.90095Y7.61989
X8.90095Y5.07989
X8.90095Y2.53989
X-8.8976Y7.61989
X-8.8976Y5.07989
X-8.8976Y2.53989
X8.90095Y-0.00011
X8.90095Y-2.54011
X8.90095Y-5.08011
X8.90095Y-7.62011
X8.90095Y-10.16011
X8.90095Y-12.70011
X8.90095Y-15.24011
X8.90095Y-17.78011
M30