G04 Layer: TopSilkscreenLayer*
G04 EasyEDA Pro v3.2.149.88089769, 2026-07-20 17:43:02*
G04 Gerber Generator version 0.3*
G04 Scale: 100 percent, Rotated: No, Reflected: No*
G04 Dimensions in millimeters*
G04 Leading zeros omitted, absolute positions, 4 integers and 5 decimals*
G04 Generated by one-click*
G04 Object Configs: Pad,Via,Track,Text,Image,Dimension,BoardOutline,BoardCutout,CopperFilled,SolidRegion,FPCStiffener,Line,PlaneZone,ComponentProperty,ComponentSilkscreen,TearDrop*
G04 Layer Configs: 1,2,3,4,5,6,7,8,9,10,11,13,14,56*
G04 Copper Areas: 0*
%FSLAX45Y45*%
%MOMM*%
%ADD10C,0.2032*%
%ADD11C,0.1524*%
%ADD12C,0.2*%
%ADD13C,0.3*%
%ADD14C,0.254*%
%ADD15C,0.1592*%
%ADD16C,0.14986*%
%ADD17C,0.1*%
G75*


G04 Image Start*
G36*
G01X317392Y-287003D02*
G01X264160Y-287003D01*
G01X264160Y-47011D01*
G01X357264Y-47011D01*
G01X357264Y-49058D01*
G01X357768Y-49185D01*
G01X357768Y-49185D01*
G01X358273Y-49311D01*
G01X358882Y-49242D01*
G01X359490Y-49172D01*
G01X359999Y-48112D01*
G01X360508Y-47051D01*
G01X360529Y-44931D01*
G01X360551Y-42810D01*
G01X360389Y-42051D01*
G01X360227Y-41291D01*
G01X359505Y-40093D01*
G01X358783Y-38894D01*
G01X358291Y-37402D01*
G01X357887Y-37402D01*
G01X357792Y-37668D01*
G01X357697Y-37933D01*
G01X357610Y-40795D01*
G01X357524Y-43658D01*
G01X357900Y-45734D01*
G01X357582Y-46372D01*
G01X357264Y-47011D01*
G01X264160Y-47011D01*
G01X264160Y11769D01*
G01X365747Y11769D01*
G01X365753Y9994D01*
G01X366937Y11267D01*
G01X368121Y12539D01*
G01X368533Y13281D01*
G01X368945Y14023D01*
G01X369478Y14766D01*
G01X370012Y15508D01*
G01X371198Y16780D01*
G01X373200Y18597D01*
G01X373116Y18855D01*
G01X373031Y19113D01*
G01X372451Y19181D01*
G01X371872Y19250D01*
G01X371561Y18992D01*
G01X371251Y18734D01*
G01X370943Y19046D01*
G01X371709Y19716D01*
G01X372475Y20385D01*
G01X372622Y20804D01*
G01X372769Y21223D01*
G01X372520Y26318D01*
G01X372456Y27637D01*
G01X385625Y27637D01*
G01X386637Y27946D01*
G01X387569Y28141D01*
G01X388500Y28336D01*
G01X389027Y28773D01*
G01X390801Y29288D01*
G01X392576Y29802D01*
G01X396704Y31731D01*
G01X397507Y31731D01*
G01X397924Y32261D01*
G01X397746Y33745D01*
G01X397659Y34474D01*
G01X404770Y34474D01*
G01X405079Y34356D01*
G01X405389Y34237D01*
G01X406671Y34680D01*
G01X407953Y35124D01*
G01X408323Y35129D01*
G01X408693Y35133D01*
G01X409595Y35542D01*
G01X410496Y35951D01*
G01X410496Y36575D01*
G01X409864Y36713D01*
G01X409612Y36769D01*
G01X415553Y36769D01*
G01X415904Y36451D01*
G01X426561Y37179D01*
G01X427781Y37001D01*
G01X428364Y37224D01*
G01X428947Y37446D01*
G01X428947Y38285D01*
G01X428717Y38790D01*
G01X428487Y39295D01*
G01X427291Y40001D01*
G01X425945Y39970D01*
G01X424599Y39939D01*
G01X423433Y39805D01*
G01X422267Y39670D01*
G01X421803Y39412D01*
G01X421340Y39153D01*
G01X420001Y39152D01*
G01X418661Y39151D01*
G01X417177Y38550D01*
G01X415692Y37948D01*
G01X415622Y37359D01*
G01X415622Y37359D01*
G01X415553Y36769D01*
G01X409612Y36769D01*
G01X409233Y36852D01*
G01X408041Y36703D01*
G01X406849Y36554D01*
G01X406925Y36952D01*
G01X407002Y37351D01*
G01X407994Y37465D01*
G01X408986Y37579D01*
G01X409428Y38141D01*
G01X409870Y38703D01*
G01X410554Y38769D01*
G01X411238Y38835D01*
G01X411026Y39259D01*
G01X409860Y39126D01*
G01X409805Y39471D01*
G01X409733Y40001D01*
G01X415996Y40001D01*
G01X419000Y40001D01*
G01X419675Y40350D01*
G01X420350Y40699D01*
G01X422150Y40838D01*
G01X444213Y40838D01*
G01X444480Y40754D01*
G01X444747Y40671D01*
G01X444747Y40671D01*
G01X448404Y40408D01*
G01X447943Y42136D01*
G01X447783Y41705D01*
G01X447624Y41274D01*
G01X447248Y41274D01*
G01X446881Y43174D01*
G01X446514Y45073D01*
G01X446789Y45518D01*
G01X447307Y44985D01*
G01X447917Y43076D01*
G01X447989Y43764D01*
G01X448061Y44451D01*
G01X447398Y45397D01*
G01X447395Y46252D01*
G01X447392Y47106D01*
G01X447080Y47530D01*
G01X446126Y48007D01*
G01X445171Y48485D01*
G01X444843Y48484D01*
G01X444659Y48000D01*
G01X444475Y47516D01*
G01X444344Y44177D01*
G01X444213Y40838D01*
G01X422150Y40838D01*
G01X423429Y40936D01*
G01X426508Y41173D01*
G01X427557Y41910D01*
G01X428558Y41910D01*
G01X428382Y42440D01*
G01X427975Y42514D01*
G01X427569Y42587D01*
G01X427259Y42877D01*
G01X426960Y44355D01*
G01X426661Y45833D01*
G01X426094Y47221D01*
G01X426356Y47640D01*
G01X426618Y48060D01*
G01X425811Y48060D01*
G01X425678Y48406D01*
G01X425545Y48753D01*
G01X425679Y49468D01*
G01X425813Y50182D01*
G01X425124Y51234D01*
G01X424794Y52831D01*
G01X423637Y53209D01*
G01X422479Y53586D01*
G01X422027Y53476D01*
G01X421576Y53366D01*
G01X420543Y53680D01*
G01X419509Y53993D01*
G01X418921Y53995D01*
G01X418333Y53998D01*
G01X418126Y53454D01*
G01X417919Y52910D01*
G01X417916Y52234D01*
G01X417913Y51559D01*
G01X417495Y49544D01*
G01X417076Y47530D01*
G01X417073Y46866D01*
G01X417071Y46203D01*
G01X416768Y45479D01*
G01X416465Y44755D01*
G01X416337Y43385D01*
G01X416209Y42016D01*
G01X416209Y42016D01*
G01X416102Y41009D01*
G01X415996Y40001D01*
G01X409733Y40001D01*
G01X409661Y40532D01*
G01X409459Y41698D01*
G01X409257Y42864D01*
G01X409100Y46955D01*
G01X408944Y51045D01*
G01X408617Y51248D01*
G01X408415Y50922D01*
G01X407517Y48256D01*
G01X407212Y46939D01*
G01X406908Y45621D01*
G01X406353Y43288D01*
G01X405799Y40956D01*
G01X405574Y39577D01*
G01X405350Y38199D01*
G01X405325Y37245D01*
G01X405300Y36290D01*
G01X405035Y35827D01*
G01X404770Y35364D01*
G01X404770Y34474D01*
G01X404770Y34474D01*
G01X397659Y34474D01*
G01X397569Y35230D01*
G01X397578Y37881D01*
G01X397587Y40532D01*
G01X397356Y42864D01*
G01X397124Y45197D01*
G01X397159Y48802D01*
G01X397194Y52407D01*
G01X397241Y54528D01*
G01X396600Y54591D01*
G01X395959Y54654D01*
G01X395275Y53318D01*
G01X394590Y51983D01*
G01X394585Y51665D01*
G01X394580Y51347D01*
G01X394166Y50817D01*
G01X393751Y50287D01*
G01X393746Y50010D01*
G01X393742Y49733D01*
G01X392999Y48334D01*
G01X392257Y46936D01*
G01X392257Y46415D01*
G01X391960Y46169D01*
G01X391662Y45922D01*
G01X391386Y44773D01*
G01X390318Y42016D01*
G01X389250Y39259D01*
G01X388868Y38199D01*
G01X388485Y37139D01*
G01X388170Y36184D01*
G01X387855Y35230D01*
G01X387374Y33852D01*
G01X386893Y32473D01*
G01X386399Y31095D01*
G01X385905Y29716D01*
G01X385905Y29716D01*
G01X385625Y27637D01*
G01X372456Y27637D01*
G01X372271Y31413D01*
G01X371788Y32468D01*
G01X371426Y32538D01*
G01X371064Y32607D01*
G01X370952Y32116D01*
G01X370840Y31625D01*
G01X370633Y30777D01*
G01X370425Y29928D01*
G01X369131Y24839D01*
G01X368292Y22294D01*
G01X368290Y21764D01*
G01X368288Y21234D01*
G01X367760Y20099D01*
G01X367231Y18965D01*
G01X367231Y17402D01*
G01X366784Y16137D01*
G01X366337Y14872D01*
G01X366216Y12963D01*
G01X365981Y12366D01*
G01X365981Y12366D01*
G01X365747Y11769D01*
G01X264160Y11769D01*
G01X264160Y57688D01*
G01X419144Y57688D01*
G01X419303Y56862D01*
G01X420573Y56707D01*
G01X421842Y56553D01*
G01X421842Y56553D01*
G01X422768Y56141D01*
G01X424267Y56266D01*
G01X425766Y56392D01*
G01X425766Y56765D01*
G01X425122Y56894D01*
G01X424478Y57023D01*
G01X424183Y57445D01*
G01X423887Y57866D01*
G01X424088Y60617D01*
G01X423766Y60860D01*
G01X423445Y61102D01*
G01X423227Y63435D01*
G01X423009Y65767D01*
G01X423009Y67929D01*
G01X423009Y70090D01*
G01X422630Y70324D01*
G01X422492Y69774D01*
G01X422354Y69224D01*
G01X421503Y68074D01*
G01X421319Y66772D01*
G01X421135Y65471D01*
G01X420907Y64771D01*
G01X420679Y64071D01*
G01X420351Y62798D01*
G01X420023Y61526D01*
G01X419836Y60784D01*
G01X419650Y60042D01*
G01X419144Y57688D01*
G01X264160Y57688D01*
G01X264160Y147307D01*
G01X377441Y147254D01*
G01X490722Y147201D01*
G01X491011Y146140D01*
G01X491301Y145080D01*
G01X491522Y143825D01*
G01X491744Y142571D01*
G01X492174Y140962D01*
G01X492605Y139354D01*
G01X493900Y135778D01*
G01X494204Y134597D01*
G01X494508Y133416D01*
G01X494786Y132144D01*
G01X495065Y130871D01*
G01X495423Y129493D01*
G01X495781Y128115D01*
G01X496065Y127054D01*
G01X496350Y125994D01*
G01X497774Y120056D01*
G01X499199Y114118D01*
G01X499381Y113920D01*
G01X499563Y113722D01*
G01X499866Y114025D01*
G01X499613Y116086D01*
G01X499360Y118148D01*
G01X498955Y120586D01*
G01X498549Y123025D01*
G01X498209Y125040D01*
G01X497869Y127054D01*
G01X497557Y128857D01*
G01X497244Y130659D01*
G01X497046Y131932D01*
G01X496847Y133204D01*
G01X496408Y135643D01*
G01X495968Y138082D01*
G01X495548Y140308D01*
G01X495128Y142535D01*
G01X494281Y146903D01*
G01X494031Y147307D01*
G01X500825Y147307D01*
G01X501280Y145769D01*
G01X501735Y144232D01*
G01X502575Y141687D01*
G01X503415Y139142D01*
G01X503913Y137339D01*
G01X504411Y135537D01*
G01X504769Y134371D01*
G01X505127Y133204D01*
G01X505503Y131826D01*
G01X505878Y130447D01*
G01X506094Y129917D01*
G01X506310Y129387D01*
G01X506757Y127743D01*
G01X507205Y126100D01*
G01X507657Y124456D01*
G01X508108Y122813D01*
G01X508382Y121859D01*
G01X508656Y120904D01*
G01X509221Y118784D01*
G01X509787Y116663D01*
G01X510079Y115709D01*
G01X510371Y114754D01*
G01X511173Y111786D01*
G01X511754Y109559D01*
G01X512335Y107332D01*
G01X512767Y105636D01*
G01X513199Y103939D01*
G01X513487Y102985D01*
G01X513775Y102031D01*
G01X514177Y100101D01*
G01X514579Y98171D01*
G01X514847Y97669D01*
G01X515116Y97167D01*
G01X515515Y95676D01*
G01X515914Y94184D01*
G01X516121Y93336D01*
G01X516328Y92488D01*
G01X516728Y91533D01*
G01X517128Y90579D01*
G01X517365Y90049D01*
G01X517603Y89519D01*
G01X517499Y90579D01*
G01X517395Y91639D01*
G01X517070Y93760D01*
G01X516744Y95881D01*
G01X516429Y98385D01*
G01X516114Y100888D01*
G01X515665Y101727D01*
G01X514803Y106060D01*
G01X514608Y107014D01*
G01X514413Y107968D01*
G01X513667Y111361D01*
G01X512921Y114754D01*
G01X512393Y117087D01*
G01X511865Y119420D01*
G01X511662Y120162D01*
G01X511460Y120904D01*
G01X511004Y122707D01*
G01X510548Y124510D01*
G01X510277Y125676D01*
G01X510007Y126842D01*
G01X509738Y127903D01*
G01X509469Y128963D01*
G01X508844Y131296D01*
G01X508219Y133628D01*
G01X507938Y134875D01*
G01X507658Y136123D01*
G01X507447Y136678D01*
G01X507235Y137233D01*
G01X506788Y138930D01*
G01X506341Y140626D01*
G01X505939Y141899D01*
G01X505538Y143171D01*
G01X505245Y144656D01*
G01X504981Y145186D01*
G01X504717Y145716D01*
G01X504573Y146511D01*
G01X504429Y147307D01*
G01X508887Y147307D01*
G01X509398Y146352D01*
G01X510332Y144126D01*
G01X511266Y141899D01*
G01X514817Y132992D01*
G01X515372Y131545D01*
G01X515927Y130097D01*
G01X516764Y127727D01*
G01X517601Y125358D01*
G01X518517Y122601D01*
G01X519433Y119844D01*
G01X521161Y114330D01*
G01X521633Y112634D01*
G01X522105Y110937D01*
G01X522843Y108393D01*
G01X523213Y107132D01*
G01X523583Y105871D01*
G01X523746Y104799D01*
G01X523908Y103727D01*
G01X524544Y101288D01*
G01X525179Y98850D01*
G01X525534Y98003D01*
G01X525889Y97157D01*
G01X526521Y94504D01*
G01X527153Y91851D01*
G01X527563Y90049D01*
G01X527973Y88246D01*
G01X528419Y86232D01*
G01X528865Y84217D01*
G01X529156Y82839D01*
G01X529446Y81460D01*
G01X530004Y78173D01*
G01X530561Y74886D01*
G01X530660Y74400D01*
G01X530758Y73915D01*
G01X531170Y74169D01*
G01X531157Y79935D01*
G01X531144Y85702D01*
G01X530743Y94608D01*
G01X530353Y104575D01*
G01X529904Y107892D01*
G01X529666Y108278D01*
G01X529364Y110456D01*
G01X529063Y112634D01*
G01X528623Y115526D01*
G01X528101Y118533D01*
G01X527579Y121541D01*
G01X527134Y123555D01*
G01X526688Y125570D01*
G01X526289Y127478D01*
G01X525891Y129387D01*
G01X525135Y132321D01*
G01X524379Y135256D01*
G01X524186Y135615D01*
G01X523994Y135975D01*
G01X523447Y138300D01*
G01X522901Y140626D01*
G01X522478Y142005D01*
G01X522055Y143383D01*
G01X520990Y146637D01*
G01X520859Y146978D01*
G01X520728Y147320D01*
G01X523319Y147260D01*
G01X525910Y147201D01*
G01X526589Y145928D01*
G01X527268Y144656D01*
G01X527594Y144126D01*
G01X527920Y143595D01*
G01X529091Y141581D01*
G01X530262Y139566D01*
G01X531170Y137870D01*
G01X532077Y136173D01*
G01X534009Y132568D01*
G01X534897Y130871D01*
G01X535785Y129175D01*
G01X538659Y123449D01*
G01X539866Y120904D01*
G01X541073Y118360D01*
G01X541608Y116663D01*
G01X542525Y114542D01*
G01X543441Y112422D01*
G01X544421Y110089D01*
G01X545402Y107756D01*
G01X545589Y107332D01*
G01X545776Y106908D01*
G01X546214Y105874D01*
G01X546652Y104840D01*
G01X546652Y104278D01*
G01X548729Y100122D01*
G01X549489Y98213D01*
G01X550249Y96305D01*
G01X550690Y95032D01*
G01X551131Y93760D01*
G01X551902Y91427D01*
G01X552245Y90791D01*
G01X552588Y90155D01*
G01X552589Y89508D01*
G01X552590Y88860D01*
G01X553352Y86221D01*
G01X554113Y83581D01*
G01X554471Y82308D01*
G01X554786Y81354D01*
G01X555102Y80400D01*
G01X555460Y78915D01*
G01X555818Y77431D01*
G01X555978Y76689D01*
G01X556138Y75947D01*
G01X556505Y74462D01*
G01X556871Y72978D01*
G01X557269Y71493D01*
G01X557667Y70009D01*
G01X558123Y67888D01*
G01X558578Y65767D01*
G01X558880Y64746D01*
G01X559183Y63725D01*
G01X559479Y62201D01*
G01X559774Y60678D01*
G01X560100Y58981D01*
G01X560427Y57285D01*
G01X560733Y56012D01*
G01X561039Y54740D01*
G01X561362Y53149D01*
G01X561685Y51559D01*
G01X562010Y49862D01*
G01X562335Y48166D01*
G01X562890Y45197D01*
G01X563445Y42228D01*
G01X563817Y39683D01*
G01X564260Y37033D01*
G01X564703Y34382D01*
G01X565014Y32261D01*
G01X565325Y30140D01*
G01X565423Y29822D01*
G01X565521Y29504D01*
G01X565965Y26323D01*
G01X566409Y23142D01*
G01X566601Y21022D01*
G01X566794Y18901D01*
G01X567100Y17416D01*
G01X567405Y15932D01*
G01X567539Y14342D01*
G01X567672Y12751D01*
G01X567793Y11960D01*
G01X567913Y11168D01*
G01X568284Y11398D01*
G01X568276Y16144D01*
G01X568071Y17523D01*
G01X567867Y18901D01*
G01X567650Y21870D01*
G01X567433Y24839D01*
G01X566586Y32473D01*
G01X566270Y34806D01*
G01X565955Y37139D01*
G01X565733Y39153D01*
G01X565512Y41168D01*
G01X565210Y42864D01*
G01X564909Y44561D01*
G01X564677Y46045D01*
G01X564445Y47530D01*
G01X564155Y49483D01*
G01X563864Y51437D01*
G01X563722Y51887D01*
G01X563579Y52337D01*
G01X563300Y53962D01*
G01X563021Y55588D01*
G01X562578Y57815D01*
G01X562135Y60042D01*
G01X561788Y61526D01*
G01X561441Y63011D01*
G01X560195Y68206D01*
G01X558950Y73402D01*
G01X558186Y76159D01*
G01X557423Y78915D01*
G01X556937Y80612D01*
G01X556452Y82308D01*
G01X555726Y84641D01*
G01X555450Y85489D01*
G01X555173Y86338D01*
G01X551712Y97153D01*
G01X551141Y98473D01*
G01X550994Y99510D01*
G01X550848Y100546D01*
G01X550580Y100973D01*
G01X550313Y101401D01*
G01X550151Y102140D01*
G01X549989Y102879D01*
G01X549593Y103618D01*
G01X549197Y104357D01*
G01X549184Y105212D01*
G01X548872Y105623D01*
G01X548561Y106035D01*
G01X548561Y106627D01*
G01X547902Y108040D01*
G01X547243Y109453D01*
G01X547130Y110301D01*
G01X547018Y111149D01*
G01X547264Y110926D01*
G01X547806Y110127D01*
G01X548349Y109328D01*
G01X548349Y109022D01*
G01X548743Y108283D01*
G01X549138Y107544D01*
G01X549295Y107014D01*
G01X549453Y106484D01*
G01X550597Y104081D01*
G01X551742Y101679D01*
G01X551742Y101327D01*
G01X552777Y99274D01*
G01X553545Y97577D01*
G01X554314Y95881D01*
G01X554964Y94503D01*
G01X555614Y93126D01*
G01X557729Y88354D01*
G01X559844Y83581D01*
G01X560122Y82812D01*
G01X560400Y82044D01*
G01X561466Y79764D01*
G01X562561Y77113D01*
G01X563655Y74462D01*
G01X564707Y71811D01*
G01X565758Y69160D01*
G01X566060Y68524D01*
G01X566362Y67888D01*
G01X566702Y66934D01*
G01X567043Y65979D01*
G01X567337Y65072D01*
G01X567632Y64164D01*
G01X568354Y62739D01*
G01X569076Y61314D01*
G01X569973Y58769D01*
G01X570870Y56224D01*
G01X571242Y55164D01*
G01X571614Y54104D01*
G01X571880Y53362D01*
G01X572146Y52619D01*
G01X572548Y51294D01*
G01X572950Y49969D01*
G01X573799Y47212D01*
G01X574226Y45780D01*
G01X574654Y44349D01*
G01X575088Y42758D01*
G01X575522Y41168D01*
G01X575927Y39683D01*
G01X576332Y38199D01*
G01X576989Y35442D01*
G01X577645Y32685D01*
G01X578068Y30777D01*
G01X578492Y28868D01*
G01X578789Y27596D01*
G01X579086Y26323D01*
G01X579422Y24627D01*
G01X579758Y22930D01*
G01X580056Y21128D01*
G01X580355Y19325D01*
G01X580874Y16250D01*
G01X581394Y13175D01*
G01X581531Y12009D01*
G01X581669Y10842D01*
G01X582066Y8722D01*
G01X582710Y2784D01*
G01X582965Y1406D01*
G01X583409Y1406D01*
G01X583277Y5594D01*
G01X583145Y9782D01*
G01X582941Y11373D01*
G01X582737Y12963D01*
G01X582498Y15402D01*
G01X582260Y17841D01*
G01X581832Y21022D01*
G01X581404Y24203D01*
G01X580995Y26959D01*
G01X580586Y29716D01*
G01X580272Y31413D01*
G01X579958Y33109D01*
G01X579517Y35548D01*
G01X579077Y37987D01*
G01X578671Y39789D01*
G01X578265Y41592D01*
G01X577723Y44031D01*
G01X577182Y46469D01*
G01X576883Y47530D01*
G01X576585Y48590D01*
G01X575713Y51877D01*
G01X574841Y55164D01*
G01X573334Y60042D01*
G01X572796Y61738D01*
G01X572257Y63435D01*
G01X571563Y65449D01*
G01X570870Y67464D01*
G01X570727Y67994D01*
G01X570585Y68524D01*
G01X569520Y71917D01*
G01X568388Y74780D01*
G01X567255Y77643D01*
G01X566923Y78279D01*
G01X566590Y78915D01*
G01X566589Y79239D01*
G01X566588Y79563D01*
G01X566312Y79982D01*
G01X566035Y80400D01*
G01X565424Y81990D01*
G01X564812Y83581D01*
G01X564560Y83899D01*
G01X564309Y84217D01*
G01X563800Y85802D01*
G01X563432Y86029D01*
G01X563016Y86926D01*
G01X562601Y87822D01*
G01X561413Y90321D01*
G01X560225Y92821D01*
G01X554897Y103727D01*
G01X553970Y105424D01*
G01X553044Y107120D01*
G01X552181Y108817D01*
G01X551317Y110513D01*
G01X550338Y112316D01*
G01X549359Y114118D01*
G01X548251Y116027D01*
G01X547143Y117935D01*
G01X546214Y119526D01*
G01X545285Y121116D01*
G01X544961Y121709D01*
G01X544637Y122302D01*
G01X543816Y123830D01*
G01X542994Y125358D01*
G01X541774Y127032D01*
G01X541774Y127376D01*
G01X541120Y128275D01*
G01X540467Y129175D01*
G01X539854Y130447D01*
G01X539277Y131416D01*
G01X538699Y132386D01*
G01X538132Y133325D01*
G01X537565Y134265D01*
G01X536542Y136093D01*
G01X535518Y137922D01*
G01X534245Y140115D01*
G01X532072Y143614D01*
G01X529898Y147053D01*
G01X529898Y147307D01*
G01X541774Y147307D01*
G01X541790Y147041D01*
G01X541806Y146776D01*
G01X542945Y144974D01*
G01X544084Y143171D01*
G01X548014Y136385D01*
G01X551099Y130235D01*
G01X554184Y124085D01*
G01X555068Y122177D01*
G01X555951Y120268D01*
G01X556400Y119208D01*
G01X556849Y118148D01*
G01X557447Y117058D01*
G01X558171Y115270D01*
G01X558895Y113482D01*
G01X559330Y112528D01*
G01X559766Y111574D01*
G01X560222Y110513D01*
G01X560677Y109453D01*
G01X561810Y106590D01*
G01X562944Y103727D01*
G01X563732Y101712D01*
G01X564519Y99698D01*
G01X564944Y98531D01*
G01X565368Y97365D01*
G01X566137Y95244D01*
G01X566688Y93760D01*
G01X567238Y92276D01*
G01X567864Y90155D01*
G01X568490Y88034D01*
G01X569445Y86020D01*
G01X569825Y86020D01*
G01X569561Y87610D01*
G01X569267Y89042D01*
G01X568972Y90473D01*
G01X568754Y90738D01*
G01X568536Y91003D01*
G01X567829Y93548D01*
G01X567540Y94714D01*
G01X567251Y95881D01*
G01X566402Y98744D01*
G01X565553Y101606D01*
G01X565211Y102773D01*
G01X564869Y103939D01*
G01X564433Y105424D01*
G01X563998Y106908D01*
G01X563047Y109665D01*
G01X562096Y112422D01*
G01X561529Y114330D01*
G01X560341Y117511D01*
G01X559152Y120692D01*
G01X558396Y122495D01*
G01X557640Y124297D01*
G01X557250Y125252D01*
G01X556861Y126206D01*
G01X555971Y128221D01*
G01X555081Y130235D01*
G01X554447Y131614D01*
G01X553812Y132992D01*
G01X551907Y136915D01*
G01X550002Y140839D01*
G01X549787Y141295D01*
G01X549572Y141751D01*
G01X549677Y142037D01*
G01X549781Y142323D01*
G01X550088Y141172D01*
G01X550440Y141060D01*
G01X550792Y140948D01*
G01X551002Y140547D01*
G01X551212Y140146D01*
G01X552730Y137841D01*
G01X554247Y135537D01*
G01X555467Y133628D01*
G01X556687Y131720D01*
G01X557576Y130341D01*
G01X558465Y128963D01*
G01X563126Y121116D01*
G01X564539Y118648D01*
G01X565952Y116179D01*
G01X565952Y115848D01*
G01X566242Y115513D01*
G01X566532Y115179D01*
G01X568304Y111786D01*
G01X570075Y108393D01*
G01X570864Y106802D01*
G01X571652Y105212D01*
G01X572407Y103542D01*
G01X573162Y101872D01*
G01X573165Y101394D01*
G01X573497Y100758D01*
G01X573829Y100122D01*
G01X574478Y98638D01*
G01X575127Y97153D01*
G01X576378Y94396D01*
G01X577398Y92276D01*
G01X578418Y90155D01*
G01X580635Y83793D01*
G01X581433Y81806D01*
G01X581433Y80987D01*
G01X582282Y79909D01*
G01X582282Y79404D01*
G01X582589Y78735D01*
G01X582896Y78067D01*
G01X585706Y69372D01*
G01X586097Y68100D01*
G01X586489Y66828D01*
G01X586943Y65237D01*
G01X587398Y63647D01*
G01X587685Y62798D01*
G01X587971Y61950D01*
G01X588540Y59830D01*
G01X589108Y57709D01*
G01X589494Y56437D01*
G01X589880Y55164D01*
G01X589989Y54634D01*
G01X590098Y54104D01*
G01X590983Y50817D01*
G01X591868Y47530D01*
G01X592387Y45515D01*
G01X592906Y43501D01*
G01X593646Y40320D01*
G01X594385Y37139D01*
G01X596079Y29504D01*
G01X596511Y26535D01*
G01X596951Y25157D01*
G01X597392Y23778D01*
G01X597809Y23354D01*
G01X597674Y25899D01*
G01X597539Y28444D01*
G01X597115Y35866D01*
G01X596812Y39047D01*
G01X596508Y42228D01*
G01X596388Y44031D01*
G01X596268Y45833D01*
G01X595626Y51559D01*
G01X595203Y54952D01*
G01X594780Y58345D01*
G01X594352Y61208D01*
G01X593923Y64071D01*
G01X593337Y67040D01*
G01X592779Y70115D01*
G01X592220Y73190D01*
G01X591895Y74674D01*
G01X591570Y76159D01*
G01X591175Y77855D01*
G01X590781Y79552D01*
G01X590332Y81566D01*
G01X589883Y83581D01*
G01X589495Y84959D01*
G01X589107Y86338D01*
G01X588960Y87050D01*
G01X588812Y87763D01*
G01X588230Y89595D01*
G01X587648Y91427D01*
G01X587175Y93018D01*
G01X586703Y94608D01*
G01X585152Y99486D01*
G01X583601Y104363D01*
G01X583239Y105636D01*
G01X582877Y106908D01*
G01X581009Y111615D01*
G01X581009Y111915D01*
G01X580622Y112805D01*
G01X580236Y113694D01*
G01X579626Y115285D01*
G01X579017Y116875D01*
G01X578464Y117712D01*
G01X578464Y118678D01*
G01X578782Y118676D01*
G01X581752Y113349D01*
G01X582176Y112616D01*
G01X582600Y111882D01*
G01X583420Y110349D01*
G01X584241Y108817D01*
G01X584913Y107862D01*
G01X585585Y106908D01*
G01X586130Y105954D01*
G01X586676Y104999D01*
G01X591143Y96305D01*
G01X592598Y93442D01*
G01X594054Y90579D01*
G01X594778Y88989D01*
G01X595502Y87398D01*
G01X596739Y84796D01*
G01X597976Y82194D01*
G01X597976Y81935D01*
G01X598839Y79895D01*
G01X599702Y77855D01*
G01X600088Y77007D01*
G01X600475Y76159D01*
G01X600922Y75181D01*
G01X601369Y74204D01*
G01X601371Y73826D01*
G01X602031Y72235D01*
G01X602692Y70645D01*
G01X603528Y68524D01*
G01X603810Y67676D01*
G01X604092Y66828D01*
G01X604657Y65343D01*
G01X605222Y63859D01*
G01X606389Y60572D01*
G01X607556Y57285D01*
G01X608466Y54634D01*
G01X609375Y51983D01*
G01X611946Y43925D01*
G01X612159Y43182D01*
G01X612372Y42440D01*
G01X612989Y40759D01*
G01X613395Y40623D01*
G01X613355Y46303D01*
G01X613315Y51983D01*
G01X613142Y54687D01*
G01X612969Y57391D01*
G01X613429Y57391D01*
G01X613537Y57020D01*
G01X613646Y56649D01*
G01X613791Y55588D01*
G01X613937Y54528D01*
G01X614228Y53955D01*
G01X614518Y53383D01*
G01X614522Y52471D01*
G01X614526Y51559D01*
G01X614850Y49862D01*
G01X615173Y48166D01*
G01X615365Y46894D01*
G01X615558Y45621D01*
G01X615879Y42758D01*
G01X616201Y39895D01*
G01X616428Y37457D01*
G01X616655Y35018D01*
G01X616872Y33109D01*
G01X617088Y31201D01*
G01X617134Y10206D01*
G01X616769Y7237D01*
G01X616405Y4268D01*
G01X616044Y-397D01*
G01X615683Y-1775D01*
G01X615321Y-3154D01*
G01X615143Y-4214D01*
G01X614965Y-5275D01*
G01X614649Y-7187D01*
G01X614333Y-9100D01*
G01X613914Y-10202D01*
G01X613692Y-11402D01*
G01X613470Y-12602D01*
G01X612918Y-13922D01*
G01X612365Y-15242D01*
G01X612045Y-16400D01*
G01X611724Y-17558D01*
G01X610052Y-21472D01*
G01X609605Y-26269D01*
G01X609025Y-28390D01*
G01X608891Y-30086D01*
G01X608757Y-31783D01*
G01X608358Y-33267D01*
G01X607957Y-35388D01*
G01X607556Y-37508D01*
G01X607412Y-38357D01*
G01X607269Y-39205D01*
G01X606864Y-40095D01*
G01X606459Y-40984D01*
G01X606459Y-41500D01*
G01X605913Y-42433D01*
G01X605366Y-43365D01*
G01X605117Y-43283D01*
G01X604868Y-43201D01*
G01X604725Y-42217D01*
G01X604940Y-41771D01*
G01X605155Y-41326D01*
G01X605390Y-38887D01*
G01X605625Y-36448D01*
G01X605930Y-34009D01*
G01X606235Y-31571D01*
G01X606445Y-29344D01*
G01X606655Y-27117D01*
G01X606910Y-19754D01*
G01X607166Y-12392D01*
G01X606662Y-1669D01*
G01X606212Y7449D01*
G01X606009Y8086D01*
G01X605806Y8722D01*
G01X605695Y10736D01*
G01X605584Y12751D01*
G01X605007Y15508D01*
G01X604513Y21658D01*
G01X604311Y22506D01*
G01X604109Y23354D01*
G01X603806Y25475D01*
G01X603502Y27596D01*
G01X603198Y29716D01*
G01X602894Y31837D01*
G01X602568Y33533D01*
G01X602243Y35230D01*
G01X601986Y36820D01*
G01X601390Y36820D01*
G01X601402Y29027D01*
G01X601413Y21234D01*
G01X601149Y19431D01*
G01X600884Y17629D01*
G01X600827Y15614D01*
G01X600770Y13599D01*
G01X600629Y10948D01*
G01X600487Y8298D01*
G01X600281Y7661D01*
G01X600074Y7025D01*
G01X599453Y-609D01*
G01X599038Y-3366D01*
G01X598804Y-4532D01*
G01X598570Y-5699D01*
G01X598531Y-6653D01*
G01X598492Y-7607D01*
G01X598225Y-8456D01*
G01X597958Y-9304D01*
G01X597340Y-11424D01*
G01X596798Y-14075D01*
G01X596255Y-16726D01*
G01X595860Y-18211D01*
G01X595465Y-19695D01*
G01X595095Y-21391D01*
G01X594724Y-23088D01*
G01X594232Y-24997D01*
G01X593741Y-26905D01*
G01X593073Y-29450D01*
G01X592785Y-30510D01*
G01X592498Y-31571D01*
G01X592064Y-33055D01*
G01X591217Y-35494D01*
G01X590370Y-37933D01*
G01X589911Y-39099D01*
G01X589452Y-40265D01*
G01X588932Y-41644D01*
G01X588411Y-43022D01*
G01X588063Y-44083D01*
G01X587631Y-44931D01*
G01X587200Y-45779D01*
G01X586437Y-47392D01*
G01X585675Y-49005D01*
G01X585675Y-49502D01*
G01X584919Y-51034D01*
G01X584163Y-52565D01*
G01X583378Y-53413D01*
G01X582615Y-55027D01*
G01X581853Y-56641D01*
G01X580553Y-58189D01*
G01X579253Y-59737D01*
G01X579076Y-60499D01*
G01X578899Y-61260D01*
G01X578894Y-62493D01*
G01X578888Y-63726D01*
G01X578667Y-64140D01*
G01X578445Y-64554D01*
G01X578276Y-71638D01*
G01X578132Y-73023D01*
G01X577988Y-74408D01*
G01X577774Y-74817D01*
G01X577561Y-75225D01*
G01X577204Y-78410D01*
G01X576586Y-79028D01*
G01X576437Y-78231D01*
G01X576287Y-77435D01*
G01X576520Y-76345D01*
G01X576752Y-75256D01*
G01X577009Y-72923D01*
G01X577137Y-71969D01*
G01X577264Y-71015D01*
G01X577276Y-49808D01*
G01X577017Y-46627D01*
G01X576758Y-43446D01*
G01X576569Y-38569D01*
G01X576119Y-34540D01*
G01X575918Y-32525D01*
G01X575716Y-30510D01*
G01X575510Y-29132D01*
G01X575303Y-27753D01*
G01X575086Y-26212D01*
G01X574870Y-24670D01*
G01X574681Y-24303D01*
G01X574493Y-23936D01*
G01X574349Y-22558D01*
G01X574205Y-21179D01*
G01X574017Y-20119D01*
G01X573830Y-19059D01*
G01X573494Y-16832D01*
G01X573157Y-14605D01*
G01X572938Y-13969D01*
G01X572718Y-13333D01*
G01X572305Y-10080D01*
G01X571865Y-9086D01*
G01X571426Y-8092D01*
G01X570949Y-8569D01*
G01X570907Y-12542D01*
G01X570864Y-16514D01*
G01X570727Y-18953D01*
G01X570590Y-21391D01*
G01X570193Y-23696D01*
G01X570193Y-25668D01*
G01X569795Y-27966D01*
G01X569573Y-29450D01*
G01X569352Y-30934D01*
G01X569114Y-33161D01*
G01X568877Y-35388D01*
G01X568581Y-36916D01*
G01X568284Y-38445D01*
G01X568284Y-40692D01*
G01X568058Y-41433D01*
G01X567832Y-42174D01*
G01X567533Y-43658D01*
G01X567235Y-45143D01*
G01X566929Y-46415D01*
G01X566623Y-47688D01*
G01X565983Y-50869D01*
G01X565637Y-52565D01*
G01X565290Y-54262D01*
G01X564863Y-56170D01*
G01X564436Y-58079D01*
G01X564006Y-59457D01*
G01X563576Y-60836D01*
G01X562844Y-62956D01*
G01X562475Y-64017D01*
G01X562105Y-65077D01*
G01X561939Y-65726D01*
G01X561773Y-66374D01*
G01X561445Y-66892D01*
G01X561118Y-67410D01*
G01X560975Y-67940D01*
G01X560833Y-68470D01*
G01X560231Y-69742D01*
G01X559629Y-71015D01*
G01X559142Y-72075D01*
G01X558654Y-73135D01*
G01X557773Y-74090D01*
G01X556891Y-75044D01*
G01X556749Y-76741D01*
G01X556607Y-78437D01*
G01X556289Y-79922D01*
G01X555971Y-81406D01*
G01X555782Y-82148D01*
G01X555593Y-82890D01*
G01X555173Y-84081D01*
G01X554752Y-85271D01*
G01X554064Y-86602D01*
G01X553464Y-86602D01*
G01X553329Y-86384D01*
G01X553194Y-86166D01*
G01X553609Y-85270D01*
G01X554024Y-84375D01*
G01X554259Y-82339D01*
G01X554494Y-80303D01*
G01X554830Y-79501D01*
G01X555165Y-78699D01*
G01X555174Y-76871D01*
G01X555182Y-75044D01*
G01X555800Y-74343D01*
G01X555860Y-73315D01*
G01X555921Y-72287D01*
G01X556179Y-70379D01*
G01X556438Y-68470D01*
G01X556956Y-65607D01*
G01X557473Y-62744D01*
G01X557691Y-61154D01*
G01X557908Y-59563D01*
G01X558196Y-56992D01*
G01X558485Y-54422D01*
G01X558712Y-53997D01*
G01X558939Y-53573D01*
G01X559422Y-48960D01*
G01X559495Y-47325D01*
G01X559568Y-45690D01*
G01X559982Y-44083D01*
G01X560253Y-37721D01*
G01X560862Y-33147D01*
G01X560859Y-28223D01*
G01X560856Y-23300D01*
G01X560728Y-22823D01*
G01X560600Y-22346D01*
G01X560263Y-22346D01*
G01X560123Y-23247D01*
G01X559984Y-24148D01*
G01X559697Y-25103D01*
G01X559411Y-26057D01*
G01X559274Y-27072D01*
G01X559137Y-28088D01*
G01X558848Y-28778D01*
G01X558560Y-29468D01*
G01X558259Y-32124D01*
G01X557864Y-32899D01*
G01X557468Y-33675D01*
G01X557468Y-34439D01*
G01X557047Y-35961D01*
G01X556625Y-37482D01*
G01X556178Y-37929D01*
G01X555989Y-37623D01*
G01X555799Y-37316D01*
G01X556042Y-36024D01*
G01X556303Y-35706D01*
G01X556563Y-35388D01*
G01X556690Y-33958D01*
G01X556816Y-32527D01*
G01X557078Y-32049D01*
G01X557341Y-31571D01*
G01X557449Y-30086D01*
G01X557456Y-17680D01*
G01X557463Y-5275D01*
G01X557040Y9782D01*
G01X556832Y11585D01*
G01X556623Y13387D01*
G01X556571Y13811D01*
G01X556396Y12963D01*
G01X556221Y12115D01*
G01X555993Y5647D01*
G01X555765Y-821D01*
G01X555567Y-2836D01*
G01X555369Y-4850D01*
G01X555243Y-7077D01*
G01X555117Y-9304D01*
G01X554287Y-18211D01*
G01X554056Y-20331D01*
G01X553824Y-22452D01*
G01X553535Y-24891D01*
G01X553247Y-27329D01*
G01X553012Y-29026D01*
G01X552778Y-30722D01*
G01X552460Y-32737D01*
G01X552142Y-34752D01*
G01X551732Y-37508D01*
G01X551322Y-40265D01*
G01X550905Y-42280D01*
G01X550488Y-44295D01*
G01X548944Y-52141D01*
G01X548385Y-54898D01*
G01X547078Y-60199D01*
G01X547076Y-62799D01*
G01X546523Y-64044D01*
G01X545969Y-65289D01*
G01X543386Y-70474D01*
G01X543387Y-71168D01*
G01X543388Y-71863D01*
G01X546519Y-78013D01*
G01X548087Y-81194D01*
G01X549655Y-84375D01*
G01X549892Y-84799D01*
G01X550128Y-85223D01*
G01X551062Y-87132D01*
G01X551996Y-89040D01*
G01X553116Y-91373D01*
G01X554236Y-93706D01*
G01X555514Y-96357D01*
G01X556792Y-99007D01*
G01X557892Y-101340D01*
G01X558993Y-103673D01*
G01X560194Y-106218D01*
G01X561985Y-109929D01*
G01X563776Y-113640D01*
G01X564776Y-115761D01*
G01X565776Y-117881D01*
G01X566898Y-120214D01*
G01X568020Y-122547D01*
G01X569193Y-124985D01*
G01X570366Y-127424D01*
G01X573421Y-133786D01*
G01X574268Y-135589D01*
G01X575115Y-137391D01*
G01X576132Y-139512D01*
G01X577149Y-141633D01*
G01X578734Y-144920D01*
G01X580319Y-148207D01*
G01X581007Y-149691D01*
G01X581694Y-151176D01*
G01X582920Y-153720D01*
G01X584146Y-156265D01*
G01X585205Y-158492D01*
G01X586265Y-160718D01*
G01X587894Y-164112D01*
G01X589523Y-167505D01*
G01X590742Y-170049D01*
G01X591895Y-172488D01*
G01X593049Y-174927D01*
G01X593683Y-176305D01*
G01X594317Y-177684D01*
G01X595404Y-180154D01*
G01X596491Y-182624D01*
G01X599896Y-189810D01*
G01X603301Y-196770D01*
G01X603686Y-197406D01*
G01X604568Y-199208D01*
G01X605449Y-201011D01*
G01X607625Y-205464D01*
G01X609800Y-209918D01*
G01X610975Y-212462D01*
G01X612667Y-215962D01*
G01X614359Y-219461D01*
G01X615838Y-222536D01*
G01X617317Y-225611D01*
G01X618169Y-227413D01*
G01X619021Y-229216D01*
G01X619967Y-231230D01*
G01X620912Y-233245D01*
G01X621992Y-235472D01*
G01X623072Y-237698D01*
G01X624301Y-240243D01*
G01X625529Y-242788D01*
G01X626575Y-245015D01*
G01X627620Y-247241D01*
G01X631273Y-254757D01*
G01X633046Y-258628D01*
G01X634820Y-262298D01*
G01X635619Y-263994D01*
G01X636417Y-265691D01*
G01X637999Y-268978D01*
G01X639581Y-272265D01*
G01X640441Y-274067D01*
G01X641300Y-275870D01*
G01X642571Y-278521D01*
G01X643842Y-281172D01*
G01X646719Y-287003D01*
G01X640392Y-287003D01*
G01X640392Y-286591D01*
G01X639417Y-284518D01*
G01X638442Y-282444D01*
G01X636897Y-279263D01*
G01X635352Y-276082D01*
G01X634471Y-274174D01*
G01X633590Y-272265D01*
G01X633053Y-271205D01*
G01X632603Y-270356D01*
G01X632153Y-269508D01*
G01X631309Y-267705D01*
G01X630465Y-265903D01*
G01X627189Y-259117D01*
G01X626396Y-257420D01*
G01X625602Y-255724D01*
G01X624071Y-252543D01*
G01X622540Y-249362D01*
G01X621516Y-247241D01*
G01X620491Y-245121D01*
G01X618966Y-241940D01*
G01X617440Y-238759D01*
G01X616149Y-236002D01*
G01X613293Y-230064D01*
G01X612233Y-227837D01*
G01X611173Y-225611D01*
G01X609752Y-222642D01*
G01X608331Y-219673D01*
G01X607731Y-218400D01*
G01X607131Y-217128D01*
G01X605508Y-213629D01*
G01X603885Y-210130D01*
G01X603559Y-209387D01*
G01X603232Y-208645D01*
G01X602606Y-207373D01*
G01X601669Y-205278D01*
G01X600733Y-203183D01*
G01X600733Y-202414D01*
G01X600509Y-202276D01*
G01X600286Y-202138D01*
G01X599767Y-200965D01*
G01X599248Y-199792D01*
G01X599248Y-198996D01*
G01X599669Y-198996D01*
G01X599934Y-199420D01*
G01X600199Y-199845D01*
G01X600567Y-199845D01*
G01X600447Y-199155D01*
G01X600326Y-198466D01*
G01X600150Y-197405D01*
G01X599974Y-196344D01*
G01X599781Y-196032D01*
G01X599588Y-195720D01*
G01X599437Y-194606D01*
G01X599286Y-193492D01*
G01X598828Y-192910D01*
G01X598370Y-192328D01*
G01X598495Y-191662D01*
G01X598620Y-190997D01*
G01X598321Y-190748D01*
G01X598022Y-190500D01*
G01X597574Y-189459D01*
G01X597126Y-188417D01*
G01X596736Y-188176D01*
G01X596061Y-186143D01*
G01X594160Y-183197D01*
G01X593926Y-182494D01*
G01X593692Y-181790D01*
G01X593395Y-181911D01*
G01X593098Y-182031D01*
G01X592801Y-182152D01*
G01X592504Y-182272D01*
G01X592263Y-181541D01*
G01X592022Y-180810D01*
G01X591619Y-180445D01*
G01X591216Y-180081D01*
G01X590990Y-180220D01*
G01X590765Y-180360D01*
G01X590765Y-180971D01*
G01X590447Y-180959D01*
G01X589470Y-179592D01*
G01X588720Y-178426D01*
G01X587971Y-177260D01*
G01X585047Y-171322D01*
G01X582123Y-165384D01*
G01X581009Y-163051D01*
G01X579895Y-160718D01*
G01X578355Y-157538D01*
G01X576814Y-154357D01*
G01X573117Y-146722D01*
G01X572162Y-144708D01*
G01X571207Y-142693D01*
G01X569876Y-139936D01*
G01X568545Y-137179D01*
G01X567118Y-134210D01*
G01X565692Y-131241D01*
G01X564254Y-128272D01*
G01X562817Y-125304D01*
G01X561496Y-122547D01*
G01X560174Y-119790D01*
G01X558588Y-116397D01*
G01X556733Y-112591D01*
G01X554879Y-108785D01*
G01X551742Y-102243D01*
G01X547454Y-93282D01*
G01X546020Y-90207D01*
G01X544585Y-87132D01*
G01X543841Y-85541D01*
G01X543096Y-83951D01*
G01X542407Y-82466D01*
G01X541719Y-80982D01*
G01X541331Y-80084D01*
G01X540944Y-79186D01*
G01X540655Y-79297D01*
G01X540366Y-79407D01*
G01X539904Y-80359D01*
G01X539441Y-81311D01*
G01X539441Y-81879D01*
G01X539030Y-82402D01*
G01X538618Y-82926D01*
G01X534344Y-91345D01*
G01X534116Y-91573D01*
G01X533757Y-90991D01*
G01X534054Y-90148D01*
G01X534351Y-89305D01*
G01X534358Y-65713D01*
G01X533680Y-63634D01*
G01X533002Y-61554D01*
G01X533252Y-60863D01*
G01X533502Y-60173D01*
G01X533097Y-54474D01*
G01X532875Y-52632D01*
G01X532653Y-50789D01*
G01X533110Y-50015D01*
G01X533567Y-49240D01*
G01X533322Y-48178D01*
G01X533077Y-47116D01*
G01X532628Y-38789D01*
G01X532436Y-38597D01*
G01X532251Y-38795D01*
G01X532066Y-38993D01*
G01X531631Y-40371D01*
G01X531196Y-41750D01*
G01X530347Y-44604D01*
G01X530464Y-45321D01*
G01X530580Y-46038D01*
G01X530133Y-47049D01*
G01X529686Y-48060D01*
G01X529672Y-50444D01*
G01X529377Y-50834D01*
G01X529082Y-51223D01*
G01X529200Y-51953D01*
G01X529319Y-52683D01*
G01X528672Y-54003D01*
G01X528026Y-55322D01*
G01X527795Y-56043D01*
G01X527565Y-56764D01*
G01X527562Y-58715D01*
G01X527265Y-59285D01*
G01X526967Y-59855D01*
G01X526985Y-61300D01*
G01X527004Y-62744D01*
G01X526758Y-63486D01*
G01X526513Y-64229D01*
G01X526191Y-65946D01*
G01X525868Y-67664D01*
G01X525868Y-69118D01*
G01X525515Y-69622D01*
G01X525162Y-70126D01*
G01X525206Y-71207D01*
G01X525249Y-72288D01*
G01X524929Y-72712D01*
G01X524609Y-73135D01*
G01X524632Y-70909D01*
G01X524655Y-68682D01*
G01X524914Y-68152D01*
G01X525174Y-67622D01*
G01X525291Y-65713D01*
G01X525408Y-63805D01*
G01X525295Y-63221D01*
G01X525182Y-62638D01*
G01X524841Y-62638D01*
G01X524707Y-63327D01*
G01X524573Y-64017D01*
G01X524132Y-65501D01*
G01X523691Y-66986D01*
G01X523319Y-68258D01*
G01X522947Y-69530D01*
G01X522519Y-71121D01*
G01X522091Y-72711D01*
G01X521653Y-74408D01*
G01X521215Y-76104D01*
G01X520794Y-78119D01*
G01X520373Y-80134D01*
G01X520021Y-81936D01*
G01X519669Y-83739D01*
G01X519376Y-86602D01*
G01X519082Y-89465D01*
G01X518832Y-97099D01*
G01X519301Y-106218D01*
G01X519470Y-107811D01*
G01X519640Y-109404D01*
G01X520107Y-110238D01*
G01X520368Y-109666D01*
G01X520628Y-109094D01*
G01X520993Y-109319D01*
G01X520893Y-110631D01*
G01X520792Y-111943D01*
G01X520623Y-113685D01*
G01X520455Y-115427D01*
G01X520210Y-115671D01*
G01X519966Y-115915D01*
G01X519396Y-114990D01*
G01X518826Y-114064D01*
G01X517981Y-112811D01*
G01X517136Y-111558D01*
G01X516749Y-111009D01*
G01X516362Y-110459D01*
G01X515043Y-108444D01*
G01X513724Y-106430D01*
G01X512442Y-103885D01*
G01X512075Y-103355D01*
G01X511707Y-102825D01*
G01X511025Y-101022D01*
G01X510342Y-99220D01*
G01X510064Y-98477D01*
G01X509785Y-97735D01*
G01X508922Y-94766D01*
G01X508609Y-93706D01*
G01X508297Y-92645D01*
G01X507870Y-90949D01*
G01X507444Y-89252D01*
G01X506960Y-85659D01*
G01X506729Y-85286D01*
G01X506559Y-82992D01*
G01X506390Y-80697D01*
G01X506167Y-80281D01*
G01X505944Y-79864D01*
G01X504872Y-79595D01*
G01X504872Y-79179D01*
G01X505458Y-79179D01*
G01X507138Y-78326D01*
G01X508819Y-77474D01*
G01X510327Y-75910D01*
G01X511835Y-74347D01*
G01X514522Y-72141D01*
G01X516577Y-69954D01*
G01X517875Y-68326D01*
G01X519025Y-64201D01*
G01X519265Y-63752D01*
G01X519506Y-63302D01*
G01X519503Y-62917D01*
G01X519500Y-62532D01*
G01X519918Y-61154D01*
G01X520336Y-59775D01*
G01X521216Y-55908D01*
G01X521331Y-54767D01*
G01X521447Y-53625D01*
G01X522941Y-46627D01*
G01X523132Y-46259D01*
G01X523323Y-45891D01*
G01X523323Y-45428D01*
G01X522671Y-46081D01*
G01X522018Y-46733D01*
G01X521448Y-46733D01*
G01X520433Y-47953D01*
G01X519419Y-49172D01*
G01X518417Y-49959D01*
G01X517415Y-50746D01*
G01X517244Y-50232D01*
G01X518082Y-48338D01*
G01X518740Y-47270D01*
G01X519397Y-46203D01*
G01X519717Y-45618D01*
G01X520036Y-45032D01*
G01X521467Y-42295D01*
G01X522899Y-39557D01*
G01X522899Y-39090D01*
G01X524198Y-36284D01*
G01X525498Y-33479D01*
G01X525995Y-32419D01*
G01X526491Y-31359D01*
G01X526804Y-30192D01*
G01X527116Y-29026D01*
G01X527754Y-27491D01*
G01X528393Y-25957D01*
G01X528540Y-25159D01*
G01X528687Y-24360D01*
G01X529080Y-23621D01*
G01X529474Y-22882D01*
G01X529474Y-22325D01*
G01X529793Y-21708D01*
G01X530112Y-21091D01*
G01X530438Y-18803D01*
G01X530764Y-16514D01*
G01X531056Y-14393D01*
G01X531349Y-12273D01*
G01X531814Y-9346D01*
G01X531692Y-8583D01*
G01X531570Y-7819D01*
G01X531239Y-6379D01*
G01X530908Y-4938D01*
G01X530440Y-5094D01*
G01X530152Y-6123D01*
G01X530131Y-6883D01*
G01X530110Y-7643D01*
G01X529873Y-7879D01*
G01X528586Y-7395D01*
G01X528064Y-8031D01*
G01X527542Y-8668D01*
G01X527076Y-9492D01*
G01X526610Y-10316D01*
G01X526386Y-10696D01*
G01X526162Y-11076D01*
G01X525269Y-12045D01*
G01X524375Y-13015D01*
G01X523734Y-13015D01*
G01X523621Y-12720D01*
G01X523508Y-12426D01*
G01X524511Y-10865D01*
G01X525514Y-9304D01*
G01X525803Y-8349D01*
G01X526092Y-7395D01*
G01X525872Y-6441D01*
G01X525653Y-5487D01*
G01X525472Y345D01*
G01X525291Y6177D01*
G01X524932Y7194D01*
G01X524572Y8211D01*
G01X524001Y9018D01*
G01X523429Y9825D01*
G01X522702Y10864D01*
G01X522201Y11579D01*
G01X530746Y11579D01*
G01X530747Y10786D01*
G01X530748Y9994D01*
G01X531330Y9117D01*
G01X531912Y8240D01*
G01X531912Y8240D01*
G01X532510Y7643D01*
G01X533107Y7045D01*
G01X533285Y7333D01*
G01X533462Y7620D01*
G01X533736Y13811D01*
G01X533926Y16038D01*
G01X534116Y18265D01*
G01X534251Y23937D01*
G01X534418Y29610D01*
G01X534164Y29610D01*
G01X533976Y29292D01*
G01X533665Y27384D01*
G01X533372Y26811D01*
G01X533079Y26238D01*
G01X533079Y24627D01*
G01X532764Y23142D01*
G01X532450Y21658D01*
G01X532446Y20582D01*
G01X532443Y19507D01*
G01X532107Y18522D01*
G01X531772Y17538D01*
G01X532107Y16384D01*
G01X532443Y15231D01*
G01X532443Y14795D01*
G01X531982Y14727D01*
G01X531522Y14660D01*
G01X531229Y13599D01*
G01X530988Y12589D01*
G01X530746Y11579D01*
G01X522201Y11579D01*
G01X521974Y11903D01*
G01X521681Y12080D01*
G01X521389Y12256D01*
G01X520366Y13165D01*
G01X519343Y14073D01*
G01X518629Y14196D01*
G01X517915Y14318D01*
G01X515101Y14598D01*
G01X514204Y14313D01*
G01X514204Y13727D01*
G01X514943Y13163D01*
G01X515682Y12600D01*
G01X516427Y11109D01*
G01X517173Y9619D01*
G01X517173Y5248D01*
G01X516932Y5099D01*
G01X516692Y4951D01*
G01X515252Y4676D01*
G01X513812Y4402D01*
G01X512189Y3323D01*
G01X511483Y2282D01*
G01X510776Y1241D01*
G01X510664Y406D01*
G01X510552Y-430D01*
G01X510998Y-1302D01*
G01X511443Y-2175D01*
G01X512134Y-2684D01*
G01X512825Y-3192D01*
G01X513567Y-3474D01*
G01X514310Y-3755D01*
G01X514587Y-3968D01*
G01X514865Y-4181D01*
G01X514734Y-5046D01*
G01X514602Y-5911D01*
G01X513953Y-8243D01*
G01X512249Y-13545D01*
G01X511870Y-14605D01*
G01X511491Y-15666D01*
G01X510929Y-17574D01*
G01X510366Y-19483D01*
G01X510080Y-20119D01*
G01X509794Y-20755D01*
G01X509120Y-22688D01*
G01X508446Y-24621D01*
G01X507598Y-24901D01*
G01X506750Y-25181D01*
G01X506145Y-26045D01*
G01X506145Y-26375D01*
G01X506908Y-26375D01*
G01X507168Y-26115D01*
G01X507428Y-25855D01*
G01X507861Y-26126D01*
G01X508294Y-26397D01*
G01X510169Y-26116D01*
G01X510306Y-26472D01*
G01X510443Y-26828D01*
G01X510212Y-27058D01*
G01X509982Y-27288D01*
G01X510399Y-28067D01*
G01X510073Y-28565D01*
G01X509747Y-29062D01*
G01X507841Y-30431D01*
G01X507841Y-30777D01*
G01X508796Y-31453D01*
G01X508416Y-31754D01*
G01X508036Y-32054D01*
G01X506898Y-32196D01*
G01X505760Y-32338D01*
G01X502288Y-31863D01*
G01X500737Y-31205D01*
G01X498828Y-30301D01*
G01X497343Y-29043D01*
G01X495859Y-27785D01*
G01X494586Y-26504D01*
G01X493314Y-25224D01*
G01X492951Y-25330D01*
G01X492655Y-25084D01*
G01X492359Y-24839D01*
G01X492359Y-24466D01*
G01X492971Y-24466D01*
G01X493227Y-24051D01*
G01X492991Y-23609D01*
G01X492754Y-23167D01*
G01X491539Y-23434D01*
G01X491334Y-22691D01*
G01X491128Y-21949D01*
G01X490475Y-21136D01*
G01X489822Y-20323D01*
G01X489587Y-19161D01*
G01X489352Y-17998D01*
G01X489127Y-16408D01*
G01X488902Y-14817D01*
G01X488920Y-13492D01*
G01X488938Y-12167D01*
G01X488321Y-12167D01*
G01X488085Y-11649D01*
G01X487849Y-11130D01*
G01X488407Y-10062D01*
G01X488966Y-8993D01*
G01X488966Y-7767D01*
G01X489300Y-6839D01*
G01X489633Y-5911D01*
G01X489810Y-4956D01*
G01X489986Y-4002D01*
G01X491115Y-1033D01*
G01X491539Y304D01*
G01X491962Y1642D01*
G01X491879Y1893D01*
G01X491795Y2145D01*
G01X490877Y1245D01*
G01X489959Y345D01*
G01X489597Y345D01*
G01X488762Y866D01*
G01X488063Y125D01*
G01X487364Y-616D01*
G01X487278Y-4218D01*
G01X487192Y-7819D01*
G01X487208Y-8880D01*
G01X487224Y-9940D01*
G01X487261Y-12803D01*
G01X487299Y-15666D01*
G01X487125Y-20755D01*
G01X486951Y-25845D01*
G01X486103Y-25845D01*
G01X485846Y-24997D01*
G01X485588Y-24148D01*
G01X484729Y-20967D01*
G01X483870Y-17786D01*
G01X483560Y-16832D01*
G01X483251Y-15878D01*
G01X483047Y-15030D01*
G01X482843Y-14181D01*
G01X481182Y-7592D01*
G01X480939Y-7136D01*
G01X480695Y-6681D01*
G01X480695Y-5448D01*
G01X480360Y-4407D01*
G01X480025Y-3366D01*
G01X479740Y-2200D01*
G01X479455Y-1033D01*
G01X479116Y-79D01*
G01X478776Y875D01*
G01X478427Y1678D01*
G01X478079Y2481D01*
G01X477764Y1972D01*
G01X477880Y787D01*
G01X477996Y-397D01*
G01X478435Y-1245D01*
G01X478833Y-3260D01*
G01X479230Y-5275D01*
G01X479847Y-8456D01*
G01X479975Y-8774D01*
G01X480104Y-9092D01*
G01X480489Y-11849D01*
G01X480615Y-12644D01*
G01X480741Y-13439D01*
G01X480287Y-13439D01*
G01X480061Y-12538D01*
G01X479836Y-11636D01*
G01X478976Y-9092D01*
G01X478403Y-6875D01*
G01X477726Y-6199D01*
G01X477726Y-5799D01*
G01X477966Y-5414D01*
G01X478206Y-5029D01*
G01X476873Y-2235D01*
G01X476150Y-150D01*
G01X475428Y1936D01*
G01X475288Y2825D01*
G01X475148Y3714D01*
G01X474859Y3953D01*
G01X474735Y4056D01*
G01X487235Y4056D01*
G01X487532Y3226D01*
G01X487830Y2395D01*
G01X488416Y3163D01*
G01X489001Y3930D01*
G01X489117Y4981D01*
G01X490298Y6321D01*
G01X491479Y7661D01*
G01X493033Y9158D01*
G01X494586Y10656D01*
G01X496272Y12523D01*
G01X497958Y14390D01*
G01X499076Y15216D01*
G01X500194Y16042D01*
G01X500669Y16931D01*
G01X500534Y17651D01*
G01X500399Y18371D01*
G01X499917Y18371D01*
G01X496792Y15190D01*
G01X493667Y12009D01*
G01X492784Y12009D01*
G01X492785Y12274D01*
G01X492786Y12539D01*
G01X493738Y14088D01*
G01X495116Y15641D01*
G01X496495Y17193D01*
G01X497813Y18528D01*
G01X497886Y18602D01*
G01X502963Y18602D01*
G01X502963Y17735D01*
G01X503372Y17735D01*
G01X505447Y18710D01*
G01X507428Y19641D01*
G01X523721Y19641D01*
G01X524529Y18643D01*
G01X525338Y17646D01*
G01X526080Y16886D01*
G01X526080Y16492D01*
G01X526080Y16492D01*
G01X526414Y16159D01*
G01X526747Y15826D01*
G01X527299Y15826D01*
G01X527411Y16939D01*
G01X527523Y18053D01*
G01X526974Y18636D01*
G01X526425Y19219D01*
G01X526094Y19220D01*
G01X525762Y19222D01*
G01X524490Y20064D01*
G01X523984Y20067D01*
G01X523721Y19641D01*
G01X507428Y19641D01*
G01X507523Y19686D01*
G01X507947Y19883D01*
G01X508371Y20080D01*
G01X509538Y20413D01*
G01X510704Y20746D01*
G01X512931Y21356D01*
G01X515158Y21965D01*
G01X516134Y21971D01*
G01X517110Y21976D01*
G01X517831Y22460D01*
G01X518551Y22944D01*
G01X518601Y23533D01*
G01X522475Y23533D01*
G01X522475Y22664D01*
G01X522740Y22450D01*
G01X523005Y22235D01*
G01X526186Y21307D01*
G01X526539Y21197D01*
G01X526539Y21197D01*
G01X526892Y21088D01*
G01X527122Y21516D01*
G01X527351Y21945D01*
G01X527238Y22240D01*
G01X527125Y22534D01*
G01X525538Y23140D01*
G01X523951Y23746D01*
G01X523717Y24027D01*
G01X523483Y24309D01*
G01X523177Y24309D01*
G01X522826Y23921D01*
G01X522475Y23533D01*
G01X518601Y23533D01*
G01X518617Y23732D01*
G01X518683Y24521D01*
G01X517769Y24521D01*
G01X516453Y25427D01*
G01X516252Y25583D01*
G01X516260Y25591D01*
G01X522839Y25591D01*
G01X523107Y25268D01*
G01X523375Y24945D01*
G01X524306Y24945D01*
G01X524306Y24945D01*
G01X525550Y24309D01*
G01X526794Y23672D01*
G01X527307Y23672D01*
G01X527505Y24203D01*
G01X527118Y33745D01*
G01X526922Y34223D01*
G01X526726Y34700D01*
G01X526244Y34663D01*
G01X525762Y34626D01*
G01X524877Y34545D01*
G01X523992Y34465D01*
G01X523711Y34126D01*
G01X523429Y33787D01*
G01X523277Y31858D01*
G01X523125Y29928D01*
G01X522982Y27760D01*
G01X522839Y25591D01*
G01X516260Y25591D01*
G01X516685Y26059D01*
G01X517118Y26535D01*
G01X517256Y27449D01*
G01X517394Y28362D01*
G01X516965Y29331D01*
G01X516537Y30300D01*
G01X516537Y32367D01*
G01X517163Y32367D01*
G01X517843Y31330D01*
G01X517786Y30409D01*
G01X517729Y29487D01*
G01X517890Y29227D01*
G01X518050Y28967D01*
G01X518445Y29211D01*
G01X518445Y32978D01*
G01X518127Y33163D01*
G01X516325Y32981D01*
G01X514522Y32799D01*
G01X513249Y32661D01*
G01X511977Y32522D01*
G01X511140Y31943D01*
G01X509962Y31943D01*
G01X509962Y32359D01*
G01X510545Y32498D01*
G01X511129Y32637D01*
G01X511659Y32905D01*
G01X512189Y33173D01*
G01X513632Y33880D01*
G01X515076Y34587D01*
G01X515415Y34961D01*
G01X515754Y35336D01*
G01X516288Y35336D01*
G01X517053Y36078D01*
G01X517817Y36821D01*
G01X517694Y37404D01*
G01X517570Y37987D01*
G01X517474Y38464D01*
G01X517377Y38941D01*
G01X517064Y38941D01*
G01X516785Y38310D01*
G01X516505Y37679D01*
G01X516768Y37253D01*
G01X516539Y36825D01*
G01X516310Y36396D01*
G01X515738Y36396D01*
G01X515623Y36836D01*
G01X515508Y37276D01*
G01X515905Y37674D01*
G01X516303Y38071D01*
G01X515890Y38202D01*
G01X515476Y38333D01*
G01X515476Y39764D01*
G01X515052Y40026D01*
G01X515052Y41886D01*
G01X514231Y43288D01*
G01X514093Y44667D01*
G01X513955Y46045D01*
G01X513549Y47266D01*
G01X513143Y48486D01*
G01X513143Y49360D01*
G01X512920Y49777D01*
G01X512697Y50194D01*
G01X512402Y51871D01*
G01X512107Y53547D01*
G01X511447Y54825D01*
G01X511447Y55908D01*
G01X510598Y57491D01*
G01X510598Y58465D01*
G01X510496Y58710D01*
G01X512684Y58710D01*
G01X512751Y56705D01*
G01X512819Y54700D01*
G01X513567Y54895D01*
G01X513567Y54394D01*
G01X513353Y53992D01*
G01X513138Y53591D01*
G01X513361Y52575D01*
G01X513584Y51559D01*
G01X513930Y51297D01*
G01X514276Y51035D01*
G01X514251Y49947D01*
G01X514227Y48859D01*
G01X514227Y48859D01*
G01X514092Y48247D01*
G01X513958Y47636D01*
G01X514405Y47636D01*
G01X514728Y48261D01*
G01X515052Y48887D01*
G01X515051Y49905D01*
G01X515049Y50923D01*
G01X514628Y51559D01*
G01X514207Y52195D01*
G01X514205Y53071D01*
G01X514204Y53946D01*
G01X513886Y54707D01*
G01X513567Y55469D01*
G01X513546Y56483D01*
G01X513525Y57497D01*
G01X513381Y58011D01*
G01X513238Y58526D01*
G01X512684Y58710D01*
G01X510496Y58710D01*
G01X510241Y59320D01*
G01X523513Y59320D01*
G01X523978Y57596D01*
G01X523599Y56224D01*
G01X523673Y47212D01*
G01X523673Y47212D01*
G01X523748Y38199D01*
G01X523747Y36973D01*
G01X526044Y37210D01*
G01X526929Y37684D01*
G01X526922Y38683D01*
G01X526915Y39683D01*
G01X526713Y41168D01*
G01X526511Y42652D01*
G01X526289Y44773D01*
G01X526068Y46894D01*
G01X525432Y51135D01*
G01X525233Y52725D01*
G01X525034Y54316D01*
G01X524820Y55906D01*
G01X524605Y57497D01*
G01X524186Y59794D01*
G01X523789Y60190D01*
G01X523513Y59320D01*
G01X510241Y59320D01*
G01X509962Y59987D01*
G01X509932Y61102D01*
G01X509773Y61509D01*
G01X509613Y61917D01*
G01X509257Y61028D01*
G01X508902Y60139D01*
G01X508889Y56909D01*
G01X508876Y53680D01*
G01X508697Y50075D01*
G01X508517Y46469D01*
G01X508265Y43182D01*
G01X508013Y39895D01*
G01X507609Y38548D01*
G01X507205Y37200D01*
G01X507205Y34329D01*
G01X506872Y33401D01*
G01X506540Y32473D01*
G01X506482Y31519D01*
G01X506424Y30565D01*
G01X506082Y29799D01*
G01X505740Y29034D01*
G01X505512Y27199D01*
G01X505284Y25363D01*
G01X505082Y24833D01*
G01X504880Y24303D01*
G01X504683Y23079D01*
G01X504486Y21855D01*
G01X503725Y20229D01*
G01X503725Y20229D01*
G01X502963Y18602D01*
G01X497886Y18602D01*
G01X499131Y19864D01*
G01X499697Y20606D01*
G01X500263Y21348D01*
G01X500121Y22351D01*
G01X499979Y23354D01*
G01X499660Y25899D01*
G01X499342Y28444D01*
G01X498913Y29889D01*
G01X498484Y31333D01*
G01X497980Y31160D01*
G01X497966Y29908D01*
G01X497953Y28656D01*
G01X497913Y27401D01*
G01X497873Y26146D01*
G01X497567Y26453D01*
G01X497525Y29828D01*
G01X497483Y33204D01*
G01X498386Y33109D01*
G01X498467Y33496D01*
G01X498547Y33883D01*
G01X497786Y34724D01*
G01X497700Y36143D01*
G01X497614Y37563D01*
G01X497286Y37935D01*
G01X496958Y38307D01*
G01X497241Y39166D01*
G01X497525Y40024D01*
G01X497168Y41020D01*
G01X496811Y42016D01*
G01X496809Y43076D01*
G01X496807Y44137D01*
G01X496107Y46045D01*
G01X496045Y48376D01*
G01X495983Y50707D01*
G01X495775Y51663D01*
G01X495567Y52619D01*
G01X495303Y53892D01*
G01X495098Y55694D01*
G01X494892Y57497D01*
G01X494685Y62226D01*
G01X494477Y66956D01*
G01X493673Y68524D01*
G01X492784Y69543D01*
G01X492746Y70645D01*
G01X492696Y72129D01*
G01X492646Y73614D01*
G01X492380Y74108D01*
G01X492114Y74603D01*
G01X492480Y74870D01*
G01X492846Y75138D01*
G01X492765Y76967D01*
G01X508835Y76967D01*
G01X509008Y74654D01*
G01X509181Y72341D01*
G01X509275Y68736D01*
G01X509405Y66828D01*
G01X509535Y64919D01*
G01X509711Y64283D01*
G01X509887Y63647D01*
G01X509887Y63647D01*
G01X510492Y63647D01*
G01X510556Y65122D01*
G01X510620Y66598D01*
G01X510841Y66865D01*
G01X511062Y67131D01*
G01X510918Y67988D01*
G01X510773Y68844D01*
G01X510386Y68605D01*
G01X510365Y68883D01*
G01X510344Y69160D01*
G01X510174Y68630D01*
G01X510004Y68100D01*
G01X509983Y68671D01*
G01X509962Y69241D01*
G01X510386Y69504D01*
G01X510386Y69054D01*
G01X510810Y69054D01*
G01X510810Y69837D01*
G01X509993Y70577D01*
G01X510006Y72095D01*
G01X510019Y73614D01*
G01X509672Y74435D01*
G01X509326Y75256D01*
G01X509326Y76664D01*
G01X509080Y76815D01*
G01X508835Y76967D01*
G01X492765Y76967D01*
G01X492738Y77583D01*
G01X492630Y80028D01*
G01X492445Y80320D01*
G01X492260Y80612D01*
G01X492212Y82096D01*
G01X492163Y83581D01*
G01X491940Y87716D01*
G01X491718Y91851D01*
G01X491532Y93931D01*
G01X491347Y96010D01*
G01X491129Y96227D01*
G01X490989Y96000D01*
G01X490848Y95773D01*
G01X490890Y89309D01*
G01X490932Y82845D01*
G01X490362Y82158D01*
G01X490194Y80961D01*
G01X490025Y79764D01*
G01X489822Y73720D01*
G01X489618Y67676D01*
G01X489402Y65767D01*
G01X489186Y63859D01*
G01X489069Y57391D01*
G01X488952Y50923D01*
G01X488555Y47530D01*
G01X488332Y42546D01*
G01X488109Y37563D01*
G01X488100Y32367D01*
G01X488090Y27171D01*
G01X487781Y24768D01*
G01X487471Y22365D01*
G01X487523Y20527D01*
G01X487576Y18689D01*
G01X487235Y4056D01*
G01X487235Y4056D01*
G01X474735Y4056D01*
G01X474571Y4192D01*
G01X474421Y5397D01*
G01X474271Y6601D01*
G01X473995Y7025D01*
G01X473718Y7449D01*
G01X473572Y8934D01*
G01X473427Y10418D01*
G01X472987Y11267D01*
G01X472713Y12539D01*
G01X472439Y13811D01*
G01X472431Y14493D01*
G01X472424Y15175D01*
G01X472089Y16161D01*
G01X471754Y17147D01*
G01X471556Y18236D01*
G01X471358Y19325D01*
G01X471137Y20810D01*
G01X470916Y22294D01*
G01X470626Y24203D01*
G01X470336Y26111D01*
G01X470102Y27703D01*
G01X469869Y29294D01*
G01X470001Y29957D01*
G01X470134Y30619D01*
G01X469900Y30763D01*
G01X469667Y30908D01*
G01X469667Y32554D01*
G01X469889Y32692D01*
G01X470111Y32829D01*
G01X469911Y33075D01*
G01X469710Y33321D01*
G01X469557Y35389D01*
G01X469404Y37457D01*
G01X469879Y37457D01*
G01X469879Y38576D01*
G01X469316Y37751D01*
G01X468753Y36926D01*
G01X468577Y35124D01*
G01X468401Y33321D01*
G01X468198Y30777D01*
G01X467995Y28232D01*
G01X467751Y20173D01*
G01X467535Y11691D01*
G01X467089Y8934D01*
G01X467101Y-3578D01*
G01X467339Y-5593D01*
G01X467576Y-7607D01*
G01X467652Y-8869D01*
G01X467294Y-8940D01*
G01X466936Y-9012D01*
G01X465968Y-7570D01*
G01X465001Y-6127D01*
G01X465001Y-5651D01*
G01X464365Y-4850D01*
G01X463728Y-4050D01*
G01X463728Y-3398D01*
G01X462194Y-397D01*
G01X461692Y451D01*
G01X461190Y1299D01*
G01X460776Y2186D01*
G01X460363Y3072D01*
G01X459939Y3299D01*
G01X459529Y3526D01*
G01X459275Y3526D01*
G01X459275Y2306D01*
G01X459911Y1778D01*
G01X459911Y98D01*
G01X459646Y185D01*
G01X459381Y272D01*
G01X459244Y1913D01*
G01X458518Y2996D01*
G01X458154Y3798D01*
G01X457790Y4601D01*
G01X457790Y5223D01*
G01X458244Y5223D01*
G01X458176Y5683D01*
G01X458108Y6144D01*
G01X457578Y6318D01*
G01X457578Y5622D01*
G01X457108Y5912D01*
G01X457237Y6717D01*
G01X457366Y7522D01*
G01X457237Y7857D01*
G01X457108Y8192D01*
G01X456539Y8192D01*
G01X456394Y9469D01*
G01X456250Y10746D01*
G01X455881Y10973D01*
G01X455881Y10499D01*
G01X455457Y10761D01*
G01X455454Y11332D01*
G01X455451Y11903D01*
G01X455324Y12378D01*
G01X455197Y12852D01*
G01X454870Y12650D01*
G01X454604Y13292D01*
G01X454338Y13934D01*
G01X454712Y14207D01*
G01X455085Y14480D01*
G01X454939Y14941D01*
G01X454792Y15402D01*
G01X454357Y15402D01*
G01X454135Y14554D01*
G01X453761Y14554D01*
G01X453761Y16732D01*
G01X453230Y17223D01*
G01X452700Y17714D01*
G01X452700Y19194D01*
G01X453124Y19456D01*
G01X453124Y19866D01*
G01X452606Y20063D01*
G01X452087Y20260D01*
G01X451958Y21065D01*
G01X451828Y21870D01*
G01X451514Y22583D01*
G01X451199Y23297D01*
G01X450898Y24589D01*
G01X450596Y25881D01*
G01X450791Y26076D01*
G01X450791Y25594D01*
G01X451428Y25838D01*
G01X451428Y27867D01*
G01X451019Y28367D01*
G01X450611Y28868D01*
G01X450465Y28494D01*
G01X450320Y28120D01*
G01X450570Y27819D01*
G01X450820Y27517D01*
G01X450667Y26111D01*
G01X450230Y27065D01*
G01X449793Y28020D01*
G01X449646Y29008D01*
G01X449499Y29997D01*
G01X449210Y30108D01*
G01X448921Y30218D01*
G01X448907Y31744D01*
G01X448893Y33269D01*
G01X448083Y34642D01*
G01X447934Y35923D01*
G01X447785Y37203D01*
G01X448157Y37411D01*
G01X448528Y37618D01*
G01X447592Y38070D01*
G01X446656Y38523D01*
G01X446093Y38880D01*
G01X445531Y39238D01*
G01X444715Y39037D01*
G01X443899Y38835D01*
G01X443776Y34829D01*
G01X444012Y34258D01*
G01X444248Y33688D01*
G01X445558Y33010D01*
G01X446868Y32333D01*
G01X447133Y31992D01*
G01X447398Y31650D01*
G01X447398Y31299D01*
G01X446815Y31431D01*
G01X446232Y31564D01*
G01X445404Y31979D01*
G01X444577Y32394D01*
G01X444244Y32061D01*
G01X443912Y31729D01*
G01X443940Y28920D01*
G01X443967Y26111D01*
G01X443998Y24733D01*
G01X444028Y23354D01*
G01X444858Y15142D01*
G01X445066Y14805D01*
G01X445254Y13566D01*
G01X445443Y12327D01*
G01X445663Y11691D01*
G01X445882Y11054D01*
G01X446413Y8722D01*
G01X446944Y6389D01*
G01X447086Y4268D01*
G01X447228Y2148D01*
G01X447606Y345D01*
G01X447984Y-1457D01*
G01X448307Y-2518D01*
G01X448630Y-3578D01*
G01X448896Y-4799D01*
G01X449163Y-6019D01*
G01X448912Y-6271D01*
G01X448407Y-5890D01*
G01X447903Y-5510D01*
G01X447302Y-4226D01*
G01X446701Y-2942D01*
G01X445764Y-1351D01*
G01X444826Y239D01*
G01X444633Y557D01*
G01X444440Y875D01*
G01X443503Y2890D01*
G01X442567Y4905D01*
G01X442296Y5541D01*
G01X442025Y6177D01*
G01X441223Y8298D01*
G01X440938Y9464D01*
G01X440652Y10630D01*
G01X440220Y11903D01*
G01X439777Y13281D01*
G01X439335Y14660D01*
G01X439326Y15720D01*
G01X439014Y16132D01*
G01X438703Y16543D01*
G01X438703Y18276D01*
G01X438043Y19219D01*
G01X437458Y19219D01*
G01X435907Y20481D01*
G01X434355Y21743D01*
G01X433768Y22231D01*
G01X433180Y22718D01*
G01X431223Y24399D01*
G01X429265Y26081D01*
G01X428523Y26785D01*
G01X427781Y27489D01*
G01X427409Y27610D01*
G01X427038Y27730D01*
G01X427038Y28117D01*
G01X425236Y29037D01*
G01X424056Y28793D01*
G01X422877Y28550D01*
G01X421264Y28550D01*
G01X421490Y27384D01*
G01X421923Y26111D01*
G01X422357Y24839D01*
G01X422789Y22975D01*
G01X423221Y21112D01*
G01X423221Y20734D01*
G01X422554Y20067D01*
G01X421205Y20067D01*
G01X419783Y19661D01*
G01X418362Y19254D01*
G01X417552Y18760D01*
G01X416743Y18265D01*
G01X415766Y17204D01*
G01X414789Y16144D01*
G01X413889Y14454D01*
G01X413889Y12377D01*
G01X414317Y11685D01*
G01X414745Y10992D01*
G01X415325Y10609D01*
G01X415904Y10226D01*
G01X419722Y10060D01*
G01X420570Y10369D01*
G01X421418Y10679D01*
G01X422054Y10944D01*
G01X422344Y10759D01*
G01X422634Y10575D01*
G01X422304Y7952D01*
G01X421974Y5329D01*
G01X421855Y3738D01*
G01X421736Y2148D01*
G01X421428Y557D01*
G01X421121Y-1033D01*
G01X420803Y-2836D01*
G01X420485Y-4638D01*
G01X420344Y-5699D01*
G01X420204Y-6759D01*
G01X419786Y-8349D01*
G01X419368Y-9940D01*
G01X418491Y-12399D01*
G01X418731Y-12639D01*
G01X418971Y-12879D01*
G01X421048Y-12784D01*
G01X421299Y-13439D01*
G01X422533Y-13439D01*
G01X422779Y-13736D01*
G01X423026Y-14033D01*
G01X422328Y-14777D01*
G01X421630Y-15520D01*
G01X420963Y-15658D01*
G01X420296Y-15796D01*
G01X419923Y-16208D01*
G01X419550Y-16620D01*
G01X419113Y-16620D01*
G01X418619Y-17084D01*
G01X418125Y-17548D01*
G01X415636Y-17926D01*
G01X413147Y-18304D01*
G01X411344Y-18513D01*
G01X409542Y-18721D01*
G01X402331Y-19176D01*
G01X400621Y-18989D01*
G01X398910Y-18802D01*
G01X397787Y-18029D01*
G01X396663Y-17256D01*
G01X395957Y-17256D01*
G01X395480Y-16922D01*
G01X395003Y-16588D01*
G01X395053Y-15843D01*
G01X395103Y-15099D01*
G01X394581Y-14683D01*
G01X394060Y-14268D01*
G01X393530Y-13913D01*
G01X392999Y-13557D01*
G01X391968Y-12703D01*
G01X390937Y-11849D01*
G01X389847Y-10477D01*
G01X388758Y-9105D01*
G01X384158Y-4638D01*
G01X383470Y-4248D01*
G01X382625Y-3436D01*
G01X381780Y-2624D01*
G01X381456Y-2624D01*
G01X380759Y-2020D01*
G01X380062Y-1415D01*
G01X379241Y-1286D01*
G01X378419Y-1157D01*
G01X378074Y-874D01*
G01X377729Y-591D01*
G01X376898Y-308D01*
G01X376066Y-25D01*
G01X375792Y-400D01*
G01X375518Y-775D01*
G01X375375Y-1204D01*
G01X374225Y-55D01*
G01X373660Y1258D01*
G01X373094Y2572D01*
G01X373053Y3950D01*
G01X373013Y5329D01*
G01X372985Y5594D01*
G01X372958Y5859D01*
G01X372595Y5859D01*
G01X371695Y4656D01*
G01X370796Y3454D01*
G01X370688Y3172D01*
G01X370579Y2890D01*
G01X370201Y2890D01*
G01X370201Y3869D01*
G01X369896Y4281D01*
G01X369592Y4693D01*
G01X369272Y3933D01*
G01X368953Y3174D01*
G01X368600Y2882D01*
G01X368247Y2589D01*
G01X367739Y1441D01*
G01X367231Y292D01*
G01X367216Y-185D01*
G01X366190Y-1441D01*
G01X365885Y-1136D01*
G01X365969Y2116D01*
G01X366307Y3298D01*
G01X366646Y4480D01*
G01X366932Y5011D01*
G01X367218Y5541D01*
G01X367859Y7025D01*
G01X368809Y8510D01*
G01X369758Y9994D01*
G01X369776Y10467D01*
G01X372231Y13599D01*
G01X373129Y14879D01*
G01X373202Y15278D01*
G01X373276Y15676D01*
G01X372753Y15859D01*
G01X370648Y13813D01*
G01X368543Y11768D01*
G01X368307Y11197D01*
G01X368071Y10627D01*
G01X366171Y9425D01*
G01X366171Y9056D01*
G01X365712Y8629D01*
G01X365253Y8202D01*
G01X364906Y4056D01*
G01X364687Y1087D01*
G01X364468Y-1881D01*
G01X364392Y-13227D01*
G01X364316Y-24572D01*
G01X364486Y-26693D01*
G01X364657Y-28814D01*
G01X364982Y-33059D01*
G01X365308Y-37305D01*
G01X365633Y-38852D01*
G01X365959Y-40399D01*
G01X365959Y-42871D01*
G01X366385Y-44325D01*
G01X366810Y-45779D01*
G01X367443Y-47937D01*
G01X367643Y-48872D01*
G01X367843Y-49808D01*
G01X368273Y-50975D01*
G01X368702Y-52141D01*
G01X368722Y-53838D01*
G01X369025Y-54707D01*
G01X369328Y-55576D01*
G01X370124Y-56934D01*
G01X370921Y-58291D01*
G01X370922Y-59669D01*
G01X370670Y-59921D01*
G01X370418Y-60173D01*
G01X369312Y-59139D01*
G01X369006Y-58552D01*
G01X368701Y-57965D01*
G01X367913Y-57232D01*
G01X367125Y-56500D01*
G01X366807Y-56488D01*
G01X366809Y-56965D01*
G01X366811Y-57443D01*
G01X367346Y-58592D01*
G01X367881Y-59741D01*
G01X367550Y-60037D01*
G01X366886Y-60161D01*
G01X366223Y-60284D01*
G01X365590Y-59775D01*
G01X365369Y-58927D01*
G01X365147Y-58079D01*
G01X364625Y-56245D01*
G01X364102Y-54412D01*
G01X363959Y-54180D01*
G01X363816Y-53949D01*
G01X362828Y-53369D01*
G01X361839Y-52790D01*
G01X360347Y-52818D01*
G01X358854Y-52847D01*
G01X358006Y-53130D01*
G01X357158Y-53413D01*
G01X357019Y-54624D01*
G01X357900Y-55445D01*
G01X357900Y-56847D01*
G01X357488Y-57219D01*
G01X357077Y-57592D01*
G01X357066Y-60327D01*
G01X357055Y-63062D01*
G01X359714Y-63062D01*
G01X360184Y-63391D01*
G01X360654Y-63721D01*
G01X361769Y-64048D01*
G01X362884Y-64375D01*
G01X364050Y-64969D01*
G01X365217Y-65562D01*
G01X370561Y-68111D01*
G01X373368Y-68371D01*
G01X376175Y-68630D01*
G01X377639Y-68526D01*
G01X379103Y-68421D01*
G01X379343Y-68709D01*
G01X379582Y-68998D01*
G01X379439Y-69582D01*
G01X379296Y-70167D01*
G01X379016Y-72181D01*
G01X378736Y-74196D01*
G01X378508Y-75468D01*
G01X378279Y-76741D01*
G01X378042Y-78649D01*
G01X377806Y-80558D01*
G01X377448Y-88828D01*
G01X377665Y-90949D01*
G01X377882Y-93070D01*
G01X377947Y-94978D01*
G01X378013Y-96887D01*
G01X378222Y-101658D01*
G01X378432Y-106430D01*
G01X378667Y-107853D01*
G01X378901Y-109275D01*
G01X379077Y-112306D01*
G01X379253Y-115336D01*
G01X379580Y-115973D01*
G01X379907Y-116609D01*
G01X380061Y-117775D01*
G01X380216Y-118942D01*
G01X380405Y-119176D01*
G01X380594Y-119411D01*
G01X381465Y-121911D01*
G01X381642Y-122547D01*
G01X381818Y-123183D01*
G01X382180Y-123882D01*
G01X382542Y-124581D01*
G01X382412Y-125101D01*
G01X382281Y-125622D01*
G01X381653Y-125622D01*
G01X381653Y-125075D01*
G01X381241Y-124267D01*
G01X380829Y-123460D01*
G01X380687Y-122791D01*
G01X380545Y-122123D01*
G01X380016Y-121486D01*
G01X379782Y-120788D01*
G01X379548Y-120089D01*
G01X379100Y-119460D01*
G01X378651Y-118831D01*
G01X378260Y-119073D01*
G01X378246Y-120850D01*
G01X377828Y-120350D01*
G01X377411Y-119849D01*
G01X377411Y-118930D01*
G01X377120Y-118512D01*
G01X376829Y-118093D01*
G01X376292Y-116715D01*
G01X375756Y-115336D01*
G01X375508Y-114544D01*
G01X375260Y-113752D01*
G01X375031Y-113611D01*
G01X374802Y-113469D01*
G01X374531Y-113840D01*
G01X374260Y-114211D01*
G01X374134Y-115622D01*
G01X374008Y-117033D01*
G01X373525Y-118517D01*
G01X373251Y-119790D01*
G01X372976Y-121062D01*
G01X372596Y-122653D01*
G01X372215Y-124243D01*
G01X371791Y-124879D01*
G01X370884Y-128060D01*
G01X370323Y-129439D01*
G01X369762Y-130817D01*
G01X368928Y-132631D01*
G01X368928Y-133665D01*
G01X369338Y-133885D01*
G01X369749Y-134104D01*
G01X371216Y-134104D01*
G01X372847Y-134442D01*
G01X374478Y-134779D01*
G01X375468Y-134670D01*
G01X376457Y-134560D01*
G01X378684Y-134337D01*
G01X380911Y-134113D01*
G01X381759Y-133898D01*
G01X382607Y-133684D01*
G01X385470Y-133364D01*
G01X388334Y-133044D01*
G01X389606Y-133039D01*
G01X390879Y-133034D01*
G01X392787Y-132580D01*
G01X400422Y-132423D01*
G01X403391Y-132133D01*
G01X406360Y-131843D01*
G01X408693Y-131903D01*
G01X411026Y-131963D01*
G01X411556Y-131976D01*
G01X412087Y-131989D01*
G01X414526Y-131977D01*
G01X416964Y-131964D01*
G01X417813Y-131941D01*
G01X422111Y-131848D01*
G01X426408Y-131754D01*
G01X427360Y-132175D01*
G01X428311Y-132596D01*
G01X428311Y-132999D01*
G01X427975Y-133127D01*
G01X427640Y-133256D01*
G01X425639Y-133256D01*
G01X425421Y-133038D01*
G01X425203Y-132821D01*
G01X424583Y-132810D01*
G01X423963Y-132800D01*
G01X421418Y-132874D01*
G01X418873Y-132949D01*
G01X418131Y-132716D01*
G01X417389Y-132483D01*
G01X411238Y-132635D01*
G01X409047Y-133023D01*
G01X408329Y-132907D01*
G01X407612Y-132790D01*
G01X405329Y-133468D01*
G01X403302Y-133468D01*
G01X397029Y-134313D01*
G01X395438Y-134628D01*
G01X393848Y-134943D01*
G01X392575Y-135068D01*
G01X391303Y-135194D01*
G01X388970Y-135602D01*
G01X386637Y-136010D01*
G01X383668Y-136548D01*
G01X380699Y-137087D01*
G01X379108Y-137405D01*
G01X377517Y-137724D01*
G01X376457Y-138025D01*
G01X375397Y-138327D01*
G01X372852Y-138885D01*
G01X370307Y-139443D01*
G01X368398Y-139868D01*
G01X366489Y-140293D01*
G01X365429Y-140573D01*
G01X364368Y-140853D01*
G01X362460Y-141132D01*
G01X360551Y-141696D01*
G01X358430Y-142171D01*
G01X356309Y-142646D01*
G01X354188Y-143144D01*
G01X352068Y-143642D01*
G01X350053Y-143917D01*
G01X349108Y-143556D01*
G01X348162Y-143195D01*
G01X347146Y-141923D01*
G01X346129Y-140651D01*
G01X345811Y-140257D01*
G01X345493Y-139864D01*
G01X344433Y-138476D01*
G01X343372Y-137089D01*
G01X343039Y-137073D01*
G01X342251Y-138876D01*
G01X339187Y-145874D01*
G01X338240Y-148207D01*
G01X337292Y-150539D01*
G01X336908Y-151600D01*
G01X336523Y-152660D01*
G01X335361Y-155417D01*
G01X334199Y-158174D01*
G01X333437Y-159764D01*
G01X332675Y-161355D01*
G01X331864Y-162844D01*
G01X331053Y-164333D01*
G01X330391Y-165295D01*
G01X329729Y-166257D01*
G01X329057Y-166814D01*
G01X329057Y-167543D01*
G01X330170Y-167783D01*
G01X331284Y-168024D01*
G01X333086Y-168329D01*
G01X334889Y-168634D01*
G01X335737Y-168853D01*
G01X336586Y-169072D01*
G01X338707Y-169533D01*
G01X340827Y-169995D01*
G01X342630Y-170508D01*
G01X344433Y-171020D01*
G01X345069Y-171240D01*
G01X345705Y-171460D01*
G01X347614Y-172002D01*
G01X349523Y-172545D01*
G01X350414Y-172789D01*
G01X351305Y-173033D01*
G01X351608Y-173336D01*
G01X352823Y-173336D01*
G01X353078Y-172673D01*
G01X352826Y-172121D01*
G01X352575Y-171569D01*
G01X351176Y-170279D01*
G01X349777Y-168989D01*
G01X349013Y-168433D01*
G01X348250Y-167877D01*
G01X346023Y-166719D01*
G01X343796Y-165561D01*
G01X343025Y-165095D01*
G01X342254Y-164628D01*
G01X340139Y-161779D01*
G01X339281Y-160082D01*
G01X338422Y-158386D01*
G01X337989Y-157431D01*
G01X337556Y-156477D01*
G01X337218Y-155151D01*
G01X336879Y-153826D01*
G01X337141Y-153402D01*
G01X337741Y-153402D01*
G01X338754Y-153859D01*
G01X339767Y-154315D01*
G01X341039Y-154879D01*
G01X342524Y-155469D01*
G01X343787Y-156583D01*
G01X345049Y-157697D01*
G01X347074Y-160070D01*
G01X349099Y-162443D01*
G01X349629Y-163157D01*
G01X350159Y-163871D01*
G01X351750Y-165728D01*
G01X351750Y-166096D01*
G01X352027Y-166376D01*
G01X352305Y-166656D01*
G01X353459Y-168328D01*
G01X354613Y-169999D01*
G01X355226Y-170898D01*
G01X356315Y-172594D01*
G01X357404Y-174291D01*
G01X358150Y-175457D01*
G01X358896Y-176623D01*
G01X359827Y-178214D01*
G01X360758Y-179804D01*
G01X361187Y-180488D01*
G01X361747Y-181524D01*
G01X362307Y-182561D01*
G01X363349Y-184258D01*
G01X364391Y-185954D01*
G01X365526Y-187757D01*
G01X366661Y-189559D01*
G01X367424Y-190723D01*
G01X368186Y-191886D01*
G01X370928Y-195497D01*
G01X372573Y-197724D01*
G01X374219Y-199951D01*
G01X374715Y-200587D01*
G01X375212Y-201223D01*
G01X376666Y-203344D01*
G01X377672Y-204616D01*
G01X379433Y-206525D01*
G01X381193Y-208433D01*
G01X382722Y-210236D01*
G01X384250Y-212038D01*
G01X386610Y-214503D01*
G01X388970Y-216967D01*
G01X389824Y-217896D01*
G01X390678Y-218824D01*
G01X394444Y-222217D01*
G01X395268Y-223013D01*
G01X396091Y-223808D01*
G01X396499Y-223808D01*
G01X396499Y-224444D01*
G01X396153Y-224444D01*
G01X393914Y-223307D01*
G01X391675Y-222169D01*
G01X390747Y-221529D01*
G01X389818Y-220888D01*
G01X389428Y-220455D01*
G01X389037Y-220021D01*
G01X387869Y-219317D01*
G01X386700Y-218612D01*
G01X385754Y-217817D01*
G01X384808Y-217022D01*
G01X384448Y-217022D01*
G01X382302Y-215325D01*
G01X381962Y-215325D01*
G01X381224Y-214730D01*
G01X380487Y-214134D01*
G01X379270Y-213457D01*
G01X378054Y-212781D01*
G01X377463Y-212781D01*
G01X376959Y-212172D01*
G01X375647Y-211491D01*
G01X374336Y-210809D01*
G01X373488Y-210260D01*
G01X372640Y-209711D01*
G01X371579Y-209174D01*
G01X370625Y-208553D01*
G01X369670Y-207932D01*
G01X368610Y-207281D01*
G01X367550Y-206631D01*
G01X366701Y-206105D01*
G01X365747Y-205512D01*
G01X364793Y-204918D01*
G01X363414Y-203563D01*
G01X362035Y-202208D01*
G01X361187Y-201202D01*
G01X360339Y-200195D01*
G01X359817Y-199649D01*
G01X359295Y-199102D01*
G01X356756Y-196239D01*
G01X354217Y-193377D01*
G01X352828Y-191786D01*
G01X351439Y-190196D01*
G01X348337Y-187121D01*
G01X345235Y-184046D01*
G01X344237Y-183145D01*
G01X343240Y-182244D01*
G01X342843Y-182031D01*
G01X342446Y-181819D01*
G01X341152Y-181819D01*
G01X340247Y-182017D01*
G01X339343Y-182215D01*
G01X338388Y-182456D01*
G01X337434Y-182696D01*
G01X334889Y-183259D01*
G01X332980Y-183722D01*
G01X331072Y-184185D01*
G01X330011Y-184504D01*
G01X328951Y-184822D01*
G01X327042Y-185556D01*
G01X325133Y-186291D01*
G01X323654Y-187077D01*
G01X322174Y-187863D01*
G01X321589Y-188711D01*
G01X321004Y-189559D01*
G01X319927Y-191786D01*
G01X318850Y-194013D01*
G01X318322Y-195391D01*
G01X317794Y-196770D01*
G01X317596Y-197134D01*
G01X317398Y-197498D01*
G01X317001Y-199102D01*
G01X316464Y-200383D01*
G01X315927Y-201664D01*
G01X315780Y-202581D01*
G01X315634Y-203499D01*
G01X316750Y-202435D01*
G01X317865Y-201371D01*
G01X318611Y-200234D01*
G01X320169Y-198502D01*
G01X321727Y-196770D01*
G01X323643Y-194861D01*
G01X325559Y-192952D01*
G01X327361Y-191557D01*
G01X329163Y-190161D01*
G01X330223Y-189562D01*
G01X331284Y-188963D01*
G01X332556Y-188259D01*
G01X333829Y-187554D01*
G01X334094Y-187550D01*
G01X334359Y-187545D01*
G01X334359Y-188001D01*
G01X332344Y-190616D01*
G01X330690Y-193165D01*
G01X329839Y-194649D01*
G01X329603Y-195073D01*
G01X329368Y-195497D01*
G01X329019Y-196027D01*
G01X328670Y-196558D01*
G01X328014Y-197724D01*
G01X327359Y-198890D01*
G01X326519Y-200587D01*
G01X325234Y-202920D01*
G01X323950Y-205252D01*
G01X322807Y-207533D01*
G01X321664Y-209814D01*
G01X321424Y-211032D01*
G01X321184Y-212250D01*
G01X320655Y-214371D01*
G01X320126Y-216492D01*
G01X319736Y-217764D01*
G01X319089Y-220415D01*
G01X318443Y-223066D01*
G01X318065Y-223914D01*
G01X317844Y-224762D01*
G01X317623Y-225611D01*
G01X317317Y-226671D01*
G01X317012Y-227731D01*
G01X316254Y-230382D01*
G01X315495Y-233033D01*
G01X315050Y-234517D01*
G01X314604Y-236002D01*
G01X314214Y-237274D01*
G01X313824Y-238546D01*
G01X313355Y-240137D01*
G01X312887Y-241727D01*
G01X312464Y-243106D01*
G01X312040Y-244484D01*
G01X311770Y-245333D01*
G01X311499Y-246181D01*
G01X310399Y-249894D01*
G01X309305Y-253603D01*
G01X309034Y-254451D01*
G01X308762Y-255300D01*
G01X308423Y-256466D01*
G01X308083Y-257632D01*
G01X307117Y-260728D01*
G01X306152Y-263823D01*
G01X306152Y-264900D01*
G01X307903Y-267599D01*
G01X308270Y-268134D01*
G01X308637Y-268668D01*
G01X308798Y-269173D01*
G01X308958Y-269679D01*
G01X310105Y-271629D01*
G01X311015Y-273537D01*
G01X311925Y-275446D01*
G01X313257Y-278203D01*
G01X314588Y-280960D01*
G01X315370Y-282656D01*
G01X316151Y-284353D01*
G01X316341Y-284671D01*
G01X316531Y-284989D01*
G01X316962Y-285917D01*
G01X317392Y-286749D01*
G01X317392Y-287003D01*
G37*
G36*
G01X530124Y-276824D02*
G01X529870Y-276824D01*
G01X529413Y-276580D01*
G01X528957Y-276336D01*
G01X524685Y-272689D01*
G01X521113Y-269932D01*
G01X520543Y-269349D01*
G01X519972Y-268766D01*
G01X519451Y-268766D01*
G01X517915Y-267458D01*
G01X515667Y-265832D01*
G01X513418Y-264206D01*
G01X510964Y-262510D01*
G01X510492Y-262033D01*
G01X510019Y-261556D01*
G01X509592Y-261556D01*
G01X508300Y-260548D01*
G01X507008Y-259541D01*
G01X506099Y-258974D01*
G01X505190Y-258407D01*
G01X503649Y-257278D01*
G01X502108Y-256148D01*
G01X500811Y-255300D01*
G01X499513Y-254451D01*
G01X498534Y-253838D01*
G01X497555Y-253225D01*
G01X496707Y-252672D01*
G01X495859Y-252120D01*
G01X495570Y-251717D01*
G01X494516Y-251069D01*
G01X493463Y-250422D01*
G01X490981Y-248745D01*
G01X490133Y-248099D01*
G01X489284Y-247453D01*
G01X488860Y-247188D01*
G01X488436Y-246922D01*
G01X488012Y-246736D01*
G01X487588Y-246549D01*
G01X485997Y-245491D01*
G01X484406Y-244432D01*
G01X483812Y-243875D01*
G01X483218Y-243318D01*
G01X482844Y-243318D01*
G01X482723Y-242935D01*
G01X482601Y-242553D01*
G01X481805Y-241716D01*
G01X481008Y-240879D01*
G01X479208Y-238666D01*
G01X477408Y-236452D01*
G01X476559Y-235545D01*
G01X475446Y-234250D01*
G01X474332Y-232955D01*
G01X474332Y-232656D01*
G01X473125Y-231254D01*
G01X471919Y-229852D01*
G01X471376Y-229319D01*
G01X470833Y-228787D01*
G01X470091Y-227767D01*
G01X469349Y-226747D01*
G01X468076Y-225236D01*
G01X466804Y-223725D01*
G01X465955Y-222812D01*
G01X465104Y-221864D01*
G01X464253Y-220915D01*
G01X462877Y-219142D01*
G01X461502Y-217369D01*
G01X460844Y-216718D01*
G01X460186Y-216068D01*
G01X458930Y-214583D01*
G01X457673Y-213099D01*
G01X456194Y-211520D01*
G01X454715Y-209941D01*
G01X454234Y-209505D01*
G01X453752Y-209069D01*
G01X450757Y-205782D01*
G01X451333Y-205782D01*
G01X451998Y-206525D01*
G01X452979Y-207161D01*
G01X453741Y-207797D01*
G01X454503Y-208432D01*
G01X454672Y-208698D01*
G01X454842Y-208963D01*
G01X455421Y-208963D01*
G01X456735Y-210077D01*
G01X458049Y-211190D01*
G01X460199Y-213077D01*
G01X462350Y-214964D01*
G01X463198Y-215581D01*
G01X464047Y-216197D01*
G01X466061Y-218064D01*
G01X468076Y-219931D01*
G01X469561Y-221138D01*
G01X470515Y-221962D01*
G01X471469Y-222787D01*
G01X472318Y-223510D01*
G01X473166Y-224234D01*
G01X475589Y-226178D01*
G01X478011Y-228123D01*
G01X478346Y-228407D01*
G01X478680Y-228692D01*
G01X484140Y-233457D01*
G01X485333Y-234490D01*
G01X486527Y-235524D01*
G01X488648Y-237486D01*
G01X490769Y-239449D01*
G01X491829Y-240358D01*
G01X492890Y-241266D01*
G01X493426Y-241815D01*
G01X493962Y-242364D01*
G01X495953Y-244166D01*
G01X497945Y-245969D01*
G01X500170Y-248089D01*
G01X502396Y-250210D01*
G01X503369Y-251165D01*
G01X504342Y-252121D01*
G01X507205Y-254753D01*
G01X510068Y-257385D01*
G01X511659Y-258912D01*
G01X513249Y-260439D01*
G01X515075Y-262110D01*
G01X516900Y-263782D01*
G01X519400Y-266115D01*
G01X521900Y-268448D01*
G01X524914Y-271387D01*
G01X526138Y-272421D01*
G01X527362Y-273454D01*
G01X528736Y-274740D01*
G01X530110Y-276025D01*
G01X530124Y-276824D01*
G37*
G36*
G01X498087Y-218873D02*
G01X498559Y-220224D01*
G01X498330Y-220454D01*
G01X497942Y-220328D01*
G01X497555Y-220201D01*
G01X496858Y-218930D01*
G01X496160Y-217658D01*
G01X495753Y-217658D01*
G01X495753Y-216744D01*
G01X494841Y-215345D01*
G01X493930Y-213947D01*
G01X493682Y-213523D01*
G01X493434Y-213099D01*
G01X492107Y-210554D01*
G01X491593Y-209918D01*
G01X490553Y-207797D01*
G01X489513Y-205676D01*
G01X489206Y-205457D01*
G01X487947Y-202323D01*
G01X487608Y-202134D01*
G01X487269Y-201944D01*
G01X487269Y-201412D01*
G01X485937Y-199314D01*
G01X485331Y-198196D01*
G01X484724Y-197078D01*
G01X484724Y-196634D01*
G01X484111Y-195743D01*
G01X483498Y-194851D01*
G01X483153Y-194114D01*
G01X482808Y-193377D01*
G01X482495Y-192846D01*
G01X482183Y-192316D01*
G01X481191Y-190196D01*
G01X480715Y-189366D01*
G01X480240Y-188537D01*
G01X479210Y-187022D01*
G01X479210Y-185848D01*
G01X478362Y-185000D01*
G01X478362Y-183926D01*
G01X477779Y-183703D01*
G01X476613Y-180959D01*
G01X476002Y-180306D01*
G01X475392Y-179653D01*
G01X474120Y-177768D01*
G01X474120Y-177359D01*
G01X472742Y-174989D01*
G01X472195Y-174004D01*
G01X471648Y-173018D01*
G01X470793Y-171534D01*
G01X469937Y-170049D01*
G01X469049Y-168367D01*
G01X468160Y-166684D01*
G01X467153Y-165751D01*
G01X466836Y-164719D01*
G01X466518Y-163687D01*
G01X466078Y-162847D01*
G01X465637Y-162007D01*
G01X465640Y-160294D01*
G01X464973Y-158280D01*
G01X464307Y-156265D01*
G01X463911Y-155201D01*
G01X463516Y-154136D01*
G01X463516Y-152578D01*
G01X463021Y-152002D01*
G01X462526Y-151427D01*
G01X461378Y-151254D01*
G01X460229Y-151080D01*
G01X453355Y-150960D01*
G01X446480Y-150839D01*
G01X446218Y-150677D01*
G01X444648Y-150976D01*
G01X443078Y-151275D01*
G01X442648Y-151706D01*
G01X441936Y-151706D01*
G01X441672Y-151388D01*
G01X441408Y-151070D01*
G01X440484Y-151070D01*
G01X439979Y-151575D01*
G01X436590Y-151599D01*
G01X433201Y-151623D01*
G01X432906Y-151918D01*
G01X432128Y-151918D01*
G01X432128Y-150857D01*
G01X432892Y-150857D01*
G01X433397Y-151363D01*
G01X434512Y-151068D01*
G01X435628Y-150773D01*
G01X437324Y-150751D01*
G01X439021Y-150729D01*
G01X439973Y-150208D01*
G01X441458Y-150308D01*
G01X441851Y-149903D01*
G01X441967Y-143753D01*
G01X442153Y-143045D01*
G01X442339Y-142337D01*
G01X442907Y-142470D01*
G01X443475Y-142603D01*
G01X445529Y-143647D01*
G01X446465Y-143647D01*
G01X446707Y-143889D01*
G01X446948Y-144131D01*
G01X448075Y-144337D01*
G01X449201Y-144544D01*
G01X451216Y-144585D01*
G01X453230Y-144627D01*
G01X453515Y-145213D01*
G01X453799Y-145799D01*
G01X454693Y-146183D01*
G01X455588Y-146566D01*
G01X463834Y-148366D01*
G01X464789Y-148553D01*
G01X465743Y-148741D01*
G01X466944Y-148910D01*
G01X468146Y-149079D01*
G01X468459Y-149339D01*
G01X468772Y-149599D01*
G01X470409Y-149528D01*
G01X471469Y-149688D01*
G01X472530Y-149848D01*
G01X472999Y-150141D01*
G01X473469Y-150433D01*
G01X474378Y-150437D01*
G01X475287Y-150441D01*
G01X475764Y-150944D01*
G01X476241Y-151447D01*
G01X476241Y-151763D01*
G01X476718Y-152238D01*
G01X477196Y-152714D01*
G01X477832Y-153719D01*
G01X478468Y-154724D01*
G01X479016Y-155707D01*
G01X479565Y-156689D01*
G01X481649Y-160019D01*
G01X482116Y-160793D01*
G01X482583Y-161567D01*
G01X482846Y-162097D01*
G01X483110Y-162627D01*
G01X485043Y-165738D01*
G01X485954Y-167143D01*
G01X486112Y-167642D01*
G01X486270Y-168141D01*
G01X486664Y-168418D01*
G01X487057Y-168695D01*
G01X487057Y-169453D01*
G01X487906Y-170221D01*
G01X487906Y-171216D01*
G01X488322Y-171216D01*
G01X489602Y-173955D01*
G01X489602Y-175193D01*
G01X489920Y-175457D01*
G01X490239Y-175721D01*
G01X490239Y-176847D01*
G01X490530Y-177265D01*
G01X490821Y-177684D01*
G01X491297Y-178850D01*
G01X491774Y-180016D01*
G01X492900Y-182667D01*
G01X494026Y-185318D01*
G01X494588Y-186484D01*
G01X495150Y-187651D01*
G01X495438Y-188181D01*
G01X495725Y-188711D01*
G01X495989Y-189429D01*
G01X496252Y-190147D01*
G01X497260Y-191824D01*
G01X498268Y-193501D01*
G01X498406Y-194181D01*
G01X498544Y-194861D01*
G01X499176Y-196558D01*
G01X499807Y-198254D01*
G01X500736Y-200587D01*
G01X502115Y-203268D01*
G01X502120Y-203624D01*
G01X502125Y-203980D01*
G01X502539Y-204510D01*
G01X502954Y-205040D01*
G01X502959Y-205470D01*
G01X502963Y-205900D01*
G01X503295Y-206374D01*
G01X503627Y-206848D01*
G01X503553Y-207428D01*
G01X503479Y-208009D01*
G01X503110Y-207267D01*
G01X502741Y-206525D01*
G01X502002Y-205178D01*
G01X501264Y-203831D01*
G01X500841Y-203293D01*
G01X500418Y-202756D01*
G01X500418Y-202015D01*
G01X498616Y-199175D01*
G01X498192Y-198519D01*
G01X497767Y-197862D01*
G01X497131Y-197512D01*
G01X496495Y-197162D01*
G01X496427Y-196701D01*
G01X496359Y-196239D01*
G01X497025Y-196239D01*
G01X497025Y-195850D01*
G01X496896Y-195515D01*
G01X496768Y-195179D01*
G01X496389Y-195179D01*
G01X496389Y-196002D01*
G01X496002Y-196241D01*
G01X494658Y-194829D01*
G01X493314Y-193416D01*
G01X492031Y-192104D01*
G01X491718Y-191671D01*
G01X491405Y-191239D01*
G01X490027Y-190273D01*
G01X489768Y-189241D01*
G01X489241Y-189241D01*
G01X488605Y-188633D01*
G01X487968Y-188025D01*
G01X487405Y-187837D01*
G01X487543Y-187479D01*
G01X487680Y-187121D01*
G01X488270Y-187114D01*
G01X488860Y-187107D01*
G01X488359Y-186689D01*
G01X487859Y-186272D01*
G01X487057Y-186272D01*
G01X487057Y-186779D01*
G01X486580Y-186132D01*
G01X486103Y-185486D01*
G01X485465Y-184978D01*
G01X484827Y-184470D01*
G01X484405Y-184199D01*
G01X483982Y-183928D01*
G01X483378Y-183562D01*
G01X482775Y-183197D01*
G01X481894Y-182539D01*
G01X481013Y-181881D01*
G01X480483Y-181719D01*
G01X479953Y-181557D01*
G01X478758Y-180840D01*
G01X477564Y-180122D01*
G01X476877Y-180029D01*
G01X476877Y-180283D01*
G01X477192Y-181036D01*
G01X477507Y-181790D01*
G01X477944Y-182060D01*
G01X478589Y-183409D01*
G01X479283Y-184678D01*
G01X479847Y-185242D01*
G01X479847Y-185895D01*
G01X480519Y-186932D01*
G01X481190Y-187969D01*
G01X481502Y-187969D01*
G01X481741Y-188658D01*
G01X481981Y-189347D01*
G01X483540Y-192104D01*
G01X485099Y-194861D01*
G01X485990Y-196664D01*
G01X486880Y-198466D01*
G01X487181Y-198801D01*
G01X487481Y-199136D01*
G01X487481Y-199787D01*
G01X487876Y-200293D01*
G01X488271Y-200799D01*
G01X488436Y-201329D01*
G01X488600Y-201859D01*
G01X489756Y-203556D01*
G01X490321Y-204753D01*
G01X490885Y-205951D01*
G01X491184Y-206199D01*
G01X491484Y-206448D01*
G01X491620Y-207067D01*
G01X491756Y-207686D01*
G01X492107Y-207904D01*
G01X492767Y-209229D01*
G01X493426Y-210554D01*
G01X494023Y-211614D01*
G01X494688Y-212993D01*
G01X495354Y-214371D01*
G01X495861Y-215219D01*
G01X496369Y-216068D01*
G01X496638Y-216704D01*
G01X497072Y-217552D01*
G01X497506Y-218400D01*
G01X497797Y-218636D01*
G01X498087Y-218873D01*
G37*
G36*
G01X697442Y-205961D02*
G01X698078Y-206627D01*
G01X698078Y-287003D01*
G01X654156Y-287003D01*
G01X654206Y-284501D01*
G01X654255Y-281999D01*
G01X654075Y-281707D01*
G01X653894Y-281415D01*
G01X653709Y-279491D01*
G01X653523Y-277567D01*
G01X653425Y-272265D01*
G01X653326Y-266963D01*
G01X653231Y-263358D01*
G01X653137Y-259753D01*
G01X652904Y-254663D01*
G01X652671Y-249574D01*
G01X652608Y-246499D01*
G01X652545Y-243424D01*
G01X652413Y-241727D01*
G01X652281Y-240031D01*
G01X652079Y-235672D01*
G01X652667Y-234006D01*
G01X652271Y-232878D01*
G01X651874Y-231750D01*
G01X651827Y-224784D01*
G01X651780Y-217817D01*
G01X652452Y-217441D01*
G01X652590Y-217664D01*
G01X652728Y-217888D01*
G01X652821Y-222173D01*
G01X652913Y-226459D01*
G01X653069Y-231548D01*
G01X653482Y-232609D01*
G01X653646Y-234729D01*
G01X653810Y-236850D01*
G01X653884Y-238122D01*
G01X653958Y-239395D01*
G01X653967Y-239713D01*
G01X653975Y-240031D01*
G01X653843Y-240805D01*
G01X653712Y-241580D01*
G01X654157Y-242025D01*
G01X654601Y-242470D01*
G01X654601Y-243106D01*
G01X655026Y-243106D01*
G01X655026Y-241928D01*
G01X655705Y-240958D01*
G01X655494Y-239607D01*
G01X655361Y-239183D01*
G01X655227Y-238759D01*
G01X656844Y-236638D01*
G01X657295Y-236573D01*
G01X657746Y-236507D01*
G01X658419Y-235089D01*
G01X658419Y-233665D01*
G01X657484Y-233081D01*
G01X657403Y-233322D01*
G01X656510Y-233563D01*
G01X656510Y-232263D01*
G01X656730Y-231852D01*
G01X656949Y-231442D01*
G01X657783Y-231442D01*
G01X657783Y-230639D01*
G01X657146Y-230395D01*
G01X657146Y-229523D01*
G01X657790Y-229394D01*
G01X658434Y-229266D01*
G01X658639Y-228883D01*
G01X658843Y-228501D01*
G01X658862Y-226247D01*
G01X659184Y-225398D01*
G01X659507Y-224550D01*
G01X659630Y-224157D01*
G01X659752Y-223765D01*
G01X659457Y-223578D01*
G01X659161Y-223392D01*
G01X659532Y-222734D01*
G01X659903Y-222077D01*
G01X659903Y-221541D01*
G01X659479Y-221157D01*
G01X659055Y-220773D01*
G01X659055Y-219592D01*
G01X659479Y-219330D01*
G01X659479Y-218564D01*
G01X659039Y-218003D01*
G01X658598Y-217443D01*
G01X659251Y-216619D01*
G01X659903Y-215794D01*
G01X659903Y-215325D01*
G01X660710Y-215325D01*
G01X661154Y-216598D01*
G01X661600Y-216598D01*
G01X661600Y-215733D01*
G01X662024Y-214901D01*
G01X662448Y-214070D01*
G01X662448Y-213003D01*
G01X661482Y-212563D01*
G01X660516Y-212123D01*
G01X660581Y-211233D01*
G01X660646Y-210344D01*
G01X661282Y-210235D01*
G01X661918Y-210127D01*
G01X662067Y-206099D01*
G01X662216Y-202071D01*
G01X662421Y-200481D01*
G01X662627Y-198890D01*
G01X662922Y-197618D01*
G01X663256Y-197353D01*
G01X663590Y-197088D01*
G01X667114Y-197088D01*
G01X667114Y-196012D01*
G01X667457Y-195490D01*
G01X667799Y-194967D01*
G01X669210Y-194967D01*
G01X669472Y-195391D01*
G01X670472Y-195391D01*
G01X670687Y-195921D01*
G01X670897Y-195620D01*
G01X671108Y-195319D01*
G01X671957Y-196203D01*
G01X672807Y-197088D01*
G01X673477Y-197088D01*
G01X673477Y-197936D01*
G01X672628Y-197936D01*
G01X672628Y-199632D01*
G01X672204Y-199632D01*
G01X672204Y-200707D01*
G01X672958Y-201461D01*
G01X673712Y-202215D01*
G01X674481Y-201329D01*
G01X676352Y-201329D01*
G01X676658Y-200905D01*
G01X676964Y-200481D01*
G01X678049Y-200481D01*
G01X678660Y-199632D01*
G01X680687Y-199632D01*
G01X680687Y-198118D01*
G01X681011Y-197794D01*
G01X681335Y-197470D01*
G01X682914Y-197281D01*
G01X683869Y-197454D01*
G01X684823Y-197627D01*
G01X684890Y-198206D01*
G01X684957Y-198784D01*
G01X685777Y-198784D01*
G01X685777Y-199208D01*
G01X686401Y-199208D01*
G01X687156Y-199632D01*
G01X687911Y-200057D01*
G01X688322Y-200057D01*
G01X688322Y-199415D01*
G01X688587Y-198943D01*
G01X688853Y-198471D01*
G01X689256Y-198097D01*
G01X689660Y-197724D01*
G01X690443Y-197724D01*
G01X690443Y-199336D01*
G01X690837Y-199739D01*
G01X690905Y-200479D01*
G01X690973Y-201220D01*
G01X691716Y-201360D01*
G01X691716Y-200481D01*
G01X692816Y-200481D01*
G01X693038Y-199632D01*
G01X693603Y-199632D01*
G01X693986Y-200317D01*
G01X695123Y-200717D01*
G01X696259Y-201117D01*
G01X697243Y-201117D01*
G01X697475Y-200514D01*
G01X697239Y-200073D01*
G01X697003Y-199632D01*
G01X695520Y-199632D01*
G01X695395Y-199306D01*
G01X695270Y-198980D01*
G01X696052Y-196982D01*
G01X696057Y-196162D01*
G01X696063Y-195342D01*
G01X697548Y-194806D01*
G01X697813Y-194780D01*
G01X698078Y-194755D01*
G01X698071Y-199367D01*
G01X698065Y-203980D01*
G01X697749Y-203562D01*
G01X697432Y-203144D01*
G01X697526Y-202901D01*
G01X697619Y-202658D01*
G01X697108Y-202895D01*
G01X696597Y-203132D01*
G01X696595Y-203426D01*
G01X696594Y-203721D01*
G01X696965Y-203995D01*
G01X697336Y-204269D01*
G01X696806Y-204807D01*
G01X696806Y-205295D01*
G01X697442Y-205961D01*
G37*
G36*
G01X444429Y-125965D02*
G01X444143Y-126355D01*
G01X443858Y-126746D01*
G01X443556Y-126259D01*
G01X443576Y-125251D01*
G01X443596Y-124243D01*
G01X443602Y-123819D01*
G01X443608Y-123395D01*
G01X443934Y-121826D01*
G01X444260Y-120256D01*
G01X444001Y-117245D01*
G01X443878Y-116026D01*
G01X443754Y-114806D01*
G01X443157Y-114770D01*
G01X443157Y-115024D01*
G01X443399Y-115412D01*
G01X443641Y-115799D01*
G01X443352Y-117336D01*
G01X442950Y-117585D01*
G01X440505Y-116093D01*
G01X439657Y-115633D01*
G01X438809Y-115172D01*
G01X438259Y-114724D01*
G01X437709Y-114276D01*
G01X435862Y-113216D01*
G01X434014Y-112156D01*
G01X432918Y-111360D01*
G01X431822Y-110565D01*
G01X431286Y-110565D01*
G01X428597Y-108285D01*
G01X426932Y-107231D01*
G01X424705Y-105395D01*
G01X422479Y-103558D01*
G01X421736Y-102961D01*
G01X420994Y-102363D01*
G01X420464Y-102086D01*
G01X419934Y-101809D01*
G01X419175Y-101151D01*
G01X418416Y-100492D01*
G01X416387Y-98795D01*
G01X415186Y-97947D01*
G01X413985Y-97099D01*
G01X413354Y-96500D01*
G01X412723Y-95901D01*
G01X410602Y-94217D01*
G01X408481Y-92534D01*
G01X407527Y-91789D01*
G01X406573Y-91044D01*
G01X404664Y-89523D01*
G01X404494Y-89229D01*
G01X404325Y-88934D01*
G01X403715Y-88934D01*
G01X402686Y-87911D01*
G01X401658Y-86888D01*
G01X399998Y-85651D01*
G01X398513Y-84417D01*
G01X397029Y-83184D01*
G01X396499Y-82741D01*
G01X395968Y-82298D01*
G01X394802Y-81355D01*
G01X393636Y-80411D01*
G01X392310Y-79152D01*
G01X390985Y-77893D01*
G01X390985Y-77483D01*
G01X391821Y-77483D01*
G01X393677Y-78899D01*
G01X395533Y-80315D01*
G01X398190Y-82078D01*
G01X400846Y-83841D01*
G01X401373Y-84214D01*
G01X401899Y-84587D01*
G01X402433Y-84852D01*
G01X402967Y-85117D01*
G01X403519Y-85488D01*
G01X404070Y-85859D01*
G01X404579Y-86203D01*
G01X405088Y-86547D01*
G01X407610Y-88218D01*
G01X410132Y-89889D01*
G01X410830Y-90320D01*
G01X411528Y-90751D01*
G01X411921Y-91107D01*
G01X412314Y-91463D01*
G01X413367Y-91925D01*
G01X414420Y-92386D01*
G01X415455Y-93205D01*
G01X416490Y-94024D01*
G01X416914Y-94024D01*
G01X417931Y-94755D01*
G01X418949Y-95486D01*
G01X420077Y-96055D01*
G01X421206Y-96624D01*
G01X421418Y-96936D01*
G01X423963Y-98118D01*
G01X424555Y-98820D01*
G01X425147Y-99522D01*
G01X425873Y-99658D01*
G01X426599Y-99794D01*
G01X426858Y-100105D01*
G01X427116Y-100417D01*
G01X428718Y-101234D01*
G01X429355Y-101234D01*
G01X429776Y-101686D01*
G01X430197Y-102138D01*
G01X431322Y-102597D01*
G01X432446Y-103055D01*
G01X433931Y-104015D01*
G01X435416Y-104975D01*
G01X436838Y-105761D01*
G01X438260Y-106546D01*
G01X438487Y-106914D01*
G01X440718Y-108068D01*
G01X441354Y-108606D01*
G01X441884Y-108762D01*
G01X442414Y-108919D01*
G01X443050Y-109459D01*
G01X444853Y-110054D01*
G01X446656Y-110649D01*
G01X447162Y-111031D01*
G01X447667Y-111413D01*
G01X448183Y-111413D01*
G01X449010Y-112009D01*
G01X449837Y-112605D01*
G01X450627Y-112903D01*
G01X451293Y-112503D01*
G01X451958Y-112104D01*
G01X452586Y-111955D01*
G01X453214Y-111807D01*
G01X454148Y-111177D01*
G01X455082Y-110547D01*
G01X456277Y-109906D01*
G01X457472Y-109266D01*
G01X458320Y-108757D01*
G01X459169Y-108249D01*
G01X459804Y-107890D01*
G01X460440Y-107531D01*
G01X461501Y-106801D01*
G01X462562Y-106072D01*
G01X462796Y-105693D01*
G01X463788Y-105394D01*
G01X464780Y-105095D01*
G01X464538Y-105549D01*
G01X464295Y-106002D01*
G01X463710Y-106587D01*
G01X463125Y-107172D01*
G01X462843Y-107186D01*
G01X462562Y-107200D01*
G01X460653Y-108655D01*
G01X459593Y-109100D01*
G01X459169Y-109611D01*
G01X458320Y-110167D01*
G01X457472Y-110723D01*
G01X456061Y-112022D01*
G01X454650Y-113322D01*
G01X454257Y-113322D01*
G01X453320Y-113942D01*
G01X452382Y-114563D01*
G01X451371Y-114816D01*
G01X450361Y-115070D01*
G01X449535Y-114524D01*
G01X448710Y-113978D01*
G01X447603Y-112871D01*
G01X446917Y-112938D01*
G01X446232Y-113004D01*
G01X445995Y-115230D01*
G01X445758Y-117457D01*
G01X445957Y-118577D01*
G01X445617Y-119746D01*
G01X445277Y-120915D01*
G01X445276Y-122367D01*
G01X445275Y-123819D01*
G01X444853Y-124455D01*
G01X444432Y-125092D01*
G01X444430Y-125528D01*
G01X444429Y-125965D01*
G37*
G36*
G01X637381Y-34646D02*
G01X636999Y-34646D01*
G01X636999Y-33610D01*
G01X637423Y-33348D01*
G01X637424Y-32884D01*
G01X637425Y-32419D01*
G01X637948Y-31571D01*
G01X638470Y-30722D01*
G01X638478Y-30086D01*
G01X638486Y-29450D01*
G01X638907Y-28814D01*
G01X639329Y-28178D01*
G01X639332Y-26152D01*
G01X639785Y-24408D01*
G01X640238Y-22664D01*
G01X639995Y-19801D01*
G01X639751Y-16938D01*
G01X639632Y-13757D01*
G01X639513Y-10576D01*
G01X639102Y-7501D01*
G01X638691Y-4426D01*
G01X637839Y239D01*
G01X637531Y1299D01*
G01X637223Y2360D01*
G01X637088Y3950D01*
G01X636952Y5541D01*
G01X636654Y6264D01*
G01X636355Y6988D01*
G01X635953Y8915D01*
G01X635550Y10842D01*
G01X635099Y11988D01*
G01X634647Y13133D01*
G01X634725Y13472D01*
G01X634802Y13811D01*
G01X634322Y14660D01*
G01X633842Y15508D01*
G01X633608Y16462D01*
G01X633374Y17416D01*
G01X633078Y18737D01*
G01X632781Y20057D01*
G01X632345Y21044D01*
G01X631909Y22030D01*
G01X631902Y22480D01*
G01X631896Y22930D01*
G01X630852Y25051D01*
G01X630850Y25396D01*
G01X630848Y25741D01*
G01X630212Y26269D01*
G01X630212Y26791D01*
G01X629268Y28811D01*
G01X628325Y30830D01*
G01X628049Y32049D01*
G01X627194Y33852D01*
G01X626340Y35654D01*
G01X626065Y35972D01*
G01X625791Y36290D01*
G01X625351Y37468D01*
G01X624911Y38646D01*
G01X624380Y39365D01*
G01X623850Y40084D01*
G01X623850Y41482D01*
G01X623107Y42455D01*
G01X622365Y43427D01*
G01X622231Y43994D01*
G01X622096Y44561D01*
G01X621801Y44901D01*
G01X621507Y45242D01*
G01X620792Y46986D01*
G01X620078Y48731D01*
G01X619005Y49862D01*
G01X618860Y50650D01*
G01X618715Y51438D01*
G01X618123Y51929D01*
G01X618123Y52380D01*
G01X616589Y55376D01*
G01X616214Y55800D01*
G01X615839Y56224D01*
G01X615685Y56732D01*
G01X615531Y57239D01*
G01X614306Y59193D01*
G01X613626Y60663D01*
G01X613353Y60883D01*
G01X613080Y61102D01*
G01X612860Y61844D01*
G01X612641Y62586D01*
G01X612499Y65066D01*
G01X612357Y67545D01*
G01X612496Y67770D01*
G01X612634Y67994D01*
G01X612988Y67994D01*
G01X613117Y67659D01*
G01X613246Y67323D01*
G01X613246Y66969D01*
G01X613246Y66616D01*
G01X613823Y65290D01*
G01X614400Y63965D01*
G01X615109Y63965D01*
G01X615238Y63629D01*
G01X615366Y63294D01*
G01X615366Y62047D01*
G01X616321Y61599D01*
G01X617981Y59511D01*
G01X618523Y59511D01*
G01X618663Y59739D01*
G01X618804Y59967D01*
G01X618358Y60442D01*
G01X617911Y60917D01*
G01X617911Y61999D01*
G01X617063Y63077D01*
G01X617063Y65522D01*
G01X616726Y65894D01*
G01X616389Y66267D01*
G01X616822Y67040D01*
G01X616983Y66616D01*
G01X617143Y66192D01*
G01X617696Y65767D01*
G01X617882Y64762D01*
G01X618068Y63757D01*
G01X618289Y63490D01*
G01X618510Y63223D01*
G01X618657Y62435D01*
G01X618804Y61647D01*
G01X619083Y61415D01*
G01X619363Y61184D01*
G01X619503Y60356D01*
G01X619642Y59529D01*
G01X619281Y58918D01*
G01X618920Y58306D01*
G01X619241Y57583D01*
G01X619563Y56861D01*
G01X619807Y56118D01*
G01X620244Y56118D01*
G01X620244Y57296D01*
G01X619565Y58266D01*
G01X619816Y58518D01*
G01X620389Y57901D01*
G01X620962Y57285D01*
G01X621202Y55800D01*
G01X621668Y55595D01*
G01X622134Y55390D01*
G01X622196Y54445D01*
G01X622259Y53500D01*
G01X623440Y52831D01*
G01X623999Y51771D01*
G01X625122Y49693D01*
G01X625122Y48932D01*
G01X625531Y48231D01*
G01X625939Y47530D01*
G01X626231Y45935D01*
G01X626538Y45744D01*
G01X627118Y43880D01*
G01X627697Y42016D01*
G01X628139Y40744D01*
G01X628430Y39683D01*
G01X628722Y38623D01*
G01X629025Y37881D01*
G01X629329Y37139D01*
G01X629796Y35548D01*
G01X630263Y33958D01*
G01X630634Y32791D01*
G01X631004Y31625D01*
G01X631556Y29928D01*
G01X631707Y29186D01*
G01X631859Y28444D01*
G01X633982Y21022D01*
G01X634849Y17841D01*
G01X635716Y14660D01*
G01X635960Y13599D01*
G01X636203Y12539D01*
G01X636956Y9782D01*
G01X637407Y7874D01*
G01X637858Y5965D01*
G01X637853Y5408D01*
G01X637847Y4850D01*
G01X638159Y4104D01*
G01X638470Y3358D01*
G01X638894Y1087D01*
G01X639217Y-503D01*
G01X639540Y-2094D01*
G01X639852Y-3472D01*
G01X640164Y-4850D01*
G01X640296Y-5699D01*
G01X640429Y-6547D01*
G01X640534Y-6929D01*
G01X640640Y-7311D01*
G01X641240Y-6813D01*
G01X641240Y-1479D01*
G01X641627Y-1881D01*
G01X641777Y-5075D01*
G01X641927Y-8269D01*
G01X641240Y-8955D01*
G01X641240Y-9528D01*
G01X641569Y-9996D01*
G01X641897Y-10465D01*
G01X641811Y-13702D01*
G01X641724Y-16938D01*
G01X641210Y-24360D01*
G01X640872Y-25633D01*
G01X640534Y-26905D01*
G01X640572Y-28155D01*
G01X640609Y-29405D01*
G01X639768Y-30519D01*
G01X638926Y-31633D01*
G01X638787Y-32190D01*
G01X638647Y-32747D01*
G01X638248Y-33027D01*
G01X637848Y-33306D01*
G01X637615Y-33976D01*
G01X637381Y-34646D01*
G37*
G36*
G01X613278Y47106D02*
G01X612822Y45914D01*
G01X612457Y46139D01*
G01X612314Y47356D01*
G01X612171Y48572D01*
G01X611583Y49226D01*
G01X611352Y50711D01*
G01X611122Y52195D01*
G01X610725Y53998D01*
G01X610328Y55800D01*
G01X610102Y56755D01*
G01X609876Y57709D01*
G01X609669Y58769D01*
G01X609461Y59830D01*
G01X608976Y61738D01*
G01X608529Y63647D01*
G01X608260Y64813D01*
G01X607990Y65979D01*
G01X607646Y67358D01*
G01X607302Y68736D01*
G01X606887Y70170D01*
G01X606472Y71604D01*
G01X606034Y73139D01*
G01X605595Y74674D01*
G01X605135Y75947D01*
G01X604925Y77007D01*
G01X604715Y78067D01*
G01X604315Y78939D01*
G01X603914Y79810D01*
G01X603914Y80481D01*
G01X602952Y83303D01*
G01X601989Y86126D01*
G01X601271Y88246D01*
G01X600554Y90367D01*
G01X599852Y92063D01*
G01X599444Y92926D01*
G01X599036Y93788D01*
G01X599036Y94388D01*
G01X598586Y95558D01*
G01X598136Y96729D01*
G01X597761Y97577D01*
G01X597387Y98425D01*
G01X596647Y100758D01*
G01X596475Y100978D01*
G01X596303Y101197D01*
G01X595629Y102880D01*
G01X594955Y104563D01*
G01X594646Y105035D01*
G01X594337Y105506D01*
G01X594639Y107922D01*
G01X594399Y107774D01*
G01X594158Y107625D01*
G01X594158Y106499D01*
G01X593469Y107188D01*
G01X593469Y108279D01*
G01X592841Y108800D01*
G01X592333Y109948D01*
G01X591825Y111096D01*
G01X591825Y111680D01*
G01X591401Y112104D01*
G01X590977Y112528D01*
G01X590977Y113376D01*
G01X591348Y113781D01*
G01X591719Y114186D01*
G01X592144Y114078D01*
G01X592144Y112289D01*
G01X592886Y111871D01*
G01X592886Y111332D01*
G01X593365Y110915D01*
G01X593844Y110498D01*
G01X594370Y109391D01*
G01X594896Y108283D01*
G01X595270Y108164D01*
G01X595643Y108046D01*
G01X595643Y107198D01*
G01X595158Y106293D01*
G01X595805Y105752D01*
G01X596451Y105212D01*
G01X597538Y102751D01*
G01X598272Y102879D01*
G01X598854Y101818D01*
G01X599436Y100758D01*
G01X599460Y99666D01*
G01X599991Y99168D01*
G01X600521Y98670D01*
G01X600523Y98213D01*
G01X601026Y96977D01*
G01X601530Y95741D01*
G01X602005Y95266D01*
G01X602005Y93934D01*
G01X603066Y93451D01*
G01X603066Y92476D01*
G01X602723Y91986D01*
G01X602380Y91497D01*
G01X602523Y90418D01*
G01X602666Y89339D01*
G01X602873Y88952D01*
G01X603081Y88564D01*
G01X603914Y88564D01*
G01X603914Y89311D01*
G01X603490Y89576D01*
G01X603066Y89840D01*
G01X603066Y91533D01*
G01X603925Y91533D01*
G01X604147Y90950D01*
G01X604369Y90367D01*
G01X604285Y89783D01*
G01X604200Y89200D01*
G01X604587Y88849D01*
G01X604974Y88499D01*
G01X604974Y87517D01*
G01X606035Y84269D01*
G01X606036Y83819D01*
G01X606038Y83369D01*
G01X606880Y82096D01*
G01X606889Y81672D01*
G01X606898Y81248D01*
G01X607307Y80400D01*
G01X607717Y79552D01*
G01X607732Y78799D01*
G01X608156Y77592D01*
G01X608580Y76385D01*
G01X608584Y75742D01*
G01X608589Y75098D01*
G01X609009Y74174D01*
G01X609428Y73249D01*
G01X609428Y71018D01*
G01X610276Y68363D01*
G01X610276Y66802D01*
G01X611096Y63647D01*
G01X611237Y62056D01*
G01X611378Y60466D01*
G01X611657Y59299D01*
G01X611935Y58133D01*
G01X612072Y56224D01*
G01X612209Y54316D01*
G01X612525Y51877D01*
G01X612841Y49438D01*
G01X613059Y48272D01*
G01X613278Y47106D01*
G37*
G36*
G01X533291Y-279581D02*
G01X532860Y-279581D01*
G01X531892Y-278574D01*
G01X530924Y-277567D01*
G01X531054Y-276744D01*
G01X531184Y-275922D01*
G01X530852Y-275416D01*
G01X530520Y-274910D01*
G01X529550Y-271175D01*
G01X529106Y-270731D01*
G01X528661Y-270286D01*
G01X527035Y-267852D01*
G01X526504Y-267050D01*
G01X525974Y-266248D01*
G01X525183Y-265121D01*
G01X524391Y-263994D01*
G01X523194Y-262298D01*
G01X520778Y-257733D01*
G01X520778Y-257102D01*
G01X521568Y-257102D01*
G01X521365Y-258163D01*
G01X522051Y-258163D01*
G01X522358Y-258194D01*
G01X522503Y-257759D01*
G01X521635Y-257016D01*
G01X521764Y-256214D01*
G01X521892Y-255413D01*
G01X521494Y-255266D01*
G01X521096Y-255119D01*
G01X520941Y-254891D01*
G01X520785Y-254663D01*
G01X520781Y-253846D01*
G01X520778Y-253028D01*
G01X520248Y-252398D01*
G01X519718Y-251768D01*
G01X519588Y-251201D01*
G01X519459Y-250634D01*
G01X518842Y-248736D01*
G01X518623Y-248472D01*
G01X518403Y-248208D01*
G01X518227Y-247512D01*
G01X518050Y-246817D01*
G01X517382Y-244908D01*
G01X516919Y-244105D01*
G01X516495Y-242916D01*
G01X516072Y-241727D01*
G01X515958Y-240997D01*
G01X515844Y-240267D01*
G01X515054Y-238971D01*
G01X515052Y-238227D01*
G01X514204Y-236644D01*
G01X514196Y-236217D01*
G01X514189Y-235790D01*
G01X513886Y-235259D01*
G01X513582Y-234729D01*
G01X513575Y-234189D01*
G01X513567Y-233648D01*
G01X511877Y-229852D01*
G01X511874Y-229526D01*
G01X511871Y-229199D01*
G01X511022Y-227535D01*
G01X511022Y-226802D01*
G01X510629Y-226559D01*
G01X510147Y-224974D01*
G01X509573Y-223490D01*
G01X508887Y-221246D01*
G01X509024Y-221025D01*
G01X509160Y-220804D01*
G01X509781Y-221399D01*
G01X510402Y-221994D01*
G01X510531Y-222530D01*
G01X510660Y-223066D01*
G01X511385Y-224126D01*
G01X511502Y-224868D01*
G01X511619Y-225611D01*
G01X512275Y-227023D01*
G01X512931Y-228436D01*
G01X512931Y-229105D01*
G01X513355Y-230221D01*
G01X513779Y-231336D01*
G01X513780Y-232520D01*
G01X514192Y-233094D01*
G01X514605Y-233669D01*
G01X515025Y-234941D01*
G01X515446Y-236214D01*
G01X516961Y-239277D01*
G01X516961Y-239973D01*
G01X517358Y-240744D01*
G01X517755Y-241515D01*
G01X518299Y-242894D01*
G01X518843Y-244272D01*
G01X520302Y-247665D01*
G01X520986Y-249256D01*
G01X521670Y-250846D01*
G01X522694Y-253073D01*
G01X523717Y-255300D01*
G01X524017Y-256360D01*
G01X526741Y-261874D01*
G01X528208Y-264771D01*
G01X528645Y-266079D01*
G01X529083Y-267387D01*
G01X530126Y-269877D01*
G01X531170Y-272367D01*
G01X531170Y-273803D01*
G01X531783Y-274312D01*
G01X532016Y-275515D01*
G01X532250Y-276718D01*
G01X532771Y-277991D01*
G01X533292Y-279263D01*
G01X533291Y-279581D01*
G37*
G36*
G01X412757Y-189718D02*
G01X412491Y-190724D01*
G01X411994Y-191221D01*
G01X411723Y-190513D01*
G01X411877Y-189930D01*
G01X412031Y-189347D01*
G01X412091Y-188075D01*
G01X412151Y-186803D01*
G01X412396Y-185318D01*
G01X412642Y-183834D01*
G01X412837Y-180229D01*
G01X413032Y-176623D01*
G01X413259Y-172276D01*
G01X413487Y-167929D01*
G01X413471Y-159870D01*
G01X413456Y-151812D01*
G01X413282Y-150579D01*
G01X413108Y-149347D01*
G01X413446Y-148742D01*
G01X413783Y-148137D01*
G01X414913Y-147253D01*
G01X416043Y-146368D01*
G01X420415Y-142012D01*
G01X421876Y-140656D01*
G01X423336Y-139300D01*
G01X425524Y-137285D01*
G01X427711Y-135271D01*
G01X428629Y-134770D01*
G01X428953Y-135085D01*
G01X428704Y-135814D01*
G01X428455Y-136543D01*
G01X428065Y-137049D01*
G01X427675Y-137555D01*
G01X427668Y-137897D01*
G01X427661Y-138240D01*
G01X427350Y-138651D01*
G01X427038Y-139063D01*
G01X427038Y-139847D01*
G01X426620Y-140667D01*
G01X426202Y-141486D01*
G01X425443Y-143680D01*
G01X424684Y-145874D01*
G01X424299Y-147252D01*
G01X423913Y-148631D01*
G01X421888Y-155417D01*
G01X421404Y-157219D01*
G01X420919Y-159022D01*
G01X420070Y-162203D01*
G01X419818Y-162903D01*
G01X419567Y-163602D01*
G01X419683Y-164182D01*
G01X419799Y-164761D01*
G01X420449Y-166167D01*
G01X421100Y-167573D01*
G01X421107Y-167929D01*
G01X421948Y-169625D01*
G01X422790Y-171322D01*
G01X422797Y-171645D01*
G01X424531Y-174664D01*
G01X426266Y-177684D01*
G01X428884Y-181607D01*
G01X431502Y-185530D01*
G01X432778Y-187333D01*
G01X434055Y-189135D01*
G01X434326Y-189771D01*
G01X435173Y-190933D01*
G01X434977Y-191129D01*
G01X430730Y-186951D01*
G01X426483Y-182773D01*
G01X423327Y-179929D01*
G01X420424Y-177391D01*
G01X417520Y-174854D01*
G01X416681Y-175073D01*
G01X416482Y-175636D01*
G01X416283Y-176199D01*
G01X415206Y-179486D01*
G01X414128Y-182773D01*
G01X413894Y-183965D01*
G01X413659Y-185156D01*
G01X413054Y-185954D01*
G01X413038Y-187333D01*
G01X413022Y-188711D01*
G01X412757Y-189718D01*
G37*
G36*
G01X530198Y-212543D02*
G01X530051Y-214744D01*
G01X529897Y-214451D01*
G01X529742Y-214159D01*
G01X529473Y-209205D01*
G01X529271Y-207653D01*
G01X529069Y-206100D01*
G01X528625Y-198826D01*
G01X528627Y-197374D01*
G01X528629Y-195921D01*
G01X528313Y-194543D01*
G01X527998Y-193165D01*
G01X527562Y-185318D01*
G01X527645Y-183516D01*
G01X527728Y-181713D01*
G01X527947Y-178320D01*
G01X528166Y-174927D01*
G01X528852Y-170544D01*
G01X528594Y-169830D01*
G01X528336Y-169116D01*
G01X528586Y-168565D01*
G01X528837Y-168015D01*
G01X528837Y-166621D01*
G01X529127Y-166331D01*
G01X529324Y-166528D01*
G01X529521Y-166725D01*
G01X529317Y-167327D01*
G01X529114Y-167929D01*
G01X529972Y-169710D01*
G01X529585Y-170567D01*
G01X529199Y-171424D01*
G01X529500Y-174715D01*
G01X529859Y-180197D01*
G01X529530Y-180699D01*
G01X529200Y-181202D01*
G01X529451Y-182041D01*
G01X529703Y-182879D01*
G01X530110Y-182879D01*
G01X530110Y-184127D01*
G01X529700Y-184380D01*
G01X529827Y-185061D01*
G01X529954Y-185742D01*
G01X530277Y-186100D01*
G01X531365Y-185387D01*
G01X532010Y-185528D01*
G01X532655Y-185670D01*
G01X532655Y-186283D01*
G01X533222Y-186498D01*
G01X533789Y-186714D01*
G01X534354Y-186590D01*
G01X534920Y-186466D01*
G01X535192Y-186793D01*
G01X535464Y-187121D01*
G01X536275Y-187121D01*
G01X536798Y-187463D01*
G01X537321Y-187806D01*
G01X537321Y-188173D01*
G01X536313Y-188039D01*
G01X535306Y-187905D01*
G01X535136Y-187619D01*
G01X534967Y-187333D01*
G01X533474Y-187333D01*
G01X533541Y-187810D01*
G01X533609Y-188287D01*
G01X534211Y-188223D01*
G01X534812Y-188159D01*
G01X535119Y-188414D01*
G01X535425Y-188668D01*
G01X536659Y-188631D01*
G01X537893Y-188594D01*
G01X539049Y-189202D01*
G01X540205Y-189810D01*
G01X540831Y-189973D01*
G01X541456Y-190135D01*
G01X540440Y-190523D01*
G01X539145Y-190311D01*
G01X537851Y-190100D01*
G01X536424Y-189848D01*
G01X534997Y-189597D01*
G01X534148Y-189980D01*
G01X533299Y-190363D01*
G01X533054Y-191892D01*
G01X532508Y-194649D01*
G01X531961Y-197406D01*
G01X531689Y-199314D01*
G01X531417Y-201223D01*
G01X531193Y-202283D01*
G01X530969Y-203344D01*
G01X530657Y-206843D01*
G01X530345Y-210342D01*
G01X530198Y-212543D01*
G37*
G36*
G01X697177Y-140813D02*
G01X698078Y-140916D01*
G01X698078Y-142959D01*
G01X697071Y-142871D01*
G01X696063Y-142783D01*
G01X693518Y-142351D01*
G01X690973Y-141919D01*
G01X690019Y-141705D01*
G01X689065Y-141491D01*
G01X687580Y-141311D01*
G01X685883Y-141104D01*
G01X684187Y-140898D01*
G01X681748Y-140666D01*
G01X679309Y-140433D01*
G01X677798Y-140128D01*
G01X676287Y-139824D01*
G01X675279Y-140197D01*
G01X673795Y-139681D01*
G01X672028Y-139537D01*
G01X670262Y-139393D01*
G01X669059Y-139105D01*
G01X667857Y-138816D01*
G01X667326Y-138611D01*
G01X666796Y-138406D01*
G01X666248Y-138599D01*
G01X665206Y-138338D01*
G01X665206Y-137911D01*
G01X666266Y-137508D01*
G01X666266Y-137119D01*
G01X665918Y-136985D01*
G01X665570Y-136852D01*
G01X665123Y-136987D01*
G01X664675Y-137123D01*
G01X664039Y-137673D01*
G01X662412Y-137976D01*
G01X662483Y-137473D01*
G01X662554Y-136971D01*
G01X663179Y-136673D01*
G01X663804Y-136374D01*
G01X665613Y-136155D01*
G01X667422Y-135935D01*
G01X668154Y-135439D01*
G01X668886Y-134942D01*
G01X669432Y-134834D01*
G01X669977Y-134726D01*
G01X671280Y-134316D01*
G01X673025Y-134316D01*
G01X674219Y-133845D01*
G01X675385Y-133557D01*
G01X676552Y-133268D01*
G01X678355Y-133140D01*
G01X680157Y-133011D01*
G01X680581Y-132826D01*
G01X681006Y-132642D01*
G01X681430Y-132549D01*
G01X681854Y-132457D01*
G01X682583Y-132408D01*
G01X682459Y-132732D01*
G01X682334Y-133056D01*
G01X681949Y-133262D01*
G01X681564Y-133468D01*
G01X680723Y-133468D01*
G01X680326Y-134012D01*
G01X679930Y-134557D01*
G01X678983Y-134671D01*
G01X678036Y-134785D01*
G01X677174Y-135187D01*
G01X676312Y-135589D01*
G01X674817Y-135589D01*
G01X673775Y-135905D01*
G01X672734Y-136220D01*
G01X671939Y-136223D01*
G01X671144Y-136225D01*
G01X671144Y-136594D01*
G01X672162Y-136730D01*
G01X673181Y-136865D01*
G01X674442Y-136992D01*
G01X675704Y-137120D01*
G01X676530Y-137541D01*
G01X677357Y-137962D01*
G01X677962Y-137841D01*
G01X678567Y-137720D01*
G01X679118Y-137930D01*
G01X679669Y-138139D01*
G01X681251Y-138221D01*
G01X682833Y-138303D01*
G01X683192Y-138622D01*
G01X683551Y-138941D01*
G01X685247Y-139093D01*
G01X686944Y-139245D01*
G01X687156Y-139403D01*
G01X687368Y-139560D01*
G01X688853Y-139709D01*
G01X690337Y-139857D01*
G01X693094Y-140240D01*
G01X694685Y-140474D01*
G01X696275Y-140709D01*
G01X697177Y-140813D01*
G37*
G36*
G01X375715Y-287003D02*
G01X368703Y-287003D01*
G01X368578Y-286632D01*
G01X368454Y-286261D01*
G01X367460Y-283716D01*
G01X366480Y-281384D01*
G01X365499Y-279051D01*
G01X364062Y-275138D01*
G01X363420Y-273867D01*
G01X362778Y-272595D01*
G01X362778Y-271947D01*
G01X363107Y-271947D01*
G01X364305Y-273325D01*
G01X365429Y-274598D01*
G01X366554Y-275870D01*
G01X372647Y-282868D01*
G01X373265Y-283699D01*
G01X373882Y-284531D01*
G01X375715Y-286593D01*
G01X375715Y-287003D01*
G37*
G36*
G01X466046Y-104623D02*
G01X465524Y-104754D01*
G01X465001Y-104885D01*
G01X465001Y-104220D01*
G01X465478Y-103771D01*
G01X465955Y-103322D01*
G01X467239Y-102601D01*
G01X468523Y-101881D01*
G01X469042Y-101317D01*
G01X469561Y-100754D01*
G01X470762Y-100180D01*
G01X471964Y-99605D01*
G01X472663Y-99017D01*
G01X473361Y-98430D01*
G01X475569Y-97385D01*
G01X475938Y-96977D01*
G01X476307Y-96569D01*
G01X476877Y-96569D01*
G01X477265Y-96181D01*
G01X477653Y-95793D01*
G01X478851Y-95108D01*
G01X480050Y-94422D01*
G01X480310Y-94000D01*
G01X480620Y-94065D01*
G01X480929Y-94130D01*
G01X481009Y-94554D01*
G01X478890Y-95978D01*
G01X476771Y-97402D01*
G01X476029Y-97781D01*
G01X475287Y-98159D01*
G01X475106Y-98444D01*
G01X474925Y-98729D01*
G01X474258Y-99037D01*
G01X473590Y-99344D01*
G01X472106Y-100366D01*
G01X471575Y-100814D01*
G01X471045Y-101262D01*
G01X469998Y-101937D01*
G01X468950Y-102613D01*
G01X468483Y-102931D01*
G01X468016Y-103249D01*
G01X467031Y-103936D01*
G01X466046Y-104623D01*
G37*
G36*
G01X689347Y147307D02*
G01X698078Y147307D01*
G01X698078Y131953D01*
G01X697883Y132154D01*
G01X697687Y132356D01*
G01X696251Y134901D01*
G01X694816Y137445D01*
G01X693987Y139036D01*
G01X693157Y140626D01*
G01X692465Y141793D01*
G01X691773Y142959D01*
G01X691134Y144126D01*
G01X690494Y145292D01*
G01X689920Y146299D01*
G01X689347Y147307D01*
G37*
G36*
G01X690443Y-194576D02*
G01X690443Y-195356D01*
G01X690186Y-196027D01*
G01X689171Y-196078D01*
G01X689171Y-195824D01*
G01X689478Y-195024D01*
G01X689786Y-194225D01*
G01X689890Y-193498D01*
G01X689994Y-192771D01*
G01X689580Y-191998D01*
G01X688775Y-191998D01*
G01X688337Y-191382D01*
G01X687898Y-190766D01*
G01X687891Y-190481D01*
G01X687883Y-190196D01*
G01X687370Y-189568D01*
G01X686857Y-188940D01*
G01X686545Y-189251D01*
G01X686532Y-189936D01*
G01X686520Y-190620D01*
G01X685671Y-190620D01*
G01X685726Y-189923D01*
G01X685781Y-189227D01*
G01X685438Y-188564D01*
G01X685095Y-187902D01*
G01X685545Y-186378D01*
G01X685645Y-185448D01*
G01X685745Y-184517D01*
G01X686405Y-183858D01*
G01X687452Y-184842D01*
G01X687781Y-184715D01*
G01X688110Y-184589D01*
G01X688110Y-183798D01*
G01X688398Y-183511D01*
G01X688803Y-183640D01*
G01X689208Y-183768D01*
G01X690197Y-183911D01*
G01X691185Y-184054D01*
G01X691185Y-185188D01*
G01X691716Y-185721D01*
G01X691716Y-186433D01*
G01X691079Y-186961D01*
G01X691079Y-187757D01*
G01X691860Y-187757D01*
G01X692101Y-187227D01*
G01X692343Y-186697D01*
G01X692719Y-186702D01*
G01X693094Y-186707D01*
G01X694095Y-187441D01*
G01X695095Y-188175D01*
G01X695415Y-188662D01*
G01X695734Y-189149D01*
G01X695241Y-190753D01*
G01X694804Y-190987D01*
G01X694367Y-191221D01*
G01X693464Y-192149D01*
G01X692561Y-193078D01*
G01X692227Y-193587D01*
G01X691893Y-194097D01*
G01X690443Y-194576D01*
G37*
G36*
G01X412588Y-286959D02*
G01X410661Y-287020D01*
G01X410377Y-286641D01*
G01X410093Y-286261D01*
G01X408565Y-283716D01*
G01X406984Y-281278D01*
G01X405402Y-278839D01*
G01X405062Y-278100D01*
G01X404723Y-277362D01*
G01X404322Y-276852D01*
G01X403922Y-276343D01*
G01X403819Y-275976D01*
G01X404073Y-275976D01*
G01X405164Y-277067D01*
G01X406254Y-278157D01*
G01X406254Y-278494D01*
G01X410384Y-282696D01*
G01X414514Y-286897D01*
G01X412588Y-286959D01*
G37*
G36*
G01X652780Y-215339D02*
G01X652215Y-215862D01*
G01X651720Y-216386D01*
G01X651466Y-216386D01*
G01X651167Y-215219D01*
G01X651092Y-212462D01*
G01X651017Y-209706D01*
G01X650772Y-207691D01*
G01X650527Y-205676D01*
G01X650575Y-205146D01*
G01X650623Y-204616D01*
G01X650595Y-202283D01*
G01X650476Y-199102D01*
G01X650356Y-195921D01*
G01X650336Y-194861D01*
G01X650363Y-194119D01*
G01X650390Y-193377D01*
G01X650245Y-192572D01*
G01X650099Y-191767D01*
G01X650458Y-191370D01*
G01X650817Y-190974D01*
G01X650493Y-190479D01*
G01X650170Y-189984D01*
G01X650370Y-180865D01*
G01X650126Y-179339D01*
G01X649881Y-177813D01*
G01X650014Y-177468D01*
G01X650146Y-177122D01*
G01X650890Y-177266D01*
G01X650960Y-180550D01*
G01X651031Y-183834D01*
G01X651073Y-185424D01*
G01X651115Y-187015D01*
G01X651286Y-187984D01*
G01X651457Y-188953D01*
G01X651217Y-189844D01*
G01X650978Y-190734D01*
G01X651305Y-191201D01*
G01X651632Y-191668D01*
G01X651632Y-192819D01*
G01X651421Y-193375D01*
G01X651210Y-193931D01*
G01X651572Y-194608D01*
G01X651935Y-195285D01*
G01X651995Y-199314D01*
G01X652055Y-203344D01*
G01X652239Y-210766D01*
G01X652015Y-211540D01*
G01X651790Y-212313D01*
G01X652122Y-212787D01*
G01X652454Y-213261D01*
G01X651785Y-214281D01*
G01X652780Y-215339D01*
G37*
G36*
G01X434779Y-61529D02*
G01X433862Y-61807D01*
G01X432631Y-61374D01*
G01X431401Y-60942D01*
G01X430019Y-60942D01*
G01X428205Y-60117D01*
G01X425766Y-59057D01*
G01X425766Y-58220D01*
G01X426031Y-58122D01*
G01X426296Y-58023D01*
G01X427569Y-58245D01*
G01X428151Y-58538D01*
G01X428733Y-58831D01*
G01X430484Y-59466D01*
G01X432234Y-60102D01*
G01X432682Y-60330D01*
G01X433131Y-60558D01*
G01X435628Y-60366D01*
G01X437006Y-60103D01*
G01X438385Y-59840D01*
G01X445808Y-60101D01*
G01X447451Y-60231D01*
G01X449095Y-60360D01*
G01X449095Y-60888D01*
G01X444164Y-61042D01*
G01X439233Y-61197D01*
G01X436889Y-61179D01*
G01X435670Y-60716D01*
G01X435225Y-61122D01*
G01X434779Y-61529D01*
G37*
G36*
G01X489865Y-42743D02*
G01X489632Y-43254D01*
G01X489399Y-43764D01*
G01X488806Y-43764D01*
G01X488579Y-43491D01*
G01X488352Y-43218D01*
G01X488148Y-42309D01*
G01X487944Y-41401D01*
G01X487627Y-41045D01*
G01X487310Y-40689D01*
G01X486842Y-39205D01*
G01X486373Y-37721D01*
G01X485224Y-35388D01*
G01X484991Y-34540D01*
G01X484758Y-33691D01*
G01X484529Y-32818D01*
G01X484300Y-31946D01*
G01X484300Y-31253D01*
G01X484871Y-31253D01*
G01X485523Y-31995D01*
G01X486487Y-33903D01*
G01X486680Y-34646D01*
G01X486872Y-35388D01*
G01X487478Y-38055D01*
G01X487873Y-38842D01*
G01X488269Y-39629D01*
G01X489233Y-41538D01*
G01X489549Y-42140D01*
G01X489865Y-42743D01*
G37*
G36*
G01X441884Y3551D02*
G01X441663Y3414D01*
G01X441441Y3278D01*
G01X440920Y3619D01*
G01X440399Y3960D01*
G01X440399Y4607D01*
G01X439899Y5074D01*
G01X439398Y5541D01*
G01X439071Y6601D01*
G01X437593Y8841D01*
G01X436878Y10478D01*
G01X436163Y12115D01*
G01X436160Y12557D01*
G01X436158Y12998D01*
G01X436429Y13270D01*
G01X436794Y13044D01*
G01X436794Y12315D01*
G01X437141Y11820D01*
G01X437487Y11326D01*
G01X438115Y10130D01*
G01X438742Y8934D01*
G01X439027Y8709D01*
G01X439311Y8484D01*
G01X439598Y7338D01*
G01X439858Y7182D01*
G01X440117Y7025D01*
G01X440928Y4742D01*
G01X441406Y4524D01*
G01X441884Y4306D01*
G01X441884Y3551D01*
G37*
G36*
G01X555772Y-192505D02*
G01X555772Y-192759D01*
G01X553598Y-192734D01*
G01X551424Y-192710D01*
G01X550603Y-192354D01*
G01X549782Y-191998D01*
G01X548663Y-191998D01*
G01X548418Y-191606D01*
G01X548173Y-191213D01*
G01X549056Y-191384D01*
G01X549939Y-191556D01*
G01X550828Y-191565D01*
G01X551717Y-191574D01*
G01X551979Y-191998D01*
G01X552590Y-191998D01*
G01X552590Y-191342D01*
G01X552007Y-190795D01*
G01X551424Y-190249D01*
G01X550576Y-189710D01*
G01X549727Y-189171D01*
G01X548826Y-188419D01*
G01X547925Y-187667D01*
G01X547925Y-187333D01*
G01X548402Y-187334D01*
G01X548879Y-187335D01*
G01X549997Y-188182D01*
G01X551114Y-189029D01*
G01X551380Y-189029D01*
G01X552250Y-189736D01*
G01X553121Y-190443D01*
G01X553469Y-190637D01*
G01X553817Y-190832D01*
G01X554794Y-191668D01*
G01X555772Y-192505D01*
G37*
G36*
G01X672628Y-192846D02*
G01X673901Y-192846D01*
G01X673901Y-194119D01*
G01X670083Y-194119D01*
G01X670083Y-193716D01*
G01X668864Y-193652D01*
G01X667644Y-193589D01*
G01X667503Y-191680D01*
G01X667361Y-189771D01*
G01X667477Y-188976D01*
G01X667593Y-188181D01*
G01X669034Y-188181D01*
G01X670001Y-189148D01*
G01X670968Y-190115D01*
G01X670526Y-190498D01*
G01X670083Y-190882D01*
G01X670083Y-191816D01*
G01X670758Y-192491D01*
G01X671176Y-191892D01*
G01X671391Y-192422D01*
G01X672628Y-192422D01*
G01X672628Y-192846D01*
G37*
G36*
G01X505932Y-233530D02*
G01X507205Y-234803D01*
G01X507205Y-236139D01*
G01X506845Y-236069D01*
G01X506484Y-236000D01*
G01X505276Y-233688D01*
G01X505030Y-233391D01*
G01X504783Y-233094D01*
G01X504529Y-232639D01*
G01X504275Y-232185D01*
G01X503407Y-230448D01*
G01X502539Y-228711D01*
G01X502539Y-228024D01*
G01X502963Y-228286D01*
G01X502963Y-228814D01*
G01X503713Y-229541D01*
G01X504462Y-230267D01*
G01X505059Y-231332D01*
G01X505655Y-232397D01*
G01X505794Y-232963D01*
G01X505932Y-233530D01*
G37*
G36*
G01X608797Y-287003D02*
G01X603959Y-287003D01*
G01X603702Y-286333D01*
G01X603702Y-285500D01*
G01X602685Y-284483D01*
G01X602822Y-283357D01*
G01X602960Y-282232D01*
G01X603808Y-282165D01*
G01X604656Y-282098D01*
G01X604841Y-281916D01*
G01X605026Y-281735D01*
G01X605635Y-281969D01*
G01X605346Y-282656D01*
G01X605173Y-283522D01*
G01X605000Y-284389D01*
G01X605556Y-286005D01*
G01X606061Y-286285D01*
G01X606565Y-286564D01*
G01X607126Y-286572D01*
G01X607686Y-286579D01*
G01X607800Y-286282D01*
G01X607914Y-285985D01*
G01X607661Y-285731D01*
G01X606960Y-285731D01*
G01X606497Y-285199D01*
G01X606035Y-284668D01*
G01X606035Y-284299D01*
G01X606349Y-284038D01*
G01X606662Y-283778D01*
G01X606437Y-283358D01*
G01X606213Y-282938D01*
G01X606476Y-282674D01*
G01X607051Y-283024D01*
G01X607625Y-283374D01*
G01X607635Y-283901D01*
G01X607645Y-284427D01*
G01X608090Y-284814D01*
G01X608535Y-285201D01*
G01X608666Y-286102D01*
G01X608797Y-287003D01*
G37*
G36*
G01X483906Y-64326D02*
G01X483773Y-64543D01*
G01X483639Y-64759D01*
G01X482608Y-64759D01*
G01X481981Y-63433D01*
G01X481354Y-62108D01*
G01X480682Y-61226D01*
G01X480010Y-60343D01*
G01X480153Y-60112D01*
G01X480296Y-59881D01*
G01X481649Y-59875D01*
G01X481967Y-59669D01*
G01X482285Y-59464D01*
G01X482920Y-59461D01*
G01X483554Y-59457D01*
G01X484454Y-59828D01*
G01X485355Y-60199D01*
G01X485582Y-60789D01*
G01X485237Y-61317D01*
G01X484891Y-61844D01*
G01X484283Y-62073D01*
G01X483675Y-62303D01*
G01X483440Y-62915D01*
G01X483673Y-63621D01*
G01X483906Y-64326D01*
G37*
G36*
G01X640816Y10299D02*
G01X640495Y10176D01*
G01X640175Y10053D01*
G01X639868Y10307D01*
G01X639562Y10561D01*
G01X639566Y12195D01*
G01X639570Y13829D01*
G01X639132Y15460D01*
G01X638695Y17091D01*
G01X638695Y20279D01*
G01X639052Y20279D01*
G01X639544Y18640D01*
G01X639544Y17152D01*
G01X639862Y16250D01*
G01X640180Y15349D01*
G01X640187Y13944D01*
G01X640195Y12539D01*
G01X640801Y11479D01*
G01X640809Y10889D01*
G01X640816Y10299D01*
G37*
G36*
G01X597074Y-284182D02*
G01X596878Y-284533D01*
G01X596682Y-284883D01*
G01X595940Y-284883D01*
G01X595431Y-284374D01*
G01X595431Y-284068D01*
G01X596809Y-283769D01*
G01X596955Y-283539D01*
G01X597101Y-283310D01*
G01X599354Y-282502D01*
G01X600627Y-282361D01*
G01X601899Y-282220D01*
G01X602173Y-282305D01*
G01X602447Y-282390D01*
G01X602291Y-282868D01*
G01X600839Y-283006D01*
G01X599991Y-283773D01*
G01X598667Y-284441D01*
G01X597871Y-284312D01*
G01X597074Y-284182D01*
G37*
G36*
G01X431187Y-147171D02*
G01X430827Y-147309D01*
G01X430405Y-146886D01*
G01X430196Y-145381D01*
G01X429988Y-143875D01*
G01X430667Y-139304D01*
G01X430386Y-136683D01*
G01X430673Y-136218D01*
G01X431003Y-136422D01*
G01X431145Y-140512D01*
G01X431288Y-144602D01*
G01X431417Y-145817D01*
G01X431546Y-147033D01*
G01X431187Y-147171D01*
G37*
G36*
G01X668902Y-165997D02*
G01X668568Y-166125D01*
G01X668184Y-165919D01*
G01X667800Y-165714D01*
G01X667669Y-165372D01*
G01X667538Y-165031D01*
G01X667537Y-164253D01*
G01X667536Y-163475D01*
G01X667116Y-162839D01*
G01X666696Y-162203D01*
G01X666964Y-161355D01*
G01X667304Y-160885D01*
G01X667644Y-160415D01*
G01X668069Y-160538D01*
G01X669011Y-163263D01*
G01X668781Y-164810D01*
G01X669235Y-165091D01*
G01X669235Y-165869D01*
G01X668902Y-165997D01*
G37*
G36*
G01X680707Y-183081D02*
G01X680302Y-183298D01*
G01X679650Y-182554D01*
G01X678997Y-181811D01*
G01X678870Y-181232D01*
G01X678743Y-180653D01*
G01X678650Y-180358D01*
G01X678557Y-180064D01*
G01X680435Y-180321D01*
G01X680693Y-180010D01*
G01X680951Y-179698D01*
G01X681549Y-179698D01*
G01X681664Y-179997D01*
G01X681779Y-180296D01*
G01X681445Y-180941D01*
G01X681112Y-181586D01*
G01X681112Y-182864D01*
G01X680707Y-183081D01*
G37*
G04 Image End*

G04 Text Start*
G54D10*
G01X-754504Y-1754758D02*
G01X-754504Y-1874900D01*
G01X-754504Y-1754758D02*
G01X-680082Y-1754758D01*
G01X-754504Y-1811908D02*
G01X-708784Y-1811908D01*
G01X-754504Y-1874900D02*
G01X-680082Y-1874900D01*
G01X-632330Y-1754758D02*
G01X-632330Y-1874900D01*
G01X-632330Y-1754758D02*
G01X-552320Y-1874900D01*
G01X-552320Y-1754758D02*
G01X-552320Y-1874900D01*
G01X634647Y-1783460D02*
G01X628805Y-1772030D01*
G01X617375Y-1760600D01*
G01X605945Y-1754758D01*
G01X583085Y-1754758D01*
G01X571655Y-1760600D01*
G01X560225Y-1772030D01*
G01X554637Y-1783460D01*
G01X548795Y-1800478D01*
G01X548795Y-1829180D01*
G01X554637Y-1846198D01*
G01X560225Y-1857628D01*
G01X571655Y-1869058D01*
G01X583085Y-1874900D01*
G01X605945Y-1874900D01*
G01X617375Y-1869058D01*
G01X628805Y-1857628D01*
G01X634647Y-1846198D01*
G01X634647Y-1829180D01*
G01X605945Y-1829180D02*
G01X634647Y-1829180D01*
G01X756821Y-1794890D02*
G01X750979Y-1811908D01*
G01X739549Y-1823338D01*
G01X722531Y-1829180D01*
G01X716689Y-1829180D01*
G01X699671Y-1823338D01*
G01X688241Y-1811908D01*
G01X682399Y-1794890D01*
G01X682399Y-1789048D01*
G01X688241Y-1772030D01*
G01X699671Y-1760600D01*
G01X716689Y-1754758D01*
G01X722531Y-1754758D01*
G01X739549Y-1760600D01*
G01X750979Y-1772030D01*
G01X756821Y-1794890D01*
G01X756821Y-1823338D01*
G01X750979Y-1852040D01*
G01X739549Y-1869058D01*
G01X722531Y-1874900D01*
G01X711101Y-1874900D01*
G01X693829Y-1869058D01*
G01X688241Y-1857628D01*
G01X27892Y-921680D02*
G01X27892Y-1016676D01*
G01X27892Y-921680D02*
G01X68532Y-921680D01*
G01X82248Y-926252D01*
G01X86820Y-930824D01*
G01X91138Y-939968D01*
G01X91138Y-948858D01*
G01X86820Y-958002D01*
G01X82248Y-962574D01*
G01X68532Y-966892D01*
G01X27892Y-966892D01*
G01X59642Y-966892D02*
G01X91138Y-1016676D01*
G01X60065Y-772150D02*
G01X60065Y-867146D01*
G01X28315Y-772150D02*
G01X91561Y-772150D01*
G01X-335280Y-2139950D02*
G01X-335280Y-2226564D01*
G01X-295148Y-2139950D02*
G01X-291084Y-2144014D01*
G01X-286766Y-2139950D01*
G01X-291084Y-2135886D01*
G01X-295148Y-2139950D01*
G01X-291084Y-2168906D02*
G01X-291084Y-2226564D01*
G01X-246634Y-2168906D02*
G01X-246634Y-2210054D01*
G01X-242570Y-2222500D01*
G01X-234188Y-2226564D01*
G01X-221742Y-2226564D01*
G01X-213614Y-2222500D01*
G01X-201168Y-2210054D01*
G01X-201168Y-2168906D02*
G01X-201168Y-2226564D01*
G01X-161036Y-2168906D02*
G01X-144526Y-2226564D01*
G01X-128016Y-2168906D02*
G01X-144526Y-2226564D01*
G01X-128016Y-2168906D02*
G01X-111506Y-2226564D01*
G01X-94996Y-2168906D02*
G01X-111506Y-2226564D01*
G01X-54864Y-2193544D02*
G01X-5334Y-2193544D01*
G01X-5334Y-2185416D01*
G01X-9398Y-2177034D01*
G01X-13462Y-2172970D01*
G01X-21844Y-2168906D01*
G01X-34290Y-2168906D01*
G01X-42418Y-2172970D01*
G01X-50800Y-2181352D01*
G01X-54864Y-2193544D01*
G01X-54864Y-2201926D01*
G01X-50800Y-2214372D01*
G01X-42418Y-2222500D01*
G01X-34290Y-2226564D01*
G01X-21844Y-2226564D01*
G01X-13462Y-2222500D01*
G01X-5334Y-2214372D01*
G01X34798Y-2139950D02*
G01X38862Y-2144014D01*
G01X43180Y-2139950D01*
G01X38862Y-2135886D01*
G01X34798Y-2139950D01*
G01X38862Y-2168906D02*
G01X38862Y-2226564D01*
G01X132842Y-2168906D02*
G01X132842Y-2255520D01*
G01X132842Y-2181352D02*
G01X124714Y-2172970D01*
G01X116332Y-2168906D01*
G01X103886Y-2168906D01*
G01X95758Y-2172970D01*
G01X87376Y-2181352D01*
G01X83312Y-2193544D01*
G01X83312Y-2201926D01*
G01X87376Y-2214372D01*
G01X95758Y-2222500D01*
G01X103886Y-2226564D01*
G01X116332Y-2226564D01*
G01X124714Y-2222500D01*
G01X132842Y-2214372D01*
G01X172974Y-2139950D02*
G01X177038Y-2144014D01*
G01X181356Y-2139950D01*
G01X177038Y-2135886D01*
G01X172974Y-2139950D01*
G01X177038Y-2168906D02*
G01X177038Y-2226564D01*
G01X221488Y-2168906D02*
G01X221488Y-2226564D01*
G01X221488Y-2185416D02*
G01X233934Y-2172970D01*
G01X242062Y-2168906D01*
G01X254508Y-2168906D01*
G01X262890Y-2172970D01*
G01X266954Y-2185416D01*
G01X266954Y-2226564D01*
G01X356616Y-2168906D02*
G01X356616Y-2234946D01*
G01X352552Y-2247392D01*
G01X348488Y-2251456D01*
G01X340106Y-2255520D01*
G01X327660Y-2255520D01*
G01X319532Y-2251456D01*
G01X356616Y-2181352D02*
G01X348488Y-2172970D01*
G01X340106Y-2168906D01*
G01X327660Y-2168906D01*
G01X319532Y-2172970D01*
G01X311150Y-2181352D01*
G01X307086Y-2193544D01*
G01X307086Y-2201926D01*
G01X311150Y-2214372D01*
G01X319532Y-2222500D01*
G01X327660Y-2226564D01*
G01X340106Y-2226564D01*
G01X348488Y-2222500D01*
G01X356616Y-2214372D01*
G54D11*
G01X313270Y-1380797D02*
G01X378294Y-1380797D01*
G01X378294Y-1380797D02*
G01X378294Y-1343713D01*
G01X313270Y-1313487D02*
G01X378294Y-1313487D01*
G01X313270Y-1313487D02*
G01X313270Y-1291897D01*
G01X316318Y-1282753D01*
G01X322414Y-1276403D01*
G01X328764Y-1273355D01*
G01X337908Y-1270307D01*
G01X353402Y-1270307D01*
G01X362800Y-1273355D01*
G01X368896Y-1276403D01*
G01X375246Y-1282753D01*
G01X378294Y-1291897D01*
G01X378294Y-1313487D01*
G01X313270Y-1221539D02*
G01X316318Y-1227889D01*
G01X322414Y-1233985D01*
G01X328764Y-1237033D01*
G01X337908Y-1240081D01*
G01X353402Y-1240081D01*
G01X362800Y-1237033D01*
G01X368896Y-1233985D01*
G01X375246Y-1227889D01*
G01X378294Y-1221539D01*
G01X378294Y-1209347D01*
G01X375246Y-1202997D01*
G01X368896Y-1196901D01*
G01X362800Y-1193853D01*
G01X353402Y-1190551D01*
G01X337908Y-1190551D01*
G01X328764Y-1193853D01*
G01X322414Y-1196901D01*
G01X316318Y-1202997D01*
G01X313270Y-1209347D01*
G01X313270Y-1221539D01*
G01X325716Y-1160325D02*
G01X322414Y-1154229D01*
G01X313270Y-1145085D01*
G01X378294Y-1145085D01*
G01X-316641Y-1364612D02*
G01X-313593Y-1370962D01*
G01X-307243Y-1377058D01*
G01X-301147Y-1380106D01*
G01X-288701Y-1380106D01*
G01X-282605Y-1377058D01*
G01X-276255Y-1370962D01*
G01X-273207Y-1364612D01*
G01X-270159Y-1355468D01*
G01X-270159Y-1339974D01*
G01X-273207Y-1330576D01*
G01X-276255Y-1324480D01*
G01X-282605Y-1318130D01*
G01X-288701Y-1315082D01*
G01X-301147Y-1315082D01*
G01X-307243Y-1318130D01*
G01X-313593Y-1324480D01*
G01X-316641Y-1330576D01*
G01X-349915Y-1364612D02*
G01X-349915Y-1367660D01*
G01X-352963Y-1374010D01*
G01X-356011Y-1377058D01*
G01X-362107Y-1380106D01*
G01X-374553Y-1380106D01*
G01X-380903Y-1377058D01*
G01X-383951Y-1374010D01*
G01X-386999Y-1367660D01*
G01X-386999Y-1361564D01*
G01X-383951Y-1355468D01*
G01X-377601Y-1346070D01*
G01X-346867Y-1315082D01*
G01X-390047Y-1315082D01*
G01X-428089Y-1720284D02*
G01X-428089Y-1655260D01*
G01X-428089Y-1720284D02*
G01X-456029Y-1720284D01*
G01X-465173Y-1717236D01*
G01X-468221Y-1714188D01*
G01X-471523Y-1707838D01*
G01X-471523Y-1701742D01*
G01X-468221Y-1695646D01*
G01X-465173Y-1692598D01*
G01X-456029Y-1689296D01*
G01X-428089Y-1689296D01*
G01X-449679Y-1689296D02*
G01X-471523Y-1655260D01*
G01X-544929Y-1720284D02*
G01X-513941Y-1655260D01*
G01X-501749Y-1720284D02*
G01X-544929Y-1720284D01*
G01X437059Y-1359055D02*
G01X437059Y-1424079D01*
G01X437059Y-1359055D02*
G01X464999Y-1359055D01*
G01X474143Y-1362103D01*
G01X477191Y-1365151D01*
G01X480493Y-1371501D01*
G01X480493Y-1377597D01*
G01X477191Y-1383693D01*
G01X474143Y-1386741D01*
G01X464999Y-1390043D01*
G01X437059Y-1390043D01*
G01X458649Y-1390043D02*
G01X480493Y-1424079D01*
G01X525959Y-1359055D02*
G01X516815Y-1362103D01*
G01X513767Y-1368199D01*
G01X513767Y-1374549D01*
G01X516815Y-1380645D01*
G01X522911Y-1383693D01*
G01X535357Y-1386741D01*
G01X544755Y-1390043D01*
G01X550851Y-1396139D01*
G01X553899Y-1402235D01*
G01X553899Y-1411633D01*
G01X550851Y-1417729D01*
G01X547803Y-1421031D01*
G01X538405Y-1424079D01*
G01X525959Y-1424079D01*
G01X516815Y-1421031D01*
G01X513767Y-1417729D01*
G01X510719Y-1411633D01*
G01X510719Y-1402235D01*
G01X513767Y-1396139D01*
G01X519863Y-1390043D01*
G01X529261Y-1386741D01*
G01X541453Y-1383693D01*
G01X547803Y-1380645D01*
G01X550851Y-1374549D01*
G01X550851Y-1368199D01*
G01X547803Y-1362103D01*
G01X538405Y-1359055D01*
G01X525959Y-1359055D01*
G01X-299466Y-776986D02*
G01X-299466Y-842010D01*
G01X-299466Y-776986D02*
G01X-271526Y-776986D01*
G01X-262382Y-780034D01*
G01X-259334Y-783082D01*
G01X-256032Y-789432D01*
G01X-256032Y-795528D01*
G01X-259334Y-801624D01*
G01X-262382Y-804672D01*
G01X-271526Y-807974D01*
G01X-299466Y-807974D01*
G01X-277876Y-807974D02*
G01X-256032Y-842010D01*
G01X-225806Y-789432D02*
G01X-219710Y-786130D01*
G01X-210566Y-776986D01*
G01X-210566Y-842010D01*
G01X-161798Y-776986D02*
G01X-171196Y-780034D01*
G01X-177292Y-789432D01*
G01X-180340Y-804672D01*
G01X-180340Y-814070D01*
G01X-177292Y-829564D01*
G01X-171196Y-838962D01*
G01X-161798Y-842010D01*
G01X-155702Y-842010D01*
G01X-146304Y-838962D01*
G01X-140208Y-829564D01*
G01X-137160Y-814070D01*
G01X-137160Y-804672D01*
G01X-140208Y-789432D01*
G01X-146304Y-780034D01*
G01X-155702Y-776986D01*
G01X-161798Y-776986D01*
G01X-431800Y-949706D02*
G01X-431800Y-996188D01*
G01X-428752Y-1005332D01*
G01X-422402Y-1011682D01*
G01X-413258Y-1014730D01*
G01X-406908Y-1014730D01*
G01X-397764Y-1011682D01*
G01X-391668Y-1005332D01*
G01X-388366Y-996188D01*
G01X-388366Y-949706D01*
G01X-358140Y-962152D02*
G01X-352044Y-958850D01*
G01X-342900Y-949706D01*
G01X-342900Y-1014730D01*
G04 Text End*

G04 PolygonModel Start*
G54D12*
G01X-431092Y-229493D02*
G01X-431092Y-270006D01*
G01X-431092Y-270006D02*
G01X-390579Y-270006D01*
G01X-431092Y229485D02*
G01X-431092Y269998D01*
G01X-431092Y269998D02*
G01X-390579Y269998D01*
G01X68399Y-270006D02*
G01X108912Y-270006D01*
G01X108912Y-270006D02*
G01X108912Y-229493D01*
G01X68399Y269998D02*
G01X108912Y269998D01*
G01X108912Y269998D02*
G01X108912Y229485D01*
G54D13*
G01X-466144Y252785D02*
G03X-496146Y252658I-15001J-127D01*
G03X-466144Y252531I15001J0D01*
G54D14*
G01X-559494Y139802D02*
G01X-559494Y59805D01*
G01X-559448Y195847D02*
G01X-559448Y275845D01*
G01X-701462Y139802D02*
G01X-701462Y59805D01*
G01X-670428Y306822D02*
G01X-590426Y306822D01*
G01X-701414Y275839D02*
G02X-670428Y306822I30983J0D01*
G01X-590431Y306822D02*
G02X-559448Y275839I0J-30983D01*
G01X-559494Y59810D02*
G02X-590477Y28830I-30983J3D01*
G01X-701414Y195847D02*
G01X-701414Y275845D01*
G01X-590477Y28830D02*
G01X-670482Y28830D01*
G01X-670474Y28830D02*
G02X-701462Y59810I-5J30983D01*
G01X-702271Y-111249D02*
G01X-702271Y-31252D01*
G01X-702317Y-167294D02*
G01X-702317Y-247292D01*
G01X-560303Y-111249D02*
G01X-560303Y-31252D01*
G01X-591336Y-278269D02*
G01X-671339Y-278269D01*
G01X-560351Y-247287D02*
G02X-591336Y-278269I-30983J0D01*
G01X-671334Y-278269D02*
G02X-702317Y-247287I0J30983D01*
G01X-702271Y-31257D02*
G02X-671288Y-277I30983J-3D01*
G01X-560351Y-167294D02*
G01X-560351Y-247292D01*
G01X-671288Y-277D02*
G01X-591283Y-277D01*
G01X-591291Y-277D02*
G02X-560303Y-31257I5J-30983D01*
G54D11*
G01X-706478Y-504244D02*
G01X-706478Y-408356D01*
G01X-706478Y-589486D02*
G01X-706478Y-685374D01*
G01X-706478Y-685374D02*
G01X-574357Y-685374D01*
G01X-574357Y-685374D02*
G01X-574357Y-589486D01*
G01X-706478Y-408356D02*
G01X-574357Y-408356D01*
G01X-574357Y-408356D02*
G01X-574357Y-504244D01*
G54D14*
G01X-249369Y496143D02*
G01X-249369Y416145D01*
G01X-249323Y552188D02*
G01X-249323Y632185D01*
G01X-391337Y496143D02*
G01X-391337Y416145D01*
G01X-360303Y663163D02*
G01X-280301Y663163D01*
G01X-391289Y632180D02*
G02X-360303Y663163I30983J0D01*
G01X-280306Y663163D02*
G02X-249323Y632180I0J-30983D01*
G01X-249369Y416151D02*
G02X-280351Y385170I-30983J3D01*
G01X-391289Y552188D02*
G01X-391289Y632185D01*
G01X-280351Y385170D02*
G01X-360356Y385170D01*
G01X-360349Y385170D02*
G02X-391337Y416151I-5J30983D01*
G01X-125826Y831065D02*
G01X-45829Y831065D01*
G01X-181871Y831110D02*
G01X-261868Y831110D01*
G01X-125826Y689096D02*
G01X-45829Y689096D01*
G01X-292846Y720130D02*
G01X-292846Y800133D01*
G01X-261863Y689145D02*
G02X-292846Y720130I0J30983D01*
G01X-292846Y800127D02*
G02X-261863Y831110I30983J0D01*
G01X-45834Y831065D02*
G02X-14853Y800082I-3J-30983D01*
G01X-181871Y689145D02*
G01X-261868Y689145D01*
G01X-14853Y800082D02*
G01X-14853Y720077D01*
G01X-14853Y720084D02*
G02X-45834Y689096I-30983J-5D01*
G01X530587Y565598D02*
G01X530587Y485601D01*
G01X530633Y621643D02*
G01X530633Y701641D01*
G01X388619Y565598D02*
G01X388619Y485601D01*
G01X419653Y732619D02*
G01X499655Y732619D01*
G01X388667Y701636D02*
G02X419653Y732619I30983J0D01*
G01X499650Y732619D02*
G02X530633Y701636I0J-30983D01*
G01X530587Y485606D02*
G02X499604Y454626I-30983J3D01*
G01X388667Y621643D02*
G01X388667Y701641D01*
G01X499604Y454626D02*
G01X419599Y454626D01*
G01X419607Y454626D02*
G02X388619Y485606I-5J30983D01*
G54D11*
G01X436736Y-1416578D02*
G01X266495Y-1416578D01*
G01X436736Y-1111336D02*
G01X266495Y-1111336D01*
G01X266495Y-1216317D02*
G01X266495Y-1311598D01*
G54D14*
G01X564012Y-1239626D02*
G01X564012Y-1159629D01*
G01X563966Y-1295672D02*
G01X563966Y-1375669D01*
G01X705980Y-1239626D02*
G01X705980Y-1159629D01*
G01X674946Y-1406647D02*
G01X594944Y-1406647D01*
G01X705932Y-1375664D02*
G02X674946Y-1406647I-30983J0D01*
G01X594949Y-1406647D02*
G02X563966Y-1375664I0J30983D01*
G01X564012Y-1159634D02*
G02X594994Y-1128654I30983J-3D01*
G01X705932Y-1295672D02*
G01X705932Y-1375669D01*
G01X594994Y-1128654D02*
G01X674999Y-1128654D01*
G01X674992Y-1128654D02*
G02X705980Y-1159634I5J-30983D01*
G01X3822Y-1239626D02*
G01X3822Y-1159629D01*
G01X3776Y-1295672D02*
G01X3776Y-1375669D01*
G01X145790Y-1239626D02*
G01X145790Y-1159629D01*
G01X114756Y-1406647D02*
G01X34754Y-1406647D01*
G01X145742Y-1375664D02*
G02X114756Y-1406647I-30983J0D01*
G01X34759Y-1406647D02*
G02X3776Y-1375664I0J30983D01*
G01X3822Y-1159634D02*
G02X34805Y-1128654I30983J-3D01*
G01X145742Y-1295672D02*
G01X145742Y-1375669D01*
G01X34805Y-1128654D02*
G01X114810Y-1128654D01*
G01X114802Y-1128654D02*
G02X145790Y-1159634I5J-30983D01*
G54D11*
G01X-425201Y-589486D02*
G01X-425201Y-685374D01*
G01X-425201Y-504244D02*
G01X-425201Y-408356D01*
G01X-425201Y-408356D02*
G01X-557322Y-408356D01*
G01X-557322Y-408356D02*
G01X-557322Y-504244D01*
G01X-425201Y-685374D02*
G01X-557322Y-685374D01*
G01X-557322Y-685374D02*
G01X-557322Y-589486D01*
G54D14*
G01X-701950Y-1235048D02*
G01X-701950Y-1155051D01*
G01X-701996Y-1291093D02*
G01X-701996Y-1371090D01*
G01X-559982Y-1235048D02*
G01X-559982Y-1155051D01*
G01X-591015Y-1402068D02*
G01X-671018Y-1402068D01*
G01X-560030Y-1371085D02*
G02X-591015Y-1402068I-30983J0D01*
G01X-671013Y-1402068D02*
G02X-701996Y-1371085I0J30983D01*
G01X-701950Y-1155056D02*
G02X-670967Y-1124075I30983J-3D01*
G01X-560030Y-1291093D02*
G01X-560030Y-1371090D01*
G01X-670967Y-1124075D02*
G01X-590962Y-1124075D01*
G01X-590970Y-1124075D02*
G02X-559982Y-1155056I5J-30983D01*
G01X-659305Y-2162297D02*
G01X-659305Y-2263897D01*
G01X-862505Y-2162297D02*
G01X-862505Y-2263897D01*
G01X-706523Y-2433087D02*
G01X-815286Y-2433087D01*
G01X-608517Y-2349739D02*
G01X-608517Y-2076456D01*
G01X-706523Y-1993108D02*
G01X-815286Y-1993108D01*
G01X-915896Y-2074987D02*
G01X-915896Y-2351207D01*
G01X-659305Y-2263897D02*
G02X-862505Y-2263897I-101600J0D01*
G01X-862505Y-2162297D02*
G02X-659305Y-2162297I101600J0D01*
G54D11*
G01X-160203Y-1473609D02*
G01X-64316Y-1473609D01*
G01X-245446Y-1473609D02*
G01X-341333Y-1473609D01*
G01X-341333Y-1473609D02*
G01X-341333Y-1605730D01*
G01X-341333Y-1605730D02*
G01X-245446Y-1605730D01*
G01X-64316Y-1473609D02*
G01X-64316Y-1605730D01*
G01X-64316Y-1605730D02*
G01X-160203Y-1605730D01*
G01X164214Y-1605730D02*
G01X68327Y-1605730D01*
G01X249456Y-1605730D02*
G01X345344Y-1605730D01*
G01X345344Y-1605730D02*
G01X345344Y-1473609D01*
G01X345344Y-1473609D02*
G01X249456Y-1473609D01*
G01X68327Y-1605730D02*
G01X68327Y-1473609D01*
G01X68327Y-1473609D02*
G01X164214Y-1473609D01*
G01X-104248Y-586718D02*
G01X-104248Y-682606D01*
G01X-104248Y-501476D02*
G01X-104248Y-405588D01*
G01X-104248Y-405588D02*
G01X-236368Y-405588D01*
G01X-236368Y-405588D02*
G01X-236368Y-501476D01*
G01X-104248Y-682606D02*
G01X-236368Y-682606D01*
G01X-236368Y-682606D02*
G01X-236368Y-586718D01*
G01X43694Y-587564D02*
G01X43694Y-683452D01*
G01X43694Y-502322D02*
G01X43694Y-406434D01*
G01X43694Y-406434D02*
G01X-88427Y-406434D01*
G01X-88427Y-406434D02*
G01X-88427Y-502322D01*
G01X43694Y-683452D02*
G01X-88427Y-683452D01*
G01X-88427Y-683452D02*
G01X-88427Y-587564D01*
G54D14*
G01X-397361Y-557307D02*
G01X-397361Y-477309D01*
G01X-397407Y-613352D02*
G01X-397407Y-693349D01*
G01X-255393Y-557307D02*
G01X-255393Y-477309D01*
G01X-286426Y-724327D02*
G01X-366429Y-724327D01*
G01X-255441Y-693344D02*
G02X-286426Y-724327I-30983J0D01*
G01X-366424Y-724327D02*
G02X-397407Y-693344I0J30983D01*
G01X-397361Y-477315D02*
G02X-366378Y-446334I30983J-3D01*
G01X-255441Y-613352D02*
G01X-255441Y-693349D01*
G01X-366378Y-446334D02*
G01X-286373Y-446334D01*
G01X-286381Y-446334D02*
G02X-255393Y-477315I5J-30983D01*
G01X64154Y-515958D02*
G01X64154Y-435960D01*
G01X64108Y-572003D02*
G01X64108Y-652000D01*
G01X206122Y-515958D02*
G01X206122Y-435960D01*
G01X175088Y-682978D02*
G01X95086Y-682978D01*
G01X206074Y-651995D02*
G02X175088Y-682978I-30983J0D01*
G01X95091Y-682978D02*
G02X64108Y-651995I0J30983D01*
G01X64154Y-435965D02*
G02X95137Y-404985I30983J-3D01*
G01X206074Y-572003D02*
G01X206074Y-652000D01*
G01X95137Y-404985D02*
G01X175142Y-404985D01*
G01X175134Y-404985D02*
G02X206122Y-435965I5J-30983D01*
G01X864695Y-2162313D02*
G01X864695Y-2263913D01*
G01X661495Y-2162313D02*
G01X661495Y-2263913D01*
G01X817477Y-2433103D02*
G01X708714Y-2433103D01*
G01X915483Y-2349755D02*
G01X915483Y-2076472D01*
G01X817477Y-1993124D02*
G01X708714Y-1993124D01*
G01X608104Y-2075003D02*
G01X608104Y-2351223D01*
G01X864695Y-2263913D02*
G02X661495Y-2263913I-101600J0D01*
G01X661495Y-2162313D02*
G02X864695Y-2162313I101600J0D01*
G54D11*
G01X711126Y139458D02*
G01X711126Y-295821D01*
G01X711126Y-295821D02*
G01X183385Y-295821D01*
G01X183385Y-295821D02*
G01X183385Y139458D01*
G01X183385Y139458D02*
G01X711126Y139458D01*
G54D16*
G01X301934Y-1001182D02*
G01X300918Y-1001182D01*
G01X300918Y-1001182D02*
G01X267898Y-968162D01*
G01X301934Y-933364D02*
G01X301934Y-934380D01*
G01X301934Y-934380D02*
G01X267898Y-968162D01*
G01X301934Y-933364D02*
G01X301934Y-1001182D01*
G01X303966Y-893232D02*
G01X418774Y-893232D01*
G01X303966Y-1043346D02*
G01X418774Y-1043346D01*
G01X418774Y-893232D02*
G01X418774Y-1041314D01*
G01X265866Y-1043600D02*
G01X160964Y-1043600D01*
G01X130992Y-1003468D02*
G01X130992Y-1013628D01*
G01X130992Y-1013628D02*
G01X160964Y-1043600D01*
G01X130992Y-933618D02*
G01X130992Y-1003468D01*
G01X130992Y-933618D02*
G01X130992Y-923458D01*
G01X130992Y-923458D02*
G01X160964Y-893486D01*
G01X265866Y-893486D02*
G01X160964Y-893486D01*
G01X301934Y-968162D02*
G01X267898Y-968162D01*
G54D11*
G01X618189Y-902716D02*
G01X714076Y-902716D01*
G01X532946Y-902716D02*
G01X437059Y-902716D01*
G01X437059Y-902716D02*
G01X437059Y-1034836D01*
G01X437059Y-1034836D02*
G01X532946Y-1034836D01*
G01X714076Y-902716D02*
G01X714076Y-1034836D01*
G01X714076Y-1034836D02*
G01X618189Y-1034836D01*
G01X617872Y-752445D02*
G01X713759Y-752445D01*
G01X532629Y-752445D02*
G01X436742Y-752445D01*
G01X436742Y-752445D02*
G01X436742Y-884566D01*
G01X436742Y-884566D02*
G01X532629Y-884566D01*
G01X713759Y-752445D02*
G01X713759Y-884566D01*
G01X713759Y-884566D02*
G01X617872Y-884566D01*
G54D16*
G01X302358Y-851652D02*
G01X301342Y-851652D01*
G01X301342Y-851652D02*
G01X268322Y-818632D01*
G01X302358Y-783834D02*
G01X302358Y-784850D01*
G01X302358Y-784850D02*
G01X268322Y-818632D01*
G01X302358Y-783834D02*
G01X302358Y-851652D01*
G01X304390Y-743702D02*
G01X419198Y-743702D01*
G01X304390Y-893816D02*
G01X419198Y-893816D01*
G01X419198Y-743702D02*
G01X419198Y-891784D01*
G01X266290Y-894070D02*
G01X161388Y-894070D01*
G01X131416Y-853938D02*
G01X131416Y-864098D01*
G01X131416Y-864098D02*
G01X161388Y-894070D01*
G01X131416Y-784088D02*
G01X131416Y-853938D01*
G01X131416Y-784088D02*
G01X131416Y-773928D01*
G01X131416Y-773928D02*
G01X161388Y-743956D01*
G01X266290Y-743956D02*
G01X161388Y-743956D01*
G01X302358Y-818632D02*
G01X268322Y-818632D01*
G54D14*
G01X316068Y378474D02*
G01X417668Y378474D01*
G01X417668Y378474D02*
G01X417668Y480074D01*
G54D10*
G01X359045Y422416D02*
G01X359045Y842532D01*
G01X359045Y842532D02*
G01X19040Y842532D01*
G01X19040Y842532D02*
G01X19040Y422416D01*
G01X19040Y422416D02*
G01X359045Y422416D01*
G54D13*
G01X366855Y530849D02*
G03X396857Y530976I15001J127D01*
G03X366855Y531103I-15001J0D01*
G54D14*
G01X604170Y-586914D02*
G01X684167Y-586914D01*
G01X548125Y-586868D02*
G01X468128Y-586868D01*
G01X604170Y-728882D02*
G01X684167Y-728882D01*
G01X437150Y-697848D02*
G01X437150Y-617846D01*
G01X468133Y-728834D02*
G02X437150Y-697848I0J30983D01*
G01X437150Y-617851D02*
G02X468133Y-586868I30983J0D01*
G01X684162Y-586914D02*
G02X715143Y-617897I-3J-30983D01*
G01X548125Y-728834D02*
G01X468128Y-728834D01*
G01X715143Y-617897D02*
G01X715143Y-697902D01*
G01X715143Y-697894D02*
G02X684162Y-728882I-30983J-5D01*
G54D11*
G01X-583383Y849067D02*
G01X-533383Y849067D01*
G01X-598625Y764590D02*
G01X-598625Y833830D01*
G01X-533383Y749350D02*
G01X-583383Y749350D01*
G01X-439106Y749563D02*
G01X-489106Y749563D01*
G01X-489106Y849276D02*
G01X-439106Y849276D01*
G01X-423863Y834041D02*
G01X-423863Y764798D01*
G01X-439106Y849278D02*
G02X-423866Y834038I0J-15240D01*
G01X-423866Y764798D02*
G02X-439106Y749558I-15240J0D01*
G01X-583383Y749350D02*
G02X-598623Y764590I0J15240D01*
G01X-598623Y833830D02*
G02X-583383Y849070I15240J0D01*
G01X-535411Y639309D02*
G01X-522943Y710022D01*
G01X-522943Y710022D02*
G01X-424737Y692705D01*
G01X-424737Y692705D02*
G01X-437206Y621993D01*
G01X-543267Y594754D02*
G01X-555736Y524042D01*
G01X-555736Y524042D02*
G01X-457530Y506725D01*
G01X-457530Y506725D02*
G01X-445062Y577438D01*
G01X-485772Y371567D02*
G01X-535772Y371567D01*
G01X-470529Y456045D02*
G01X-470529Y386805D01*
G01X-535772Y471285D02*
G01X-485772Y471285D01*
G01X-630049Y471072D02*
G01X-580049Y471072D01*
G01X-580049Y371359D02*
G01X-630049Y371359D01*
G01X-645292Y386594D02*
G01X-645292Y455837D01*
G01X-630049Y371356D02*
G02X-645289Y386596I0J15240D01*
G01X-645289Y455837D02*
G02X-630049Y471077I15240J0D01*
G01X-485772Y471285D02*
G02X-470532Y456045I0J-15240D01*
G01X-470532Y386805D02*
G02X-485772Y371565I-15240J0D01*
G54D14*
G01X-386212Y-1118504D02*
G01X-306214Y-1118504D01*
G01X-442257Y-1118459D02*
G01X-522254Y-1118459D01*
G01X-386212Y-1260472D02*
G01X-306214Y-1260472D01*
G01X-553232Y-1229439D02*
G01X-553232Y-1149436D01*
G01X-522249Y-1260424D02*
G02X-553232Y-1229439I0J30983D01*
G01X-553232Y-1149441D02*
G02X-522249Y-1118459I30983J0D01*
G01X-306219Y-1118504D02*
G02X-275239Y-1149487I-3J-30983D01*
G01X-442257Y-1260424D02*
G01X-522254Y-1260424D01*
G01X-275239Y-1149487D02*
G01X-275239Y-1229492D01*
G01X-275239Y-1229484D02*
G02X-306219Y-1260472I-30983J-5D01*
G54D11*
G01X-523977Y-1473609D02*
G01X-428089Y-1473609D01*
G01X-609219Y-1473609D02*
G01X-705107Y-1473609D01*
G01X-705107Y-1473609D02*
G01X-705107Y-1605730D01*
G01X-705107Y-1605730D02*
G01X-609219Y-1605730D01*
G01X-428089Y-1473609D02*
G01X-428089Y-1605730D01*
G01X-428089Y-1605730D02*
G01X-523977Y-1605730D01*
G01X532946Y-1605730D02*
G01X437059Y-1605730D01*
G01X618189Y-1605730D02*
G01X714076Y-1605730D01*
G01X714076Y-1605730D02*
G01X714076Y-1473609D01*
G01X714076Y-1473609D02*
G01X618189Y-1473609D01*
G01X437059Y-1605730D02*
G01X437059Y-1473609D01*
G01X437059Y-1473609D02*
G01X532946Y-1473609D01*
G01X-427170Y-752445D02*
G01X-331283Y-752445D01*
G01X-512412Y-752445D02*
G01X-608300Y-752445D01*
G01X-608300Y-752445D02*
G01X-608300Y-884566D01*
G01X-608300Y-884566D02*
G01X-512412Y-884566D01*
G01X-331283Y-752445D02*
G01X-331283Y-884566D01*
G01X-331283Y-884566D02*
G01X-427170Y-884566D01*
G54D17*
G01X-274245Y-1090600D02*
G01X-582209Y-1090600D01*
G01X-182210Y-990140D02*
G01X-182210Y-991060D01*
G01X-582209Y-925147D02*
G01X-582209Y-890600D01*
G01X-582209Y-890600D02*
G01X-274245Y-890600D01*
G01X-582209Y-1090600D02*
G01X-582209Y-1056053D01*
G01X-448011Y-990547D02*
G01X-486279Y-990547D01*
G01X-319799Y-1052650D02*
G01X-319799Y-927410D01*
G01X-319799Y-927410D02*
G01X-319995Y-927214D01*
G01X-319995Y-927214D02*
G01X-445301Y-927214D01*
G01X-445301Y-927214D02*
G01X-445301Y-1053539D01*
G01X-445301Y-1053539D02*
G01X-321351Y-1053539D01*
G01X-321351Y-1053539D02*
G01X-319995Y-1052182D01*
G01X-270457Y-1045152D02*
G01X-292807Y-1045489D01*
G01X-292807Y-1045489D02*
G01X-292807Y-1007897D01*
G01X-270036Y-940605D02*
G01X-294097Y-940605D01*
G01X-294097Y-940605D02*
G01X-294097Y-976699D01*
G01X-294097Y-976699D02*
G01X-294224Y-975360D01*
G54D14*
G01X458303Y-2192026D02*
G01X458303Y-1992631D01*
G01X458303Y-2534929D02*
G01X458303Y-2387632D01*
G01X-448896Y-2191714D02*
G01X-448896Y-1992941D01*
G01X-448896Y-2549829D02*
G01X-448896Y-2387944D01*
G01X451102Y-2549829D02*
G01X-448896Y-2549829D01*

G04 Circle Start*
G54D13*
G01X450904Y-1429057D02*
G03X480927Y-1429057I15011J0D01*
G03X450904Y-1429057I-15011J0D01*
G01X622744Y64211D02*
G03X652767Y64211I15011J0D01*
G03X622744Y64211I-15011J0D01*
G01X699477Y274828D02*
G03X729500Y274828I15011J0D01*
G03X699477Y274828I-15011J0D01*
G04 Circle End*

M02*

