G04 Layer: TopPasteMaskLayer*
G04 EasyEDA Pro v3.2.149.88089769, 2026-07-20 17:43:02*
G04 Gerber Generator version 0.3*
G04 Scale: 100 percent, Rotated: No, Reflected: No*
G04 Dimensions in millimeters*
G04 Leading zeros omitted, absolute positions, 4 integers and 5 decimals*
G04 Generated by one-click*
G04 Object Configs: Pad,Via,Track,Text,Image,Dimension,BoardOutline,BoardCutout,CopperFilled,SolidRegion,FPCStiffener,Line,PlaneZone,ComponentProperty,ComponentSilkscreen,TearDrop*
G04 Layer Configs: 1,2,3,4,5,6,7,8,9,10,11,13,14,56*
G04 Copper Areas: 0*
%FSLAX45Y45*%
%MOMM*%
%ADD10R,0.9X0.8*%
%ADD11R,0.8X0.9*%
%ADD12R,1.157X0.48999*%
%ADD13R,1.175X0.48999*%
%ADD14R,0.7X1.05001*%
%ADD15O,0.63X2.25001*%
%ADD16R,0.8081X0.8001*%
%ADD17R,0.8001X0.8001*%
%ADD18R,1.2X1.4*%
%ADD19R,0.5X0.54*%
%ADD20R,1.09982X1.00076*%
%ADD21R,1.09982X0.8001*%
G75*


G04 PolygonModel Start*
G36*
G01X-13077Y147972D02*
G01X-13077Y-148027D01*
G01X-309078Y-148027D01*
G01X-309078Y147972D01*
G01X-13077Y147972D01*
G37*
G36*
G01X-371119Y161004D02*
G01X-461119Y161004D01*
G01X-461119Y189005D01*
G01X-371119Y189005D01*
G01X-371119Y161004D01*
G37*
G36*
G01X-371118Y110966D02*
G01X-461117Y110966D01*
G01X-461117Y138967D01*
G01X-371118Y138967D01*
G01X-371118Y110966D01*
G37*
G36*
G01X-371118Y60928D02*
G01X-461117Y60928D01*
G01X-461117Y88929D01*
G01X-371118Y88929D01*
G01X-371118Y60928D01*
G37*
G36*
G01X-371118Y10890D02*
G01X-461117Y10890D01*
G01X-461117Y38891D01*
G01X-371118Y38891D01*
G01X-371118Y10890D01*
G37*
G36*
G01X-371118Y-38894D02*
G01X-461117Y-38894D01*
G01X-461117Y-10893D01*
G01X-371118Y-10893D01*
G01X-371118Y-38894D01*
G37*
G36*
G01X-371118Y-88932D02*
G01X-461117Y-88932D01*
G01X-461117Y-60931D01*
G01X-371118Y-60931D01*
G01X-371118Y-88932D01*
G37*
G36*
G01X-371118Y-138970D02*
G01X-461117Y-138970D01*
G01X-461117Y-110969D01*
G01X-371118Y-110969D01*
G01X-371118Y-138970D01*
G37*
G36*
G01X-371118Y-189008D02*
G01X-461117Y-189008D01*
G01X-461117Y-161007D01*
G01X-371118Y-161007D01*
G01X-371118Y-189008D01*
G37*
G36*
G01X138914Y-189008D02*
G01X48915Y-189008D01*
G01X48915Y-161007D01*
G01X138914Y-161007D01*
G01X138914Y-189008D01*
G37*
G36*
G01X138914Y-138970D02*
G01X48915Y-138970D01*
G01X48915Y-110969D01*
G01X138914Y-110969D01*
G01X138914Y-138970D01*
G37*
G36*
G01X138914Y-88932D02*
G01X48915Y-88932D01*
G01X48915Y-60931D01*
G01X138914Y-60931D01*
G01X138914Y-88932D01*
G37*
G36*
G01X138914Y-38894D02*
G01X48915Y-38894D01*
G01X48915Y-10893D01*
G01X138914Y-10893D01*
G01X138914Y-38894D01*
G37*
G36*
G01X138914Y10890D02*
G01X48915Y10890D01*
G01X48915Y38891D01*
G01X138914Y38891D01*
G01X138914Y10890D01*
G37*
G36*
G01X138914Y60928D02*
G01X48915Y60928D01*
G01X48915Y88929D01*
G01X138914Y88929D01*
G01X138914Y60928D01*
G37*
G36*
G01X138914Y110966D02*
G01X48915Y110966D01*
G01X48915Y138967D01*
G01X138914Y138967D01*
G01X138914Y110966D01*
G37*
G36*
G01X138912Y161004D02*
G01X48915Y161004D01*
G01X48915Y189005D01*
G01X138912Y189005D01*
G01X138912Y161004D01*
G37*
G36*
G01X27904Y-210016D02*
G01X27904Y-300016D01*
G01X-97Y-300016D01*
G01X-97Y-210016D01*
G01X27904Y-210016D01*
G37*
G36*
G01X-22134Y-210016D02*
G01X-22134Y-300016D01*
G01X-50135Y-300016D01*
G01X-50135Y-210016D01*
G01X-22134Y-210016D01*
G37*
G36*
G01X-72172Y-210016D02*
G01X-72172Y-300016D01*
G01X-100173Y-300016D01*
G01X-100173Y-210016D01*
G01X-72172Y-210016D01*
G37*
G36*
G01X-122210Y-210016D02*
G01X-122210Y-300016D01*
G01X-150211Y-300016D01*
G01X-150211Y-210016D01*
G01X-122210Y-210016D01*
G37*
G36*
G01X-171994Y-210016D02*
G01X-171994Y-300016D01*
G01X-199995Y-300016D01*
G01X-199995Y-210016D01*
G01X-171994Y-210016D01*
G37*
G36*
G01X-222032Y-210016D02*
G01X-222032Y-300016D01*
G01X-250033Y-300016D01*
G01X-250033Y-210016D01*
G01X-222032Y-210016D01*
G37*
G36*
G01X-272070Y-210016D02*
G01X-272070Y-300016D01*
G01X-300071Y-300016D01*
G01X-300071Y-210016D01*
G01X-272070Y-210016D01*
G37*
G36*
G01X-322108Y-210019D02*
G01X-322108Y-300016D01*
G01X-350109Y-300016D01*
G01X-350109Y-210019D01*
G01X-322108Y-210019D01*
G37*
G36*
G01X27904Y300016D02*
G01X27904Y210016D01*
G01X-97Y210016D01*
G01X-97Y300016D01*
G01X27904Y300016D01*
G37*
G36*
G01X-22134Y300016D02*
G01X-22134Y210016D01*
G01X-50135Y210016D01*
G01X-50135Y300016D01*
G01X-22134Y300016D01*
G37*
G36*
G01X-72172Y300016D02*
G01X-72172Y210016D01*
G01X-100173Y210016D01*
G01X-100173Y300016D01*
G01X-72172Y300016D01*
G37*
G36*
G01X-122210Y300016D02*
G01X-122210Y210016D01*
G01X-150211Y210016D01*
G01X-150211Y300016D01*
G01X-122210Y300016D01*
G37*
G36*
G01X-171994Y300016D02*
G01X-171994Y210016D01*
G01X-199995Y210016D01*
G01X-199995Y300016D01*
G01X-171994Y300016D01*
G37*
G36*
G01X-222032Y300016D02*
G01X-222032Y210016D01*
G01X-250033Y210016D01*
G01X-250033Y300016D01*
G01X-222032Y300016D01*
G37*
G36*
G01X-272070Y300016D02*
G01X-272070Y210016D01*
G01X-300071Y210016D01*
G01X-300071Y300016D01*
G01X-272070Y300016D01*
G37*
G36*
G01X-322108Y300013D02*
G01X-322108Y210016D01*
G01X-350109Y210016D01*
G01X-350109Y300013D01*
G01X-322108Y300013D01*
G37*
G36*
G01X-595419Y-666367D02*
G01X-600420Y-671365D01*
G01X-680420Y-671365D01*
G01X-685419Y-666367D01*
G01X-685419Y-586367D01*
G01X-680420Y-581366D01*
G01X-656216Y-581366D01*
G01X-656216Y-618366D01*
G01X-623217Y-618366D01*
G01X-623217Y-581366D01*
G01X-600420Y-581366D01*
G01X-595419Y-586367D01*
G01X-595419Y-666367D01*
G37*
G36*
G01X-685416Y-427363D02*
G01X-680415Y-422364D01*
G01X-600415Y-422364D01*
G01X-595416Y-427363D01*
G01X-595416Y-507363D01*
G01X-600415Y-512364D01*
G01X-624619Y-512364D01*
G01X-624619Y-475364D01*
G01X-657618Y-475364D01*
G01X-657618Y-512364D01*
G01X-680415Y-512364D01*
G01X-685416Y-507363D01*
G01X-685416Y-427363D01*
G37*
G36*
G01X-536260Y-427363D02*
G01X-531259Y-422364D01*
G01X-451259Y-422364D01*
G01X-446260Y-427363D01*
G01X-446260Y-507363D01*
G01X-451259Y-512364D01*
G01X-475463Y-512364D01*
G01X-475463Y-475364D01*
G01X-508463Y-475364D01*
G01X-508463Y-512364D01*
G01X-531259Y-512364D01*
G01X-536260Y-507363D01*
G01X-536260Y-427363D01*
G37*
G36*
G01X-446263Y-666367D02*
G01X-451264Y-671365D01*
G01X-531264Y-671365D01*
G01X-536263Y-666367D01*
G01X-536263Y-586367D01*
G01X-531264Y-581366D01*
G01X-507060Y-581366D01*
G01X-507060Y-618366D01*
G01X-474061Y-618366D01*
G01X-474061Y-581366D01*
G01X-451264Y-581366D01*
G01X-446263Y-586367D01*
G01X-446263Y-666367D01*
G37*
G36*
G01X-322326Y-1584668D02*
G01X-327325Y-1579667D01*
G01X-327325Y-1499667D01*
G01X-322326Y-1494668D01*
G01X-242326Y-1494668D01*
G01X-237325Y-1499667D01*
G01X-237325Y-1523870D01*
G01X-274325Y-1523870D01*
G01X-274325Y-1556870D01*
G01X-237325Y-1556870D01*
G01X-237325Y-1579667D01*
G01X-242326Y-1584668D01*
G01X-322326Y-1584668D01*
G37*
G36*
G01X-83322Y-1494671D02*
G01X-78324Y-1499672D01*
G01X-78324Y-1579672D01*
G01X-83322Y-1584670D01*
G01X-163322Y-1584670D01*
G01X-168324Y-1579672D01*
G01X-168324Y-1555468D01*
G01X-131323Y-1555468D01*
G01X-131323Y-1522468D01*
G01X-168324Y-1522468D01*
G01X-168324Y-1499672D01*
G01X-163322Y-1494671D01*
G01X-83322Y-1494671D01*
G37*
G36*
G01X326337Y-1494671D02*
G01X331336Y-1499672D01*
G01X331336Y-1579672D01*
G01X326337Y-1584670D01*
G01X246337Y-1584670D01*
G01X241336Y-1579672D01*
G01X241336Y-1555468D01*
G01X278336Y-1555468D01*
G01X278336Y-1522468D01*
G01X241336Y-1522468D01*
G01X241336Y-1499672D01*
G01X246337Y-1494671D01*
G01X326337Y-1494671D01*
G37*
G36*
G01X87333Y-1584668D02*
G01X82335Y-1579667D01*
G01X82335Y-1499667D01*
G01X87333Y-1494668D01*
G01X167333Y-1494668D01*
G01X172334Y-1499667D01*
G01X172334Y-1523870D01*
G01X135334Y-1523870D01*
G01X135334Y-1556870D01*
G01X172334Y-1556870D01*
G01X172334Y-1579667D01*
G01X167333Y-1584668D01*
G01X87333Y-1584668D01*
G37*
G36*
G01X-215307Y-424595D02*
G01X-210305Y-419596D01*
G01X-130306Y-419596D01*
G01X-125307Y-424595D01*
G01X-125307Y-504595D01*
G01X-130306Y-509596D01*
G01X-154509Y-509596D01*
G01X-154509Y-472596D01*
G01X-187509Y-472596D01*
G01X-187509Y-509596D01*
G01X-210305Y-509596D01*
G01X-215307Y-504595D01*
G01X-215307Y-424595D01*
G37*
G36*
G01X-125309Y-663599D02*
G01X-130311Y-668598D01*
G01X-210310Y-668598D01*
G01X-215309Y-663599D01*
G01X-215309Y-583599D01*
G01X-210310Y-578598D01*
G01X-186107Y-578598D01*
G01X-186107Y-615598D01*
G01X-153107Y-615598D01*
G01X-153107Y-578598D01*
G01X-130311Y-578598D01*
G01X-125309Y-583599D01*
G01X-125309Y-663599D01*
G37*
G36*
G01X-67365Y-425441D02*
G01X-62364Y-420442D01*
G01X17636Y-420442D01*
G01X22635Y-425441D01*
G01X22635Y-505441D01*
G01X17636Y-510442D01*
G01X-6567Y-510442D01*
G01X-6567Y-473442D01*
G01X-39567Y-473442D01*
G01X-39567Y-510442D01*
G01X-62364Y-510442D01*
G01X-67365Y-505441D01*
G01X-67365Y-425441D01*
G37*
G36*
G01X22632Y-664445D02*
G01X17631Y-669444D01*
G01X-62369Y-669444D01*
G01X-67367Y-664445D01*
G01X-67367Y-584445D01*
G01X-62369Y-579444D01*
G01X-38165Y-579444D01*
G01X-38165Y-616444D01*
G01X-5165Y-616444D01*
G01X-5165Y-579444D01*
G01X17631Y-579444D01*
G01X22632Y-584445D01*
G01X22632Y-664445D01*
G37*
G36*
G01X456066Y-1013775D02*
G01X451067Y-1008773D01*
G01X451067Y-928774D01*
G01X456066Y-923775D01*
G01X536065Y-923775D01*
G01X541067Y-928774D01*
G01X541067Y-952977D01*
G01X504067Y-952977D01*
G01X504067Y-985977D01*
G01X541067Y-985977D01*
G01X541067Y-1008773D01*
G01X536065Y-1013775D01*
G01X456066Y-1013775D01*
G37*
G36*
G01X695069Y-923777D02*
G01X700068Y-928779D01*
G01X700068Y-1008779D01*
G01X695069Y-1013777D01*
G01X615070Y-1013777D01*
G01X610068Y-1008779D01*
G01X610068Y-984575D01*
G01X647069Y-984575D01*
G01X647069Y-951575D01*
G01X610068Y-951575D01*
G01X610068Y-928779D01*
G01X615070Y-923777D01*
G01X695069Y-923777D01*
G37*
G36*
G01X455748Y-863504D02*
G01X450750Y-858503D01*
G01X450750Y-778503D01*
G01X455748Y-773504D01*
G01X535748Y-773504D01*
G01X540749Y-778503D01*
G01X540749Y-802707D01*
G01X503749Y-802707D01*
G01X503749Y-835706D01*
G01X540749Y-835706D01*
G01X540749Y-858503D01*
G01X535748Y-863504D01*
G01X455748Y-863504D01*
G37*
G36*
G01X694752Y-773507D02*
G01X699751Y-778508D01*
G01X699751Y-858508D01*
G01X694752Y-863507D01*
G01X614752Y-863507D01*
G01X609751Y-858508D01*
G01X609751Y-834304D01*
G01X646751Y-834304D01*
G01X646751Y-801304D01*
G01X609751Y-801304D01*
G01X609751Y-778508D01*
G01X614752Y-773507D01*
G01X694752Y-773507D01*
G37*
G36*
G01X-515231Y599072D02*
G01X-469931Y591085D01*
G01X-466685Y586450D01*
G01X-475379Y537147D01*
G01X-480013Y533902D01*
G01X-525314Y541890D01*
G01X-528559Y546525D01*
G01X-519865Y595827D01*
G01X-515231Y599072D01*
G37*
G36*
G01X-510543Y625662D02*
G01X-513788Y630297D01*
G01X-505094Y679600D01*
G01X-500460Y682845D01*
G01X-455159Y674857D01*
G01X-451914Y670223D01*
G01X-460608Y620920D01*
G01X-465242Y617675D01*
G01X-510543Y625662D01*
G37*
G36*
G01X-686100Y-1584668D02*
G01X-691099Y-1579667D01*
G01X-691099Y-1499667D01*
G01X-686100Y-1494668D01*
G01X-606100Y-1494668D01*
G01X-601099Y-1499667D01*
G01X-601099Y-1523870D01*
G01X-638099Y-1523870D01*
G01X-638099Y-1556870D01*
G01X-601099Y-1556870D01*
G01X-601099Y-1579667D01*
G01X-606100Y-1584668D01*
G01X-686100Y-1584668D01*
G37*
G36*
G01X-447096Y-1494671D02*
G01X-442097Y-1499672D01*
G01X-442097Y-1579672D01*
G01X-447096Y-1584670D01*
G01X-527096Y-1584670D01*
G01X-532097Y-1579672D01*
G01X-532097Y-1555468D01*
G01X-495097Y-1555468D01*
G01X-495097Y-1522468D01*
G01X-532097Y-1522468D01*
G01X-532097Y-1499672D01*
G01X-527096Y-1494671D01*
G01X-447096Y-1494671D01*
G37*
G36*
G01X695069Y-1494671D02*
G01X700068Y-1499672D01*
G01X700068Y-1579672D01*
G01X695069Y-1584670D01*
G01X615070Y-1584670D01*
G01X610068Y-1579672D01*
G01X610068Y-1555468D01*
G01X647069Y-1555468D01*
G01X647069Y-1522468D01*
G01X610068Y-1522468D01*
G01X610068Y-1499672D01*
G01X615070Y-1494671D01*
G01X695069Y-1494671D01*
G37*
G36*
G01X456066Y-1584668D02*
G01X451067Y-1579667D01*
G01X451067Y-1499667D01*
G01X456066Y-1494668D01*
G01X536065Y-1494668D01*
G01X541067Y-1499667D01*
G01X541067Y-1523870D01*
G01X504067Y-1523870D01*
G01X504067Y-1556870D01*
G01X541067Y-1556870D01*
G01X541067Y-1579667D01*
G01X536065Y-1584668D01*
G01X456066Y-1584668D01*
G37*
G36*
G01X-589293Y-863504D02*
G01X-594292Y-858503D01*
G01X-594292Y-778503D01*
G01X-589293Y-773504D01*
G01X-509293Y-773504D01*
G01X-504292Y-778503D01*
G01X-504292Y-802707D01*
G01X-541292Y-802707D01*
G01X-541292Y-835706D01*
G01X-504292Y-835706D01*
G01X-504292Y-858503D01*
G01X-509293Y-863504D01*
G01X-589293Y-863504D01*
G37*
G36*
G01X-350289Y-773507D02*
G01X-345291Y-778508D01*
G01X-345291Y-858508D01*
G01X-350289Y-863507D01*
G01X-430289Y-863507D01*
G01X-435290Y-858508D01*
G01X-435290Y-834304D01*
G01X-398290Y-834304D01*
G01X-398290Y-801304D01*
G01X-435290Y-801304D01*
G01X-435290Y-778508D01*
G01X-430289Y-773507D01*
G01X-350289Y-773507D01*
G37*
G36*
G01X141103Y-1869827D02*
G01X111100Y-1869827D01*
G01X111100Y-1759828D01*
G01X141103Y-1759828D01*
G01X141103Y-1869827D01*
G37*
G36*
G01X161113Y-1759828D02*
G01X191115Y-1759828D01*
G01X191115Y-1869827D01*
G01X161113Y-1869827D01*
G01X161113Y-1759828D01*
G37*
G36*
G01X-348907Y-1759828D02*
G01X-288907Y-1759828D01*
G01X-288907Y-1869827D01*
G01X-348907Y-1869827D01*
G01X-348907Y-1759828D01*
G37*
G36*
G01X91090Y-1869827D02*
G01X61088Y-1869827D01*
G01X61088Y-1759828D01*
G01X91090Y-1759828D01*
G01X91090Y-1869827D01*
G37*
G36*
G01X211113Y-1759828D02*
G01X271112Y-1759828D01*
G01X271112Y-1869827D01*
G01X211113Y-1869827D01*
G01X211113Y-1759828D01*
G37*
G36*
G01X351097Y-1869827D02*
G01X291097Y-1869827D01*
G01X291097Y-1759828D01*
G01X351097Y-1759828D01*
G01X351097Y-1869827D01*
G37*
G36*
G01X41103Y-1869827D02*
G01X11100Y-1869827D01*
G01X11100Y-1759828D01*
G01X41103Y-1759828D01*
G01X41103Y-1869827D01*
G37*
G36*
G01X-8910Y-1869827D02*
G01X-38912Y-1869827D01*
G01X-38912Y-1759828D01*
G01X-8910Y-1759828D01*
G01X-8910Y-1869827D01*
G37*
G36*
G01X-268897Y-1759828D02*
G01X-208897Y-1759828D01*
G01X-208897Y-1869827D01*
G01X-268897Y-1869827D01*
G01X-268897Y-1759828D01*
G37*
G36*
G01X-58897Y-1869827D02*
G01X-88899Y-1869827D01*
G01X-88899Y-1759828D01*
G01X-58897Y-1759828D01*
G01X-58897Y-1869827D01*
G37*
G36*
G01X-108884Y-1869827D02*
G01X-138887Y-1869827D01*
G01X-138887Y-1759828D01*
G01X-108884Y-1759828D01*
G01X-108884Y-1869827D01*
G37*
G36*
G01X-158897Y-1869827D02*
G01X-188899Y-1869827D01*
G01X-188899Y-1759828D01*
G01X-158897Y-1759828D01*
G01X-158897Y-1869827D01*
G37*
G36*
G01X438077Y-1769988D02*
G01X441054Y-1770285D01*
G01X444013Y-1770732D01*
G01X446944Y-1771324D01*
G01X449845Y-1772063D01*
G01X452702Y-1772944D01*
G01X455514Y-1773968D01*
G01X458270Y-1775129D01*
G01X460967Y-1776426D01*
G01X463594Y-1777859D01*
G01X466146Y-1779419D01*
G01X468618Y-1781103D01*
G01X471003Y-1782911D01*
G01X473294Y-1784834D01*
G01X475489Y-1786868D01*
G01X477576Y-1789010D01*
G01X479558Y-1791252D01*
G01X481422Y-1793592D01*
G01X483167Y-1796020D01*
G01X484790Y-1798535D01*
G01X486286Y-1801125D01*
G01X487653Y-1803787D01*
G01X488882Y-1806513D01*
G01X489974Y-1809299D01*
G01X490929Y-1812134D01*
G01X491739Y-1815014D01*
G01X492405Y-1817930D01*
G01X492923Y-1820876D01*
G01X493296Y-1823846D01*
G01X493520Y-1826830D01*
G01X493594Y-1829820D01*
G01X493594Y-1909820D01*
G01X493520Y-1912809D01*
G01X493296Y-1915794D01*
G01X492923Y-1918763D01*
G01X492405Y-1921709D01*
G01X491739Y-1924625D01*
G01X490929Y-1927506D01*
G01X489974Y-1930340D01*
G01X488882Y-1933127D01*
G01X487653Y-1935852D01*
G01X486286Y-1938514D01*
G01X484790Y-1941105D01*
G01X483167Y-1943619D01*
G01X481422Y-1946048D01*
G01X479558Y-1948387D01*
G01X477576Y-1950630D01*
G01X475489Y-1952771D01*
G01X473294Y-1954806D01*
G01X471003Y-1956728D01*
G01X468618Y-1958537D01*
G01X466146Y-1960221D01*
G01X463594Y-1961780D01*
G01X460967Y-1963213D01*
G01X458270Y-1964511D01*
G01X455514Y-1965672D01*
G01X452702Y-1966695D01*
G01X449845Y-1967577D01*
G01X446944Y-1968316D01*
G01X444013Y-1968908D01*
G01X441054Y-1969355D01*
G01X438077Y-1969652D01*
G01X435090Y-1969802D01*
G01X432098Y-1969802D01*
G01X429111Y-1969652D01*
G01X426134Y-1969355D01*
G01X423175Y-1968908D01*
G01X420244Y-1968316D01*
G01X417343Y-1967577D01*
G01X414485Y-1966695D01*
G01X411674Y-1965672D01*
G01X408918Y-1964511D01*
G01X406220Y-1963213D01*
G01X403594Y-1961780D01*
G01X401041Y-1960221D01*
G01X398570Y-1958537D01*
G01X396185Y-1956728D01*
G01X393894Y-1954806D01*
G01X391699Y-1952771D01*
G01X389611Y-1950630D01*
G01X387630Y-1948387D01*
G01X385766Y-1946048D01*
G01X384021Y-1943619D01*
G01X382398Y-1941105D01*
G01X380901Y-1938514D01*
G01X379535Y-1935852D01*
G01X378306Y-1933127D01*
G01X377213Y-1930340D01*
G01X376258Y-1927506D01*
G01X375448Y-1924625D01*
G01X374783Y-1921709D01*
G01X374264Y-1918763D01*
G01X373891Y-1915794D01*
G01X373668Y-1912809D01*
G01X373594Y-1909820D01*
G01X373594Y-1829820D01*
G01X373668Y-1826830D01*
G01X373891Y-1823846D01*
G01X374264Y-1820876D01*
G01X374783Y-1817930D01*
G01X375448Y-1815014D01*
G01X376258Y-1812134D01*
G01X377213Y-1809299D01*
G01X378306Y-1806513D01*
G01X379535Y-1803787D01*
G01X380901Y-1801125D01*
G01X382398Y-1798535D01*
G01X384021Y-1796020D01*
G01X385766Y-1793592D01*
G01X387630Y-1791252D01*
G01X389611Y-1789010D01*
G01X391699Y-1786868D01*
G01X393894Y-1784834D01*
G01X396185Y-1782911D01*
G01X398570Y-1781103D01*
G01X401041Y-1779419D01*
G01X403594Y-1777859D01*
G01X406220Y-1776426D01*
G01X408918Y-1775129D01*
G01X411674Y-1773968D01*
G01X414485Y-1772944D01*
G01X417343Y-1772063D01*
G01X420244Y-1771324D01*
G01X423175Y-1770732D01*
G01X426134Y-1770285D01*
G01X429111Y-1769988D01*
G01X432098Y-1769838D01*
G01X435090Y-1769838D01*
G01X438077Y-1769988D01*
G37*
G36*
G01X-432899Y-1769838D02*
G01X-429907Y-1769838D01*
G01X-426920Y-1769988D01*
G01X-423943Y-1770285D01*
G01X-420984Y-1770732D01*
G01X-418053Y-1771324D01*
G01X-415152Y-1772063D01*
G01X-412295Y-1772944D01*
G01X-409483Y-1773968D01*
G01X-406727Y-1775129D01*
G01X-404030Y-1776426D01*
G01X-401403Y-1777859D01*
G01X-398851Y-1779419D01*
G01X-396379Y-1781103D01*
G01X-393994Y-1782911D01*
G01X-391703Y-1784834D01*
G01X-389508Y-1786868D01*
G01X-387421Y-1789010D01*
G01X-385439Y-1791252D01*
G01X-383575Y-1793592D01*
G01X-381830Y-1796020D01*
G01X-380207Y-1798535D01*
G01X-378711Y-1801125D01*
G01X-377344Y-1803787D01*
G01X-376115Y-1806513D01*
G01X-375023Y-1809299D01*
G01X-374068Y-1812134D01*
G01X-373258Y-1815014D01*
G01X-372592Y-1817930D01*
G01X-372074Y-1820876D01*
G01X-371701Y-1823846D01*
G01X-371477Y-1826830D01*
G01X-371403Y-1829820D01*
G01X-371403Y-1909820D01*
G01X-371477Y-1912809D01*
G01X-371701Y-1915794D01*
G01X-372074Y-1918763D01*
G01X-372592Y-1921709D01*
G01X-373258Y-1924625D01*
G01X-374068Y-1927506D01*
G01X-375023Y-1930340D01*
G01X-376115Y-1933127D01*
G01X-377344Y-1935852D01*
G01X-378711Y-1938514D01*
G01X-380207Y-1941105D01*
G01X-381830Y-1943619D01*
G01X-383575Y-1946048D01*
G01X-385439Y-1948387D01*
G01X-387421Y-1950630D01*
G01X-389508Y-1952771D01*
G01X-391703Y-1954806D01*
G01X-393994Y-1956728D01*
G01X-396379Y-1958537D01*
G01X-398851Y-1960221D01*
G01X-401403Y-1961780D01*
G01X-404030Y-1963213D01*
G01X-406727Y-1964511D01*
G01X-409483Y-1965672D01*
G01X-412295Y-1966695D01*
G01X-415152Y-1967577D01*
G01X-418053Y-1968316D01*
G01X-420984Y-1968908D01*
G01X-423943Y-1969355D01*
G01X-426920Y-1969652D01*
G01X-429907Y-1969802D01*
G01X-432899Y-1969802D01*
G01X-435886Y-1969652D01*
G01X-438863Y-1969355D01*
G01X-441822Y-1968908D01*
G01X-444753Y-1968316D01*
G01X-447654Y-1967577D01*
G01X-450512Y-1966695D01*
G01X-453323Y-1965672D01*
G01X-456079Y-1964511D01*
G01X-458777Y-1963213D01*
G01X-461403Y-1961780D01*
G01X-463956Y-1960221D01*
G01X-466427Y-1958537D01*
G01X-468812Y-1956728D01*
G01X-471103Y-1954806D01*
G01X-473298Y-1952771D01*
G01X-475386Y-1950630D01*
G01X-477367Y-1948387D01*
G01X-479231Y-1946048D01*
G01X-480976Y-1943619D01*
G01X-482599Y-1941105D01*
G01X-484096Y-1938514D01*
G01X-485462Y-1935852D01*
G01X-486691Y-1933127D01*
G01X-487784Y-1930340D01*
G01X-488739Y-1927506D01*
G01X-489549Y-1924625D01*
G01X-490214Y-1921709D01*
G01X-490733Y-1918763D01*
G01X-491106Y-1915794D01*
G01X-491329Y-1912809D01*
G01X-491403Y-1909820D01*
G01X-491403Y-1829820D01*
G01X-491329Y-1826830D01*
G01X-491106Y-1823846D01*
G01X-490733Y-1820876D01*
G01X-490214Y-1817930D01*
G01X-489549Y-1815014D01*
G01X-488739Y-1812134D01*
G01X-487784Y-1809299D01*
G01X-486691Y-1806513D01*
G01X-485462Y-1803787D01*
G01X-484096Y-1801125D01*
G01X-482599Y-1798535D01*
G01X-480976Y-1796020D01*
G01X-479231Y-1793592D01*
G01X-477367Y-1791252D01*
G01X-475386Y-1789010D01*
G01X-473298Y-1786868D01*
G01X-471103Y-1784834D01*
G01X-468812Y-1782911D01*
G01X-466427Y-1781103D01*
G01X-463956Y-1779419D01*
G01X-461403Y-1777859D01*
G01X-458777Y-1776426D01*
G01X-456079Y-1775129D01*
G01X-453323Y-1773968D01*
G01X-450512Y-1772944D01*
G01X-447654Y-1772063D01*
G01X-444753Y-1771324D01*
G01X-441822Y-1770732D01*
G01X-438863Y-1770285D01*
G01X-435886Y-1769988D01*
G01X-432899Y-1769838D01*
G37*
G36*
G01X-426920Y-2215003D02*
G01X-423943Y-2215300D01*
G01X-420984Y-2215747D01*
G01X-418053Y-2216339D01*
G01X-415152Y-2217078D01*
G01X-412295Y-2217960D01*
G01X-409483Y-2218983D01*
G01X-406727Y-2220144D01*
G01X-404030Y-2221442D01*
G01X-401403Y-2222875D01*
G01X-398851Y-2224434D01*
G01X-396379Y-2226118D01*
G01X-393994Y-2227927D01*
G01X-391703Y-2229849D01*
G01X-389508Y-2231884D01*
G01X-387421Y-2234025D01*
G01X-385439Y-2236268D01*
G01X-383575Y-2238607D01*
G01X-381830Y-2241036D01*
G01X-380207Y-2243550D01*
G01X-378711Y-2246141D01*
G01X-377344Y-2248803D01*
G01X-376115Y-2251528D01*
G01X-375023Y-2254315D01*
G01X-374068Y-2257149D01*
G01X-373258Y-2260030D01*
G01X-372592Y-2262946D01*
G01X-372074Y-2265892D01*
G01X-371701Y-2268861D01*
G01X-371477Y-2271846D01*
G01X-371403Y-2274835D01*
G01X-371403Y-2304835D01*
G01X-371477Y-2307825D01*
G01X-371701Y-2310809D01*
G01X-372074Y-2313779D01*
G01X-372592Y-2316725D01*
G01X-373258Y-2319641D01*
G01X-374068Y-2322521D01*
G01X-375023Y-2325356D01*
G01X-376115Y-2328142D01*
G01X-377344Y-2330868D01*
G01X-378711Y-2333530D01*
G01X-380207Y-2336121D01*
G01X-381830Y-2338635D01*
G01X-383575Y-2341063D01*
G01X-385439Y-2343403D01*
G01X-387421Y-2345646D01*
G01X-389508Y-2347787D01*
G01X-391703Y-2349821D01*
G01X-393994Y-2351744D01*
G01X-396379Y-2353553D01*
G01X-398851Y-2355237D01*
G01X-401403Y-2356796D01*
G01X-404030Y-2358229D01*
G01X-406727Y-2359527D01*
G01X-409483Y-2360687D01*
G01X-412295Y-2361711D01*
G01X-415152Y-2362592D01*
G01X-418053Y-2363332D01*
G01X-420984Y-2363923D01*
G01X-423943Y-2364370D01*
G01X-426920Y-2364668D01*
G01X-429907Y-2364817D01*
G01X-432899Y-2364817D01*
G01X-435886Y-2364668D01*
G01X-438863Y-2364370D01*
G01X-441822Y-2363923D01*
G01X-444753Y-2363332D01*
G01X-447654Y-2362592D01*
G01X-450512Y-2361711D01*
G01X-453323Y-2360687D01*
G01X-456079Y-2359527D01*
G01X-458777Y-2358229D01*
G01X-461403Y-2356796D01*
G01X-463956Y-2355237D01*
G01X-466427Y-2353553D01*
G01X-468812Y-2351744D01*
G01X-471103Y-2349821D01*
G01X-473298Y-2347787D01*
G01X-475386Y-2345646D01*
G01X-477367Y-2343403D01*
G01X-479231Y-2341063D01*
G01X-480976Y-2338635D01*
G01X-482599Y-2336121D01*
G01X-484096Y-2333530D01*
G01X-485462Y-2330868D01*
G01X-486691Y-2328142D01*
G01X-487784Y-2325356D01*
G01X-488739Y-2322521D01*
G01X-489549Y-2319641D01*
G01X-490214Y-2316725D01*
G01X-490733Y-2313779D01*
G01X-491106Y-2310809D01*
G01X-491329Y-2307825D01*
G01X-491403Y-2304835D01*
G01X-491403Y-2274835D01*
G01X-491329Y-2271846D01*
G01X-491106Y-2268861D01*
G01X-490733Y-2265892D01*
G01X-490214Y-2262946D01*
G01X-489549Y-2260030D01*
G01X-488739Y-2257149D01*
G01X-487784Y-2254315D01*
G01X-486691Y-2251528D01*
G01X-485462Y-2248803D01*
G01X-484096Y-2246141D01*
G01X-482599Y-2243550D01*
G01X-480976Y-2241036D01*
G01X-479231Y-2238607D01*
G01X-477367Y-2236268D01*
G01X-475386Y-2234025D01*
G01X-473298Y-2231884D01*
G01X-471103Y-2229849D01*
G01X-468812Y-2227927D01*
G01X-466427Y-2226118D01*
G01X-463956Y-2224434D01*
G01X-461403Y-2222875D01*
G01X-458777Y-2221442D01*
G01X-456079Y-2220144D01*
G01X-453323Y-2218983D01*
G01X-450512Y-2217960D01*
G01X-447654Y-2217078D01*
G01X-444753Y-2216339D01*
G01X-441822Y-2215747D01*
G01X-438863Y-2215300D01*
G01X-435886Y-2215003D01*
G01X-432899Y-2214853D01*
G01X-429907Y-2214853D01*
G01X-426920Y-2215003D01*
G37*
G36*
G01X432098Y-2214853D02*
G01X435090Y-2214853D01*
G01X438077Y-2215003D01*
G01X441054Y-2215300D01*
G01X444013Y-2215747D01*
G01X446944Y-2216339D01*
G01X449845Y-2217078D01*
G01X452702Y-2217960D01*
G01X455514Y-2218983D01*
G01X458270Y-2220144D01*
G01X460967Y-2221442D01*
G01X463594Y-2222875D01*
G01X466146Y-2224434D01*
G01X468618Y-2226118D01*
G01X471003Y-2227927D01*
G01X473294Y-2229849D01*
G01X475489Y-2231884D01*
G01X477576Y-2234025D01*
G01X479558Y-2236268D01*
G01X481422Y-2238607D01*
G01X483167Y-2241036D01*
G01X484790Y-2243550D01*
G01X486286Y-2246141D01*
G01X487653Y-2248803D01*
G01X488882Y-2251528D01*
G01X489974Y-2254315D01*
G01X490929Y-2257149D01*
G01X491739Y-2260030D01*
G01X492405Y-2262946D01*
G01X492923Y-2265892D01*
G01X493296Y-2268861D01*
G01X493520Y-2271846D01*
G01X493594Y-2274835D01*
G01X493594Y-2304835D01*
G01X493520Y-2307825D01*
G01X493296Y-2310809D01*
G01X492923Y-2313779D01*
G01X492405Y-2316725D01*
G01X491739Y-2319641D01*
G01X490929Y-2322521D01*
G01X489974Y-2325356D01*
G01X488882Y-2328142D01*
G01X487653Y-2330868D01*
G01X486286Y-2333530D01*
G01X484790Y-2336121D01*
G01X483167Y-2338635D01*
G01X481422Y-2341063D01*
G01X479558Y-2343403D01*
G01X477576Y-2345646D01*
G01X475489Y-2347787D01*
G01X473294Y-2349821D01*
G01X471003Y-2351744D01*
G01X468618Y-2353553D01*
G01X466146Y-2355237D01*
G01X463594Y-2356796D01*
G01X460967Y-2358229D01*
G01X458270Y-2359527D01*
G01X455514Y-2360687D01*
G01X452702Y-2361711D01*
G01X449845Y-2362592D01*
G01X446944Y-2363332D01*
G01X444013Y-2363923D01*
G01X441054Y-2364370D01*
G01X438077Y-2364668D01*
G01X435090Y-2364817D01*
G01X432098Y-2364817D01*
G01X429111Y-2364668D01*
G01X426134Y-2364370D01*
G01X423175Y-2363923D01*
G01X420244Y-2363332D01*
G01X417343Y-2362592D01*
G01X414485Y-2361711D01*
G01X411674Y-2360687D01*
G01X408918Y-2359527D01*
G01X406220Y-2358229D01*
G01X403594Y-2356796D01*
G01X401041Y-2355237D01*
G01X398570Y-2353553D01*
G01X396185Y-2351744D01*
G01X393894Y-2349821D01*
G01X391699Y-2347787D01*
G01X389611Y-2345646D01*
G01X387630Y-2343403D01*
G01X385766Y-2341063D01*
G01X384021Y-2338635D01*
G01X382398Y-2336121D01*
G01X380901Y-2333530D01*
G01X379535Y-2330868D01*
G01X378306Y-2328142D01*
G01X377213Y-2325356D01*
G01X376258Y-2322521D01*
G01X375448Y-2319641D01*
G01X374783Y-2316725D01*
G01X374264Y-2313779D01*
G01X373891Y-2310809D01*
G01X373668Y-2307825D01*
G01X373594Y-2304835D01*
G01X373594Y-2274835D01*
G01X373668Y-2271846D01*
G01X373891Y-2268861D01*
G01X374264Y-2265892D01*
G01X374783Y-2262946D01*
G01X375448Y-2260030D01*
G01X376258Y-2257149D01*
G01X377213Y-2254315D01*
G01X378306Y-2251528D01*
G01X379535Y-2248803D01*
G01X380901Y-2246141D01*
G01X382398Y-2243550D01*
G01X384021Y-2241036D01*
G01X385766Y-2238607D01*
G01X387630Y-2236268D01*
G01X389611Y-2234025D01*
G01X391699Y-2231884D01*
G01X393894Y-2229849D01*
G01X396185Y-2227927D01*
G01X398570Y-2226118D01*
G01X401041Y-2224434D01*
G01X403594Y-2222875D01*
G01X406220Y-2221442D01*
G01X408918Y-2220144D01*
G01X411674Y-2218983D01*
G01X414485Y-2217960D01*
G01X417343Y-2217078D01*
G01X420244Y-2216339D01*
G01X423175Y-2215747D01*
G01X426134Y-2215300D01*
G01X429111Y-2215003D01*
G01X432098Y-2214853D01*
G37*

G04 Pad Start*
G54D10*
G01X-630451Y237823D03*
G01X-630451Y97818D03*
G01X-631313Y-209270D03*
G01X-631313Y-69266D03*
G01X-320326Y594164D03*
G01X-320326Y454159D03*
G54D11*
G01X-223847Y760107D03*
G01X-83842Y760107D03*
G54D10*
G01X459630Y663619D03*
G01X459630Y523615D03*
G54D12*
G01X466982Y-1358953D03*
G01X466982Y-1263957D03*
G01X466982Y-1168961D03*
G54D13*
G01X236248Y-1168961D03*
G01X236248Y-1358953D03*
G54D10*
G01X634969Y-1337648D03*
G01X634969Y-1197643D03*
G01X74779Y-1337648D03*
G01X74779Y-1197643D03*
G01X-630992Y-1333069D03*
G01X-630992Y-1193064D03*
G54D14*
G01X-653412Y-2003090D03*
G01X-653412Y-2423105D03*
G01X-868398Y-2003090D03*
G01X-868398Y-2423105D03*
G54D10*
G01X-326403Y-655328D03*
G01X-326403Y-515323D03*
G01X135111Y-613979D03*
G01X135111Y-473974D03*
G54D14*
G01X870588Y-2003106D03*
G01X870588Y-2423121D03*
G01X655602Y-2003106D03*
G01X655602Y-2423121D03*
G54D15*
G01X637755Y274828D03*
G01X510755Y274828D03*
G01X383755Y274828D03*
G01X256755Y274828D03*
G01X637755Y-431191D03*
G01X510755Y-431191D03*
G01X383755Y-431191D03*
G01X256755Y-431191D03*
G54D17*
G01X199826Y-969178D03*
G01X359846Y-968670D03*
G01X200250Y-819648D03*
G01X360270Y-819140D03*
G54D18*
G01X284054Y522441D03*
G01X94057Y522441D03*
G01X284054Y742456D03*
G01X94057Y742456D03*
G54D11*
G01X506149Y-657871D03*
G01X646154Y-657871D03*
G54D19*
G01X-469233Y799314D03*
G01X-553256Y799314D03*
G01X-599922Y421321D03*
G01X-515899Y421321D03*
G54D11*
G01X-484233Y-1189462D03*
G01X-344228Y-1189462D03*
G54D20*
G01X-560010Y-990600D03*
G54D21*
G01X-204410Y-1046480D03*
G01X-204410Y-934720D03*
G04 Pad End*

M02*

