G04 Layer: DrillDrawingLayer*
G04 EasyEDA Pro v3.2.149.88089769, 2026-07-20 17:43:02*
G04 Gerber Generator version 0.3*
G04 Scale: 100 percent, Rotated: No, Reflected: No*
G04 Dimensions in millimeters*
G04 Leading zeros omitted, absolute positions, 4 integers and 5 decimals*
G04 Generated by one-click*
G04 Object Configs: Pad,Via,Track,Text,Image,Dimension,BoardOutline,BoardCutout,CopperFilled,SolidRegion,FPCStiffener,Line,PlaneZone,ComponentProperty,ComponentSilkscreen,TearDrop*
G04 Layer Configs: 1,2,3,4,5,6,7,8,9,10,11,13,14,56*
G04 Copper Areas: 0*
%FSLAX45Y45*%
%MOMM*%
%AMIconRect*4,1,4,0.28,-0.28,-0.28,-0.28,-0.28,0.28,0.28,0.28,0.28,-0.28,0*4,0,4,0.233333,-0.233333,0.233333,0.233333,-0.233333,0.233333,-0.233333,-0.233333,0.233333,-0.233333,0*%
%AMIconTriangle*4,1,3,-0.339593,0.240473,0.339593,0.240473,0,-0.37884,-0.339593,0.240473,0*4,0,3,-0.265673,0.19404,0,-0.27342,0.266233,0.19404,-0.265673,0.19404,0*%
%AMIconStar6*4,1,12,0.12068,0.20888,0.298527,0.172713,0.241313,0,0.298527,-0.17206,0.12068,-0.208227,0,-0.344073,-0.120073,-0.208227,-0.298573,-0.17206,-0.240707,0,-0.298573,0.17206,-0.120073,0.20888,0,0.344073,0.12068,0.20888,0*4,0,12,-0.000467,0.273467,-0.090067,0.171733,-0.237533,0.136733,-0.193667,-0.007467,-0.237533,-0.1372,-0.090067,-0.171733,-0.000467,-0.273933,0.090067,-0.171733,0.237533,-0.1372,0.194133,0.007,0.237533,0.1372,0.090067,0.171267,-0.000467,0.273467,0*%
%AMIconStar4*4,1,8,-0.311733,0.311733,0,0.202533,0.311733,0.311733,0.202533,0,0.311733,-0.311733,0,-0.202533,-0.304407,-0.311733,-0.202533,0,-0.311733,0.311733,0*4,0,8,0.233333,-0.233333,0.1512,0,0.233333,0.233333,0,0.1512,-0.233333,0.233333,-0.1512,0,-0.233333,-0.233333,0,-0.1512,0.233333,-0.233333,0*%
%AMIconPlus*4,1,12,0.1736,-0.28,-0.1736,-0.28,-0.1736,-0.1736,-0.28,-0.1736,-0.28,0.1736,-0.1736,0.1736,-0.1736,0.28,0.1736,0.28,0.1736,0.1736,0.28,0.1736,0.28,-0.1736,0.1736,-0.1736,0.1736,-0.28,0*4,0,12,0.126933,-0.233333,0.126933,-0.126933,0.233333,-0.126933,0.233333,0.126933,0.126933,0.126933,0.126933,0.233333,-0.126933,0.233333,-0.126933,0.126933,-0.233333,0.126933,-0.233333,-0.126933,-0.126933,-0.126933,-0.126933,-0.233333,0.126933,-0.233333,0*%
%AMIconX*4,1,16,0.28,-0.28,0.076347,-0.28,0,-0.203653,-0.076347,-0.28,-0.28,-0.28,-0.28,-0.076347,-0.203653,0,-0.28,0.076347,-0.28,0.28,-0.076347,0.28,0,0.203653,0.076347,0.28,0.28,0.28,0.28,0.076347,0.203653,0,0.28,-0.076347,0.28,-0.28,0*4,0,16,0.23352,-0.23296,0.23352,-0.095853,0.137107,0.000093,0.23352,0.095853,0.23352,0.2331,0.095853,0.2331,0,0.137107,-0.095853,0.2331,-0.23352,0.2331,-0.23352,0.095853,-0.137107,0.000093,-0.23352,-0.095853,-0.23352,-0.23296,-0.095853,-0.23296,0,-0.137107,0.095853,-0.23296,0.23352,-0.23296,0*%
%AMIconDiamond*4,1,4,0,-0.364,-0.364,0,0,0.364,0.364,0,0,-0.364,0*4,0,4,0,-0.284807,0.284807,0,0,0.28504,-0.284807,0,0,-0.284807,0*%
%ADD10IconRect*%
%ADD11C,0.616X0.522667*%
%ADD12IconTriangle*%
%ADD13IconStar6*%
%ADD14IconStar4*%
%ADD15IconPlus*%
%ADD16IconX*%
%ADD17IconDiamond*%
%ADD18C,0.2032*%
%ADD19C,0.254*%
G75*


G04 Drill Drawing Start*
G54D10*
G01X-331645Y-518171D03*
G54D11*
G01X-431398Y-1869827D03*
G01X433604Y-1869830D03*
G54D12*
G01X-431403Y-2289834D03*
G01X433594Y-2289834D03*
G54D13*
G01X-287893Y-1921839D03*
G01X290109Y-1921839D03*
G54D14*
G01X-467076Y-716177D03*
G01X-325120Y-1341120D03*
G01X-238897Y-1704351D03*
G01X39691Y-1074390D03*
G01X255095Y-1262391D03*
G01X272875Y-1661171D03*
G01X691975Y-657871D03*
G54D15*
G01X-384985Y-1704351D03*
G01X-349425Y-1534171D03*
G01X-321485Y452109D03*
G01X170761Y-940113D03*
G01X170761Y-848713D03*
G01X379555Y-1729751D03*
G01X410035Y-660411D03*
G54D16*
G01X-889760Y253989D03*
G01X-889760Y507989D03*
G01X-889760Y761989D03*
G01X-887905Y-1778011D03*
G01X-887905Y-1524011D03*
G01X-887905Y-1270011D03*
G01X-887905Y-1016011D03*
G01X-887905Y-762011D03*
G01X-887905Y-508011D03*
G01X-887905Y-254011D03*
G01X-887905Y-11D03*
G01X890095Y-1778011D03*
G01X890095Y-1524011D03*
G01X890095Y-1270011D03*
G01X890095Y-1016011D03*
G01X890095Y-762011D03*
G01X890095Y-508011D03*
G01X890095Y-254011D03*
G01X890095Y-11D03*
G01X890095Y253989D03*
G01X890095Y507989D03*
G01X890095Y761989D03*
G54D17*
G01X-980440Y-1976120D03*
G01X-976805Y-381011D03*
G01X-913752Y897835D03*
G01X-824852Y897835D03*
G01X-796465Y-386091D03*
G01X-776145Y373369D03*
G01X-760905Y-2413011D03*
G01X-760905Y-2159011D03*
G01X-760905Y-1905011D03*
G01X-752688Y584189D03*
G01X-752688Y673089D03*
G01X-752688Y761989D03*
G01X-743125Y-223531D03*
G01X-743125Y-162571D03*
G01X-603425Y490209D03*
G01X-594808Y346810D03*
G01X-590725Y193029D03*
G01X-588389Y-708540D03*
G01X-588185Y269229D03*
G01X-585645Y570642D03*
G01X-570405Y651075D03*
G01X-560245Y731509D03*
G01X-558152Y897835D03*
G01X-545128Y-818505D03*
G01X-537385Y-30491D03*
G01X-534845Y53329D03*
G01X-506905Y-2413011D03*
G01X-449580Y-1287780D03*
G01X-438325Y-261631D03*
G01X-430705Y345276D03*
G01X-429320Y273285D03*
G01X-428165Y-355611D03*
G01X-425625Y441949D03*
G01X-418005Y535929D03*
G01X-397685Y631880D03*
G01X-382445Y726429D03*
G01X-380352Y897835D03*
G01X-369745Y822949D03*
G01X-349425Y-378471D03*
G01X-294427Y-44478D03*
G01X-294427Y44422D03*
G01X-260525Y673089D03*
G01X-252905Y-2413011D03*
G01X-251067Y-1140567D03*
G01X-245285Y543549D03*
G01X-214805Y-381011D03*
G01X-205527Y-133378D03*
G01X-205527Y-44478D03*
G01X-205527Y44422D03*
G01X-205527Y133322D03*
G01X-203629Y897835D03*
G01X-179245Y703569D03*
G01X-174165Y-1953271D03*
G01X-141145Y-358151D03*
G01X-116627Y-133378D03*
G01X-116627Y-44478D03*
G01X-116627Y44422D03*
G01X-116627Y133322D03*
G01X-90345Y-1953271D03*
G01X-46977Y897835D03*
G01X-27727Y-44478D03*
G01X-27727Y44422D03*
G01X-26845Y383529D03*
G01X-26845Y459729D03*
G01X-25400Y-1247140D03*
G01X-24305Y-1168411D03*
G01X-22366Y-469607D03*
G01X1095Y-2413011D03*
G01X6175Y-1689111D03*
G01X6175Y-1612911D03*
G01X23955Y-1506231D03*
G01X26495Y-622311D03*
G01X36655Y-805191D03*
G01X77295Y-1945651D03*
G01X79835Y342889D03*
G01X82375Y266689D03*
G01X104054Y522441D03*
G01X117173Y897835D03*
G01X143335Y-1061731D03*
G01X168735Y218429D03*
G01X173815Y-347991D03*
G01X174044Y-214725D03*
G01X191595Y142229D03*
G01X199215Y-642631D03*
G01X224615Y-1452891D03*
G01X242395Y-1087131D03*
G01X255095Y-2413011D03*
G01X257635Y-317511D03*
G01X274056Y742456D03*
G01X286398Y897835D03*
G01X293195Y-1452891D03*
G01X295735Y160009D03*
G01X303355Y81269D03*
G01X341455Y-599451D03*
G01X343128Y-2042523D03*
G01X379555Y81269D03*
G01X382095Y-35571D03*
G01X384635Y-317511D03*
G01X433149Y897835D03*
G01X433594Y-2042523D03*
G01X448135Y-109231D03*
G01X470995Y-314971D03*
G01X496395Y-1457971D03*
G01X509095Y-2413011D03*
G01X509095Y218429D03*
G01X557355Y-1247151D03*
G01X613215Y-10489D03*
G01X619773Y897835D03*
G01X635240Y-1147877D03*
G01X661495Y657849D03*
G01X689415Y-10489D03*
G01X702135Y-889011D03*
G01X747855Y-1351291D03*
G01X760555Y-55891D03*
G01X760555Y119369D03*
G01X760555Y182869D03*
G01X763095Y-2413011D03*
G01X763095Y-2159011D03*
G01X763095Y-1905011D03*
G01X781383Y897835D03*
G01X801195Y-1409711D03*
G01X953148Y897835D03*
G01X976455Y-381011D03*
G01X976455Y-127011D03*
G01X976455Y119369D03*
G01X976455Y380989D03*
G04 Drill Drawing End*

G04 Text Start*
G54D18*
G01X3351541Y1248283D02*
G01X3351541Y1128141D01*
G01X3351541Y1248283D02*
G01X3397261Y1128141D01*
G01X3442981Y1248283D02*
G01X3397261Y1128141D01*
G01X3442981Y1248283D02*
G01X3442981Y1128141D01*
G01X3559313Y1208151D02*
G01X3559313Y1128141D01*
G01X3559313Y1191133D02*
G01X3547883Y1202563D01*
G01X3536453Y1208151D01*
G01X3519435Y1208151D01*
G01X3508005Y1202563D01*
G01X3496575Y1191133D01*
G01X3490733Y1173861D01*
G01X3490733Y1162431D01*
G01X3496575Y1145413D01*
G01X3508005Y1133983D01*
G01X3519435Y1128141D01*
G01X3536453Y1128141D01*
G01X3547883Y1133983D01*
G01X3559313Y1145413D01*
G01X3607065Y1208151D02*
G01X3607065Y1128141D01*
G01X3607065Y1173861D02*
G01X3612907Y1191133D01*
G01X3624337Y1202563D01*
G01X3635767Y1208151D01*
G01X3652785Y1208151D01*
G01X3700537Y1248283D02*
G01X3700537Y1128141D01*
G01X3757687Y1208151D02*
G01X3700537Y1151001D01*
G01X3723397Y1173861D02*
G01X3763529Y1128141D01*
G01X4888822Y1219581D02*
G01X4882980Y1231011D01*
G01X4871550Y1242441D01*
G01X4860120Y1248283D01*
G01X4837260Y1248283D01*
G01X4825830Y1242441D01*
G01X4814400Y1231011D01*
G01X4808812Y1219581D01*
G01X4802970Y1202563D01*
G01X4802970Y1173861D01*
G01X4808812Y1156843D01*
G01X4814400Y1145413D01*
G01X4825830Y1133983D01*
G01X4837260Y1128141D01*
G01X4860120Y1128141D01*
G01X4871550Y1133983D01*
G01X4882980Y1145413D01*
G01X4888822Y1156843D01*
G01X4965276Y1208151D02*
G01X4953846Y1202563D01*
G01X4942416Y1191133D01*
G01X4936574Y1173861D01*
G01X4936574Y1162431D01*
G01X4942416Y1145413D01*
G01X4953846Y1133983D01*
G01X4965276Y1128141D01*
G01X4982294Y1128141D01*
G01X4993724Y1133983D01*
G01X5005154Y1145413D01*
G01X5010996Y1162431D01*
G01X5010996Y1173861D01*
G01X5005154Y1191133D01*
G01X4993724Y1202563D01*
G01X4982294Y1208151D01*
G01X4965276Y1208151D01*
G01X5058748Y1208151D02*
G01X5058748Y1151001D01*
G01X5064590Y1133983D01*
G01X5076020Y1128141D01*
G01X5093038Y1128141D01*
G01X5104468Y1133983D01*
G01X5121740Y1151001D01*
G01X5121740Y1208151D02*
G01X5121740Y1128141D01*
G01X5169492Y1208151D02*
G01X5169492Y1128141D01*
G01X5169492Y1185291D02*
G01X5186764Y1202563D01*
G01X5198194Y1208151D01*
G01X5215212Y1208151D01*
G01X5226642Y1202563D01*
G01X5232484Y1185291D01*
G01X5232484Y1128141D01*
G01X5297508Y1248283D02*
G01X5297508Y1151001D01*
G01X5303096Y1133983D01*
G01X5314526Y1128141D01*
G01X5325956Y1128141D01*
G01X5280236Y1208151D02*
G01X5320368Y1208151D01*
G01X6297143Y1231011D02*
G01X6285713Y1242441D01*
G01X6268695Y1248283D01*
G01X6245835Y1248283D01*
G01X6228563Y1242441D01*
G01X6217133Y1231011D01*
G01X6217133Y1219581D01*
G01X6222975Y1208151D01*
G01X6228563Y1202563D01*
G01X6239993Y1196721D01*
G01X6274283Y1185291D01*
G01X6285713Y1179703D01*
G01X6291555Y1173861D01*
G01X6297143Y1162431D01*
G01X6297143Y1145413D01*
G01X6285713Y1133983D01*
G01X6268695Y1128141D01*
G01X6245835Y1128141D01*
G01X6228563Y1133983D01*
G01X6217133Y1145413D01*
G01X6344895Y1248283D02*
G01X6350737Y1242441D01*
G01X6356325Y1248283D01*
G01X6350737Y1253871D01*
G01X6344895Y1248283D01*
G01X6350737Y1208151D02*
G01X6350737Y1128141D01*
G01X6467069Y1208151D02*
G01X6404077Y1128141D01*
G01X6404077Y1208151D02*
G01X6467069Y1208151D01*
G01X6404077Y1128141D02*
G01X6467069Y1128141D01*
G01X6514821Y1173861D02*
G01X6583401Y1173861D01*
G01X6583401Y1185291D01*
G01X6577813Y1196721D01*
G01X6571971Y1202563D01*
G01X6560541Y1208151D01*
G01X6543523Y1208151D01*
G01X6532093Y1202563D01*
G01X6520663Y1191133D01*
G01X6514821Y1173861D01*
G01X6514821Y1162431D01*
G01X6520663Y1145413D01*
G01X6532093Y1133983D01*
G01X6543523Y1128141D01*
G01X6560541Y1128141D01*
G01X6571971Y1133983D01*
G01X6583401Y1145413D01*
G01X10053948Y1248283D02*
G01X10053948Y1128141D01*
G01X10053948Y1248283D02*
G01X10105510Y1248283D01*
G01X10122528Y1242441D01*
G01X10128370Y1236853D01*
G01X10133958Y1225423D01*
G01X10133958Y1208151D01*
G01X10128370Y1196721D01*
G01X10122528Y1191133D01*
G01X10105510Y1185291D01*
G01X10053948Y1185291D01*
G01X10181710Y1248283D02*
G01X10181710Y1128141D01*
G01X10298042Y1208151D02*
G01X10298042Y1128141D01*
G01X10298042Y1191133D02*
G01X10286612Y1202563D01*
G01X10275182Y1208151D01*
G01X10258164Y1208151D01*
G01X10246734Y1202563D01*
G01X10235304Y1191133D01*
G01X10229462Y1173861D01*
G01X10229462Y1162431D01*
G01X10235304Y1145413D01*
G01X10246734Y1133983D01*
G01X10258164Y1128141D01*
G01X10275182Y1128141D01*
G01X10286612Y1133983D01*
G01X10298042Y1145413D01*
G01X10363066Y1248283D02*
G01X10363066Y1151001D01*
G01X10368654Y1133983D01*
G01X10380084Y1128141D01*
G01X10391514Y1128141D01*
G01X10345794Y1208151D02*
G01X10385926Y1208151D01*
G01X10439266Y1173861D02*
G01X10507846Y1173861D01*
G01X10507846Y1185291D01*
G01X10502258Y1196721D01*
G01X10496416Y1202563D01*
G01X10484986Y1208151D01*
G01X10467968Y1208151D01*
G01X10456538Y1202563D01*
G01X10445108Y1191133D01*
G01X10439266Y1173861D01*
G01X10439266Y1162431D01*
G01X10445108Y1145413D01*
G01X10456538Y1133983D01*
G01X10467968Y1128141D01*
G01X10484986Y1128141D01*
G01X10496416Y1133983D01*
G01X10507846Y1145413D01*
G01X10624178Y1248283D02*
G01X10624178Y1128141D01*
G01X10624178Y1191133D02*
G01X10612748Y1202563D01*
G01X10601318Y1208151D01*
G01X10584300Y1208151D01*
G01X10572870Y1202563D01*
G01X10561440Y1191133D01*
G01X10555598Y1173861D01*
G01X10555598Y1162431D01*
G01X10561440Y1145413D01*
G01X10572870Y1133983D01*
G01X10584300Y1128141D01*
G01X10601318Y1128141D01*
G01X10612748Y1133983D01*
G01X10624178Y1145413D01*
G01X11595365Y1231011D02*
G01X11583935Y1242441D01*
G01X11566917Y1248283D01*
G01X11544057Y1248283D01*
G01X11526785Y1242441D01*
G01X11515355Y1231011D01*
G01X11515355Y1219581D01*
G01X11521197Y1208151D01*
G01X11526785Y1202563D01*
G01X11538215Y1196721D01*
G01X11572505Y1185291D01*
G01X11583935Y1179703D01*
G01X11589777Y1173861D01*
G01X11595365Y1162431D01*
G01X11595365Y1145413D01*
G01X11583935Y1133983D01*
G01X11566917Y1128141D01*
G01X11544057Y1128141D01*
G01X11526785Y1133983D01*
G01X11515355Y1145413D01*
G01X11643117Y1248283D02*
G01X11643117Y1128141D01*
G01X11643117Y1185291D02*
G01X11660389Y1202563D01*
G01X11671819Y1208151D01*
G01X11688837Y1208151D01*
G01X11700267Y1202563D01*
G01X11706109Y1185291D01*
G01X11706109Y1128141D01*
G01X11822441Y1208151D02*
G01X11822441Y1128141D01*
G01X11822441Y1191133D02*
G01X11811011Y1202563D01*
G01X11799581Y1208151D01*
G01X11782563Y1208151D01*
G01X11771133Y1202563D01*
G01X11759703Y1191133D01*
G01X11753861Y1173861D01*
G01X11753861Y1162431D01*
G01X11759703Y1145413D01*
G01X11771133Y1133983D01*
G01X11782563Y1128141D01*
G01X11799581Y1128141D01*
G01X11811011Y1133983D01*
G01X11822441Y1145413D01*
G01X11870193Y1208151D02*
G01X11870193Y1088263D01*
G01X11870193Y1191133D02*
G01X11881623Y1202563D01*
G01X11893053Y1208151D01*
G01X11910325Y1208151D01*
G01X11921755Y1202563D01*
G01X11933185Y1191133D01*
G01X11938773Y1173861D01*
G01X11938773Y1162431D01*
G01X11933185Y1145413D01*
G01X11921755Y1133983D01*
G01X11910325Y1128141D01*
G01X11893053Y1128141D01*
G01X11881623Y1133983D01*
G01X11870193Y1145413D01*
G01X11986525Y1173861D02*
G01X12055105Y1173861D01*
G01X12055105Y1185291D01*
G01X12049517Y1196721D01*
G01X12043675Y1202563D01*
G01X12032245Y1208151D01*
G01X12015227Y1208151D01*
G01X12003797Y1202563D01*
G01X11992367Y1191133D01*
G01X11986525Y1173861D01*
G01X11986525Y1162431D01*
G01X11992367Y1145413D01*
G01X12003797Y1133983D01*
G01X12015227Y1128141D01*
G01X12032245Y1128141D01*
G01X12043675Y1133983D01*
G01X12055105Y1145413D01*
G01X12946536Y1248283D02*
G01X12992256Y1128141D01*
G01X13037976Y1248283D02*
G01X12992256Y1128141D01*
G01X13085728Y1248283D02*
G01X13091570Y1242441D01*
G01X13097158Y1248283D01*
G01X13091570Y1253871D01*
G01X13085728Y1248283D01*
G01X13091570Y1208151D02*
G01X13091570Y1128141D01*
G01X13213490Y1208151D02*
G01X13213490Y1128141D01*
G01X13213490Y1191133D02*
G01X13202060Y1202563D01*
G01X13190630Y1208151D01*
G01X13173612Y1208151D01*
G01X13162182Y1202563D01*
G01X13150752Y1191133D01*
G01X13144910Y1173861D01*
G01X13144910Y1162431D01*
G01X13150752Y1145413D01*
G01X13162182Y1133983D01*
G01X13173612Y1128141D01*
G01X13190630Y1128141D01*
G01X13202060Y1133983D01*
G01X13213490Y1145413D01*
G01X13364112Y1271143D02*
G01X13261242Y1088263D01*
G01X13411864Y1248283D02*
G01X13411864Y1128141D01*
G01X13411864Y1248283D02*
G01X13463426Y1248283D01*
G01X13480444Y1242441D01*
G01X13486286Y1236853D01*
G01X13491874Y1225423D01*
G01X13491874Y1208151D01*
G01X13486286Y1196721D01*
G01X13480444Y1191133D01*
G01X13463426Y1185291D01*
G01X13411864Y1185291D01*
G01X13608206Y1208151D02*
G01X13608206Y1128141D01*
G01X13608206Y1191133D02*
G01X13596776Y1202563D01*
G01X13585346Y1208151D01*
G01X13568328Y1208151D01*
G01X13556898Y1202563D01*
G01X13545468Y1191133D01*
G01X13539626Y1173861D01*
G01X13539626Y1162431D01*
G01X13545468Y1145413D01*
G01X13556898Y1133983D01*
G01X13568328Y1128141D01*
G01X13585346Y1128141D01*
G01X13596776Y1133983D01*
G01X13608206Y1145413D01*
G01X13724538Y1248283D02*
G01X13724538Y1128141D01*
G01X13724538Y1191133D02*
G01X13713108Y1202563D01*
G01X13701678Y1208151D01*
G01X13684660Y1208151D01*
G01X13673230Y1202563D01*
G01X13661800Y1191133D01*
G01X13655958Y1173861D01*
G01X13655958Y1162431D01*
G01X13661800Y1145413D01*
G01X13673230Y1133983D01*
G01X13684660Y1128141D01*
G01X13701678Y1128141D01*
G01X13713108Y1133983D01*
G01X13724538Y1145413D01*
G01X14615715Y1248283D02*
G01X14615715Y1128141D01*
G01X14615715Y1248283D02*
G01X14667277Y1248283D01*
G01X14684295Y1242441D01*
G01X14690137Y1236853D01*
G01X14695725Y1225423D01*
G01X14695725Y1208151D01*
G01X14690137Y1196721D01*
G01X14684295Y1191133D01*
G01X14667277Y1185291D01*
G01X14615715Y1185291D01*
G01X14812057Y1208151D02*
G01X14812057Y1128141D01*
G01X14812057Y1191133D02*
G01X14800627Y1202563D01*
G01X14789197Y1208151D01*
G01X14772179Y1208151D01*
G01X14760749Y1202563D01*
G01X14749319Y1191133D01*
G01X14743477Y1173861D01*
G01X14743477Y1162431D01*
G01X14749319Y1145413D01*
G01X14760749Y1133983D01*
G01X14772179Y1128141D01*
G01X14789197Y1128141D01*
G01X14800627Y1133983D01*
G01X14812057Y1145413D01*
G01X14928389Y1248283D02*
G01X14928389Y1128141D01*
G01X14928389Y1191133D02*
G01X14916959Y1202563D01*
G01X14905529Y1208151D01*
G01X14888511Y1208151D01*
G01X14877081Y1202563D01*
G01X14865651Y1191133D01*
G01X14859809Y1173861D01*
G01X14859809Y1162431D01*
G01X14865651Y1145413D01*
G01X14877081Y1133983D01*
G01X14888511Y1128141D01*
G01X14905529Y1128141D01*
G01X14916959Y1133983D01*
G01X14928389Y1145413D01*
G01X15184167Y1231011D02*
G01X15172737Y1242441D01*
G01X15155719Y1248283D01*
G01X15132859Y1248283D01*
G01X15115587Y1242441D01*
G01X15104157Y1231011D01*
G01X15104157Y1219581D01*
G01X15109999Y1208151D01*
G01X15115587Y1202563D01*
G01X15127017Y1196721D01*
G01X15161307Y1185291D01*
G01X15172737Y1179703D01*
G01X15178579Y1173861D01*
G01X15184167Y1162431D01*
G01X15184167Y1145413D01*
G01X15172737Y1133983D01*
G01X15155719Y1128141D01*
G01X15132859Y1128141D01*
G01X15115587Y1133983D01*
G01X15104157Y1145413D01*
G01X15231919Y1248283D02*
G01X15231919Y1128141D01*
G01X15231919Y1185291D02*
G01X15249191Y1202563D01*
G01X15260621Y1208151D01*
G01X15277639Y1208151D01*
G01X15289069Y1202563D01*
G01X15294911Y1185291D01*
G01X15294911Y1128141D01*
G01X15411243Y1208151D02*
G01X15411243Y1128141D01*
G01X15411243Y1191133D02*
G01X15399813Y1202563D01*
G01X15388383Y1208151D01*
G01X15371365Y1208151D01*
G01X15359935Y1202563D01*
G01X15348505Y1191133D01*
G01X15342663Y1173861D01*
G01X15342663Y1162431D01*
G01X15348505Y1145413D01*
G01X15359935Y1133983D01*
G01X15371365Y1128141D01*
G01X15388383Y1128141D01*
G01X15399813Y1133983D01*
G01X15411243Y1145413D01*
G01X15458995Y1208151D02*
G01X15458995Y1088263D01*
G01X15458995Y1191133D02*
G01X15470425Y1202563D01*
G01X15481855Y1208151D01*
G01X15499127Y1208151D01*
G01X15510557Y1202563D01*
G01X15521987Y1191133D01*
G01X15527575Y1173861D01*
G01X15527575Y1162431D01*
G01X15521987Y1145413D01*
G01X15510557Y1133983D01*
G01X15499127Y1128141D01*
G01X15481855Y1128141D01*
G01X15470425Y1133983D01*
G01X15458995Y1145413D01*
G01X15575327Y1173861D02*
G01X15643907Y1173861D01*
G01X15643907Y1185291D01*
G01X15638319Y1196721D01*
G01X15632477Y1202563D01*
G01X15621047Y1208151D01*
G01X15604029Y1208151D01*
G01X15592599Y1202563D01*
G01X15581169Y1191133D01*
G01X15575327Y1173861D01*
G01X15575327Y1162431D01*
G01X15581169Y1145413D01*
G01X15592599Y1133983D01*
G01X15604029Y1128141D01*
G01X15621047Y1128141D01*
G01X15632477Y1133983D01*
G01X15643907Y1145413D01*
G01X16535085Y1248283D02*
G01X16535085Y1128141D01*
G01X16535085Y1128141D02*
G01X16603665Y1128141D01*
G01X16719997Y1208151D02*
G01X16719997Y1128141D01*
G01X16719997Y1191133D02*
G01X16708567Y1202563D01*
G01X16697137Y1208151D01*
G01X16680119Y1208151D01*
G01X16668689Y1202563D01*
G01X16657259Y1191133D01*
G01X16651417Y1173861D01*
G01X16651417Y1162431D01*
G01X16657259Y1145413D01*
G01X16668689Y1133983D01*
G01X16680119Y1128141D01*
G01X16697137Y1128141D01*
G01X16708567Y1133983D01*
G01X16719997Y1145413D01*
G01X16773591Y1208151D02*
G01X16807881Y1128141D01*
G01X16842171Y1208151D02*
G01X16807881Y1128141D01*
G01X16796451Y1105281D01*
G01X16785021Y1093851D01*
G01X16773591Y1088263D01*
G01X16767749Y1088263D01*
G01X16889923Y1173861D02*
G01X16958503Y1173861D01*
G01X16958503Y1185291D01*
G01X16952915Y1196721D01*
G01X16947073Y1202563D01*
G01X16935643Y1208151D01*
G01X16918625Y1208151D01*
G01X16907195Y1202563D01*
G01X16895765Y1191133D01*
G01X16889923Y1173861D01*
G01X16889923Y1162431D01*
G01X16895765Y1145413D01*
G01X16907195Y1133983D01*
G01X16918625Y1128141D01*
G01X16935643Y1128141D01*
G01X16947073Y1133983D01*
G01X16958503Y1145413D01*
G01X17006255Y1208151D02*
G01X17006255Y1128141D01*
G01X17006255Y1173861D02*
G01X17012097Y1191133D01*
G01X17023527Y1202563D01*
G01X17034957Y1208151D01*
G01X17051975Y1208151D01*
G01X17227743Y1248283D02*
G01X17227743Y1128141D01*
G01X17227743Y1248283D02*
G01X17279305Y1248283D01*
G01X17296323Y1242441D01*
G01X17302165Y1236853D01*
G01X17307753Y1225423D01*
G01X17307753Y1208151D01*
G01X17302165Y1196721D01*
G01X17296323Y1191133D01*
G01X17279305Y1185291D01*
G01X17227743Y1185291D01*
G01X17424085Y1208151D02*
G01X17424085Y1128141D01*
G01X17424085Y1191133D02*
G01X17412655Y1202563D01*
G01X17401225Y1208151D01*
G01X17384207Y1208151D01*
G01X17372777Y1202563D01*
G01X17361347Y1191133D01*
G01X17355505Y1173861D01*
G01X17355505Y1162431D01*
G01X17361347Y1145413D01*
G01X17372777Y1133983D01*
G01X17384207Y1128141D01*
G01X17401225Y1128141D01*
G01X17412655Y1133983D01*
G01X17424085Y1145413D01*
G01X17471837Y1248283D02*
G01X17477679Y1242441D01*
G01X17483267Y1248283D01*
G01X17477679Y1253871D01*
G01X17471837Y1248283D01*
G01X17477679Y1208151D02*
G01X17477679Y1128141D01*
G01X17531019Y1208151D02*
G01X17531019Y1128141D01*
G01X17531019Y1173861D02*
G01X17536861Y1191133D01*
G01X17548291Y1202563D01*
G01X17559721Y1208151D01*
G01X17576739Y1208151D01*
G01X4802970Y644852D02*
G01X4814400Y650440D01*
G01X4831672Y667712D01*
G01X4831672Y547570D01*
G01X6217133Y644852D02*
G01X6228563Y650440D01*
G01X6245835Y667712D01*
G01X6245835Y547570D01*
G01X6322289Y667712D02*
G01X6305017Y661870D01*
G01X6299429Y650440D01*
G01X6299429Y639010D01*
G01X6305017Y627580D01*
G01X6316447Y621992D01*
G01X6339307Y616150D01*
G01X6356579Y610562D01*
G01X6368009Y599132D01*
G01X6373597Y587702D01*
G01X6373597Y570430D01*
G01X6368009Y559000D01*
G01X6362167Y553412D01*
G01X6345149Y547570D01*
G01X6322289Y547570D01*
G01X6305017Y553412D01*
G01X6299429Y559000D01*
G01X6293587Y570430D01*
G01X6293587Y587702D01*
G01X6299429Y599132D01*
G01X6310859Y610562D01*
G01X6327877Y616150D01*
G01X6350737Y621992D01*
G01X6362167Y627580D01*
G01X6368009Y639010D01*
G01X6368009Y650440D01*
G01X6362167Y661870D01*
G01X6345149Y667712D01*
G01X6322289Y667712D01*
G01X6427191Y576272D02*
G01X6421349Y570430D01*
G01X6427191Y564842D01*
G01X6432779Y570430D01*
G01X6427191Y576272D01*
G01X6514821Y667712D02*
G01X6497803Y661870D01*
G01X6486373Y644852D01*
G01X6480531Y616150D01*
G01X6480531Y599132D01*
G01X6486373Y570430D01*
G01X6497803Y553412D01*
G01X6514821Y547570D01*
G01X6526251Y547570D01*
G01X6543523Y553412D01*
G01X6554953Y570430D01*
G01X6560541Y599132D01*
G01X6560541Y616150D01*
G01X6554953Y644852D01*
G01X6543523Y661870D01*
G01X6526251Y667712D01*
G01X6514821Y667712D01*
G01X6608293Y627580D02*
G01X6608293Y547570D01*
G01X6608293Y604720D02*
G01X6625565Y621992D01*
G01X6636995Y627580D01*
G01X6654013Y627580D01*
G01X6665443Y621992D01*
G01X6671285Y604720D01*
G01X6671285Y547570D01*
G01X6671285Y604720D02*
G01X6688303Y621992D01*
G01X6699733Y627580D01*
G01X6717005Y627580D01*
G01X6728435Y621992D01*
G01X6734023Y604720D01*
G01X6734023Y547570D01*
G01X6781775Y667712D02*
G01X6787617Y661870D01*
G01X6793205Y667712D01*
G01X6787617Y673300D01*
G01X6781775Y667712D01*
G01X6787617Y627580D02*
G01X6787617Y547570D01*
G01X6840957Y667712D02*
G01X6840957Y547570D01*
G01X6928841Y690572D02*
G01X6917411Y679142D01*
G01X6905981Y661870D01*
G01X6894551Y639010D01*
G01X6888709Y610562D01*
G01X6888709Y587702D01*
G01X6894551Y559000D01*
G01X6905981Y536140D01*
G01X6917411Y519122D01*
G01X6928841Y507692D01*
G01X7010883Y667712D02*
G01X6993865Y661870D01*
G01X6982435Y644852D01*
G01X6976593Y616150D01*
G01X6976593Y599132D01*
G01X6982435Y570430D01*
G01X6993865Y553412D01*
G01X7010883Y547570D01*
G01X7022313Y547570D01*
G01X7039585Y553412D01*
G01X7051015Y570430D01*
G01X7056603Y599132D01*
G01X7056603Y616150D01*
G01X7051015Y644852D01*
G01X7039585Y661870D01*
G01X7022313Y667712D01*
G01X7010883Y667712D01*
G01X7110197Y576272D02*
G01X7104355Y570430D01*
G01X7110197Y564842D01*
G01X7115785Y570430D01*
G01X7110197Y576272D01*
G01X7220687Y667712D02*
G01X7163537Y587702D01*
G01X7249389Y587702D01*
G01X7220687Y667712D02*
G01X7220687Y547570D01*
G01X7365721Y667712D02*
G01X7308571Y667712D01*
G01X7302983Y616150D01*
G01X7308571Y621992D01*
G01X7325843Y627580D01*
G01X7342861Y627580D01*
G01X7360133Y621992D01*
G01X7371563Y610562D01*
G01X7377151Y593290D01*
G01X7377151Y581860D01*
G01X7371563Y564842D01*
G01X7360133Y553412D01*
G01X7342861Y547570D01*
G01X7325843Y547570D01*
G01X7308571Y553412D01*
G01X7302983Y559000D01*
G01X7297141Y570430D01*
G01X7504913Y667712D02*
G01X7447763Y547570D01*
G01X7424903Y667712D02*
G01X7504913Y667712D01*
G01X7552665Y627580D02*
G01X7552665Y547570D01*
G01X7552665Y604720D02*
G01X7569937Y621992D01*
G01X7581367Y627580D01*
G01X7598385Y627580D01*
G01X7609815Y621992D01*
G01X7615657Y604720D01*
G01X7615657Y547570D01*
G01X7615657Y604720D02*
G01X7632675Y621992D01*
G01X7644105Y627580D01*
G01X7661377Y627580D01*
G01X7672807Y621992D01*
G01X7678395Y604720D01*
G01X7678395Y547570D01*
G01X7726147Y627580D02*
G01X7726147Y547570D01*
G01X7726147Y604720D02*
G01X7743419Y621992D01*
G01X7754849Y627580D01*
G01X7771867Y627580D01*
G01X7783297Y621992D01*
G01X7789139Y604720D01*
G01X7789139Y547570D01*
G01X7789139Y604720D02*
G01X7806157Y621992D01*
G01X7817587Y627580D01*
G01X7834859Y627580D01*
G01X7846289Y621992D01*
G01X7851877Y604720D01*
G01X7851877Y547570D01*
G01X7899629Y690572D02*
G01X7911059Y679142D01*
G01X7922489Y661870D01*
G01X7933919Y639010D01*
G01X7939761Y610562D01*
G01X7939761Y587702D01*
G01X7933919Y559000D01*
G01X7922489Y536140D01*
G01X7911059Y519122D01*
G01X7899629Y507692D01*
G01X10053948Y667712D02*
G01X10053948Y547570D01*
G01X10053948Y667712D02*
G01X10105510Y667712D01*
G01X10122528Y661870D01*
G01X10128370Y656282D01*
G01X10133958Y644852D01*
G01X10133958Y627580D01*
G01X10128370Y616150D01*
G01X10122528Y610562D01*
G01X10105510Y604720D01*
G01X10053948Y604720D01*
G01X10221842Y667712D02*
G01X10221842Y547570D01*
G01X10181710Y667712D02*
G01X10261720Y667712D01*
G01X10309472Y667712D02*
G01X10309472Y547570D01*
G01X10389482Y667712D02*
G01X10389482Y547570D01*
G01X10309472Y610562D02*
G01X10389482Y610562D01*
G01X11515355Y667712D02*
G01X11515355Y547570D01*
G01X11515355Y667712D02*
G01X11566917Y667712D01*
G01X11583935Y661870D01*
G01X11589777Y656282D01*
G01X11595365Y644852D01*
G01X11595365Y633422D01*
G01X11589777Y621992D01*
G01X11583935Y616150D01*
G01X11566917Y610562D01*
G01X11515355Y610562D01*
G01X11555487Y610562D02*
G01X11595365Y547570D01*
G01X11671819Y627580D02*
G01X11660389Y621992D01*
G01X11648959Y610562D01*
G01X11643117Y593290D01*
G01X11643117Y581860D01*
G01X11648959Y564842D01*
G01X11660389Y553412D01*
G01X11671819Y547570D01*
G01X11688837Y547570D01*
G01X11700267Y553412D01*
G01X11711697Y564842D01*
G01X11717539Y581860D01*
G01X11717539Y593290D01*
G01X11711697Y610562D01*
G01X11700267Y621992D01*
G01X11688837Y627580D01*
G01X11671819Y627580D01*
G01X11765291Y627580D02*
G01X11765291Y570430D01*
G01X11771133Y553412D01*
G01X11782563Y547570D01*
G01X11799581Y547570D01*
G01X11811011Y553412D01*
G01X11828283Y570430D01*
G01X11828283Y627580D02*
G01X11828283Y547570D01*
G01X11876035Y627580D02*
G01X11876035Y547570D01*
G01X11876035Y604720D02*
G01X11893307Y621992D01*
G01X11904737Y627580D01*
G01X11921755Y627580D01*
G01X11933185Y621992D01*
G01X11939027Y604720D01*
G01X11939027Y547570D01*
G01X12055359Y667712D02*
G01X12055359Y547570D01*
G01X12055359Y610562D02*
G01X12043929Y621992D01*
G01X12032499Y627580D01*
G01X12015481Y627580D01*
G01X12004051Y621992D01*
G01X11992621Y610562D01*
G01X11986779Y593290D01*
G01X11986779Y581860D01*
G01X11992621Y564842D01*
G01X12004051Y553412D01*
G01X12015481Y547570D01*
G01X12032499Y547570D01*
G01X12043929Y553412D01*
G01X12055359Y564842D01*
G01X12946536Y667712D02*
G01X12992256Y547570D01*
G01X13037976Y667712D02*
G01X12992256Y547570D01*
G01X13085728Y667712D02*
G01X13091570Y661870D01*
G01X13097158Y667712D01*
G01X13091570Y673300D01*
G01X13085728Y667712D01*
G01X13091570Y627580D02*
G01X13091570Y547570D01*
G01X13213490Y627580D02*
G01X13213490Y547570D01*
G01X13213490Y610562D02*
G01X13202060Y621992D01*
G01X13190630Y627580D01*
G01X13173612Y627580D01*
G01X13162182Y621992D01*
G01X13150752Y610562D01*
G01X13144910Y593290D01*
G01X13144910Y581860D01*
G01X13150752Y564842D01*
G01X13162182Y553412D01*
G01X13173612Y547570D01*
G01X13190630Y547570D01*
G01X13202060Y553412D01*
G01X13213490Y564842D01*
G01X16575217Y667712D02*
G01X16575217Y547570D01*
G01X16535085Y667712D02*
G01X16615095Y667712D01*
G01X16691549Y627580D02*
G01X16680119Y621992D01*
G01X16668689Y610562D01*
G01X16662847Y593290D01*
G01X16662847Y581860D01*
G01X16668689Y564842D01*
G01X16680119Y553412D01*
G01X16691549Y547570D01*
G01X16708567Y547570D01*
G01X16719997Y553412D01*
G01X16731427Y564842D01*
G01X16737269Y581860D01*
G01X16737269Y593290D01*
G01X16731427Y610562D01*
G01X16719997Y621992D01*
G01X16708567Y627580D01*
G01X16691549Y627580D01*
G01X16785021Y627580D02*
G01X16785021Y507692D01*
G01X16785021Y610562D02*
G01X16796451Y621992D01*
G01X16807881Y627580D01*
G01X16825153Y627580D01*
G01X16836583Y621992D01*
G01X16848013Y610562D01*
G01X16853601Y593290D01*
G01X16853601Y581860D01*
G01X16848013Y564842D01*
G01X16836583Y553412D01*
G01X16825153Y547570D01*
G01X16807881Y547570D01*
G01X16796451Y553412D01*
G01X16785021Y564842D01*
G01X17029369Y667712D02*
G01X17029369Y547570D01*
G01X17029369Y547570D02*
G01X17097949Y547570D01*
G01X17214281Y627580D02*
G01X17214281Y547570D01*
G01X17214281Y610562D02*
G01X17202851Y621992D01*
G01X17191421Y627580D01*
G01X17174403Y627580D01*
G01X17162973Y621992D01*
G01X17151543Y610562D01*
G01X17145701Y593290D01*
G01X17145701Y581860D01*
G01X17151543Y564842D01*
G01X17162973Y553412D01*
G01X17174403Y547570D01*
G01X17191421Y547570D01*
G01X17202851Y553412D01*
G01X17214281Y564842D01*
G01X17267875Y627580D02*
G01X17302165Y547570D01*
G01X17336455Y627580D02*
G01X17302165Y547570D01*
G01X17290735Y524710D01*
G01X17279305Y513280D01*
G01X17267875Y507692D01*
G01X17262033Y507692D01*
G01X17384207Y593290D02*
G01X17452787Y593290D01*
G01X17452787Y604720D01*
G01X17447199Y616150D01*
G01X17441357Y621992D01*
G01X17429927Y627580D01*
G01X17412909Y627580D01*
G01X17401479Y621992D01*
G01X17390049Y610562D01*
G01X17384207Y593290D01*
G01X17384207Y581860D01*
G01X17390049Y564842D01*
G01X17401479Y553412D01*
G01X17412909Y547570D01*
G01X17429927Y547570D01*
G01X17441357Y553412D01*
G01X17452787Y564842D01*
G01X17500539Y627580D02*
G01X17500539Y547570D01*
G01X17500539Y593290D02*
G01X17506381Y610562D01*
G01X17517811Y621992D01*
G01X17529241Y627580D01*
G01X17546259Y627580D01*
G01X17594011Y599132D02*
G01X17696881Y599132D01*
G01X17744633Y667712D02*
G01X17744633Y547570D01*
G01X17744633Y667712D02*
G01X17796195Y667712D01*
G01X17813213Y661870D01*
G01X17819055Y656282D01*
G01X17824643Y644852D01*
G01X17824643Y633422D01*
G01X17819055Y621992D01*
G01X17813213Y616150D01*
G01X17796195Y610562D01*
G01X17744633Y610562D02*
G01X17796195Y610562D01*
G01X17813213Y604720D01*
G01X17819055Y599132D01*
G01X17824643Y587702D01*
G01X17824643Y570430D01*
G01X17819055Y559000D01*
G01X17813213Y553412D01*
G01X17796195Y547570D01*
G01X17744633Y547570D01*
G01X17901097Y627580D02*
G01X17889667Y621992D01*
G01X17878237Y610562D01*
G01X17872395Y593290D01*
G01X17872395Y581860D01*
G01X17878237Y564842D01*
G01X17889667Y553412D01*
G01X17901097Y547570D01*
G01X17918115Y547570D01*
G01X17929545Y553412D01*
G01X17940975Y564842D01*
G01X17946817Y581860D01*
G01X17946817Y593290D01*
G01X17940975Y610562D01*
G01X17929545Y621992D01*
G01X17918115Y627580D01*
G01X17901097Y627580D01*
G01X18011841Y667712D02*
G01X18011841Y570430D01*
G01X18017429Y553412D01*
G01X18028859Y547570D01*
G01X18040289Y547570D01*
G01X17994569Y627580D02*
G01X18034701Y627580D01*
G01X18105313Y667712D02*
G01X18105313Y570430D01*
G01X18110901Y553412D01*
G01X18122331Y547570D01*
G01X18133761Y547570D01*
G01X18088041Y627580D02*
G01X18128173Y627580D01*
G01X18210215Y627580D02*
G01X18198785Y621992D01*
G01X18187355Y610562D01*
G01X18181513Y593290D01*
G01X18181513Y581860D01*
G01X18187355Y564842D01*
G01X18198785Y553412D01*
G01X18210215Y547570D01*
G01X18227233Y547570D01*
G01X18238663Y553412D01*
G01X18250093Y564842D01*
G01X18255935Y581860D01*
G01X18255935Y593290D01*
G01X18250093Y610562D01*
G01X18238663Y621992D01*
G01X18227233Y627580D01*
G01X18210215Y627580D01*
G01X18303687Y627580D02*
G01X18303687Y547570D01*
G01X18303687Y604720D02*
G01X18320959Y621992D01*
G01X18332389Y627580D01*
G01X18349407Y627580D01*
G01X18360837Y621992D01*
G01X18366679Y604720D01*
G01X18366679Y547570D01*
G01X18366679Y604720D02*
G01X18383697Y621992D01*
G01X18395127Y627580D01*
G01X18412399Y627580D01*
G01X18423829Y621992D01*
G01X18429417Y604720D01*
G01X18429417Y547570D01*
G01X18605185Y667712D02*
G01X18605185Y547570D01*
G01X18605185Y547570D02*
G01X18673765Y547570D01*
G01X18790097Y627580D02*
G01X18790097Y547570D01*
G01X18790097Y610562D02*
G01X18778667Y621992D01*
G01X18767237Y627580D01*
G01X18750219Y627580D01*
G01X18738789Y621992D01*
G01X18727359Y610562D01*
G01X18721517Y593290D01*
G01X18721517Y581860D01*
G01X18727359Y564842D01*
G01X18738789Y553412D01*
G01X18750219Y547570D01*
G01X18767237Y547570D01*
G01X18778667Y553412D01*
G01X18790097Y564842D01*
G01X18843691Y627580D02*
G01X18877981Y547570D01*
G01X18912271Y627580D02*
G01X18877981Y547570D01*
G01X18866551Y524710D01*
G01X18855121Y513280D01*
G01X18843691Y507692D01*
G01X18837849Y507692D01*
G01X18960023Y593290D02*
G01X19028603Y593290D01*
G01X19028603Y604720D01*
G01X19023015Y616150D01*
G01X19017173Y621992D01*
G01X19005743Y627580D01*
G01X18988725Y627580D01*
G01X18977295Y621992D01*
G01X18965865Y610562D01*
G01X18960023Y593290D01*
G01X18960023Y581860D01*
G01X18965865Y564842D01*
G01X18977295Y553412D01*
G01X18988725Y547570D01*
G01X19005743Y547570D01*
G01X19017173Y553412D01*
G01X19028603Y564842D01*
G01X19076355Y627580D02*
G01X19076355Y547570D01*
G01X19076355Y593290D02*
G01X19082197Y610562D01*
G01X19093627Y621992D01*
G01X19105057Y627580D01*
G01X19122075Y627580D01*
G01X4808812Y58438D02*
G01X4808812Y64280D01*
G01X4814400Y75710D01*
G01X4820242Y81298D01*
G01X4831672Y87140D01*
G01X4854532Y87140D01*
G01X4865962Y81298D01*
G01X4871550Y75710D01*
G01X4877392Y64280D01*
G01X4877392Y52850D01*
G01X4871550Y41420D01*
G01X4860120Y24148D01*
G01X4802970Y-33002D01*
G01X4882980Y-33002D01*
G01X6222975Y58438D02*
G01X6222975Y64280D01*
G01X6228563Y75710D01*
G01X6234405Y81298D01*
G01X6245835Y87140D01*
G01X6268695Y87140D01*
G01X6280125Y81298D01*
G01X6285713Y75710D01*
G01X6291555Y64280D01*
G01X6291555Y52850D01*
G01X6285713Y41420D01*
G01X6274283Y24148D01*
G01X6217133Y-33002D01*
G01X6297143Y-33002D01*
G01X6356325Y87140D02*
G01X6419317Y87140D01*
G01X6385027Y41420D01*
G01X6402045Y41420D01*
G01X6413475Y35578D01*
G01X6419317Y29990D01*
G01X6424905Y12718D01*
G01X6424905Y1288D01*
G01X6419317Y-15730D01*
G01X6407887Y-27160D01*
G01X6390615Y-33002D01*
G01X6373597Y-33002D01*
G01X6356325Y-27160D01*
G01X6350737Y-21572D01*
G01X6344895Y-10142D01*
G01X6478499Y-4300D02*
G01X6472657Y-10142D01*
G01X6478499Y-15730D01*
G01X6484087Y-10142D01*
G01X6478499Y-4300D01*
G01X6600419Y69868D02*
G01X6594831Y81298D01*
G01X6577559Y87140D01*
G01X6566129Y87140D01*
G01X6549111Y81298D01*
G01X6537681Y64280D01*
G01X6531839Y35578D01*
G01X6531839Y7130D01*
G01X6537681Y-15730D01*
G01X6549111Y-27160D01*
G01X6566129Y-33002D01*
G01X6571971Y-33002D01*
G01X6588989Y-27160D01*
G01X6600419Y-15730D01*
G01X6606261Y1288D01*
G01X6606261Y7130D01*
G01X6600419Y24148D01*
G01X6588989Y35578D01*
G01X6571971Y41420D01*
G01X6566129Y41420D01*
G01X6549111Y35578D01*
G01X6537681Y24148D01*
G01X6531839Y7130D01*
G01X6654013Y47008D02*
G01X6717005Y-33002D01*
G01X6717005Y47008D02*
G01X6654013Y-33002D01*
G01X6833337Y87140D02*
G01X6776187Y87140D01*
G01X6770599Y35578D01*
G01X6776187Y41420D01*
G01X6793459Y47008D01*
G01X6810477Y47008D01*
G01X6827749Y41420D01*
G01X6839179Y29990D01*
G01X6844767Y12718D01*
G01X6844767Y1288D01*
G01X6839179Y-15730D01*
G01X6827749Y-27160D01*
G01X6810477Y-33002D01*
G01X6793459Y-33002D01*
G01X6776187Y-27160D01*
G01X6770599Y-21572D01*
G01X6764757Y-10142D01*
G01X6966941Y47008D02*
G01X6961099Y29990D01*
G01X6949669Y18560D01*
G01X6932651Y12718D01*
G01X6926809Y12718D01*
G01X6909791Y18560D01*
G01X6898361Y29990D01*
G01X6892519Y47008D01*
G01X6892519Y52850D01*
G01X6898361Y69868D01*
G01X6909791Y81298D01*
G01X6926809Y87140D01*
G01X6932651Y87140D01*
G01X6949669Y81298D01*
G01X6961099Y69868D01*
G01X6966941Y47008D01*
G01X6966941Y18560D01*
G01X6961099Y-10142D01*
G01X6949669Y-27160D01*
G01X6932651Y-33002D01*
G01X6921221Y-33002D01*
G01X6903949Y-27160D01*
G01X6898361Y-15730D01*
G01X7020535Y-4300D02*
G01X7014693Y-10142D01*
G01X7020535Y-15730D01*
G01X7026123Y-10142D01*
G01X7020535Y-4300D01*
G01X7073875Y64280D02*
G01X7085305Y69868D01*
G01X7102577Y87140D01*
G01X7102577Y-33002D01*
G01X7150329Y47008D02*
G01X7150329Y-33002D01*
G01X7150329Y24148D02*
G01X7167601Y41420D01*
G01X7179031Y47008D01*
G01X7196049Y47008D01*
G01X7207479Y41420D01*
G01X7213321Y24148D01*
G01X7213321Y-33002D01*
G01X7213321Y24148D02*
G01X7230339Y41420D01*
G01X7241769Y47008D01*
G01X7259041Y47008D01*
G01X7270471Y41420D01*
G01X7276059Y24148D01*
G01X7276059Y-33002D01*
G01X7323811Y87140D02*
G01X7329653Y81298D01*
G01X7335241Y87140D01*
G01X7329653Y92728D01*
G01X7323811Y87140D01*
G01X7329653Y47008D02*
G01X7329653Y-33002D01*
G01X7382993Y87140D02*
G01X7382993Y-33002D01*
G01X7470877Y110000D02*
G01X7459447Y98570D01*
G01X7448017Y81298D01*
G01X7436587Y58438D01*
G01X7430745Y29990D01*
G01X7430745Y7130D01*
G01X7436587Y-21572D01*
G01X7448017Y-44432D01*
G01X7459447Y-61450D01*
G01X7470877Y-72880D01*
G01X7552919Y87140D02*
G01X7535901Y81298D01*
G01X7524471Y64280D01*
G01X7518629Y35578D01*
G01X7518629Y18560D01*
G01X7524471Y-10142D01*
G01X7535901Y-27160D01*
G01X7552919Y-33002D01*
G01X7564349Y-33002D01*
G01X7581621Y-27160D01*
G01X7593051Y-10142D01*
G01X7598639Y18560D01*
G01X7598639Y35578D01*
G01X7593051Y64280D01*
G01X7581621Y81298D01*
G01X7564349Y87140D01*
G01X7552919Y87140D01*
G01X7652233Y-4300D02*
G01X7646391Y-10142D01*
G01X7652233Y-15730D01*
G01X7657821Y-10142D01*
G01X7652233Y-4300D01*
G01X7774153Y69868D02*
G01X7768565Y81298D01*
G01X7751293Y87140D01*
G01X7739863Y87140D01*
G01X7722845Y81298D01*
G01X7711415Y64280D01*
G01X7705573Y35578D01*
G01X7705573Y7130D01*
G01X7711415Y-15730D01*
G01X7722845Y-27160D01*
G01X7739863Y-33002D01*
G01X7745705Y-33002D01*
G01X7762723Y-27160D01*
G01X7774153Y-15730D01*
G01X7779995Y1288D01*
G01X7779995Y7130D01*
G01X7774153Y24148D01*
G01X7762723Y35578D01*
G01X7745705Y41420D01*
G01X7739863Y41420D01*
G01X7722845Y35578D01*
G01X7711415Y24148D01*
G01X7705573Y7130D01*
G01X7862037Y87140D02*
G01X7845019Y81298D01*
G01X7833589Y64280D01*
G01X7827747Y35578D01*
G01X7827747Y18560D01*
G01X7833589Y-10142D01*
G01X7845019Y-27160D01*
G01X7862037Y-33002D01*
G01X7873467Y-33002D01*
G01X7890739Y-27160D01*
G01X7902169Y-10142D01*
G01X7907757Y18560D01*
G01X7907757Y35578D01*
G01X7902169Y64280D01*
G01X7890739Y81298D01*
G01X7873467Y87140D01*
G01X7862037Y87140D01*
G01X7989799Y87140D02*
G01X7972781Y81298D01*
G01X7961351Y64280D01*
G01X7955509Y35578D01*
G01X7955509Y18560D01*
G01X7961351Y-10142D01*
G01X7972781Y-27160D01*
G01X7989799Y-33002D01*
G01X8001229Y-33002D01*
G01X8018501Y-27160D01*
G01X8029931Y-10142D01*
G01X8035519Y18560D01*
G01X8035519Y35578D01*
G01X8029931Y64280D01*
G01X8018501Y81298D01*
G01X8001229Y87140D01*
G01X7989799Y87140D01*
G01X8083271Y47008D02*
G01X8146263Y-33002D01*
G01X8146263Y47008D02*
G01X8083271Y-33002D01*
G01X8194015Y64280D02*
G01X8205445Y69868D01*
G01X8222717Y87140D01*
G01X8222717Y-33002D01*
G01X8276311Y-4300D02*
G01X8270469Y-10142D01*
G01X8276311Y-15730D01*
G01X8281899Y-10142D01*
G01X8276311Y-4300D01*
G01X8398231Y87140D02*
G01X8341081Y87140D01*
G01X8335493Y35578D01*
G01X8341081Y41420D01*
G01X8358353Y47008D01*
G01X8375371Y47008D01*
G01X8392643Y41420D01*
G01X8404073Y29990D01*
G01X8409661Y12718D01*
G01X8409661Y1288D01*
G01X8404073Y-15730D01*
G01X8392643Y-27160D01*
G01X8375371Y-33002D01*
G01X8358353Y-33002D01*
G01X8341081Y-27160D01*
G01X8335493Y-21572D01*
G01X8329651Y-10142D01*
G01X8491703Y87140D02*
G01X8474685Y81298D01*
G01X8463255Y64280D01*
G01X8457413Y35578D01*
G01X8457413Y18560D01*
G01X8463255Y-10142D01*
G01X8474685Y-27160D01*
G01X8491703Y-33002D01*
G01X8503133Y-33002D01*
G01X8520405Y-27160D01*
G01X8531835Y-10142D01*
G01X8537423Y18560D01*
G01X8537423Y35578D01*
G01X8531835Y64280D01*
G01X8520405Y81298D01*
G01X8503133Y87140D01*
G01X8491703Y87140D01*
G01X8619465Y87140D02*
G01X8602447Y81298D01*
G01X8591017Y64280D01*
G01X8585175Y35578D01*
G01X8585175Y18560D01*
G01X8591017Y-10142D01*
G01X8602447Y-27160D01*
G01X8619465Y-33002D01*
G01X8630895Y-33002D01*
G01X8648167Y-27160D01*
G01X8659597Y-10142D01*
G01X8665185Y18560D01*
G01X8665185Y35578D01*
G01X8659597Y64280D01*
G01X8648167Y81298D01*
G01X8630895Y87140D01*
G01X8619465Y87140D01*
G01X8712937Y47008D02*
G01X8712937Y-33002D01*
G01X8712937Y24148D02*
G01X8730209Y41420D01*
G01X8741639Y47008D01*
G01X8758657Y47008D01*
G01X8770087Y41420D01*
G01X8775929Y24148D01*
G01X8775929Y-33002D01*
G01X8775929Y24148D02*
G01X8792947Y41420D01*
G01X8804377Y47008D01*
G01X8821649Y47008D01*
G01X8833079Y41420D01*
G01X8838667Y24148D01*
G01X8838667Y-33002D01*
G01X8886419Y47008D02*
G01X8886419Y-33002D01*
G01X8886419Y24148D02*
G01X8903691Y41420D01*
G01X8915121Y47008D01*
G01X8932139Y47008D01*
G01X8943569Y41420D01*
G01X8949411Y24148D01*
G01X8949411Y-33002D01*
G01X8949411Y24148D02*
G01X8966429Y41420D01*
G01X8977859Y47008D01*
G01X8995131Y47008D01*
G01X9006561Y41420D01*
G01X9012149Y24148D01*
G01X9012149Y-33002D01*
G01X9059901Y110000D02*
G01X9071331Y98570D01*
G01X9082761Y81298D01*
G01X9094191Y58438D01*
G01X9100033Y29990D01*
G01X9100033Y7130D01*
G01X9094191Y-21572D01*
G01X9082761Y-44432D01*
G01X9071331Y-61450D01*
G01X9059901Y-72880D01*
G01X10053948Y87140D02*
G01X10053948Y-33002D01*
G01X10053948Y87140D02*
G01X10105510Y87140D01*
G01X10122528Y81298D01*
G01X10128370Y75710D01*
G01X10133958Y64280D01*
G01X10133958Y47008D01*
G01X10128370Y35578D01*
G01X10122528Y29990D01*
G01X10105510Y24148D01*
G01X10053948Y24148D01*
G01X10221842Y87140D02*
G01X10221842Y-33002D01*
G01X10181710Y87140D02*
G01X10261720Y87140D01*
G01X10309472Y87140D02*
G01X10309472Y-33002D01*
G01X10389482Y87140D02*
G01X10389482Y-33002D01*
G01X10309472Y29990D02*
G01X10389482Y29990D01*
G01X11595365Y69868D02*
G01X11583935Y81298D01*
G01X11566917Y87140D01*
G01X11544057Y87140D01*
G01X11526785Y81298D01*
G01X11515355Y69868D01*
G01X11515355Y58438D01*
G01X11521197Y47008D01*
G01X11526785Y41420D01*
G01X11538215Y35578D01*
G01X11572505Y24148D01*
G01X11583935Y18560D01*
G01X11589777Y12718D01*
G01X11595365Y1288D01*
G01X11595365Y-15730D01*
G01X11583935Y-27160D01*
G01X11566917Y-33002D01*
G01X11544057Y-33002D01*
G01X11526785Y-27160D01*
G01X11515355Y-15730D01*
G01X11643117Y87140D02*
G01X11643117Y-33002D01*
G01X11719571Y47008D02*
G01X11708141Y41420D01*
G01X11696711Y29990D01*
G01X11690869Y12718D01*
G01X11690869Y1288D01*
G01X11696711Y-15730D01*
G01X11708141Y-27160D01*
G01X11719571Y-33002D01*
G01X11736589Y-33002D01*
G01X11748019Y-27160D01*
G01X11759449Y-15730D01*
G01X11765291Y1288D01*
G01X11765291Y12718D01*
G01X11759449Y29990D01*
G01X11748019Y41420D01*
G01X11736589Y47008D01*
G01X11719571Y47008D01*
G01X11830315Y87140D02*
G01X11830315Y-10142D01*
G01X11835903Y-27160D01*
G01X11847333Y-33002D01*
G01X11858763Y-33002D01*
G01X11813043Y47008D02*
G01X11853175Y47008D01*
G01X12946536Y87140D02*
G01X12946536Y-33002D01*
G01X12946536Y87140D02*
G01X12998098Y87140D01*
G01X13015116Y81298D01*
G01X13020958Y75710D01*
G01X13026546Y64280D01*
G01X13026546Y47008D01*
G01X13020958Y35578D01*
G01X13015116Y29990D01*
G01X12998098Y24148D01*
G01X12946536Y24148D01*
G01X13142878Y47008D02*
G01X13142878Y-33002D01*
G01X13142878Y29990D02*
G01X13131448Y41420D01*
G01X13120018Y47008D01*
G01X13103000Y47008D01*
G01X13091570Y41420D01*
G01X13080140Y29990D01*
G01X13074298Y12718D01*
G01X13074298Y1288D01*
G01X13080140Y-15730D01*
G01X13091570Y-27160D01*
G01X13103000Y-33002D01*
G01X13120018Y-33002D01*
G01X13131448Y-27160D01*
G01X13142878Y-15730D01*
G01X13259210Y87140D02*
G01X13259210Y-33002D01*
G01X13259210Y29990D02*
G01X13247780Y41420D01*
G01X13236350Y47008D01*
G01X13219332Y47008D01*
G01X13207902Y41420D01*
G01X13196472Y29990D01*
G01X13190630Y12718D01*
G01X13190630Y1288D01*
G01X13196472Y-15730D01*
G01X13207902Y-27160D01*
G01X13219332Y-33002D01*
G01X13236350Y-33002D01*
G01X13247780Y-27160D01*
G01X13259210Y-15730D01*
G01X14650005Y87140D02*
G01X14638575Y81298D01*
G01X14627145Y69868D01*
G01X14621557Y58438D01*
G01X14615715Y41420D01*
G01X14615715Y12718D01*
G01X14621557Y-4300D01*
G01X14627145Y-15730D01*
G01X14638575Y-27160D01*
G01X14650005Y-33002D01*
G01X14672865Y-33002D01*
G01X14684295Y-27160D01*
G01X14695725Y-15730D01*
G01X14701567Y-4300D01*
G01X14707155Y12718D01*
G01X14707155Y41420D01*
G01X14701567Y58438D01*
G01X14695725Y69868D01*
G01X14684295Y81298D01*
G01X14672865Y87140D01*
G01X14650005Y87140D01*
G01X14754907Y47008D02*
G01X14789197Y-33002D01*
G01X14823487Y47008D02*
G01X14789197Y-33002D01*
G01X14939819Y47008D02*
G01X14939819Y-33002D01*
G01X14939819Y29990D02*
G01X14928389Y41420D01*
G01X14916959Y47008D01*
G01X14899941Y47008D01*
G01X14888511Y41420D01*
G01X14877081Y29990D01*
G01X14871239Y12718D01*
G01X14871239Y1288D01*
G01X14877081Y-15730D01*
G01X14888511Y-27160D01*
G01X14899941Y-33002D01*
G01X14916959Y-33002D01*
G01X14928389Y-27160D01*
G01X14939819Y-15730D01*
G01X14987571Y87140D02*
G01X14987571Y-33002D01*
G01X16575217Y87140D02*
G01X16575217Y-33002D01*
G01X16535085Y87140D02*
G01X16615095Y87140D01*
G01X16691549Y47008D02*
G01X16680119Y41420D01*
G01X16668689Y29990D01*
G01X16662847Y12718D01*
G01X16662847Y1288D01*
G01X16668689Y-15730D01*
G01X16680119Y-27160D01*
G01X16691549Y-33002D01*
G01X16708567Y-33002D01*
G01X16719997Y-27160D01*
G01X16731427Y-15730D01*
G01X16737269Y1288D01*
G01X16737269Y12718D01*
G01X16731427Y29990D01*
G01X16719997Y41420D01*
G01X16708567Y47008D01*
G01X16691549Y47008D01*
G01X16785021Y47008D02*
G01X16785021Y-72880D01*
G01X16785021Y29990D02*
G01X16796451Y41420D01*
G01X16807881Y47008D01*
G01X16825153Y47008D01*
G01X16836583Y41420D01*
G01X16848013Y29990D01*
G01X16853601Y12718D01*
G01X16853601Y1288D01*
G01X16848013Y-15730D01*
G01X16836583Y-27160D01*
G01X16825153Y-33002D01*
G01X16807881Y-33002D01*
G01X16796451Y-27160D01*
G01X16785021Y-15730D01*
G01X17029369Y87140D02*
G01X17029369Y-33002D01*
G01X17029369Y-33002D02*
G01X17097949Y-33002D01*
G01X17214281Y47008D02*
G01X17214281Y-33002D01*
G01X17214281Y29990D02*
G01X17202851Y41420D01*
G01X17191421Y47008D01*
G01X17174403Y47008D01*
G01X17162973Y41420D01*
G01X17151543Y29990D01*
G01X17145701Y12718D01*
G01X17145701Y1288D01*
G01X17151543Y-15730D01*
G01X17162973Y-27160D01*
G01X17174403Y-33002D01*
G01X17191421Y-33002D01*
G01X17202851Y-27160D01*
G01X17214281Y-15730D01*
G01X17267875Y47008D02*
G01X17302165Y-33002D01*
G01X17336455Y47008D02*
G01X17302165Y-33002D01*
G01X17290735Y-55862D01*
G01X17279305Y-67292D01*
G01X17267875Y-72880D01*
G01X17262033Y-72880D01*
G01X17384207Y12718D02*
G01X17452787Y12718D01*
G01X17452787Y24148D01*
G01X17447199Y35578D01*
G01X17441357Y41420D01*
G01X17429927Y47008D01*
G01X17412909Y47008D01*
G01X17401479Y41420D01*
G01X17390049Y29990D01*
G01X17384207Y12718D01*
G01X17384207Y1288D01*
G01X17390049Y-15730D01*
G01X17401479Y-27160D01*
G01X17412909Y-33002D01*
G01X17429927Y-33002D01*
G01X17441357Y-27160D01*
G01X17452787Y-15730D01*
G01X17500539Y47008D02*
G01X17500539Y-33002D01*
G01X17500539Y12718D02*
G01X17506381Y29990D01*
G01X17517811Y41420D01*
G01X17529241Y47008D01*
G01X17546259Y47008D01*
G01X17594011Y18560D02*
G01X17696881Y18560D01*
G01X17744633Y87140D02*
G01X17744633Y-33002D01*
G01X17744633Y87140D02*
G01X17796195Y87140D01*
G01X17813213Y81298D01*
G01X17819055Y75710D01*
G01X17824643Y64280D01*
G01X17824643Y52850D01*
G01X17819055Y41420D01*
G01X17813213Y35578D01*
G01X17796195Y29990D01*
G01X17744633Y29990D02*
G01X17796195Y29990D01*
G01X17813213Y24148D01*
G01X17819055Y18560D01*
G01X17824643Y7130D01*
G01X17824643Y-10142D01*
G01X17819055Y-21572D01*
G01X17813213Y-27160D01*
G01X17796195Y-33002D01*
G01X17744633Y-33002D01*
G01X17901097Y47008D02*
G01X17889667Y41420D01*
G01X17878237Y29990D01*
G01X17872395Y12718D01*
G01X17872395Y1288D01*
G01X17878237Y-15730D01*
G01X17889667Y-27160D01*
G01X17901097Y-33002D01*
G01X17918115Y-33002D01*
G01X17929545Y-27160D01*
G01X17940975Y-15730D01*
G01X17946817Y1288D01*
G01X17946817Y12718D01*
G01X17940975Y29990D01*
G01X17929545Y41420D01*
G01X17918115Y47008D01*
G01X17901097Y47008D01*
G01X18011841Y87140D02*
G01X18011841Y-10142D01*
G01X18017429Y-27160D01*
G01X18028859Y-33002D01*
G01X18040289Y-33002D01*
G01X17994569Y47008D02*
G01X18034701Y47008D01*
G01X18105313Y87140D02*
G01X18105313Y-10142D01*
G01X18110901Y-27160D01*
G01X18122331Y-33002D01*
G01X18133761Y-33002D01*
G01X18088041Y47008D02*
G01X18128173Y47008D01*
G01X18210215Y47008D02*
G01X18198785Y41420D01*
G01X18187355Y29990D01*
G01X18181513Y12718D01*
G01X18181513Y1288D01*
G01X18187355Y-15730D01*
G01X18198785Y-27160D01*
G01X18210215Y-33002D01*
G01X18227233Y-33002D01*
G01X18238663Y-27160D01*
G01X18250093Y-15730D01*
G01X18255935Y1288D01*
G01X18255935Y12718D01*
G01X18250093Y29990D01*
G01X18238663Y41420D01*
G01X18227233Y47008D01*
G01X18210215Y47008D01*
G01X18303687Y47008D02*
G01X18303687Y-33002D01*
G01X18303687Y24148D02*
G01X18320959Y41420D01*
G01X18332389Y47008D01*
G01X18349407Y47008D01*
G01X18360837Y41420D01*
G01X18366679Y24148D01*
G01X18366679Y-33002D01*
G01X18366679Y24148D02*
G01X18383697Y41420D01*
G01X18395127Y47008D01*
G01X18412399Y47008D01*
G01X18423829Y41420D01*
G01X18429417Y24148D01*
G01X18429417Y-33002D01*
G01X18605185Y87140D02*
G01X18605185Y-33002D01*
G01X18605185Y-33002D02*
G01X18673765Y-33002D01*
G01X18790097Y47008D02*
G01X18790097Y-33002D01*
G01X18790097Y29990D02*
G01X18778667Y41420D01*
G01X18767237Y47008D01*
G01X18750219Y47008D01*
G01X18738789Y41420D01*
G01X18727359Y29990D01*
G01X18721517Y12718D01*
G01X18721517Y1288D01*
G01X18727359Y-15730D01*
G01X18738789Y-27160D01*
G01X18750219Y-33002D01*
G01X18767237Y-33002D01*
G01X18778667Y-27160D01*
G01X18790097Y-15730D01*
G01X18843691Y47008D02*
G01X18877981Y-33002D01*
G01X18912271Y47008D02*
G01X18877981Y-33002D01*
G01X18866551Y-55862D01*
G01X18855121Y-67292D01*
G01X18843691Y-72880D01*
G01X18837849Y-72880D01*
G01X18960023Y12718D02*
G01X19028603Y12718D01*
G01X19028603Y24148D01*
G01X19023015Y35578D01*
G01X19017173Y41420D01*
G01X19005743Y47008D01*
G01X18988725Y47008D01*
G01X18977295Y41420D01*
G01X18965865Y29990D01*
G01X18960023Y12718D01*
G01X18960023Y1288D01*
G01X18965865Y-15730D01*
G01X18977295Y-27160D01*
G01X18988725Y-33002D01*
G01X19005743Y-33002D01*
G01X19017173Y-27160D01*
G01X19028603Y-15730D01*
G01X19076355Y47008D02*
G01X19076355Y-33002D01*
G01X19076355Y12718D02*
G01X19082197Y29990D01*
G01X19093627Y41420D01*
G01X19105057Y47008D01*
G01X19122075Y47008D01*
G01X4808812Y-522133D02*
G01X4808812Y-516291D01*
G01X4814400Y-504861D01*
G01X4820242Y-499273D01*
G01X4831672Y-493431D01*
G01X4854532Y-493431D01*
G01X4865962Y-499273D01*
G01X4871550Y-504861D01*
G01X4877392Y-516291D01*
G01X4877392Y-527721D01*
G01X4871550Y-539151D01*
G01X4860120Y-556423D01*
G01X4802970Y-613573D01*
G01X4882980Y-613573D01*
G01X6222975Y-522133D02*
G01X6222975Y-516291D01*
G01X6228563Y-504861D01*
G01X6234405Y-499273D01*
G01X6245835Y-493431D01*
G01X6268695Y-493431D01*
G01X6280125Y-499273D01*
G01X6285713Y-504861D01*
G01X6291555Y-516291D01*
G01X6291555Y-527721D01*
G01X6285713Y-539151D01*
G01X6274283Y-556423D01*
G01X6217133Y-613573D01*
G01X6297143Y-613573D01*
G01X6356325Y-493431D02*
G01X6419317Y-493431D01*
G01X6385027Y-539151D01*
G01X6402045Y-539151D01*
G01X6413475Y-544993D01*
G01X6419317Y-550581D01*
G01X6424905Y-567853D01*
G01X6424905Y-579283D01*
G01X6419317Y-596301D01*
G01X6407887Y-607731D01*
G01X6390615Y-613573D01*
G01X6373597Y-613573D01*
G01X6356325Y-607731D01*
G01X6350737Y-602143D01*
G01X6344895Y-590713D01*
G01X6478499Y-584871D02*
G01X6472657Y-590713D01*
G01X6478499Y-596301D01*
G01X6484087Y-590713D01*
G01X6478499Y-584871D01*
G01X6600419Y-510703D02*
G01X6594831Y-499273D01*
G01X6577559Y-493431D01*
G01X6566129Y-493431D01*
G01X6549111Y-499273D01*
G01X6537681Y-516291D01*
G01X6531839Y-544993D01*
G01X6531839Y-573441D01*
G01X6537681Y-596301D01*
G01X6549111Y-607731D01*
G01X6566129Y-613573D01*
G01X6571971Y-613573D01*
G01X6588989Y-607731D01*
G01X6600419Y-596301D01*
G01X6606261Y-579283D01*
G01X6606261Y-573441D01*
G01X6600419Y-556423D01*
G01X6588989Y-544993D01*
G01X6571971Y-539151D01*
G01X6566129Y-539151D01*
G01X6549111Y-544993D01*
G01X6537681Y-556423D01*
G01X6531839Y-573441D01*
G01X6654013Y-533563D02*
G01X6717005Y-613573D01*
G01X6717005Y-533563D02*
G01X6654013Y-613573D01*
G01X6821907Y-493431D02*
G01X6764757Y-573441D01*
G01X6850609Y-573441D01*
G01X6821907Y-493431D02*
G01X6821907Y-613573D01*
G01X6978371Y-493431D02*
G01X6921221Y-613573D01*
G01X6898361Y-493431D02*
G01X6978371Y-493431D01*
G01X7031965Y-584871D02*
G01X7026123Y-590713D01*
G01X7031965Y-596301D01*
G01X7037553Y-590713D01*
G01X7031965Y-584871D01*
G01X7091147Y-522133D02*
G01X7091147Y-516291D01*
G01X7096735Y-504861D01*
G01X7102577Y-499273D01*
G01X7114007Y-493431D01*
G01X7136867Y-493431D01*
G01X7148297Y-499273D01*
G01X7153885Y-504861D01*
G01X7159727Y-516291D01*
G01X7159727Y-527721D01*
G01X7153885Y-539151D01*
G01X7142455Y-556423D01*
G01X7085305Y-613573D01*
G01X7165315Y-613573D01*
G01X7213067Y-533563D02*
G01X7213067Y-613573D01*
G01X7213067Y-556423D02*
G01X7230339Y-539151D01*
G01X7241769Y-533563D01*
G01X7258787Y-533563D01*
G01X7270217Y-539151D01*
G01X7276059Y-556423D01*
G01X7276059Y-613573D01*
G01X7276059Y-556423D02*
G01X7293077Y-539151D01*
G01X7304507Y-533563D01*
G01X7321779Y-533563D01*
G01X7333209Y-539151D01*
G01X7338797Y-556423D01*
G01X7338797Y-613573D01*
G01X7386549Y-493431D02*
G01X7392391Y-499273D01*
G01X7397979Y-493431D01*
G01X7392391Y-487843D01*
G01X7386549Y-493431D01*
G01X7392391Y-533563D02*
G01X7392391Y-613573D01*
G01X7445731Y-493431D02*
G01X7445731Y-613573D01*
G01X7533615Y-470571D02*
G01X7522185Y-482001D01*
G01X7510755Y-499273D01*
G01X7499325Y-522133D01*
G01X7493483Y-550581D01*
G01X7493483Y-573441D01*
G01X7499325Y-602143D01*
G01X7510755Y-625003D01*
G01X7522185Y-642021D01*
G01X7533615Y-653451D01*
G01X7615657Y-493431D02*
G01X7598639Y-499273D01*
G01X7587209Y-516291D01*
G01X7581367Y-544993D01*
G01X7581367Y-562011D01*
G01X7587209Y-590713D01*
G01X7598639Y-607731D01*
G01X7615657Y-613573D01*
G01X7627087Y-613573D01*
G01X7644359Y-607731D01*
G01X7655789Y-590713D01*
G01X7661377Y-562011D01*
G01X7661377Y-544993D01*
G01X7655789Y-516291D01*
G01X7644359Y-499273D01*
G01X7627087Y-493431D01*
G01X7615657Y-493431D01*
G01X7714971Y-584871D02*
G01X7709129Y-590713D01*
G01X7714971Y-596301D01*
G01X7720559Y-590713D01*
G01X7714971Y-584871D01*
G01X7836891Y-510703D02*
G01X7831303Y-499273D01*
G01X7814031Y-493431D01*
G01X7802601Y-493431D01*
G01X7785583Y-499273D01*
G01X7774153Y-516291D01*
G01X7768311Y-544993D01*
G01X7768311Y-573441D01*
G01X7774153Y-596301D01*
G01X7785583Y-607731D01*
G01X7802601Y-613573D01*
G01X7808443Y-613573D01*
G01X7825461Y-607731D01*
G01X7836891Y-596301D01*
G01X7842733Y-579283D01*
G01X7842733Y-573441D01*
G01X7836891Y-556423D01*
G01X7825461Y-544993D01*
G01X7808443Y-539151D01*
G01X7802601Y-539151D01*
G01X7785583Y-544993D01*
G01X7774153Y-556423D01*
G01X7768311Y-573441D01*
G01X7924775Y-493431D02*
G01X7907757Y-499273D01*
G01X7896327Y-516291D01*
G01X7890485Y-544993D01*
G01X7890485Y-562011D01*
G01X7896327Y-590713D01*
G01X7907757Y-607731D01*
G01X7924775Y-613573D01*
G01X7936205Y-613573D01*
G01X7953477Y-607731D01*
G01X7964907Y-590713D01*
G01X7970495Y-562011D01*
G01X7970495Y-544993D01*
G01X7964907Y-516291D01*
G01X7953477Y-499273D01*
G01X7936205Y-493431D01*
G01X7924775Y-493431D01*
G01X8052537Y-493431D02*
G01X8035519Y-499273D01*
G01X8024089Y-516291D01*
G01X8018247Y-544993D01*
G01X8018247Y-562011D01*
G01X8024089Y-590713D01*
G01X8035519Y-607731D01*
G01X8052537Y-613573D01*
G01X8063967Y-613573D01*
G01X8081239Y-607731D01*
G01X8092669Y-590713D01*
G01X8098257Y-562011D01*
G01X8098257Y-544993D01*
G01X8092669Y-516291D01*
G01X8081239Y-499273D01*
G01X8063967Y-493431D01*
G01X8052537Y-493431D01*
G01X8146009Y-533563D02*
G01X8209001Y-613573D01*
G01X8209001Y-533563D02*
G01X8146009Y-613573D01*
G01X8256753Y-516291D02*
G01X8268183Y-510703D01*
G01X8285455Y-493431D01*
G01X8285455Y-613573D01*
G01X8339049Y-584871D02*
G01X8333207Y-590713D01*
G01X8339049Y-596301D01*
G01X8344637Y-590713D01*
G01X8339049Y-584871D01*
G01X8398231Y-522133D02*
G01X8398231Y-516291D01*
G01X8403819Y-504861D01*
G01X8409661Y-499273D01*
G01X8421091Y-493431D01*
G01X8443951Y-493431D01*
G01X8455381Y-499273D01*
G01X8460969Y-504861D01*
G01X8466811Y-516291D01*
G01X8466811Y-527721D01*
G01X8460969Y-539151D01*
G01X8449539Y-556423D01*
G01X8392389Y-613573D01*
G01X8472399Y-613573D01*
G01X8554441Y-493431D02*
G01X8537423Y-499273D01*
G01X8525993Y-516291D01*
G01X8520151Y-544993D01*
G01X8520151Y-562011D01*
G01X8525993Y-590713D01*
G01X8537423Y-607731D01*
G01X8554441Y-613573D01*
G01X8565871Y-613573D01*
G01X8583143Y-607731D01*
G01X8594573Y-590713D01*
G01X8600161Y-562011D01*
G01X8600161Y-544993D01*
G01X8594573Y-516291D01*
G01X8583143Y-499273D01*
G01X8565871Y-493431D01*
G01X8554441Y-493431D01*
G01X8682203Y-493431D02*
G01X8665185Y-499273D01*
G01X8653755Y-516291D01*
G01X8647913Y-544993D01*
G01X8647913Y-562011D01*
G01X8653755Y-590713D01*
G01X8665185Y-607731D01*
G01X8682203Y-613573D01*
G01X8693633Y-613573D01*
G01X8710905Y-607731D01*
G01X8722335Y-590713D01*
G01X8727923Y-562011D01*
G01X8727923Y-544993D01*
G01X8722335Y-516291D01*
G01X8710905Y-499273D01*
G01X8693633Y-493431D01*
G01X8682203Y-493431D01*
G01X8775675Y-533563D02*
G01X8775675Y-613573D01*
G01X8775675Y-556423D02*
G01X8792947Y-539151D01*
G01X8804377Y-533563D01*
G01X8821395Y-533563D01*
G01X8832825Y-539151D01*
G01X8838667Y-556423D01*
G01X8838667Y-613573D01*
G01X8838667Y-556423D02*
G01X8855685Y-539151D01*
G01X8867115Y-533563D01*
G01X8884387Y-533563D01*
G01X8895817Y-539151D01*
G01X8901405Y-556423D01*
G01X8901405Y-613573D01*
G01X8949157Y-533563D02*
G01X8949157Y-613573D01*
G01X8949157Y-556423D02*
G01X8966429Y-539151D01*
G01X8977859Y-533563D01*
G01X8994877Y-533563D01*
G01X9006307Y-539151D01*
G01X9012149Y-556423D01*
G01X9012149Y-613573D01*
G01X9012149Y-556423D02*
G01X9029167Y-539151D01*
G01X9040597Y-533563D01*
G01X9057869Y-533563D01*
G01X9069299Y-539151D01*
G01X9074887Y-556423D01*
G01X9074887Y-613573D01*
G01X9122639Y-470571D02*
G01X9134069Y-482001D01*
G01X9145499Y-499273D01*
G01X9156929Y-522133D01*
G01X9162771Y-550581D01*
G01X9162771Y-573441D01*
G01X9156929Y-602143D01*
G01X9145499Y-625003D01*
G01X9134069Y-642021D01*
G01X9122639Y-653451D01*
G01X10053948Y-493431D02*
G01X10053948Y-613573D01*
G01X10053948Y-493431D02*
G01X10105510Y-493431D01*
G01X10122528Y-499273D01*
G01X10128370Y-504861D01*
G01X10133958Y-516291D01*
G01X10133958Y-533563D01*
G01X10128370Y-544993D01*
G01X10122528Y-550581D01*
G01X10105510Y-556423D01*
G01X10053948Y-556423D01*
G01X10221842Y-493431D02*
G01X10221842Y-613573D01*
G01X10181710Y-493431D02*
G01X10261720Y-493431D01*
G01X10309472Y-493431D02*
G01X10309472Y-613573D01*
G01X10389482Y-493431D02*
G01X10389482Y-613573D01*
G01X10309472Y-550581D02*
G01X10389482Y-550581D01*
G01X11595365Y-510703D02*
G01X11583935Y-499273D01*
G01X11566917Y-493431D01*
G01X11544057Y-493431D01*
G01X11526785Y-499273D01*
G01X11515355Y-510703D01*
G01X11515355Y-522133D01*
G01X11521197Y-533563D01*
G01X11526785Y-539151D01*
G01X11538215Y-544993D01*
G01X11572505Y-556423D01*
G01X11583935Y-562011D01*
G01X11589777Y-567853D01*
G01X11595365Y-579283D01*
G01X11595365Y-596301D01*
G01X11583935Y-607731D01*
G01X11566917Y-613573D01*
G01X11544057Y-613573D01*
G01X11526785Y-607731D01*
G01X11515355Y-596301D01*
G01X11643117Y-493431D02*
G01X11643117Y-613573D01*
G01X11719571Y-533563D02*
G01X11708141Y-539151D01*
G01X11696711Y-550581D01*
G01X11690869Y-567853D01*
G01X11690869Y-579283D01*
G01X11696711Y-596301D01*
G01X11708141Y-607731D01*
G01X11719571Y-613573D01*
G01X11736589Y-613573D01*
G01X11748019Y-607731D01*
G01X11759449Y-596301D01*
G01X11765291Y-579283D01*
G01X11765291Y-567853D01*
G01X11759449Y-550581D01*
G01X11748019Y-539151D01*
G01X11736589Y-533563D01*
G01X11719571Y-533563D01*
G01X11830315Y-493431D02*
G01X11830315Y-590713D01*
G01X11835903Y-607731D01*
G01X11847333Y-613573D01*
G01X11858763Y-613573D01*
G01X11813043Y-533563D02*
G01X11853175Y-533563D01*
G01X12946536Y-493431D02*
G01X12946536Y-613573D01*
G01X12946536Y-493431D02*
G01X12998098Y-493431D01*
G01X13015116Y-499273D01*
G01X13020958Y-504861D01*
G01X13026546Y-516291D01*
G01X13026546Y-533563D01*
G01X13020958Y-544993D01*
G01X13015116Y-550581D01*
G01X12998098Y-556423D01*
G01X12946536Y-556423D01*
G01X13142878Y-533563D02*
G01X13142878Y-613573D01*
G01X13142878Y-550581D02*
G01X13131448Y-539151D01*
G01X13120018Y-533563D01*
G01X13103000Y-533563D01*
G01X13091570Y-539151D01*
G01X13080140Y-550581D01*
G01X13074298Y-567853D01*
G01X13074298Y-579283D01*
G01X13080140Y-596301D01*
G01X13091570Y-607731D01*
G01X13103000Y-613573D01*
G01X13120018Y-613573D01*
G01X13131448Y-607731D01*
G01X13142878Y-596301D01*
G01X13259210Y-493431D02*
G01X13259210Y-613573D01*
G01X13259210Y-550581D02*
G01X13247780Y-539151D01*
G01X13236350Y-533563D01*
G01X13219332Y-533563D01*
G01X13207902Y-539151D01*
G01X13196472Y-550581D01*
G01X13190630Y-567853D01*
G01X13190630Y-579283D01*
G01X13196472Y-596301D01*
G01X13207902Y-607731D01*
G01X13219332Y-613573D01*
G01X13236350Y-613573D01*
G01X13247780Y-607731D01*
G01X13259210Y-596301D01*
G01X14650005Y-493431D02*
G01X14638575Y-499273D01*
G01X14627145Y-510703D01*
G01X14621557Y-522133D01*
G01X14615715Y-539151D01*
G01X14615715Y-567853D01*
G01X14621557Y-584871D01*
G01X14627145Y-596301D01*
G01X14638575Y-607731D01*
G01X14650005Y-613573D01*
G01X14672865Y-613573D01*
G01X14684295Y-607731D01*
G01X14695725Y-596301D01*
G01X14701567Y-584871D01*
G01X14707155Y-567853D01*
G01X14707155Y-539151D01*
G01X14701567Y-522133D01*
G01X14695725Y-510703D01*
G01X14684295Y-499273D01*
G01X14672865Y-493431D01*
G01X14650005Y-493431D01*
G01X14754907Y-533563D02*
G01X14789197Y-613573D01*
G01X14823487Y-533563D02*
G01X14789197Y-613573D01*
G01X14939819Y-533563D02*
G01X14939819Y-613573D01*
G01X14939819Y-550581D02*
G01X14928389Y-539151D01*
G01X14916959Y-533563D01*
G01X14899941Y-533563D01*
G01X14888511Y-539151D01*
G01X14877081Y-550581D01*
G01X14871239Y-567853D01*
G01X14871239Y-579283D01*
G01X14877081Y-596301D01*
G01X14888511Y-607731D01*
G01X14899941Y-613573D01*
G01X14916959Y-613573D01*
G01X14928389Y-607731D01*
G01X14939819Y-596301D01*
G01X14987571Y-493431D02*
G01X14987571Y-613573D01*
G01X16575217Y-493431D02*
G01X16575217Y-613573D01*
G01X16535085Y-493431D02*
G01X16615095Y-493431D01*
G01X16691549Y-533563D02*
G01X16680119Y-539151D01*
G01X16668689Y-550581D01*
G01X16662847Y-567853D01*
G01X16662847Y-579283D01*
G01X16668689Y-596301D01*
G01X16680119Y-607731D01*
G01X16691549Y-613573D01*
G01X16708567Y-613573D01*
G01X16719997Y-607731D01*
G01X16731427Y-596301D01*
G01X16737269Y-579283D01*
G01X16737269Y-567853D01*
G01X16731427Y-550581D01*
G01X16719997Y-539151D01*
G01X16708567Y-533563D01*
G01X16691549Y-533563D01*
G01X16785021Y-533563D02*
G01X16785021Y-653451D01*
G01X16785021Y-550581D02*
G01X16796451Y-539151D01*
G01X16807881Y-533563D01*
G01X16825153Y-533563D01*
G01X16836583Y-539151D01*
G01X16848013Y-550581D01*
G01X16853601Y-567853D01*
G01X16853601Y-579283D01*
G01X16848013Y-596301D01*
G01X16836583Y-607731D01*
G01X16825153Y-613573D01*
G01X16807881Y-613573D01*
G01X16796451Y-607731D01*
G01X16785021Y-596301D01*
G01X17029369Y-493431D02*
G01X17029369Y-613573D01*
G01X17029369Y-613573D02*
G01X17097949Y-613573D01*
G01X17214281Y-533563D02*
G01X17214281Y-613573D01*
G01X17214281Y-550581D02*
G01X17202851Y-539151D01*
G01X17191421Y-533563D01*
G01X17174403Y-533563D01*
G01X17162973Y-539151D01*
G01X17151543Y-550581D01*
G01X17145701Y-567853D01*
G01X17145701Y-579283D01*
G01X17151543Y-596301D01*
G01X17162973Y-607731D01*
G01X17174403Y-613573D01*
G01X17191421Y-613573D01*
G01X17202851Y-607731D01*
G01X17214281Y-596301D01*
G01X17267875Y-533563D02*
G01X17302165Y-613573D01*
G01X17336455Y-533563D02*
G01X17302165Y-613573D01*
G01X17290735Y-636433D01*
G01X17279305Y-647863D01*
G01X17267875Y-653451D01*
G01X17262033Y-653451D01*
G01X17384207Y-567853D02*
G01X17452787Y-567853D01*
G01X17452787Y-556423D01*
G01X17447199Y-544993D01*
G01X17441357Y-539151D01*
G01X17429927Y-533563D01*
G01X17412909Y-533563D01*
G01X17401479Y-539151D01*
G01X17390049Y-550581D01*
G01X17384207Y-567853D01*
G01X17384207Y-579283D01*
G01X17390049Y-596301D01*
G01X17401479Y-607731D01*
G01X17412909Y-613573D01*
G01X17429927Y-613573D01*
G01X17441357Y-607731D01*
G01X17452787Y-596301D01*
G01X17500539Y-533563D02*
G01X17500539Y-613573D01*
G01X17500539Y-567853D02*
G01X17506381Y-550581D01*
G01X17517811Y-539151D01*
G01X17529241Y-533563D01*
G01X17546259Y-533563D01*
G01X17594011Y-562011D02*
G01X17696881Y-562011D01*
G01X17744633Y-493431D02*
G01X17744633Y-613573D01*
G01X17744633Y-493431D02*
G01X17796195Y-493431D01*
G01X17813213Y-499273D01*
G01X17819055Y-504861D01*
G01X17824643Y-516291D01*
G01X17824643Y-527721D01*
G01X17819055Y-539151D01*
G01X17813213Y-544993D01*
G01X17796195Y-550581D01*
G01X17744633Y-550581D02*
G01X17796195Y-550581D01*
G01X17813213Y-556423D01*
G01X17819055Y-562011D01*
G01X17824643Y-573441D01*
G01X17824643Y-590713D01*
G01X17819055Y-602143D01*
G01X17813213Y-607731D01*
G01X17796195Y-613573D01*
G01X17744633Y-613573D01*
G01X17901097Y-533563D02*
G01X17889667Y-539151D01*
G01X17878237Y-550581D01*
G01X17872395Y-567853D01*
G01X17872395Y-579283D01*
G01X17878237Y-596301D01*
G01X17889667Y-607731D01*
G01X17901097Y-613573D01*
G01X17918115Y-613573D01*
G01X17929545Y-607731D01*
G01X17940975Y-596301D01*
G01X17946817Y-579283D01*
G01X17946817Y-567853D01*
G01X17940975Y-550581D01*
G01X17929545Y-539151D01*
G01X17918115Y-533563D01*
G01X17901097Y-533563D01*
G01X18011841Y-493431D02*
G01X18011841Y-590713D01*
G01X18017429Y-607731D01*
G01X18028859Y-613573D01*
G01X18040289Y-613573D01*
G01X17994569Y-533563D02*
G01X18034701Y-533563D01*
G01X18105313Y-493431D02*
G01X18105313Y-590713D01*
G01X18110901Y-607731D01*
G01X18122331Y-613573D01*
G01X18133761Y-613573D01*
G01X18088041Y-533563D02*
G01X18128173Y-533563D01*
G01X18210215Y-533563D02*
G01X18198785Y-539151D01*
G01X18187355Y-550581D01*
G01X18181513Y-567853D01*
G01X18181513Y-579283D01*
G01X18187355Y-596301D01*
G01X18198785Y-607731D01*
G01X18210215Y-613573D01*
G01X18227233Y-613573D01*
G01X18238663Y-607731D01*
G01X18250093Y-596301D01*
G01X18255935Y-579283D01*
G01X18255935Y-567853D01*
G01X18250093Y-550581D01*
G01X18238663Y-539151D01*
G01X18227233Y-533563D01*
G01X18210215Y-533563D01*
G01X18303687Y-533563D02*
G01X18303687Y-613573D01*
G01X18303687Y-556423D02*
G01X18320959Y-539151D01*
G01X18332389Y-533563D01*
G01X18349407Y-533563D01*
G01X18360837Y-539151D01*
G01X18366679Y-556423D01*
G01X18366679Y-613573D01*
G01X18366679Y-556423D02*
G01X18383697Y-539151D01*
G01X18395127Y-533563D01*
G01X18412399Y-533563D01*
G01X18423829Y-539151D01*
G01X18429417Y-556423D01*
G01X18429417Y-613573D01*
G01X18605185Y-493431D02*
G01X18605185Y-613573D01*
G01X18605185Y-613573D02*
G01X18673765Y-613573D01*
G01X18790097Y-533563D02*
G01X18790097Y-613573D01*
G01X18790097Y-550581D02*
G01X18778667Y-539151D01*
G01X18767237Y-533563D01*
G01X18750219Y-533563D01*
G01X18738789Y-539151D01*
G01X18727359Y-550581D01*
G01X18721517Y-567853D01*
G01X18721517Y-579283D01*
G01X18727359Y-596301D01*
G01X18738789Y-607731D01*
G01X18750219Y-613573D01*
G01X18767237Y-613573D01*
G01X18778667Y-607731D01*
G01X18790097Y-596301D01*
G01X18843691Y-533563D02*
G01X18877981Y-613573D01*
G01X18912271Y-533563D02*
G01X18877981Y-613573D01*
G01X18866551Y-636433D01*
G01X18855121Y-647863D01*
G01X18843691Y-653451D01*
G01X18837849Y-653451D01*
G01X18960023Y-567853D02*
G01X19028603Y-567853D01*
G01X19028603Y-556423D01*
G01X19023015Y-544993D01*
G01X19017173Y-539151D01*
G01X19005743Y-533563D01*
G01X18988725Y-533563D01*
G01X18977295Y-539151D01*
G01X18965865Y-550581D01*
G01X18960023Y-567853D01*
G01X18960023Y-579283D01*
G01X18965865Y-596301D01*
G01X18977295Y-607731D01*
G01X18988725Y-613573D01*
G01X19005743Y-613573D01*
G01X19017173Y-607731D01*
G01X19028603Y-596301D01*
G01X19076355Y-533563D02*
G01X19076355Y-613573D01*
G01X19076355Y-567853D02*
G01X19082197Y-550581D01*
G01X19093627Y-539151D01*
G01X19105057Y-533563D01*
G01X19122075Y-533563D01*
G01X4808812Y-1102705D02*
G01X4808812Y-1096863D01*
G01X4814400Y-1085433D01*
G01X4820242Y-1079845D01*
G01X4831672Y-1074003D01*
G01X4854532Y-1074003D01*
G01X4865962Y-1079845D01*
G01X4871550Y-1085433D01*
G01X4877392Y-1096863D01*
G01X4877392Y-1108293D01*
G01X4871550Y-1119723D01*
G01X4860120Y-1136995D01*
G01X4802970Y-1194145D01*
G01X4882980Y-1194145D01*
G01X6222975Y-1102705D02*
G01X6222975Y-1096863D01*
G01X6228563Y-1085433D01*
G01X6234405Y-1079845D01*
G01X6245835Y-1074003D01*
G01X6268695Y-1074003D01*
G01X6280125Y-1079845D01*
G01X6285713Y-1085433D01*
G01X6291555Y-1096863D01*
G01X6291555Y-1108293D01*
G01X6285713Y-1119723D01*
G01X6274283Y-1136995D01*
G01X6217133Y-1194145D01*
G01X6297143Y-1194145D01*
G01X6424905Y-1074003D02*
G01X6367755Y-1194145D01*
G01X6344895Y-1074003D02*
G01X6424905Y-1074003D01*
G01X6478499Y-1165443D02*
G01X6472657Y-1171285D01*
G01X6478499Y-1176873D01*
G01X6484087Y-1171285D01*
G01X6478499Y-1165443D01*
G01X6600419Y-1091275D02*
G01X6594831Y-1079845D01*
G01X6577559Y-1074003D01*
G01X6566129Y-1074003D01*
G01X6549111Y-1079845D01*
G01X6537681Y-1096863D01*
G01X6531839Y-1125565D01*
G01X6531839Y-1154013D01*
G01X6537681Y-1176873D01*
G01X6549111Y-1188303D01*
G01X6566129Y-1194145D01*
G01X6571971Y-1194145D01*
G01X6588989Y-1188303D01*
G01X6600419Y-1176873D01*
G01X6606261Y-1159855D01*
G01X6606261Y-1154013D01*
G01X6600419Y-1136995D01*
G01X6588989Y-1125565D01*
G01X6571971Y-1119723D01*
G01X6566129Y-1119723D01*
G01X6549111Y-1125565D01*
G01X6537681Y-1136995D01*
G01X6531839Y-1154013D01*
G01X6654013Y-1114135D02*
G01X6654013Y-1194145D01*
G01X6654013Y-1136995D02*
G01X6671285Y-1119723D01*
G01X6682715Y-1114135D01*
G01X6699733Y-1114135D01*
G01X6711163Y-1119723D01*
G01X6717005Y-1136995D01*
G01X6717005Y-1194145D01*
G01X6717005Y-1136995D02*
G01X6734023Y-1119723D01*
G01X6745453Y-1114135D01*
G01X6762725Y-1114135D01*
G01X6774155Y-1119723D01*
G01X6779743Y-1136995D01*
G01X6779743Y-1194145D01*
G01X6827495Y-1074003D02*
G01X6833337Y-1079845D01*
G01X6838925Y-1074003D01*
G01X6833337Y-1068415D01*
G01X6827495Y-1074003D01*
G01X6833337Y-1114135D02*
G01X6833337Y-1194145D01*
G01X6886677Y-1074003D02*
G01X6886677Y-1194145D01*
G01X6974561Y-1051143D02*
G01X6963131Y-1062573D01*
G01X6951701Y-1079845D01*
G01X6940271Y-1102705D01*
G01X6934429Y-1131153D01*
G01X6934429Y-1154013D01*
G01X6940271Y-1182715D01*
G01X6951701Y-1205575D01*
G01X6963131Y-1222593D01*
G01X6974561Y-1234023D01*
G01X7056603Y-1074003D02*
G01X7039585Y-1079845D01*
G01X7028155Y-1096863D01*
G01X7022313Y-1125565D01*
G01X7022313Y-1142583D01*
G01X7028155Y-1171285D01*
G01X7039585Y-1188303D01*
G01X7056603Y-1194145D01*
G01X7068033Y-1194145D01*
G01X7085305Y-1188303D01*
G01X7096735Y-1171285D01*
G01X7102323Y-1142583D01*
G01X7102323Y-1125565D01*
G01X7096735Y-1096863D01*
G01X7085305Y-1079845D01*
G01X7068033Y-1074003D01*
G01X7056603Y-1074003D01*
G01X7155917Y-1165443D02*
G01X7150075Y-1171285D01*
G01X7155917Y-1176873D01*
G01X7161505Y-1171285D01*
G01X7155917Y-1165443D01*
G01X7289267Y-1074003D02*
G01X7232117Y-1194145D01*
G01X7209257Y-1074003D02*
G01X7289267Y-1074003D01*
G01X7371309Y-1074003D02*
G01X7354291Y-1079845D01*
G01X7342861Y-1096863D01*
G01X7337019Y-1125565D01*
G01X7337019Y-1142583D01*
G01X7342861Y-1171285D01*
G01X7354291Y-1188303D01*
G01X7371309Y-1194145D01*
G01X7382739Y-1194145D01*
G01X7400011Y-1188303D01*
G01X7411441Y-1171285D01*
G01X7417029Y-1142583D01*
G01X7417029Y-1125565D01*
G01X7411441Y-1096863D01*
G01X7400011Y-1079845D01*
G01X7382739Y-1074003D01*
G01X7371309Y-1074003D01*
G01X7499071Y-1074003D02*
G01X7482053Y-1079845D01*
G01X7470623Y-1096863D01*
G01X7464781Y-1125565D01*
G01X7464781Y-1142583D01*
G01X7470623Y-1171285D01*
G01X7482053Y-1188303D01*
G01X7499071Y-1194145D01*
G01X7510501Y-1194145D01*
G01X7527773Y-1188303D01*
G01X7539203Y-1171285D01*
G01X7544791Y-1142583D01*
G01X7544791Y-1125565D01*
G01X7539203Y-1096863D01*
G01X7527773Y-1079845D01*
G01X7510501Y-1074003D01*
G01X7499071Y-1074003D01*
G01X7592543Y-1114135D02*
G01X7592543Y-1194145D01*
G01X7592543Y-1136995D02*
G01X7609815Y-1119723D01*
G01X7621245Y-1114135D01*
G01X7638263Y-1114135D01*
G01X7649693Y-1119723D01*
G01X7655535Y-1136995D01*
G01X7655535Y-1194145D01*
G01X7655535Y-1136995D02*
G01X7672553Y-1119723D01*
G01X7683983Y-1114135D01*
G01X7701255Y-1114135D01*
G01X7712685Y-1119723D01*
G01X7718273Y-1136995D01*
G01X7718273Y-1194145D01*
G01X7766025Y-1114135D02*
G01X7766025Y-1194145D01*
G01X7766025Y-1136995D02*
G01X7783297Y-1119723D01*
G01X7794727Y-1114135D01*
G01X7811745Y-1114135D01*
G01X7823175Y-1119723D01*
G01X7829017Y-1136995D01*
G01X7829017Y-1194145D01*
G01X7829017Y-1136995D02*
G01X7846035Y-1119723D01*
G01X7857465Y-1114135D01*
G01X7874737Y-1114135D01*
G01X7886167Y-1119723D01*
G01X7891755Y-1136995D01*
G01X7891755Y-1194145D01*
G01X7939507Y-1051143D02*
G01X7950937Y-1062573D01*
G01X7962367Y-1079845D01*
G01X7973797Y-1102705D01*
G01X7979639Y-1131153D01*
G01X7979639Y-1154013D01*
G01X7973797Y-1182715D01*
G01X7962367Y-1205575D01*
G01X7950937Y-1222593D01*
G01X7939507Y-1234023D01*
G01X10053948Y-1074003D02*
G01X10053948Y-1194145D01*
G01X10053948Y-1074003D02*
G01X10133958Y-1194145D01*
G01X10133958Y-1074003D02*
G01X10133958Y-1194145D01*
G01X10181710Y-1074003D02*
G01X10181710Y-1194145D01*
G01X10181710Y-1074003D02*
G01X10233272Y-1074003D01*
G01X10250290Y-1079845D01*
G01X10256132Y-1085433D01*
G01X10261720Y-1096863D01*
G01X10261720Y-1114135D01*
G01X10256132Y-1125565D01*
G01X10250290Y-1131153D01*
G01X10233272Y-1136995D01*
G01X10181710Y-1136995D01*
G01X10349604Y-1074003D02*
G01X10349604Y-1194145D01*
G01X10309472Y-1074003D02*
G01X10389482Y-1074003D01*
G01X10437234Y-1074003D02*
G01X10437234Y-1194145D01*
G01X10517244Y-1074003D02*
G01X10517244Y-1194145D01*
G01X10437234Y-1131153D02*
G01X10517244Y-1131153D01*
G01X11515355Y-1074003D02*
G01X11515355Y-1194145D01*
G01X11515355Y-1074003D02*
G01X11566917Y-1074003D01*
G01X11583935Y-1079845D01*
G01X11589777Y-1085433D01*
G01X11595365Y-1096863D01*
G01X11595365Y-1108293D01*
G01X11589777Y-1119723D01*
G01X11583935Y-1125565D01*
G01X11566917Y-1131153D01*
G01X11515355Y-1131153D01*
G01X11555487Y-1131153D02*
G01X11595365Y-1194145D01*
G01X11671819Y-1114135D02*
G01X11660389Y-1119723D01*
G01X11648959Y-1131153D01*
G01X11643117Y-1148425D01*
G01X11643117Y-1159855D01*
G01X11648959Y-1176873D01*
G01X11660389Y-1188303D01*
G01X11671819Y-1194145D01*
G01X11688837Y-1194145D01*
G01X11700267Y-1188303D01*
G01X11711697Y-1176873D01*
G01X11717539Y-1159855D01*
G01X11717539Y-1148425D01*
G01X11711697Y-1131153D01*
G01X11700267Y-1119723D01*
G01X11688837Y-1114135D01*
G01X11671819Y-1114135D01*
G01X11765291Y-1114135D02*
G01X11765291Y-1171285D01*
G01X11771133Y-1188303D01*
G01X11782563Y-1194145D01*
G01X11799581Y-1194145D01*
G01X11811011Y-1188303D01*
G01X11828283Y-1171285D01*
G01X11828283Y-1114135D02*
G01X11828283Y-1194145D01*
G01X11876035Y-1114135D02*
G01X11876035Y-1194145D01*
G01X11876035Y-1136995D02*
G01X11893307Y-1119723D01*
G01X11904737Y-1114135D01*
G01X11921755Y-1114135D01*
G01X11933185Y-1119723D01*
G01X11939027Y-1136995D01*
G01X11939027Y-1194145D01*
G01X12055359Y-1074003D02*
G01X12055359Y-1194145D01*
G01X12055359Y-1131153D02*
G01X12043929Y-1119723D01*
G01X12032499Y-1114135D01*
G01X12015481Y-1114135D01*
G01X12004051Y-1119723D01*
G01X11992621Y-1131153D01*
G01X11986779Y-1148425D01*
G01X11986779Y-1159855D01*
G01X11992621Y-1176873D01*
G01X12004051Y-1188303D01*
G01X12015481Y-1194145D01*
G01X12032499Y-1194145D01*
G01X12043929Y-1188303D01*
G01X12055359Y-1176873D01*
G01X12946536Y-1074003D02*
G01X12992256Y-1194145D01*
G01X13037976Y-1074003D02*
G01X12992256Y-1194145D01*
G01X13085728Y-1074003D02*
G01X13091570Y-1079845D01*
G01X13097158Y-1074003D01*
G01X13091570Y-1068415D01*
G01X13085728Y-1074003D01*
G01X13091570Y-1114135D02*
G01X13091570Y-1194145D01*
G01X13213490Y-1114135D02*
G01X13213490Y-1194145D01*
G01X13213490Y-1131153D02*
G01X13202060Y-1119723D01*
G01X13190630Y-1114135D01*
G01X13173612Y-1114135D01*
G01X13162182Y-1119723D01*
G01X13150752Y-1131153D01*
G01X13144910Y-1148425D01*
G01X13144910Y-1159855D01*
G01X13150752Y-1176873D01*
G01X13162182Y-1188303D01*
G01X13173612Y-1194145D01*
G01X13190630Y-1194145D01*
G01X13202060Y-1188303D01*
G01X13213490Y-1176873D01*
G01X16575217Y-1074003D02*
G01X16575217Y-1194145D01*
G01X16535085Y-1074003D02*
G01X16615095Y-1074003D01*
G01X16691549Y-1114135D02*
G01X16680119Y-1119723D01*
G01X16668689Y-1131153D01*
G01X16662847Y-1148425D01*
G01X16662847Y-1159855D01*
G01X16668689Y-1176873D01*
G01X16680119Y-1188303D01*
G01X16691549Y-1194145D01*
G01X16708567Y-1194145D01*
G01X16719997Y-1188303D01*
G01X16731427Y-1176873D01*
G01X16737269Y-1159855D01*
G01X16737269Y-1148425D01*
G01X16731427Y-1131153D01*
G01X16719997Y-1119723D01*
G01X16708567Y-1114135D01*
G01X16691549Y-1114135D01*
G01X16785021Y-1114135D02*
G01X16785021Y-1234023D01*
G01X16785021Y-1131153D02*
G01X16796451Y-1119723D01*
G01X16807881Y-1114135D01*
G01X16825153Y-1114135D01*
G01X16836583Y-1119723D01*
G01X16848013Y-1131153D01*
G01X16853601Y-1148425D01*
G01X16853601Y-1159855D01*
G01X16848013Y-1176873D01*
G01X16836583Y-1188303D01*
G01X16825153Y-1194145D01*
G01X16807881Y-1194145D01*
G01X16796451Y-1188303D01*
G01X16785021Y-1176873D01*
G01X17029369Y-1074003D02*
G01X17029369Y-1194145D01*
G01X17029369Y-1194145D02*
G01X17097949Y-1194145D01*
G01X17214281Y-1114135D02*
G01X17214281Y-1194145D01*
G01X17214281Y-1131153D02*
G01X17202851Y-1119723D01*
G01X17191421Y-1114135D01*
G01X17174403Y-1114135D01*
G01X17162973Y-1119723D01*
G01X17151543Y-1131153D01*
G01X17145701Y-1148425D01*
G01X17145701Y-1159855D01*
G01X17151543Y-1176873D01*
G01X17162973Y-1188303D01*
G01X17174403Y-1194145D01*
G01X17191421Y-1194145D01*
G01X17202851Y-1188303D01*
G01X17214281Y-1176873D01*
G01X17267875Y-1114135D02*
G01X17302165Y-1194145D01*
G01X17336455Y-1114135D02*
G01X17302165Y-1194145D01*
G01X17290735Y-1217005D01*
G01X17279305Y-1228435D01*
G01X17267875Y-1234023D01*
G01X17262033Y-1234023D01*
G01X17384207Y-1148425D02*
G01X17452787Y-1148425D01*
G01X17452787Y-1136995D01*
G01X17447199Y-1125565D01*
G01X17441357Y-1119723D01*
G01X17429927Y-1114135D01*
G01X17412909Y-1114135D01*
G01X17401479Y-1119723D01*
G01X17390049Y-1131153D01*
G01X17384207Y-1148425D01*
G01X17384207Y-1159855D01*
G01X17390049Y-1176873D01*
G01X17401479Y-1188303D01*
G01X17412909Y-1194145D01*
G01X17429927Y-1194145D01*
G01X17441357Y-1188303D01*
G01X17452787Y-1176873D01*
G01X17500539Y-1114135D02*
G01X17500539Y-1194145D01*
G01X17500539Y-1148425D02*
G01X17506381Y-1131153D01*
G01X17517811Y-1119723D01*
G01X17529241Y-1114135D01*
G01X17546259Y-1114135D01*
G01X17594011Y-1142583D02*
G01X17696881Y-1142583D01*
G01X17744633Y-1074003D02*
G01X17744633Y-1194145D01*
G01X17744633Y-1074003D02*
G01X17796195Y-1074003D01*
G01X17813213Y-1079845D01*
G01X17819055Y-1085433D01*
G01X17824643Y-1096863D01*
G01X17824643Y-1108293D01*
G01X17819055Y-1119723D01*
G01X17813213Y-1125565D01*
G01X17796195Y-1131153D01*
G01X17744633Y-1131153D02*
G01X17796195Y-1131153D01*
G01X17813213Y-1136995D01*
G01X17819055Y-1142583D01*
G01X17824643Y-1154013D01*
G01X17824643Y-1171285D01*
G01X17819055Y-1182715D01*
G01X17813213Y-1188303D01*
G01X17796195Y-1194145D01*
G01X17744633Y-1194145D01*
G01X17901097Y-1114135D02*
G01X17889667Y-1119723D01*
G01X17878237Y-1131153D01*
G01X17872395Y-1148425D01*
G01X17872395Y-1159855D01*
G01X17878237Y-1176873D01*
G01X17889667Y-1188303D01*
G01X17901097Y-1194145D01*
G01X17918115Y-1194145D01*
G01X17929545Y-1188303D01*
G01X17940975Y-1176873D01*
G01X17946817Y-1159855D01*
G01X17946817Y-1148425D01*
G01X17940975Y-1131153D01*
G01X17929545Y-1119723D01*
G01X17918115Y-1114135D01*
G01X17901097Y-1114135D01*
G01X18011841Y-1074003D02*
G01X18011841Y-1171285D01*
G01X18017429Y-1188303D01*
G01X18028859Y-1194145D01*
G01X18040289Y-1194145D01*
G01X17994569Y-1114135D02*
G01X18034701Y-1114135D01*
G01X18105313Y-1074003D02*
G01X18105313Y-1171285D01*
G01X18110901Y-1188303D01*
G01X18122331Y-1194145D01*
G01X18133761Y-1194145D01*
G01X18088041Y-1114135D02*
G01X18128173Y-1114135D01*
G01X18210215Y-1114135D02*
G01X18198785Y-1119723D01*
G01X18187355Y-1131153D01*
G01X18181513Y-1148425D01*
G01X18181513Y-1159855D01*
G01X18187355Y-1176873D01*
G01X18198785Y-1188303D01*
G01X18210215Y-1194145D01*
G01X18227233Y-1194145D01*
G01X18238663Y-1188303D01*
G01X18250093Y-1176873D01*
G01X18255935Y-1159855D01*
G01X18255935Y-1148425D01*
G01X18250093Y-1131153D01*
G01X18238663Y-1119723D01*
G01X18227233Y-1114135D01*
G01X18210215Y-1114135D01*
G01X18303687Y-1114135D02*
G01X18303687Y-1194145D01*
G01X18303687Y-1136995D02*
G01X18320959Y-1119723D01*
G01X18332389Y-1114135D01*
G01X18349407Y-1114135D01*
G01X18360837Y-1119723D01*
G01X18366679Y-1136995D01*
G01X18366679Y-1194145D01*
G01X18366679Y-1136995D02*
G01X18383697Y-1119723D01*
G01X18395127Y-1114135D01*
G01X18412399Y-1114135D01*
G01X18423829Y-1119723D01*
G01X18429417Y-1136995D01*
G01X18429417Y-1194145D01*
G01X18605185Y-1074003D02*
G01X18605185Y-1194145D01*
G01X18605185Y-1194145D02*
G01X18673765Y-1194145D01*
G01X18790097Y-1114135D02*
G01X18790097Y-1194145D01*
G01X18790097Y-1131153D02*
G01X18778667Y-1119723D01*
G01X18767237Y-1114135D01*
G01X18750219Y-1114135D01*
G01X18738789Y-1119723D01*
G01X18727359Y-1131153D01*
G01X18721517Y-1148425D01*
G01X18721517Y-1159855D01*
G01X18727359Y-1176873D01*
G01X18738789Y-1188303D01*
G01X18750219Y-1194145D01*
G01X18767237Y-1194145D01*
G01X18778667Y-1188303D01*
G01X18790097Y-1176873D01*
G01X18843691Y-1114135D02*
G01X18877981Y-1194145D01*
G01X18912271Y-1114135D02*
G01X18877981Y-1194145D01*
G01X18866551Y-1217005D01*
G01X18855121Y-1228435D01*
G01X18843691Y-1234023D01*
G01X18837849Y-1234023D01*
G01X18960023Y-1148425D02*
G01X19028603Y-1148425D01*
G01X19028603Y-1136995D01*
G01X19023015Y-1125565D01*
G01X19017173Y-1119723D01*
G01X19005743Y-1114135D01*
G01X18988725Y-1114135D01*
G01X18977295Y-1119723D01*
G01X18965865Y-1131153D01*
G01X18960023Y-1148425D01*
G01X18960023Y-1159855D01*
G01X18965865Y-1176873D01*
G01X18977295Y-1188303D01*
G01X18988725Y-1194145D01*
G01X19005743Y-1194145D01*
G01X19017173Y-1188303D01*
G01X19028603Y-1176873D01*
G01X19076355Y-1114135D02*
G01X19076355Y-1194145D01*
G01X19076355Y-1148425D02*
G01X19082197Y-1131153D01*
G01X19093627Y-1119723D01*
G01X19105057Y-1114135D01*
G01X19122075Y-1114135D01*
G01X4882980Y-1654574D02*
G01X4825830Y-1774716D01*
G01X4802970Y-1654574D02*
G01X4882980Y-1654574D01*
G01X6222975Y-1683276D02*
G01X6222975Y-1677434D01*
G01X6228563Y-1666004D01*
G01X6234405Y-1660416D01*
G01X6245835Y-1654574D01*
G01X6268695Y-1654574D01*
G01X6280125Y-1660416D01*
G01X6285713Y-1666004D01*
G01X6291555Y-1677434D01*
G01X6291555Y-1688864D01*
G01X6285713Y-1700294D01*
G01X6274283Y-1717566D01*
G01X6217133Y-1774716D01*
G01X6297143Y-1774716D01*
G01X6379185Y-1654574D02*
G01X6362167Y-1660416D01*
G01X6350737Y-1677434D01*
G01X6344895Y-1706136D01*
G01X6344895Y-1723154D01*
G01X6350737Y-1751856D01*
G01X6362167Y-1768874D01*
G01X6379185Y-1774716D01*
G01X6390615Y-1774716D01*
G01X6407887Y-1768874D01*
G01X6419317Y-1751856D01*
G01X6424905Y-1723154D01*
G01X6424905Y-1706136D01*
G01X6419317Y-1677434D01*
G01X6407887Y-1660416D01*
G01X6390615Y-1654574D01*
G01X6379185Y-1654574D01*
G01X6478499Y-1746014D02*
G01X6472657Y-1751856D01*
G01X6478499Y-1757444D01*
G01X6484087Y-1751856D01*
G01X6478499Y-1746014D01*
G01X6566129Y-1654574D02*
G01X6549111Y-1660416D01*
G01X6537681Y-1677434D01*
G01X6531839Y-1706136D01*
G01X6531839Y-1723154D01*
G01X6537681Y-1751856D01*
G01X6549111Y-1768874D01*
G01X6566129Y-1774716D01*
G01X6577559Y-1774716D01*
G01X6594831Y-1768874D01*
G01X6606261Y-1751856D01*
G01X6611849Y-1723154D01*
G01X6611849Y-1706136D01*
G01X6606261Y-1677434D01*
G01X6594831Y-1660416D01*
G01X6577559Y-1654574D01*
G01X6566129Y-1654574D01*
G01X6659601Y-1694706D02*
G01X6659601Y-1774716D01*
G01X6659601Y-1717566D02*
G01X6676873Y-1700294D01*
G01X6688303Y-1694706D01*
G01X6705321Y-1694706D01*
G01X6716751Y-1700294D01*
G01X6722593Y-1717566D01*
G01X6722593Y-1774716D01*
G01X6722593Y-1717566D02*
G01X6739611Y-1700294D01*
G01X6751041Y-1694706D01*
G01X6768313Y-1694706D01*
G01X6779743Y-1700294D01*
G01X6785331Y-1717566D01*
G01X6785331Y-1774716D01*
G01X6833083Y-1654574D02*
G01X6838925Y-1660416D01*
G01X6844513Y-1654574D01*
G01X6838925Y-1648986D01*
G01X6833083Y-1654574D01*
G01X6838925Y-1694706D02*
G01X6838925Y-1774716D01*
G01X6892265Y-1654574D02*
G01X6892265Y-1774716D01*
G01X6980149Y-1631714D02*
G01X6968719Y-1643144D01*
G01X6957289Y-1660416D01*
G01X6945859Y-1683276D01*
G01X6940017Y-1711724D01*
G01X6940017Y-1734584D01*
G01X6945859Y-1763286D01*
G01X6957289Y-1786146D01*
G01X6968719Y-1803164D01*
G01X6980149Y-1814594D01*
G01X7062191Y-1654574D02*
G01X7045173Y-1660416D01*
G01X7033743Y-1677434D01*
G01X7027901Y-1706136D01*
G01X7027901Y-1723154D01*
G01X7033743Y-1751856D01*
G01X7045173Y-1768874D01*
G01X7062191Y-1774716D01*
G01X7073621Y-1774716D01*
G01X7090893Y-1768874D01*
G01X7102323Y-1751856D01*
G01X7107911Y-1723154D01*
G01X7107911Y-1706136D01*
G01X7102323Y-1677434D01*
G01X7090893Y-1660416D01*
G01X7073621Y-1654574D01*
G01X7062191Y-1654574D01*
G01X7161505Y-1746014D02*
G01X7155663Y-1751856D01*
G01X7161505Y-1757444D01*
G01X7167093Y-1751856D01*
G01X7161505Y-1746014D01*
G01X7283425Y-1654574D02*
G01X7226275Y-1654574D01*
G01X7220687Y-1706136D01*
G01X7226275Y-1700294D01*
G01X7243547Y-1694706D01*
G01X7260565Y-1694706D01*
G01X7277837Y-1700294D01*
G01X7289267Y-1711724D01*
G01X7294855Y-1728996D01*
G01X7294855Y-1740426D01*
G01X7289267Y-1757444D01*
G01X7277837Y-1768874D01*
G01X7260565Y-1774716D01*
G01X7243547Y-1774716D01*
G01X7226275Y-1768874D01*
G01X7220687Y-1763286D01*
G01X7214845Y-1751856D01*
G01X7376897Y-1654574D02*
G01X7359879Y-1660416D01*
G01X7348449Y-1677434D01*
G01X7342607Y-1706136D01*
G01X7342607Y-1723154D01*
G01X7348449Y-1751856D01*
G01X7359879Y-1768874D01*
G01X7376897Y-1774716D01*
G01X7388327Y-1774716D01*
G01X7405599Y-1768874D01*
G01X7417029Y-1751856D01*
G01X7422617Y-1723154D01*
G01X7422617Y-1706136D01*
G01X7417029Y-1677434D01*
G01X7405599Y-1660416D01*
G01X7388327Y-1654574D01*
G01X7376897Y-1654574D01*
G01X7499071Y-1654574D02*
G01X7481799Y-1660416D01*
G01X7476211Y-1671846D01*
G01X7476211Y-1683276D01*
G01X7481799Y-1694706D01*
G01X7493229Y-1700294D01*
G01X7516089Y-1706136D01*
G01X7533361Y-1711724D01*
G01X7544791Y-1723154D01*
G01X7550379Y-1734584D01*
G01X7550379Y-1751856D01*
G01X7544791Y-1763286D01*
G01X7538949Y-1768874D01*
G01X7521931Y-1774716D01*
G01X7499071Y-1774716D01*
G01X7481799Y-1768874D01*
G01X7476211Y-1763286D01*
G01X7470369Y-1751856D01*
G01X7470369Y-1734584D01*
G01X7476211Y-1723154D01*
G01X7487641Y-1711724D01*
G01X7504659Y-1706136D01*
G01X7527519Y-1700294D01*
G01X7538949Y-1694706D01*
G01X7544791Y-1683276D01*
G01X7544791Y-1671846D01*
G01X7538949Y-1660416D01*
G01X7521931Y-1654574D01*
G01X7499071Y-1654574D01*
G01X7598131Y-1694706D02*
G01X7598131Y-1774716D01*
G01X7598131Y-1717566D02*
G01X7615403Y-1700294D01*
G01X7626833Y-1694706D01*
G01X7643851Y-1694706D01*
G01X7655281Y-1700294D01*
G01X7661123Y-1717566D01*
G01X7661123Y-1774716D01*
G01X7661123Y-1717566D02*
G01X7678141Y-1700294D01*
G01X7689571Y-1694706D01*
G01X7706843Y-1694706D01*
G01X7718273Y-1700294D01*
G01X7723861Y-1717566D01*
G01X7723861Y-1774716D01*
G01X7771613Y-1694706D02*
G01X7771613Y-1774716D01*
G01X7771613Y-1717566D02*
G01X7788885Y-1700294D01*
G01X7800315Y-1694706D01*
G01X7817333Y-1694706D01*
G01X7828763Y-1700294D01*
G01X7834605Y-1717566D01*
G01X7834605Y-1774716D01*
G01X7834605Y-1717566D02*
G01X7851623Y-1700294D01*
G01X7863053Y-1694706D01*
G01X7880325Y-1694706D01*
G01X7891755Y-1700294D01*
G01X7897343Y-1717566D01*
G01X7897343Y-1774716D01*
G01X7945095Y-1631714D02*
G01X7956525Y-1643144D01*
G01X7967955Y-1660416D01*
G01X7979385Y-1683276D01*
G01X7985227Y-1711724D01*
G01X7985227Y-1734584D01*
G01X7979385Y-1763286D01*
G01X7967955Y-1786146D01*
G01X7956525Y-1803164D01*
G01X7945095Y-1814594D01*
G01X10053948Y-1654574D02*
G01X10053948Y-1774716D01*
G01X10053948Y-1654574D02*
G01X10105510Y-1654574D01*
G01X10122528Y-1660416D01*
G01X10128370Y-1666004D01*
G01X10133958Y-1677434D01*
G01X10133958Y-1694706D01*
G01X10128370Y-1706136D01*
G01X10122528Y-1711724D01*
G01X10105510Y-1717566D01*
G01X10053948Y-1717566D01*
G01X10221842Y-1654574D02*
G01X10221842Y-1774716D01*
G01X10181710Y-1654574D02*
G01X10261720Y-1654574D01*
G01X10309472Y-1654574D02*
G01X10309472Y-1774716D01*
G01X10389482Y-1654574D02*
G01X10389482Y-1774716D01*
G01X10309472Y-1711724D02*
G01X10389482Y-1711724D01*
G01X11515355Y-1654574D02*
G01X11515355Y-1774716D01*
G01X11515355Y-1654574D02*
G01X11566917Y-1654574D01*
G01X11583935Y-1660416D01*
G01X11589777Y-1666004D01*
G01X11595365Y-1677434D01*
G01X11595365Y-1688864D01*
G01X11589777Y-1700294D01*
G01X11583935Y-1706136D01*
G01X11566917Y-1711724D01*
G01X11515355Y-1711724D01*
G01X11555487Y-1711724D02*
G01X11595365Y-1774716D01*
G01X11671819Y-1694706D02*
G01X11660389Y-1700294D01*
G01X11648959Y-1711724D01*
G01X11643117Y-1728996D01*
G01X11643117Y-1740426D01*
G01X11648959Y-1757444D01*
G01X11660389Y-1768874D01*
G01X11671819Y-1774716D01*
G01X11688837Y-1774716D01*
G01X11700267Y-1768874D01*
G01X11711697Y-1757444D01*
G01X11717539Y-1740426D01*
G01X11717539Y-1728996D01*
G01X11711697Y-1711724D01*
G01X11700267Y-1700294D01*
G01X11688837Y-1694706D01*
G01X11671819Y-1694706D01*
G01X11765291Y-1694706D02*
G01X11765291Y-1751856D01*
G01X11771133Y-1768874D01*
G01X11782563Y-1774716D01*
G01X11799581Y-1774716D01*
G01X11811011Y-1768874D01*
G01X11828283Y-1751856D01*
G01X11828283Y-1694706D02*
G01X11828283Y-1774716D01*
G01X11876035Y-1694706D02*
G01X11876035Y-1774716D01*
G01X11876035Y-1717566D02*
G01X11893307Y-1700294D01*
G01X11904737Y-1694706D01*
G01X11921755Y-1694706D01*
G01X11933185Y-1700294D01*
G01X11939027Y-1717566D01*
G01X11939027Y-1774716D01*
G01X12055359Y-1654574D02*
G01X12055359Y-1774716D01*
G01X12055359Y-1711724D02*
G01X12043929Y-1700294D01*
G01X12032499Y-1694706D01*
G01X12015481Y-1694706D01*
G01X12004051Y-1700294D01*
G01X11992621Y-1711724D01*
G01X11986779Y-1728996D01*
G01X11986779Y-1740426D01*
G01X11992621Y-1757444D01*
G01X12004051Y-1768874D01*
G01X12015481Y-1774716D01*
G01X12032499Y-1774716D01*
G01X12043929Y-1768874D01*
G01X12055359Y-1757444D01*
G01X12946536Y-1654574D02*
G01X12992256Y-1774716D01*
G01X13037976Y-1654574D02*
G01X12992256Y-1774716D01*
G01X13085728Y-1654574D02*
G01X13091570Y-1660416D01*
G01X13097158Y-1654574D01*
G01X13091570Y-1648986D01*
G01X13085728Y-1654574D01*
G01X13091570Y-1694706D02*
G01X13091570Y-1774716D01*
G01X13213490Y-1694706D02*
G01X13213490Y-1774716D01*
G01X13213490Y-1711724D02*
G01X13202060Y-1700294D01*
G01X13190630Y-1694706D01*
G01X13173612Y-1694706D01*
G01X13162182Y-1700294D01*
G01X13150752Y-1711724D01*
G01X13144910Y-1728996D01*
G01X13144910Y-1740426D01*
G01X13150752Y-1757444D01*
G01X13162182Y-1768874D01*
G01X13173612Y-1774716D01*
G01X13190630Y-1774716D01*
G01X13202060Y-1768874D01*
G01X13213490Y-1757444D01*
G01X16575217Y-1654574D02*
G01X16575217Y-1774716D01*
G01X16535085Y-1654574D02*
G01X16615095Y-1654574D01*
G01X16691549Y-1694706D02*
G01X16680119Y-1700294D01*
G01X16668689Y-1711724D01*
G01X16662847Y-1728996D01*
G01X16662847Y-1740426D01*
G01X16668689Y-1757444D01*
G01X16680119Y-1768874D01*
G01X16691549Y-1774716D01*
G01X16708567Y-1774716D01*
G01X16719997Y-1768874D01*
G01X16731427Y-1757444D01*
G01X16737269Y-1740426D01*
G01X16737269Y-1728996D01*
G01X16731427Y-1711724D01*
G01X16719997Y-1700294D01*
G01X16708567Y-1694706D01*
G01X16691549Y-1694706D01*
G01X16785021Y-1694706D02*
G01X16785021Y-1814594D01*
G01X16785021Y-1711724D02*
G01X16796451Y-1700294D01*
G01X16807881Y-1694706D01*
G01X16825153Y-1694706D01*
G01X16836583Y-1700294D01*
G01X16848013Y-1711724D01*
G01X16853601Y-1728996D01*
G01X16853601Y-1740426D01*
G01X16848013Y-1757444D01*
G01X16836583Y-1768874D01*
G01X16825153Y-1774716D01*
G01X16807881Y-1774716D01*
G01X16796451Y-1768874D01*
G01X16785021Y-1757444D01*
G01X17029369Y-1654574D02*
G01X17029369Y-1774716D01*
G01X17029369Y-1774716D02*
G01X17097949Y-1774716D01*
G01X17214281Y-1694706D02*
G01X17214281Y-1774716D01*
G01X17214281Y-1711724D02*
G01X17202851Y-1700294D01*
G01X17191421Y-1694706D01*
G01X17174403Y-1694706D01*
G01X17162973Y-1700294D01*
G01X17151543Y-1711724D01*
G01X17145701Y-1728996D01*
G01X17145701Y-1740426D01*
G01X17151543Y-1757444D01*
G01X17162973Y-1768874D01*
G01X17174403Y-1774716D01*
G01X17191421Y-1774716D01*
G01X17202851Y-1768874D01*
G01X17214281Y-1757444D01*
G01X17267875Y-1694706D02*
G01X17302165Y-1774716D01*
G01X17336455Y-1694706D02*
G01X17302165Y-1774716D01*
G01X17290735Y-1797576D01*
G01X17279305Y-1809006D01*
G01X17267875Y-1814594D01*
G01X17262033Y-1814594D01*
G01X17384207Y-1728996D02*
G01X17452787Y-1728996D01*
G01X17452787Y-1717566D01*
G01X17447199Y-1706136D01*
G01X17441357Y-1700294D01*
G01X17429927Y-1694706D01*
G01X17412909Y-1694706D01*
G01X17401479Y-1700294D01*
G01X17390049Y-1711724D01*
G01X17384207Y-1728996D01*
G01X17384207Y-1740426D01*
G01X17390049Y-1757444D01*
G01X17401479Y-1768874D01*
G01X17412909Y-1774716D01*
G01X17429927Y-1774716D01*
G01X17441357Y-1768874D01*
G01X17452787Y-1757444D01*
G01X17500539Y-1694706D02*
G01X17500539Y-1774716D01*
G01X17500539Y-1728996D02*
G01X17506381Y-1711724D01*
G01X17517811Y-1700294D01*
G01X17529241Y-1694706D01*
G01X17546259Y-1694706D01*
G01X17594011Y-1723154D02*
G01X17696881Y-1723154D01*
G01X17744633Y-1654574D02*
G01X17744633Y-1774716D01*
G01X17744633Y-1654574D02*
G01X17796195Y-1654574D01*
G01X17813213Y-1660416D01*
G01X17819055Y-1666004D01*
G01X17824643Y-1677434D01*
G01X17824643Y-1688864D01*
G01X17819055Y-1700294D01*
G01X17813213Y-1706136D01*
G01X17796195Y-1711724D01*
G01X17744633Y-1711724D02*
G01X17796195Y-1711724D01*
G01X17813213Y-1717566D01*
G01X17819055Y-1723154D01*
G01X17824643Y-1734584D01*
G01X17824643Y-1751856D01*
G01X17819055Y-1763286D01*
G01X17813213Y-1768874D01*
G01X17796195Y-1774716D01*
G01X17744633Y-1774716D01*
G01X17901097Y-1694706D02*
G01X17889667Y-1700294D01*
G01X17878237Y-1711724D01*
G01X17872395Y-1728996D01*
G01X17872395Y-1740426D01*
G01X17878237Y-1757444D01*
G01X17889667Y-1768874D01*
G01X17901097Y-1774716D01*
G01X17918115Y-1774716D01*
G01X17929545Y-1768874D01*
G01X17940975Y-1757444D01*
G01X17946817Y-1740426D01*
G01X17946817Y-1728996D01*
G01X17940975Y-1711724D01*
G01X17929545Y-1700294D01*
G01X17918115Y-1694706D01*
G01X17901097Y-1694706D01*
G01X18011841Y-1654574D02*
G01X18011841Y-1751856D01*
G01X18017429Y-1768874D01*
G01X18028859Y-1774716D01*
G01X18040289Y-1774716D01*
G01X17994569Y-1694706D02*
G01X18034701Y-1694706D01*
G01X18105313Y-1654574D02*
G01X18105313Y-1751856D01*
G01X18110901Y-1768874D01*
G01X18122331Y-1774716D01*
G01X18133761Y-1774716D01*
G01X18088041Y-1694706D02*
G01X18128173Y-1694706D01*
G01X18210215Y-1694706D02*
G01X18198785Y-1700294D01*
G01X18187355Y-1711724D01*
G01X18181513Y-1728996D01*
G01X18181513Y-1740426D01*
G01X18187355Y-1757444D01*
G01X18198785Y-1768874D01*
G01X18210215Y-1774716D01*
G01X18227233Y-1774716D01*
G01X18238663Y-1768874D01*
G01X18250093Y-1757444D01*
G01X18255935Y-1740426D01*
G01X18255935Y-1728996D01*
G01X18250093Y-1711724D01*
G01X18238663Y-1700294D01*
G01X18227233Y-1694706D01*
G01X18210215Y-1694706D01*
G01X18303687Y-1694706D02*
G01X18303687Y-1774716D01*
G01X18303687Y-1717566D02*
G01X18320959Y-1700294D01*
G01X18332389Y-1694706D01*
G01X18349407Y-1694706D01*
G01X18360837Y-1700294D01*
G01X18366679Y-1717566D01*
G01X18366679Y-1774716D01*
G01X18366679Y-1717566D02*
G01X18383697Y-1700294D01*
G01X18395127Y-1694706D01*
G01X18412399Y-1694706D01*
G01X18423829Y-1700294D01*
G01X18429417Y-1717566D01*
G01X18429417Y-1774716D01*
G01X18605185Y-1654574D02*
G01X18605185Y-1774716D01*
G01X18605185Y-1774716D02*
G01X18673765Y-1774716D01*
G01X18790097Y-1694706D02*
G01X18790097Y-1774716D01*
G01X18790097Y-1711724D02*
G01X18778667Y-1700294D01*
G01X18767237Y-1694706D01*
G01X18750219Y-1694706D01*
G01X18738789Y-1700294D01*
G01X18727359Y-1711724D01*
G01X18721517Y-1728996D01*
G01X18721517Y-1740426D01*
G01X18727359Y-1757444D01*
G01X18738789Y-1768874D01*
G01X18750219Y-1774716D01*
G01X18767237Y-1774716D01*
G01X18778667Y-1768874D01*
G01X18790097Y-1757444D01*
G01X18843691Y-1694706D02*
G01X18877981Y-1774716D01*
G01X18912271Y-1694706D02*
G01X18877981Y-1774716D01*
G01X18866551Y-1797576D01*
G01X18855121Y-1809006D01*
G01X18843691Y-1814594D01*
G01X18837849Y-1814594D01*
G01X18960023Y-1728996D02*
G01X19028603Y-1728996D01*
G01X19028603Y-1717566D01*
G01X19023015Y-1706136D01*
G01X19017173Y-1700294D01*
G01X19005743Y-1694706D01*
G01X18988725Y-1694706D01*
G01X18977295Y-1700294D01*
G01X18965865Y-1711724D01*
G01X18960023Y-1728996D01*
G01X18960023Y-1740426D01*
G01X18965865Y-1757444D01*
G01X18977295Y-1768874D01*
G01X18988725Y-1774716D01*
G01X19005743Y-1774716D01*
G01X19017173Y-1768874D01*
G01X19028603Y-1757444D01*
G01X19076355Y-1694706D02*
G01X19076355Y-1774716D01*
G01X19076355Y-1728996D02*
G01X19082197Y-1711724D01*
G01X19093627Y-1700294D01*
G01X19105057Y-1694706D01*
G01X19122075Y-1694706D01*
G01X4882980Y-2235146D02*
G01X4825830Y-2355288D01*
G01X4802970Y-2235146D02*
G01X4882980Y-2235146D01*
G01X6217133Y-2258006D02*
G01X6228563Y-2252418D01*
G01X6245835Y-2235146D01*
G01X6245835Y-2355288D01*
G01X6362167Y-2235146D02*
G01X6305017Y-2235146D01*
G01X6299429Y-2286708D01*
G01X6305017Y-2280866D01*
G01X6322289Y-2275278D01*
G01X6339307Y-2275278D01*
G01X6356579Y-2280866D01*
G01X6368009Y-2292296D01*
G01X6373597Y-2309568D01*
G01X6373597Y-2320998D01*
G01X6368009Y-2338016D01*
G01X6356579Y-2349446D01*
G01X6339307Y-2355288D01*
G01X6322289Y-2355288D01*
G01X6305017Y-2349446D01*
G01X6299429Y-2343858D01*
G01X6293587Y-2332428D01*
G01X6427191Y-2326586D02*
G01X6421349Y-2332428D01*
G01X6427191Y-2338016D01*
G01X6432779Y-2332428D01*
G01X6427191Y-2326586D01*
G01X6514821Y-2235146D02*
G01X6497803Y-2240988D01*
G01X6486373Y-2258006D01*
G01X6480531Y-2286708D01*
G01X6480531Y-2303726D01*
G01X6486373Y-2332428D01*
G01X6497803Y-2349446D01*
G01X6514821Y-2355288D01*
G01X6526251Y-2355288D01*
G01X6543523Y-2349446D01*
G01X6554953Y-2332428D01*
G01X6560541Y-2303726D01*
G01X6560541Y-2286708D01*
G01X6554953Y-2258006D01*
G01X6543523Y-2240988D01*
G01X6526251Y-2235146D01*
G01X6514821Y-2235146D01*
G01X6608293Y-2275278D02*
G01X6608293Y-2355288D01*
G01X6608293Y-2298138D02*
G01X6625565Y-2280866D01*
G01X6636995Y-2275278D01*
G01X6654013Y-2275278D01*
G01X6665443Y-2280866D01*
G01X6671285Y-2298138D01*
G01X6671285Y-2355288D01*
G01X6671285Y-2298138D02*
G01X6688303Y-2280866D01*
G01X6699733Y-2275278D01*
G01X6717005Y-2275278D01*
G01X6728435Y-2280866D01*
G01X6734023Y-2298138D01*
G01X6734023Y-2355288D01*
G01X6781775Y-2235146D02*
G01X6787617Y-2240988D01*
G01X6793205Y-2235146D01*
G01X6787617Y-2229558D01*
G01X6781775Y-2235146D01*
G01X6787617Y-2275278D02*
G01X6787617Y-2355288D01*
G01X6840957Y-2235146D02*
G01X6840957Y-2355288D01*
G01X6928841Y-2212286D02*
G01X6917411Y-2223716D01*
G01X6905981Y-2240988D01*
G01X6894551Y-2263848D01*
G01X6888709Y-2292296D01*
G01X6888709Y-2315156D01*
G01X6894551Y-2343858D01*
G01X6905981Y-2366718D01*
G01X6917411Y-2383736D01*
G01X6928841Y-2395166D01*
G01X7010883Y-2235146D02*
G01X6993865Y-2240988D01*
G01X6982435Y-2258006D01*
G01X6976593Y-2286708D01*
G01X6976593Y-2303726D01*
G01X6982435Y-2332428D01*
G01X6993865Y-2349446D01*
G01X7010883Y-2355288D01*
G01X7022313Y-2355288D01*
G01X7039585Y-2349446D01*
G01X7051015Y-2332428D01*
G01X7056603Y-2303726D01*
G01X7056603Y-2286708D01*
G01X7051015Y-2258006D01*
G01X7039585Y-2240988D01*
G01X7022313Y-2235146D01*
G01X7010883Y-2235146D01*
G01X7110197Y-2326586D02*
G01X7104355Y-2332428D01*
G01X7110197Y-2338016D01*
G01X7115785Y-2332428D01*
G01X7110197Y-2326586D01*
G01X7174967Y-2235146D02*
G01X7237959Y-2235146D01*
G01X7203669Y-2280866D01*
G01X7220687Y-2280866D01*
G01X7232117Y-2286708D01*
G01X7237959Y-2292296D01*
G01X7243547Y-2309568D01*
G01X7243547Y-2320998D01*
G01X7237959Y-2338016D01*
G01X7226529Y-2349446D01*
G01X7209257Y-2355288D01*
G01X7192239Y-2355288D01*
G01X7174967Y-2349446D01*
G01X7169379Y-2343858D01*
G01X7163537Y-2332428D01*
G01X7320001Y-2235146D02*
G01X7302729Y-2240988D01*
G01X7297141Y-2252418D01*
G01X7297141Y-2263848D01*
G01X7302729Y-2275278D01*
G01X7314159Y-2280866D01*
G01X7337019Y-2286708D01*
G01X7354291Y-2292296D01*
G01X7365721Y-2303726D01*
G01X7371309Y-2315156D01*
G01X7371309Y-2332428D01*
G01X7365721Y-2343858D01*
G01X7359879Y-2349446D01*
G01X7342861Y-2355288D01*
G01X7320001Y-2355288D01*
G01X7302729Y-2349446D01*
G01X7297141Y-2343858D01*
G01X7291299Y-2332428D01*
G01X7291299Y-2315156D01*
G01X7297141Y-2303726D01*
G01X7308571Y-2292296D01*
G01X7325589Y-2286708D01*
G01X7348449Y-2280866D01*
G01X7359879Y-2275278D01*
G01X7365721Y-2263848D01*
G01X7365721Y-2252418D01*
G01X7359879Y-2240988D01*
G01X7342861Y-2235146D01*
G01X7320001Y-2235146D01*
G01X7419061Y-2258006D02*
G01X7430491Y-2252418D01*
G01X7447763Y-2235146D01*
G01X7447763Y-2355288D01*
G01X7495515Y-2275278D02*
G01X7495515Y-2355288D01*
G01X7495515Y-2298138D02*
G01X7512787Y-2280866D01*
G01X7524217Y-2275278D01*
G01X7541235Y-2275278D01*
G01X7552665Y-2280866D01*
G01X7558507Y-2298138D01*
G01X7558507Y-2355288D01*
G01X7558507Y-2298138D02*
G01X7575525Y-2280866D01*
G01X7586955Y-2275278D01*
G01X7604227Y-2275278D01*
G01X7615657Y-2280866D01*
G01X7621245Y-2298138D01*
G01X7621245Y-2355288D01*
G01X7668997Y-2275278D02*
G01X7668997Y-2355288D01*
G01X7668997Y-2298138D02*
G01X7686269Y-2280866D01*
G01X7697699Y-2275278D01*
G01X7714717Y-2275278D01*
G01X7726147Y-2280866D01*
G01X7731989Y-2298138D01*
G01X7731989Y-2355288D01*
G01X7731989Y-2298138D02*
G01X7749007Y-2280866D01*
G01X7760437Y-2275278D01*
G01X7777709Y-2275278D01*
G01X7789139Y-2280866D01*
G01X7794727Y-2298138D01*
G01X7794727Y-2355288D01*
G01X7842479Y-2212286D02*
G01X7853909Y-2223716D01*
G01X7865339Y-2240988D01*
G01X7876769Y-2263848D01*
G01X7882611Y-2292296D01*
G01X7882611Y-2315156D01*
G01X7876769Y-2343858D01*
G01X7865339Y-2366718D01*
G01X7853909Y-2383736D01*
G01X7842479Y-2395166D01*
G01X10053948Y-2235146D02*
G01X10053948Y-2355288D01*
G01X10053948Y-2235146D02*
G01X10105510Y-2235146D01*
G01X10122528Y-2240988D01*
G01X10128370Y-2246576D01*
G01X10133958Y-2258006D01*
G01X10133958Y-2275278D01*
G01X10128370Y-2286708D01*
G01X10122528Y-2292296D01*
G01X10105510Y-2298138D01*
G01X10053948Y-2298138D01*
G01X10221842Y-2235146D02*
G01X10221842Y-2355288D01*
G01X10181710Y-2235146D02*
G01X10261720Y-2235146D01*
G01X10309472Y-2235146D02*
G01X10309472Y-2355288D01*
G01X10389482Y-2235146D02*
G01X10389482Y-2355288D01*
G01X10309472Y-2292296D02*
G01X10389482Y-2292296D01*
G01X11515355Y-2235146D02*
G01X11515355Y-2355288D01*
G01X11515355Y-2235146D02*
G01X11566917Y-2235146D01*
G01X11583935Y-2240988D01*
G01X11589777Y-2246576D01*
G01X11595365Y-2258006D01*
G01X11595365Y-2269436D01*
G01X11589777Y-2280866D01*
G01X11583935Y-2286708D01*
G01X11566917Y-2292296D01*
G01X11515355Y-2292296D01*
G01X11555487Y-2292296D02*
G01X11595365Y-2355288D01*
G01X11671819Y-2275278D02*
G01X11660389Y-2280866D01*
G01X11648959Y-2292296D01*
G01X11643117Y-2309568D01*
G01X11643117Y-2320998D01*
G01X11648959Y-2338016D01*
G01X11660389Y-2349446D01*
G01X11671819Y-2355288D01*
G01X11688837Y-2355288D01*
G01X11700267Y-2349446D01*
G01X11711697Y-2338016D01*
G01X11717539Y-2320998D01*
G01X11717539Y-2309568D01*
G01X11711697Y-2292296D01*
G01X11700267Y-2280866D01*
G01X11688837Y-2275278D01*
G01X11671819Y-2275278D01*
G01X11765291Y-2275278D02*
G01X11765291Y-2332428D01*
G01X11771133Y-2349446D01*
G01X11782563Y-2355288D01*
G01X11799581Y-2355288D01*
G01X11811011Y-2349446D01*
G01X11828283Y-2332428D01*
G01X11828283Y-2275278D02*
G01X11828283Y-2355288D01*
G01X11876035Y-2275278D02*
G01X11876035Y-2355288D01*
G01X11876035Y-2298138D02*
G01X11893307Y-2280866D01*
G01X11904737Y-2275278D01*
G01X11921755Y-2275278D01*
G01X11933185Y-2280866D01*
G01X11939027Y-2298138D01*
G01X11939027Y-2355288D01*
G01X12055359Y-2235146D02*
G01X12055359Y-2355288D01*
G01X12055359Y-2292296D02*
G01X12043929Y-2280866D01*
G01X12032499Y-2275278D01*
G01X12015481Y-2275278D01*
G01X12004051Y-2280866D01*
G01X11992621Y-2292296D01*
G01X11986779Y-2309568D01*
G01X11986779Y-2320998D01*
G01X11992621Y-2338016D01*
G01X12004051Y-2349446D01*
G01X12015481Y-2355288D01*
G01X12032499Y-2355288D01*
G01X12043929Y-2349446D01*
G01X12055359Y-2338016D01*
G01X12946536Y-2235146D02*
G01X12992256Y-2355288D01*
G01X13037976Y-2235146D02*
G01X12992256Y-2355288D01*
G01X13085728Y-2235146D02*
G01X13091570Y-2240988D01*
G01X13097158Y-2235146D01*
G01X13091570Y-2229558D01*
G01X13085728Y-2235146D01*
G01X13091570Y-2275278D02*
G01X13091570Y-2355288D01*
G01X13213490Y-2275278D02*
G01X13213490Y-2355288D01*
G01X13213490Y-2292296D02*
G01X13202060Y-2280866D01*
G01X13190630Y-2275278D01*
G01X13173612Y-2275278D01*
G01X13162182Y-2280866D01*
G01X13150752Y-2292296D01*
G01X13144910Y-2309568D01*
G01X13144910Y-2320998D01*
G01X13150752Y-2338016D01*
G01X13162182Y-2349446D01*
G01X13173612Y-2355288D01*
G01X13190630Y-2355288D01*
G01X13202060Y-2349446D01*
G01X13213490Y-2338016D01*
G01X16575217Y-2235146D02*
G01X16575217Y-2355288D01*
G01X16535085Y-2235146D02*
G01X16615095Y-2235146D01*
G01X16691549Y-2275278D02*
G01X16680119Y-2280866D01*
G01X16668689Y-2292296D01*
G01X16662847Y-2309568D01*
G01X16662847Y-2320998D01*
G01X16668689Y-2338016D01*
G01X16680119Y-2349446D01*
G01X16691549Y-2355288D01*
G01X16708567Y-2355288D01*
G01X16719997Y-2349446D01*
G01X16731427Y-2338016D01*
G01X16737269Y-2320998D01*
G01X16737269Y-2309568D01*
G01X16731427Y-2292296D01*
G01X16719997Y-2280866D01*
G01X16708567Y-2275278D01*
G01X16691549Y-2275278D01*
G01X16785021Y-2275278D02*
G01X16785021Y-2395166D01*
G01X16785021Y-2292296D02*
G01X16796451Y-2280866D01*
G01X16807881Y-2275278D01*
G01X16825153Y-2275278D01*
G01X16836583Y-2280866D01*
G01X16848013Y-2292296D01*
G01X16853601Y-2309568D01*
G01X16853601Y-2320998D01*
G01X16848013Y-2338016D01*
G01X16836583Y-2349446D01*
G01X16825153Y-2355288D01*
G01X16807881Y-2355288D01*
G01X16796451Y-2349446D01*
G01X16785021Y-2338016D01*
G01X17029369Y-2235146D02*
G01X17029369Y-2355288D01*
G01X17029369Y-2355288D02*
G01X17097949Y-2355288D01*
G01X17214281Y-2275278D02*
G01X17214281Y-2355288D01*
G01X17214281Y-2292296D02*
G01X17202851Y-2280866D01*
G01X17191421Y-2275278D01*
G01X17174403Y-2275278D01*
G01X17162973Y-2280866D01*
G01X17151543Y-2292296D01*
G01X17145701Y-2309568D01*
G01X17145701Y-2320998D01*
G01X17151543Y-2338016D01*
G01X17162973Y-2349446D01*
G01X17174403Y-2355288D01*
G01X17191421Y-2355288D01*
G01X17202851Y-2349446D01*
G01X17214281Y-2338016D01*
G01X17267875Y-2275278D02*
G01X17302165Y-2355288D01*
G01X17336455Y-2275278D02*
G01X17302165Y-2355288D01*
G01X17290735Y-2378148D01*
G01X17279305Y-2389578D01*
G01X17267875Y-2395166D01*
G01X17262033Y-2395166D01*
G01X17384207Y-2309568D02*
G01X17452787Y-2309568D01*
G01X17452787Y-2298138D01*
G01X17447199Y-2286708D01*
G01X17441357Y-2280866D01*
G01X17429927Y-2275278D01*
G01X17412909Y-2275278D01*
G01X17401479Y-2280866D01*
G01X17390049Y-2292296D01*
G01X17384207Y-2309568D01*
G01X17384207Y-2320998D01*
G01X17390049Y-2338016D01*
G01X17401479Y-2349446D01*
G01X17412909Y-2355288D01*
G01X17429927Y-2355288D01*
G01X17441357Y-2349446D01*
G01X17452787Y-2338016D01*
G01X17500539Y-2275278D02*
G01X17500539Y-2355288D01*
G01X17500539Y-2309568D02*
G01X17506381Y-2292296D01*
G01X17517811Y-2280866D01*
G01X17529241Y-2275278D01*
G01X17546259Y-2275278D01*
G01X17594011Y-2303726D02*
G01X17696881Y-2303726D01*
G01X17744633Y-2235146D02*
G01X17744633Y-2355288D01*
G01X17744633Y-2235146D02*
G01X17796195Y-2235146D01*
G01X17813213Y-2240988D01*
G01X17819055Y-2246576D01*
G01X17824643Y-2258006D01*
G01X17824643Y-2269436D01*
G01X17819055Y-2280866D01*
G01X17813213Y-2286708D01*
G01X17796195Y-2292296D01*
G01X17744633Y-2292296D02*
G01X17796195Y-2292296D01*
G01X17813213Y-2298138D01*
G01X17819055Y-2303726D01*
G01X17824643Y-2315156D01*
G01X17824643Y-2332428D01*
G01X17819055Y-2343858D01*
G01X17813213Y-2349446D01*
G01X17796195Y-2355288D01*
G01X17744633Y-2355288D01*
G01X17901097Y-2275278D02*
G01X17889667Y-2280866D01*
G01X17878237Y-2292296D01*
G01X17872395Y-2309568D01*
G01X17872395Y-2320998D01*
G01X17878237Y-2338016D01*
G01X17889667Y-2349446D01*
G01X17901097Y-2355288D01*
G01X17918115Y-2355288D01*
G01X17929545Y-2349446D01*
G01X17940975Y-2338016D01*
G01X17946817Y-2320998D01*
G01X17946817Y-2309568D01*
G01X17940975Y-2292296D01*
G01X17929545Y-2280866D01*
G01X17918115Y-2275278D01*
G01X17901097Y-2275278D01*
G01X18011841Y-2235146D02*
G01X18011841Y-2332428D01*
G01X18017429Y-2349446D01*
G01X18028859Y-2355288D01*
G01X18040289Y-2355288D01*
G01X17994569Y-2275278D02*
G01X18034701Y-2275278D01*
G01X18105313Y-2235146D02*
G01X18105313Y-2332428D01*
G01X18110901Y-2349446D01*
G01X18122331Y-2355288D01*
G01X18133761Y-2355288D01*
G01X18088041Y-2275278D02*
G01X18128173Y-2275278D01*
G01X18210215Y-2275278D02*
G01X18198785Y-2280866D01*
G01X18187355Y-2292296D01*
G01X18181513Y-2309568D01*
G01X18181513Y-2320998D01*
G01X18187355Y-2338016D01*
G01X18198785Y-2349446D01*
G01X18210215Y-2355288D01*
G01X18227233Y-2355288D01*
G01X18238663Y-2349446D01*
G01X18250093Y-2338016D01*
G01X18255935Y-2320998D01*
G01X18255935Y-2309568D01*
G01X18250093Y-2292296D01*
G01X18238663Y-2280866D01*
G01X18227233Y-2275278D01*
G01X18210215Y-2275278D01*
G01X18303687Y-2275278D02*
G01X18303687Y-2355288D01*
G01X18303687Y-2298138D02*
G01X18320959Y-2280866D01*
G01X18332389Y-2275278D01*
G01X18349407Y-2275278D01*
G01X18360837Y-2280866D01*
G01X18366679Y-2298138D01*
G01X18366679Y-2355288D01*
G01X18366679Y-2298138D02*
G01X18383697Y-2280866D01*
G01X18395127Y-2275278D01*
G01X18412399Y-2275278D01*
G01X18423829Y-2280866D01*
G01X18429417Y-2298138D01*
G01X18429417Y-2355288D01*
G01X18605185Y-2235146D02*
G01X18605185Y-2355288D01*
G01X18605185Y-2355288D02*
G01X18673765Y-2355288D01*
G01X18790097Y-2275278D02*
G01X18790097Y-2355288D01*
G01X18790097Y-2292296D02*
G01X18778667Y-2280866D01*
G01X18767237Y-2275278D01*
G01X18750219Y-2275278D01*
G01X18738789Y-2280866D01*
G01X18727359Y-2292296D01*
G01X18721517Y-2309568D01*
G01X18721517Y-2320998D01*
G01X18727359Y-2338016D01*
G01X18738789Y-2349446D01*
G01X18750219Y-2355288D01*
G01X18767237Y-2355288D01*
G01X18778667Y-2349446D01*
G01X18790097Y-2338016D01*
G01X18843691Y-2275278D02*
G01X18877981Y-2355288D01*
G01X18912271Y-2275278D02*
G01X18877981Y-2355288D01*
G01X18866551Y-2378148D01*
G01X18855121Y-2389578D01*
G01X18843691Y-2395166D01*
G01X18837849Y-2395166D01*
G01X18960023Y-2309568D02*
G01X19028603Y-2309568D01*
G01X19028603Y-2298138D01*
G01X19023015Y-2286708D01*
G01X19017173Y-2280866D01*
G01X19005743Y-2275278D01*
G01X18988725Y-2275278D01*
G01X18977295Y-2280866D01*
G01X18965865Y-2292296D01*
G01X18960023Y-2309568D01*
G01X18960023Y-2320998D01*
G01X18965865Y-2338016D01*
G01X18977295Y-2349446D01*
G01X18988725Y-2355288D01*
G01X19005743Y-2355288D01*
G01X19017173Y-2349446D01*
G01X19028603Y-2338016D01*
G01X19076355Y-2275278D02*
G01X19076355Y-2355288D01*
G01X19076355Y-2309568D02*
G01X19082197Y-2292296D01*
G01X19093627Y-2280866D01*
G01X19105057Y-2275278D01*
G01X19122075Y-2275278D01*
G01X4808812Y-2844419D02*
G01X4808812Y-2838577D01*
G01X4814400Y-2827147D01*
G01X4820242Y-2821559D01*
G01X4831672Y-2815717D01*
G01X4854532Y-2815717D01*
G01X4865962Y-2821559D01*
G01X4871550Y-2827147D01*
G01X4877392Y-2838577D01*
G01X4877392Y-2850007D01*
G01X4871550Y-2861437D01*
G01X4860120Y-2878709D01*
G01X4802970Y-2935859D01*
G01X4882980Y-2935859D01*
G01X4936574Y-2844419D02*
G01X4936574Y-2838577D01*
G01X4942162Y-2827147D01*
G01X4948004Y-2821559D01*
G01X4959434Y-2815717D01*
G01X4982294Y-2815717D01*
G01X4993724Y-2821559D01*
G01X4999312Y-2827147D01*
G01X5005154Y-2838577D01*
G01X5005154Y-2850007D01*
G01X4999312Y-2861437D01*
G01X4987882Y-2878709D01*
G01X4930732Y-2935859D01*
G01X5010742Y-2935859D01*
G01X6274283Y-2815717D02*
G01X6217133Y-2895727D01*
G01X6302985Y-2895727D01*
G01X6274283Y-2815717D02*
G01X6274283Y-2935859D01*
G01X6385027Y-2815717D02*
G01X6368009Y-2821559D01*
G01X6356579Y-2838577D01*
G01X6350737Y-2867279D01*
G01X6350737Y-2884297D01*
G01X6356579Y-2912999D01*
G01X6368009Y-2930017D01*
G01X6385027Y-2935859D01*
G01X6396457Y-2935859D01*
G01X6413729Y-2930017D01*
G01X6425159Y-2912999D01*
G01X6430747Y-2884297D01*
G01X6430747Y-2867279D01*
G01X6425159Y-2838577D01*
G01X6413729Y-2821559D01*
G01X6396457Y-2815717D01*
G01X6385027Y-2815717D01*
G01X6484341Y-2907157D02*
G01X6478499Y-2912999D01*
G01X6484341Y-2918587D01*
G01X6489929Y-2912999D01*
G01X6484341Y-2907157D01*
G01X6571971Y-2815717D02*
G01X6554953Y-2821559D01*
G01X6543523Y-2838577D01*
G01X6537681Y-2867279D01*
G01X6537681Y-2884297D01*
G01X6543523Y-2912999D01*
G01X6554953Y-2930017D01*
G01X6571971Y-2935859D01*
G01X6583401Y-2935859D01*
G01X6600673Y-2930017D01*
G01X6612103Y-2912999D01*
G01X6617691Y-2884297D01*
G01X6617691Y-2867279D01*
G01X6612103Y-2838577D01*
G01X6600673Y-2821559D01*
G01X6583401Y-2815717D01*
G01X6571971Y-2815717D01*
G01X6665443Y-2855849D02*
G01X6728435Y-2935859D01*
G01X6728435Y-2855849D02*
G01X6665443Y-2935859D01*
G01X6833337Y-2815717D02*
G01X6776187Y-2895727D01*
G01X6862039Y-2895727D01*
G01X6833337Y-2815717D02*
G01X6833337Y-2935859D01*
G01X6944081Y-2815717D02*
G01X6927063Y-2821559D01*
G01X6915633Y-2838577D01*
G01X6909791Y-2867279D01*
G01X6909791Y-2884297D01*
G01X6915633Y-2912999D01*
G01X6927063Y-2930017D01*
G01X6944081Y-2935859D01*
G01X6955511Y-2935859D01*
G01X6972783Y-2930017D01*
G01X6984213Y-2912999D01*
G01X6989801Y-2884297D01*
G01X6989801Y-2867279D01*
G01X6984213Y-2838577D01*
G01X6972783Y-2821559D01*
G01X6955511Y-2815717D01*
G01X6944081Y-2815717D01*
G01X7043395Y-2907157D02*
G01X7037553Y-2912999D01*
G01X7043395Y-2918587D01*
G01X7048983Y-2912999D01*
G01X7043395Y-2907157D01*
G01X7131025Y-2815717D02*
G01X7114007Y-2821559D01*
G01X7102577Y-2838577D01*
G01X7096735Y-2867279D01*
G01X7096735Y-2884297D01*
G01X7102577Y-2912999D01*
G01X7114007Y-2930017D01*
G01X7131025Y-2935859D01*
G01X7142455Y-2935859D01*
G01X7159727Y-2930017D01*
G01X7171157Y-2912999D01*
G01X7176745Y-2884297D01*
G01X7176745Y-2867279D01*
G01X7171157Y-2838577D01*
G01X7159727Y-2821559D01*
G01X7142455Y-2815717D01*
G01X7131025Y-2815717D01*
G01X7224497Y-2855849D02*
G01X7224497Y-2935859D01*
G01X7224497Y-2878709D02*
G01X7241769Y-2861437D01*
G01X7253199Y-2855849D01*
G01X7270217Y-2855849D01*
G01X7281647Y-2861437D01*
G01X7287489Y-2878709D01*
G01X7287489Y-2935859D01*
G01X7287489Y-2878709D02*
G01X7304507Y-2861437D01*
G01X7315937Y-2855849D01*
G01X7333209Y-2855849D01*
G01X7344639Y-2861437D01*
G01X7350227Y-2878709D01*
G01X7350227Y-2935859D01*
G01X7397979Y-2815717D02*
G01X7403821Y-2821559D01*
G01X7409409Y-2815717D01*
G01X7403821Y-2810129D01*
G01X7397979Y-2815717D01*
G01X7403821Y-2855849D02*
G01X7403821Y-2935859D01*
G01X7457161Y-2815717D02*
G01X7457161Y-2935859D01*
G01X7545045Y-2792857D02*
G01X7533615Y-2804287D01*
G01X7522185Y-2821559D01*
G01X7510755Y-2844419D01*
G01X7504913Y-2872867D01*
G01X7504913Y-2895727D01*
G01X7510755Y-2924429D01*
G01X7522185Y-2947289D01*
G01X7533615Y-2964307D01*
G01X7545045Y-2975737D01*
G01X7592797Y-2838577D02*
G01X7604227Y-2832989D01*
G01X7621499Y-2815717D01*
G01X7621499Y-2935859D01*
G01X7675093Y-2907157D02*
G01X7669251Y-2912999D01*
G01X7675093Y-2918587D01*
G01X7680681Y-2912999D01*
G01X7675093Y-2907157D01*
G01X7762723Y-2815717D02*
G01X7745705Y-2821559D01*
G01X7734275Y-2838577D01*
G01X7728433Y-2867279D01*
G01X7728433Y-2884297D01*
G01X7734275Y-2912999D01*
G01X7745705Y-2930017D01*
G01X7762723Y-2935859D01*
G01X7774153Y-2935859D01*
G01X7791425Y-2930017D01*
G01X7802855Y-2912999D01*
G01X7808443Y-2884297D01*
G01X7808443Y-2867279D01*
G01X7802855Y-2838577D01*
G01X7791425Y-2821559D01*
G01X7774153Y-2815717D01*
G01X7762723Y-2815717D01*
G01X7856195Y-2838577D02*
G01X7867625Y-2832989D01*
G01X7884897Y-2815717D01*
G01X7884897Y-2935859D01*
G01X8001229Y-2832989D02*
G01X7995641Y-2821559D01*
G01X7978369Y-2815717D01*
G01X7966939Y-2815717D01*
G01X7949921Y-2821559D01*
G01X7938491Y-2838577D01*
G01X7932649Y-2867279D01*
G01X7932649Y-2895727D01*
G01X7938491Y-2918587D01*
G01X7949921Y-2930017D01*
G01X7966939Y-2935859D01*
G01X7972781Y-2935859D01*
G01X7989799Y-2930017D01*
G01X8001229Y-2918587D01*
G01X8007071Y-2901569D01*
G01X8007071Y-2895727D01*
G01X8001229Y-2878709D01*
G01X7989799Y-2867279D01*
G01X7972781Y-2861437D01*
G01X7966939Y-2861437D01*
G01X7949921Y-2867279D01*
G01X7938491Y-2878709D01*
G01X7932649Y-2895727D01*
G01X8054823Y-2855849D02*
G01X8117815Y-2935859D01*
G01X8117815Y-2855849D02*
G01X8054823Y-2935859D01*
G01X8165567Y-2838577D02*
G01X8176997Y-2832989D01*
G01X8194269Y-2815717D01*
G01X8194269Y-2935859D01*
G01X8247863Y-2907157D02*
G01X8242021Y-2912999D01*
G01X8247863Y-2918587D01*
G01X8253451Y-2912999D01*
G01X8247863Y-2907157D01*
G01X8335493Y-2815717D02*
G01X8318475Y-2821559D01*
G01X8307045Y-2838577D01*
G01X8301203Y-2867279D01*
G01X8301203Y-2884297D01*
G01X8307045Y-2912999D01*
G01X8318475Y-2930017D01*
G01X8335493Y-2935859D01*
G01X8346923Y-2935859D01*
G01X8364195Y-2930017D01*
G01X8375625Y-2912999D01*
G01X8381213Y-2884297D01*
G01X8381213Y-2867279D01*
G01X8375625Y-2838577D01*
G01X8364195Y-2821559D01*
G01X8346923Y-2815717D01*
G01X8335493Y-2815717D01*
G01X8428965Y-2838577D02*
G01X8440395Y-2832989D01*
G01X8457667Y-2815717D01*
G01X8457667Y-2935859D01*
G01X8573999Y-2832989D02*
G01X8568411Y-2821559D01*
G01X8551139Y-2815717D01*
G01X8539709Y-2815717D01*
G01X8522691Y-2821559D01*
G01X8511261Y-2838577D01*
G01X8505419Y-2867279D01*
G01X8505419Y-2895727D01*
G01X8511261Y-2918587D01*
G01X8522691Y-2930017D01*
G01X8539709Y-2935859D01*
G01X8545551Y-2935859D01*
G01X8562569Y-2930017D01*
G01X8573999Y-2918587D01*
G01X8579841Y-2901569D01*
G01X8579841Y-2895727D01*
G01X8573999Y-2878709D01*
G01X8562569Y-2867279D01*
G01X8545551Y-2861437D01*
G01X8539709Y-2861437D01*
G01X8522691Y-2867279D01*
G01X8511261Y-2878709D01*
G01X8505419Y-2895727D01*
G01X8627593Y-2855849D02*
G01X8627593Y-2935859D01*
G01X8627593Y-2878709D02*
G01X8644865Y-2861437D01*
G01X8656295Y-2855849D01*
G01X8673313Y-2855849D01*
G01X8684743Y-2861437D01*
G01X8690585Y-2878709D01*
G01X8690585Y-2935859D01*
G01X8690585Y-2878709D02*
G01X8707603Y-2861437D01*
G01X8719033Y-2855849D01*
G01X8736305Y-2855849D01*
G01X8747735Y-2861437D01*
G01X8753323Y-2878709D01*
G01X8753323Y-2935859D01*
G01X8801075Y-2855849D02*
G01X8801075Y-2935859D01*
G01X8801075Y-2878709D02*
G01X8818347Y-2861437D01*
G01X8829777Y-2855849D01*
G01X8846795Y-2855849D01*
G01X8858225Y-2861437D01*
G01X8864067Y-2878709D01*
G01X8864067Y-2935859D01*
G01X8864067Y-2878709D02*
G01X8881085Y-2861437D01*
G01X8892515Y-2855849D01*
G01X8909787Y-2855849D01*
G01X8921217Y-2861437D01*
G01X8926805Y-2878709D01*
G01X8926805Y-2935859D01*
G01X8974557Y-2792857D02*
G01X8985987Y-2804287D01*
G01X8997417Y-2821559D01*
G01X9008847Y-2844419D01*
G01X9014689Y-2872867D01*
G01X9014689Y-2895727D01*
G01X9008847Y-2924429D01*
G01X8997417Y-2947289D01*
G01X8985987Y-2964307D01*
G01X8974557Y-2975737D01*
G01X10053948Y-2815717D02*
G01X10053948Y-2935859D01*
G01X10053948Y-2815717D02*
G01X10105510Y-2815717D01*
G01X10122528Y-2821559D01*
G01X10128370Y-2827147D01*
G01X10133958Y-2838577D01*
G01X10133958Y-2855849D01*
G01X10128370Y-2867279D01*
G01X10122528Y-2872867D01*
G01X10105510Y-2878709D01*
G01X10053948Y-2878709D01*
G01X10221842Y-2815717D02*
G01X10221842Y-2935859D01*
G01X10181710Y-2815717D02*
G01X10261720Y-2815717D01*
G01X10309472Y-2815717D02*
G01X10309472Y-2935859D01*
G01X10389482Y-2815717D02*
G01X10389482Y-2935859D01*
G01X10309472Y-2872867D02*
G01X10389482Y-2872867D01*
G01X11515355Y-2815717D02*
G01X11515355Y-2935859D01*
G01X11515355Y-2815717D02*
G01X11566917Y-2815717D01*
G01X11583935Y-2821559D01*
G01X11589777Y-2827147D01*
G01X11595365Y-2838577D01*
G01X11595365Y-2850007D01*
G01X11589777Y-2861437D01*
G01X11583935Y-2867279D01*
G01X11566917Y-2872867D01*
G01X11515355Y-2872867D01*
G01X11555487Y-2872867D02*
G01X11595365Y-2935859D01*
G01X11671819Y-2855849D02*
G01X11660389Y-2861437D01*
G01X11648959Y-2872867D01*
G01X11643117Y-2890139D01*
G01X11643117Y-2901569D01*
G01X11648959Y-2918587D01*
G01X11660389Y-2930017D01*
G01X11671819Y-2935859D01*
G01X11688837Y-2935859D01*
G01X11700267Y-2930017D01*
G01X11711697Y-2918587D01*
G01X11717539Y-2901569D01*
G01X11717539Y-2890139D01*
G01X11711697Y-2872867D01*
G01X11700267Y-2861437D01*
G01X11688837Y-2855849D01*
G01X11671819Y-2855849D01*
G01X11765291Y-2855849D02*
G01X11765291Y-2912999D01*
G01X11771133Y-2930017D01*
G01X11782563Y-2935859D01*
G01X11799581Y-2935859D01*
G01X11811011Y-2930017D01*
G01X11828283Y-2912999D01*
G01X11828283Y-2855849D02*
G01X11828283Y-2935859D01*
G01X11876035Y-2855849D02*
G01X11876035Y-2935859D01*
G01X11876035Y-2878709D02*
G01X11893307Y-2861437D01*
G01X11904737Y-2855849D01*
G01X11921755Y-2855849D01*
G01X11933185Y-2861437D01*
G01X11939027Y-2878709D01*
G01X11939027Y-2935859D01*
G01X12055359Y-2815717D02*
G01X12055359Y-2935859D01*
G01X12055359Y-2872867D02*
G01X12043929Y-2861437D01*
G01X12032499Y-2855849D01*
G01X12015481Y-2855849D01*
G01X12004051Y-2861437D01*
G01X11992621Y-2872867D01*
G01X11986779Y-2890139D01*
G01X11986779Y-2901569D01*
G01X11992621Y-2918587D01*
G01X12004051Y-2930017D01*
G01X12015481Y-2935859D01*
G01X12032499Y-2935859D01*
G01X12043929Y-2930017D01*
G01X12055359Y-2918587D01*
G01X12946536Y-2815717D02*
G01X12946536Y-2935859D01*
G01X12946536Y-2815717D02*
G01X12998098Y-2815717D01*
G01X13015116Y-2821559D01*
G01X13020958Y-2827147D01*
G01X13026546Y-2838577D01*
G01X13026546Y-2855849D01*
G01X13020958Y-2867279D01*
G01X13015116Y-2872867D01*
G01X12998098Y-2878709D01*
G01X12946536Y-2878709D01*
G01X13142878Y-2855849D02*
G01X13142878Y-2935859D01*
G01X13142878Y-2872867D02*
G01X13131448Y-2861437D01*
G01X13120018Y-2855849D01*
G01X13103000Y-2855849D01*
G01X13091570Y-2861437D01*
G01X13080140Y-2872867D01*
G01X13074298Y-2890139D01*
G01X13074298Y-2901569D01*
G01X13080140Y-2918587D01*
G01X13091570Y-2930017D01*
G01X13103000Y-2935859D01*
G01X13120018Y-2935859D01*
G01X13131448Y-2930017D01*
G01X13142878Y-2918587D01*
G01X13259210Y-2815717D02*
G01X13259210Y-2935859D01*
G01X13259210Y-2872867D02*
G01X13247780Y-2861437D01*
G01X13236350Y-2855849D01*
G01X13219332Y-2855849D01*
G01X13207902Y-2861437D01*
G01X13196472Y-2872867D01*
G01X13190630Y-2890139D01*
G01X13190630Y-2901569D01*
G01X13196472Y-2918587D01*
G01X13207902Y-2930017D01*
G01X13219332Y-2935859D01*
G01X13236350Y-2935859D01*
G01X13247780Y-2930017D01*
G01X13259210Y-2918587D01*
G01X14615715Y-2815717D02*
G01X14615715Y-2935859D01*
G01X14615715Y-2815717D02*
G01X14667277Y-2815717D01*
G01X14684295Y-2821559D01*
G01X14690137Y-2827147D01*
G01X14695725Y-2838577D01*
G01X14695725Y-2850007D01*
G01X14690137Y-2861437D01*
G01X14684295Y-2867279D01*
G01X14667277Y-2872867D01*
G01X14615715Y-2872867D01*
G01X14655847Y-2872867D02*
G01X14695725Y-2935859D01*
G01X14772179Y-2855849D02*
G01X14760749Y-2861437D01*
G01X14749319Y-2872867D01*
G01X14743477Y-2890139D01*
G01X14743477Y-2901569D01*
G01X14749319Y-2918587D01*
G01X14760749Y-2930017D01*
G01X14772179Y-2935859D01*
G01X14789197Y-2935859D01*
G01X14800627Y-2930017D01*
G01X14812057Y-2918587D01*
G01X14817899Y-2901569D01*
G01X14817899Y-2890139D01*
G01X14812057Y-2872867D01*
G01X14800627Y-2861437D01*
G01X14789197Y-2855849D01*
G01X14772179Y-2855849D01*
G01X14865651Y-2855849D02*
G01X14865651Y-2912999D01*
G01X14871493Y-2930017D01*
G01X14882923Y-2935859D01*
G01X14899941Y-2935859D01*
G01X14911371Y-2930017D01*
G01X14928643Y-2912999D01*
G01X14928643Y-2855849D02*
G01X14928643Y-2935859D01*
G01X14976395Y-2855849D02*
G01X14976395Y-2935859D01*
G01X14976395Y-2878709D02*
G01X14993667Y-2861437D01*
G01X15005097Y-2855849D01*
G01X15022115Y-2855849D01*
G01X15033545Y-2861437D01*
G01X15039387Y-2878709D01*
G01X15039387Y-2935859D01*
G01X15155719Y-2815717D02*
G01X15155719Y-2935859D01*
G01X15155719Y-2872867D02*
G01X15144289Y-2861437D01*
G01X15132859Y-2855849D01*
G01X15115841Y-2855849D01*
G01X15104411Y-2861437D01*
G01X15092981Y-2872867D01*
G01X15087139Y-2890139D01*
G01X15087139Y-2901569D01*
G01X15092981Y-2918587D01*
G01X15104411Y-2930017D01*
G01X15115841Y-2935859D01*
G01X15132859Y-2935859D01*
G01X15144289Y-2930017D01*
G01X15155719Y-2918587D01*
G01X16575217Y-2815717D02*
G01X16575217Y-2935859D01*
G01X16535085Y-2815717D02*
G01X16615095Y-2815717D01*
G01X16691549Y-2855849D02*
G01X16680119Y-2861437D01*
G01X16668689Y-2872867D01*
G01X16662847Y-2890139D01*
G01X16662847Y-2901569D01*
G01X16668689Y-2918587D01*
G01X16680119Y-2930017D01*
G01X16691549Y-2935859D01*
G01X16708567Y-2935859D01*
G01X16719997Y-2930017D01*
G01X16731427Y-2918587D01*
G01X16737269Y-2901569D01*
G01X16737269Y-2890139D01*
G01X16731427Y-2872867D01*
G01X16719997Y-2861437D01*
G01X16708567Y-2855849D01*
G01X16691549Y-2855849D01*
G01X16785021Y-2855849D02*
G01X16785021Y-2975737D01*
G01X16785021Y-2872867D02*
G01X16796451Y-2861437D01*
G01X16807881Y-2855849D01*
G01X16825153Y-2855849D01*
G01X16836583Y-2861437D01*
G01X16848013Y-2872867D01*
G01X16853601Y-2890139D01*
G01X16853601Y-2901569D01*
G01X16848013Y-2918587D01*
G01X16836583Y-2930017D01*
G01X16825153Y-2935859D01*
G01X16807881Y-2935859D01*
G01X16796451Y-2930017D01*
G01X16785021Y-2918587D01*
G01X17029369Y-2815717D02*
G01X17029369Y-2935859D01*
G01X17029369Y-2935859D02*
G01X17097949Y-2935859D01*
G01X17214281Y-2855849D02*
G01X17214281Y-2935859D01*
G01X17214281Y-2872867D02*
G01X17202851Y-2861437D01*
G01X17191421Y-2855849D01*
G01X17174403Y-2855849D01*
G01X17162973Y-2861437D01*
G01X17151543Y-2872867D01*
G01X17145701Y-2890139D01*
G01X17145701Y-2901569D01*
G01X17151543Y-2918587D01*
G01X17162973Y-2930017D01*
G01X17174403Y-2935859D01*
G01X17191421Y-2935859D01*
G01X17202851Y-2930017D01*
G01X17214281Y-2918587D01*
G01X17267875Y-2855849D02*
G01X17302165Y-2935859D01*
G01X17336455Y-2855849D02*
G01X17302165Y-2935859D01*
G01X17290735Y-2958719D01*
G01X17279305Y-2970149D01*
G01X17267875Y-2975737D01*
G01X17262033Y-2975737D01*
G01X17384207Y-2890139D02*
G01X17452787Y-2890139D01*
G01X17452787Y-2878709D01*
G01X17447199Y-2867279D01*
G01X17441357Y-2861437D01*
G01X17429927Y-2855849D01*
G01X17412909Y-2855849D01*
G01X17401479Y-2861437D01*
G01X17390049Y-2872867D01*
G01X17384207Y-2890139D01*
G01X17384207Y-2901569D01*
G01X17390049Y-2918587D01*
G01X17401479Y-2930017D01*
G01X17412909Y-2935859D01*
G01X17429927Y-2935859D01*
G01X17441357Y-2930017D01*
G01X17452787Y-2918587D01*
G01X17500539Y-2855849D02*
G01X17500539Y-2935859D01*
G01X17500539Y-2890139D02*
G01X17506381Y-2872867D01*
G01X17517811Y-2861437D01*
G01X17529241Y-2855849D01*
G01X17546259Y-2855849D01*
G01X17594011Y-2884297D02*
G01X17696881Y-2884297D01*
G01X17744633Y-2815717D02*
G01X17744633Y-2935859D01*
G01X17744633Y-2815717D02*
G01X17796195Y-2815717D01*
G01X17813213Y-2821559D01*
G01X17819055Y-2827147D01*
G01X17824643Y-2838577D01*
G01X17824643Y-2850007D01*
G01X17819055Y-2861437D01*
G01X17813213Y-2867279D01*
G01X17796195Y-2872867D01*
G01X17744633Y-2872867D02*
G01X17796195Y-2872867D01*
G01X17813213Y-2878709D01*
G01X17819055Y-2884297D01*
G01X17824643Y-2895727D01*
G01X17824643Y-2912999D01*
G01X17819055Y-2924429D01*
G01X17813213Y-2930017D01*
G01X17796195Y-2935859D01*
G01X17744633Y-2935859D01*
G01X17901097Y-2855849D02*
G01X17889667Y-2861437D01*
G01X17878237Y-2872867D01*
G01X17872395Y-2890139D01*
G01X17872395Y-2901569D01*
G01X17878237Y-2918587D01*
G01X17889667Y-2930017D01*
G01X17901097Y-2935859D01*
G01X17918115Y-2935859D01*
G01X17929545Y-2930017D01*
G01X17940975Y-2918587D01*
G01X17946817Y-2901569D01*
G01X17946817Y-2890139D01*
G01X17940975Y-2872867D01*
G01X17929545Y-2861437D01*
G01X17918115Y-2855849D01*
G01X17901097Y-2855849D01*
G01X18011841Y-2815717D02*
G01X18011841Y-2912999D01*
G01X18017429Y-2930017D01*
G01X18028859Y-2935859D01*
G01X18040289Y-2935859D01*
G01X17994569Y-2855849D02*
G01X18034701Y-2855849D01*
G01X18105313Y-2815717D02*
G01X18105313Y-2912999D01*
G01X18110901Y-2930017D01*
G01X18122331Y-2935859D01*
G01X18133761Y-2935859D01*
G01X18088041Y-2855849D02*
G01X18128173Y-2855849D01*
G01X18210215Y-2855849D02*
G01X18198785Y-2861437D01*
G01X18187355Y-2872867D01*
G01X18181513Y-2890139D01*
G01X18181513Y-2901569D01*
G01X18187355Y-2918587D01*
G01X18198785Y-2930017D01*
G01X18210215Y-2935859D01*
G01X18227233Y-2935859D01*
G01X18238663Y-2930017D01*
G01X18250093Y-2918587D01*
G01X18255935Y-2901569D01*
G01X18255935Y-2890139D01*
G01X18250093Y-2872867D01*
G01X18238663Y-2861437D01*
G01X18227233Y-2855849D01*
G01X18210215Y-2855849D01*
G01X18303687Y-2855849D02*
G01X18303687Y-2935859D01*
G01X18303687Y-2878709D02*
G01X18320959Y-2861437D01*
G01X18332389Y-2855849D01*
G01X18349407Y-2855849D01*
G01X18360837Y-2861437D01*
G01X18366679Y-2878709D01*
G01X18366679Y-2935859D01*
G01X18366679Y-2878709D02*
G01X18383697Y-2861437D01*
G01X18395127Y-2855849D01*
G01X18412399Y-2855849D01*
G01X18423829Y-2861437D01*
G01X18429417Y-2878709D01*
G01X18429417Y-2935859D01*
G01X18605185Y-2815717D02*
G01X18605185Y-2935859D01*
G01X18605185Y-2935859D02*
G01X18673765Y-2935859D01*
G01X18790097Y-2855849D02*
G01X18790097Y-2935859D01*
G01X18790097Y-2872867D02*
G01X18778667Y-2861437D01*
G01X18767237Y-2855849D01*
G01X18750219Y-2855849D01*
G01X18738789Y-2861437D01*
G01X18727359Y-2872867D01*
G01X18721517Y-2890139D01*
G01X18721517Y-2901569D01*
G01X18727359Y-2918587D01*
G01X18738789Y-2930017D01*
G01X18750219Y-2935859D01*
G01X18767237Y-2935859D01*
G01X18778667Y-2930017D01*
G01X18790097Y-2918587D01*
G01X18843691Y-2855849D02*
G01X18877981Y-2935859D01*
G01X18912271Y-2855849D02*
G01X18877981Y-2935859D01*
G01X18866551Y-2958719D01*
G01X18855121Y-2970149D01*
G01X18843691Y-2975737D01*
G01X18837849Y-2975737D01*
G01X18960023Y-2890139D02*
G01X19028603Y-2890139D01*
G01X19028603Y-2878709D01*
G01X19023015Y-2867279D01*
G01X19017173Y-2861437D01*
G01X19005743Y-2855849D01*
G01X18988725Y-2855849D01*
G01X18977295Y-2861437D01*
G01X18965865Y-2872867D01*
G01X18960023Y-2890139D01*
G01X18960023Y-2901569D01*
G01X18965865Y-2918587D01*
G01X18977295Y-2930017D01*
G01X18988725Y-2935859D01*
G01X19005743Y-2935859D01*
G01X19017173Y-2930017D01*
G01X19028603Y-2918587D01*
G01X19076355Y-2855849D02*
G01X19076355Y-2935859D01*
G01X19076355Y-2890139D02*
G01X19082197Y-2872867D01*
G01X19093627Y-2861437D01*
G01X19105057Y-2855849D01*
G01X19122075Y-2855849D01*
G01X4802970Y-3419148D02*
G01X4814400Y-3413560D01*
G01X4831672Y-3396288D01*
G01X4831672Y-3516430D01*
G01X4885266Y-3424990D02*
G01X4885266Y-3419148D01*
G01X4890854Y-3407718D01*
G01X4896696Y-3402130D01*
G01X4908126Y-3396288D01*
G01X4930986Y-3396288D01*
G01X4942416Y-3402130D01*
G01X4948004Y-3407718D01*
G01X4953846Y-3419148D01*
G01X4953846Y-3430578D01*
G01X4948004Y-3442008D01*
G01X4936574Y-3459280D01*
G01X4879424Y-3516430D01*
G01X4959434Y-3516430D01*
G01X5075766Y-3413560D02*
G01X5070178Y-3402130D01*
G01X5052906Y-3396288D01*
G01X5041476Y-3396288D01*
G01X5024458Y-3402130D01*
G01X5013028Y-3419148D01*
G01X5007186Y-3447850D01*
G01X5007186Y-3476298D01*
G01X5013028Y-3499158D01*
G01X5024458Y-3510588D01*
G01X5041476Y-3516430D01*
G01X5047318Y-3516430D01*
G01X5064336Y-3510588D01*
G01X5075766Y-3499158D01*
G01X5081608Y-3482140D01*
G01X5081608Y-3476298D01*
G01X5075766Y-3459280D01*
G01X5064336Y-3447850D01*
G01X5047318Y-3442008D01*
G01X5041476Y-3442008D01*
G01X5024458Y-3447850D01*
G01X5013028Y-3459280D01*
G01X5007186Y-3476298D01*
G01X6217133Y-3419148D02*
G01X6228563Y-3413560D01*
G01X6245835Y-3396288D01*
G01X6245835Y-3516430D01*
G01X6299429Y-3424990D02*
G01X6299429Y-3419148D01*
G01X6305017Y-3407718D01*
G01X6310859Y-3402130D01*
G01X6322289Y-3396288D01*
G01X6345149Y-3396288D01*
G01X6356579Y-3402130D01*
G01X6362167Y-3407718D01*
G01X6368009Y-3419148D01*
G01X6368009Y-3430578D01*
G01X6362167Y-3442008D01*
G01X6350737Y-3459280D01*
G01X6293587Y-3516430D01*
G01X6373597Y-3516430D01*
G01X6427191Y-3487728D02*
G01X6421349Y-3493570D01*
G01X6427191Y-3499158D01*
G01X6432779Y-3493570D01*
G01X6427191Y-3487728D01*
G01X6514821Y-3396288D02*
G01X6497803Y-3402130D01*
G01X6486373Y-3419148D01*
G01X6480531Y-3447850D01*
G01X6480531Y-3464868D01*
G01X6486373Y-3493570D01*
G01X6497803Y-3510588D01*
G01X6514821Y-3516430D01*
G01X6526251Y-3516430D01*
G01X6543523Y-3510588D01*
G01X6554953Y-3493570D01*
G01X6560541Y-3464868D01*
G01X6560541Y-3447850D01*
G01X6554953Y-3419148D01*
G01X6543523Y-3402130D01*
G01X6526251Y-3396288D01*
G01X6514821Y-3396288D01*
G01X6608293Y-3436420D02*
G01X6608293Y-3516430D01*
G01X6608293Y-3459280D02*
G01X6625565Y-3442008D01*
G01X6636995Y-3436420D01*
G01X6654013Y-3436420D01*
G01X6665443Y-3442008D01*
G01X6671285Y-3459280D01*
G01X6671285Y-3516430D01*
G01X6671285Y-3459280D02*
G01X6688303Y-3442008D01*
G01X6699733Y-3436420D01*
G01X6717005Y-3436420D01*
G01X6728435Y-3442008D01*
G01X6734023Y-3459280D01*
G01X6734023Y-3516430D01*
G01X6781775Y-3396288D02*
G01X6787617Y-3402130D01*
G01X6793205Y-3396288D01*
G01X6787617Y-3390700D01*
G01X6781775Y-3396288D01*
G01X6787617Y-3436420D02*
G01X6787617Y-3516430D01*
G01X6840957Y-3396288D02*
G01X6840957Y-3516430D01*
G01X6928841Y-3373428D02*
G01X6917411Y-3384858D01*
G01X6905981Y-3402130D01*
G01X6894551Y-3424990D01*
G01X6888709Y-3453438D01*
G01X6888709Y-3476298D01*
G01X6894551Y-3505000D01*
G01X6905981Y-3527860D01*
G01X6917411Y-3544878D01*
G01X6928841Y-3556308D01*
G01X7010883Y-3396288D02*
G01X6993865Y-3402130D01*
G01X6982435Y-3419148D01*
G01X6976593Y-3447850D01*
G01X6976593Y-3464868D01*
G01X6982435Y-3493570D01*
G01X6993865Y-3510588D01*
G01X7010883Y-3516430D01*
G01X7022313Y-3516430D01*
G01X7039585Y-3510588D01*
G01X7051015Y-3493570D01*
G01X7056603Y-3464868D01*
G01X7056603Y-3447850D01*
G01X7051015Y-3419148D01*
G01X7039585Y-3402130D01*
G01X7022313Y-3396288D01*
G01X7010883Y-3396288D01*
G01X7110197Y-3487728D02*
G01X7104355Y-3493570D01*
G01X7110197Y-3499158D01*
G01X7115785Y-3493570D01*
G01X7110197Y-3487728D01*
G01X7174967Y-3396288D02*
G01X7237959Y-3396288D01*
G01X7203669Y-3442008D01*
G01X7220687Y-3442008D01*
G01X7232117Y-3447850D01*
G01X7237959Y-3453438D01*
G01X7243547Y-3470710D01*
G01X7243547Y-3482140D01*
G01X7237959Y-3499158D01*
G01X7226529Y-3510588D01*
G01X7209257Y-3516430D01*
G01X7192239Y-3516430D01*
G01X7174967Y-3510588D01*
G01X7169379Y-3505000D01*
G01X7163537Y-3493570D01*
G01X7325589Y-3396288D02*
G01X7308571Y-3402130D01*
G01X7297141Y-3419148D01*
G01X7291299Y-3447850D01*
G01X7291299Y-3464868D01*
G01X7297141Y-3493570D01*
G01X7308571Y-3510588D01*
G01X7325589Y-3516430D01*
G01X7337019Y-3516430D01*
G01X7354291Y-3510588D01*
G01X7365721Y-3493570D01*
G01X7371309Y-3464868D01*
G01X7371309Y-3447850D01*
G01X7365721Y-3419148D01*
G01X7354291Y-3402130D01*
G01X7337019Y-3396288D01*
G01X7325589Y-3396288D01*
G01X7487641Y-3396288D02*
G01X7430491Y-3396288D01*
G01X7424903Y-3447850D01*
G01X7430491Y-3442008D01*
G01X7447763Y-3436420D01*
G01X7464781Y-3436420D01*
G01X7482053Y-3442008D01*
G01X7493483Y-3453438D01*
G01X7499071Y-3470710D01*
G01X7499071Y-3482140D01*
G01X7493483Y-3499158D01*
G01X7482053Y-3510588D01*
G01X7464781Y-3516430D01*
G01X7447763Y-3516430D01*
G01X7430491Y-3510588D01*
G01X7424903Y-3505000D01*
G01X7419061Y-3493570D01*
G01X7546823Y-3436420D02*
G01X7546823Y-3516430D01*
G01X7546823Y-3459280D02*
G01X7564095Y-3442008D01*
G01X7575525Y-3436420D01*
G01X7592543Y-3436420D01*
G01X7603973Y-3442008D01*
G01X7609815Y-3459280D01*
G01X7609815Y-3516430D01*
G01X7609815Y-3459280D02*
G01X7626833Y-3442008D01*
G01X7638263Y-3436420D01*
G01X7655535Y-3436420D01*
G01X7666965Y-3442008D01*
G01X7672553Y-3459280D01*
G01X7672553Y-3516430D01*
G01X7720305Y-3436420D02*
G01X7720305Y-3516430D01*
G01X7720305Y-3459280D02*
G01X7737577Y-3442008D01*
G01X7749007Y-3436420D01*
G01X7766025Y-3436420D01*
G01X7777455Y-3442008D01*
G01X7783297Y-3459280D01*
G01X7783297Y-3516430D01*
G01X7783297Y-3459280D02*
G01X7800315Y-3442008D01*
G01X7811745Y-3436420D01*
G01X7829017Y-3436420D01*
G01X7840447Y-3442008D01*
G01X7846035Y-3459280D01*
G01X7846035Y-3516430D01*
G01X7893787Y-3373428D02*
G01X7905217Y-3384858D01*
G01X7916647Y-3402130D01*
G01X7928077Y-3424990D01*
G01X7933919Y-3453438D01*
G01X7933919Y-3476298D01*
G01X7928077Y-3505000D01*
G01X7916647Y-3527860D01*
G01X7905217Y-3544878D01*
G01X7893787Y-3556308D01*
G01X10053948Y-3396288D02*
G01X10053948Y-3516430D01*
G01X10053948Y-3396288D02*
G01X10105510Y-3396288D01*
G01X10122528Y-3402130D01*
G01X10128370Y-3407718D01*
G01X10133958Y-3419148D01*
G01X10133958Y-3436420D01*
G01X10128370Y-3447850D01*
G01X10122528Y-3453438D01*
G01X10105510Y-3459280D01*
G01X10053948Y-3459280D01*
G01X10221842Y-3396288D02*
G01X10221842Y-3516430D01*
G01X10181710Y-3396288D02*
G01X10261720Y-3396288D01*
G01X10309472Y-3396288D02*
G01X10309472Y-3516430D01*
G01X10389482Y-3396288D02*
G01X10389482Y-3516430D01*
G01X10309472Y-3453438D02*
G01X10389482Y-3453438D01*
G01X11515355Y-3396288D02*
G01X11515355Y-3516430D01*
G01X11515355Y-3396288D02*
G01X11566917Y-3396288D01*
G01X11583935Y-3402130D01*
G01X11589777Y-3407718D01*
G01X11595365Y-3419148D01*
G01X11595365Y-3430578D01*
G01X11589777Y-3442008D01*
G01X11583935Y-3447850D01*
G01X11566917Y-3453438D01*
G01X11515355Y-3453438D01*
G01X11555487Y-3453438D02*
G01X11595365Y-3516430D01*
G01X11671819Y-3436420D02*
G01X11660389Y-3442008D01*
G01X11648959Y-3453438D01*
G01X11643117Y-3470710D01*
G01X11643117Y-3482140D01*
G01X11648959Y-3499158D01*
G01X11660389Y-3510588D01*
G01X11671819Y-3516430D01*
G01X11688837Y-3516430D01*
G01X11700267Y-3510588D01*
G01X11711697Y-3499158D01*
G01X11717539Y-3482140D01*
G01X11717539Y-3470710D01*
G01X11711697Y-3453438D01*
G01X11700267Y-3442008D01*
G01X11688837Y-3436420D01*
G01X11671819Y-3436420D01*
G01X11765291Y-3436420D02*
G01X11765291Y-3493570D01*
G01X11771133Y-3510588D01*
G01X11782563Y-3516430D01*
G01X11799581Y-3516430D01*
G01X11811011Y-3510588D01*
G01X11828283Y-3493570D01*
G01X11828283Y-3436420D02*
G01X11828283Y-3516430D01*
G01X11876035Y-3436420D02*
G01X11876035Y-3516430D01*
G01X11876035Y-3459280D02*
G01X11893307Y-3442008D01*
G01X11904737Y-3436420D01*
G01X11921755Y-3436420D01*
G01X11933185Y-3442008D01*
G01X11939027Y-3459280D01*
G01X11939027Y-3516430D01*
G01X12055359Y-3396288D02*
G01X12055359Y-3516430D01*
G01X12055359Y-3453438D02*
G01X12043929Y-3442008D01*
G01X12032499Y-3436420D01*
G01X12015481Y-3436420D01*
G01X12004051Y-3442008D01*
G01X11992621Y-3453438D01*
G01X11986779Y-3470710D01*
G01X11986779Y-3482140D01*
G01X11992621Y-3499158D01*
G01X12004051Y-3510588D01*
G01X12015481Y-3516430D01*
G01X12032499Y-3516430D01*
G01X12043929Y-3510588D01*
G01X12055359Y-3499158D01*
G01X12946536Y-3396288D02*
G01X12992256Y-3516430D01*
G01X13037976Y-3396288D02*
G01X12992256Y-3516430D01*
G01X13085728Y-3396288D02*
G01X13091570Y-3402130D01*
G01X13097158Y-3396288D01*
G01X13091570Y-3390700D01*
G01X13085728Y-3396288D01*
G01X13091570Y-3436420D02*
G01X13091570Y-3516430D01*
G01X13213490Y-3436420D02*
G01X13213490Y-3516430D01*
G01X13213490Y-3453438D02*
G01X13202060Y-3442008D01*
G01X13190630Y-3436420D01*
G01X13173612Y-3436420D01*
G01X13162182Y-3442008D01*
G01X13150752Y-3453438D01*
G01X13144910Y-3470710D01*
G01X13144910Y-3482140D01*
G01X13150752Y-3499158D01*
G01X13162182Y-3510588D01*
G01X13173612Y-3516430D01*
G01X13190630Y-3516430D01*
G01X13202060Y-3510588D01*
G01X13213490Y-3499158D01*
G01X16575217Y-3396288D02*
G01X16575217Y-3516430D01*
G01X16535085Y-3396288D02*
G01X16615095Y-3396288D01*
G01X16691549Y-3436420D02*
G01X16680119Y-3442008D01*
G01X16668689Y-3453438D01*
G01X16662847Y-3470710D01*
G01X16662847Y-3482140D01*
G01X16668689Y-3499158D01*
G01X16680119Y-3510588D01*
G01X16691549Y-3516430D01*
G01X16708567Y-3516430D01*
G01X16719997Y-3510588D01*
G01X16731427Y-3499158D01*
G01X16737269Y-3482140D01*
G01X16737269Y-3470710D01*
G01X16731427Y-3453438D01*
G01X16719997Y-3442008D01*
G01X16708567Y-3436420D01*
G01X16691549Y-3436420D01*
G01X16785021Y-3436420D02*
G01X16785021Y-3556308D01*
G01X16785021Y-3453438D02*
G01X16796451Y-3442008D01*
G01X16807881Y-3436420D01*
G01X16825153Y-3436420D01*
G01X16836583Y-3442008D01*
G01X16848013Y-3453438D01*
G01X16853601Y-3470710D01*
G01X16853601Y-3482140D01*
G01X16848013Y-3499158D01*
G01X16836583Y-3510588D01*
G01X16825153Y-3516430D01*
G01X16807881Y-3516430D01*
G01X16796451Y-3510588D01*
G01X16785021Y-3499158D01*
G01X17029369Y-3396288D02*
G01X17029369Y-3516430D01*
G01X17029369Y-3516430D02*
G01X17097949Y-3516430D01*
G01X17214281Y-3436420D02*
G01X17214281Y-3516430D01*
G01X17214281Y-3453438D02*
G01X17202851Y-3442008D01*
G01X17191421Y-3436420D01*
G01X17174403Y-3436420D01*
G01X17162973Y-3442008D01*
G01X17151543Y-3453438D01*
G01X17145701Y-3470710D01*
G01X17145701Y-3482140D01*
G01X17151543Y-3499158D01*
G01X17162973Y-3510588D01*
G01X17174403Y-3516430D01*
G01X17191421Y-3516430D01*
G01X17202851Y-3510588D01*
G01X17214281Y-3499158D01*
G01X17267875Y-3436420D02*
G01X17302165Y-3516430D01*
G01X17336455Y-3436420D02*
G01X17302165Y-3516430D01*
G01X17290735Y-3539290D01*
G01X17279305Y-3550720D01*
G01X17267875Y-3556308D01*
G01X17262033Y-3556308D01*
G01X17384207Y-3470710D02*
G01X17452787Y-3470710D01*
G01X17452787Y-3459280D01*
G01X17447199Y-3447850D01*
G01X17441357Y-3442008D01*
G01X17429927Y-3436420D01*
G01X17412909Y-3436420D01*
G01X17401479Y-3442008D01*
G01X17390049Y-3453438D01*
G01X17384207Y-3470710D01*
G01X17384207Y-3482140D01*
G01X17390049Y-3499158D01*
G01X17401479Y-3510588D01*
G01X17412909Y-3516430D01*
G01X17429927Y-3516430D01*
G01X17441357Y-3510588D01*
G01X17452787Y-3499158D01*
G01X17500539Y-3436420D02*
G01X17500539Y-3516430D01*
G01X17500539Y-3470710D02*
G01X17506381Y-3453438D01*
G01X17517811Y-3442008D01*
G01X17529241Y-3436420D01*
G01X17546259Y-3436420D01*
G01X17594011Y-3464868D02*
G01X17696881Y-3464868D01*
G01X17744633Y-3396288D02*
G01X17744633Y-3516430D01*
G01X17744633Y-3396288D02*
G01X17796195Y-3396288D01*
G01X17813213Y-3402130D01*
G01X17819055Y-3407718D01*
G01X17824643Y-3419148D01*
G01X17824643Y-3430578D01*
G01X17819055Y-3442008D01*
G01X17813213Y-3447850D01*
G01X17796195Y-3453438D01*
G01X17744633Y-3453438D02*
G01X17796195Y-3453438D01*
G01X17813213Y-3459280D01*
G01X17819055Y-3464868D01*
G01X17824643Y-3476298D01*
G01X17824643Y-3493570D01*
G01X17819055Y-3505000D01*
G01X17813213Y-3510588D01*
G01X17796195Y-3516430D01*
G01X17744633Y-3516430D01*
G01X17901097Y-3436420D02*
G01X17889667Y-3442008D01*
G01X17878237Y-3453438D01*
G01X17872395Y-3470710D01*
G01X17872395Y-3482140D01*
G01X17878237Y-3499158D01*
G01X17889667Y-3510588D01*
G01X17901097Y-3516430D01*
G01X17918115Y-3516430D01*
G01X17929545Y-3510588D01*
G01X17940975Y-3499158D01*
G01X17946817Y-3482140D01*
G01X17946817Y-3470710D01*
G01X17940975Y-3453438D01*
G01X17929545Y-3442008D01*
G01X17918115Y-3436420D01*
G01X17901097Y-3436420D01*
G01X18011841Y-3396288D02*
G01X18011841Y-3493570D01*
G01X18017429Y-3510588D01*
G01X18028859Y-3516430D01*
G01X18040289Y-3516430D01*
G01X17994569Y-3436420D02*
G01X18034701Y-3436420D01*
G01X18105313Y-3396288D02*
G01X18105313Y-3493570D01*
G01X18110901Y-3510588D01*
G01X18122331Y-3516430D01*
G01X18133761Y-3516430D01*
G01X18088041Y-3436420D02*
G01X18128173Y-3436420D01*
G01X18210215Y-3436420D02*
G01X18198785Y-3442008D01*
G01X18187355Y-3453438D01*
G01X18181513Y-3470710D01*
G01X18181513Y-3482140D01*
G01X18187355Y-3499158D01*
G01X18198785Y-3510588D01*
G01X18210215Y-3516430D01*
G01X18227233Y-3516430D01*
G01X18238663Y-3510588D01*
G01X18250093Y-3499158D01*
G01X18255935Y-3482140D01*
G01X18255935Y-3470710D01*
G01X18250093Y-3453438D01*
G01X18238663Y-3442008D01*
G01X18227233Y-3436420D01*
G01X18210215Y-3436420D01*
G01X18303687Y-3436420D02*
G01X18303687Y-3516430D01*
G01X18303687Y-3459280D02*
G01X18320959Y-3442008D01*
G01X18332389Y-3436420D01*
G01X18349407Y-3436420D01*
G01X18360837Y-3442008D01*
G01X18366679Y-3459280D01*
G01X18366679Y-3516430D01*
G01X18366679Y-3459280D02*
G01X18383697Y-3442008D01*
G01X18395127Y-3436420D01*
G01X18412399Y-3436420D01*
G01X18423829Y-3442008D01*
G01X18429417Y-3459280D01*
G01X18429417Y-3516430D01*
G01X18605185Y-3396288D02*
G01X18605185Y-3516430D01*
G01X18605185Y-3516430D02*
G01X18673765Y-3516430D01*
G01X18790097Y-3436420D02*
G01X18790097Y-3516430D01*
G01X18790097Y-3453438D02*
G01X18778667Y-3442008D01*
G01X18767237Y-3436420D01*
G01X18750219Y-3436420D01*
G01X18738789Y-3442008D01*
G01X18727359Y-3453438D01*
G01X18721517Y-3470710D01*
G01X18721517Y-3482140D01*
G01X18727359Y-3499158D01*
G01X18738789Y-3510588D01*
G01X18750219Y-3516430D01*
G01X18767237Y-3516430D01*
G01X18778667Y-3510588D01*
G01X18790097Y-3499158D01*
G01X18843691Y-3436420D02*
G01X18877981Y-3516430D01*
G01X18912271Y-3436420D02*
G01X18877981Y-3516430D01*
G01X18866551Y-3539290D01*
G01X18855121Y-3550720D01*
G01X18843691Y-3556308D01*
G01X18837849Y-3556308D01*
G01X18960023Y-3470710D02*
G01X19028603Y-3470710D01*
G01X19028603Y-3459280D01*
G01X19023015Y-3447850D01*
G01X19017173Y-3442008D01*
G01X19005743Y-3436420D01*
G01X18988725Y-3436420D01*
G01X18977295Y-3442008D01*
G01X18965865Y-3453438D01*
G01X18960023Y-3470710D01*
G01X18960023Y-3482140D01*
G01X18965865Y-3499158D01*
G01X18977295Y-3510588D01*
G01X18988725Y-3516430D01*
G01X19005743Y-3516430D01*
G01X19017173Y-3510588D01*
G01X19028603Y-3499158D01*
G01X19076355Y-3436420D02*
G01X19076355Y-3516430D01*
G01X19076355Y-3470710D02*
G01X19082197Y-3453438D01*
G01X19093627Y-3442008D01*
G01X19105057Y-3436420D01*
G01X19122075Y-3436420D01*

G04 Image Start*
G36*
G01X3506481Y-3319726D02*
G01X3671581Y-3484826D01*
G01X3506481Y-3649926D01*
G01X3341381Y-3484826D01*
G01X3377297Y-3484826D01*
G01X3506481Y-3614010D01*
G01X3635666Y-3484826D01*
G01X3506481Y-3355641D01*
G01X3506481Y-3355641D01*
G01X3377297Y-3484826D01*
G01X3341381Y-3484826D01*
G01X3506481Y-3319726D01*
G37*
G36*
G01X3638358Y-1254615D02*
G01X3532745Y-1243134D01*
G01X3489870Y-1340340D01*
G01X3446994Y-1243134D01*
G01X3341381Y-1254615D01*
G01X3404145Y-1168890D01*
G01X3364422Y-1114635D01*
G01X3395915Y-1114635D01*
G01X3435615Y-1168890D01*
G01X3395915Y-1223144D01*
G01X3462742Y-1215880D01*
G01X3462742Y-1215880D01*
G01X3489870Y-1277373D01*
G01X3516997Y-1215880D01*
G01X3583824Y-1223144D01*
G01X3544124Y-1168890D01*
G01X3583799Y-1114661D01*
G01X3516971Y-1121925D01*
G01X3489870Y-1060406D01*
G01X3462742Y-1121900D01*
G01X3395915Y-1114635D01*
G01X3364422Y-1114635D01*
G01X3341381Y-1083165D01*
G01X3447020Y-1094646D01*
G01X3489870Y-997440D01*
G01X3532745Y-1094646D01*
G01X3638358Y-1083165D01*
G01X3575595Y-1168890D01*
G01X3638358Y-1254615D01*
G37*
G36*
G01X3509364Y-140310D02*
G01X3501624Y-140899D01*
G01X3493781Y-141097D01*
G01X3485938Y-140899D01*
G01X3478198Y-140310D01*
G01X3470570Y-139341D01*
G01X3463065Y-138001D01*
G01X3448459Y-134246D01*
G01X3434457Y-129122D01*
G01X3421135Y-122705D01*
G01X3408570Y-115071D01*
G01X3396838Y-106299D01*
G01X3386015Y-96463D01*
G01X3376179Y-85641D01*
G01X3367407Y-73909D01*
G01X3359774Y-61343D01*
G01X3353356Y-48021D01*
G01X3348232Y-34019D01*
G01X3344477Y-19413D01*
G01X3343137Y-11908D01*
G01X3342168Y-4280D01*
G01X3341579Y3460D01*
G01X3341381Y11303D01*
G01X3366781Y11303D01*
G01X3367438Y-1664D01*
G01X3369366Y-14260D01*
G01X3372500Y-26421D01*
G01X3376777Y-38084D01*
G01X3382132Y-49183D01*
G01X3388500Y-59655D01*
G01X3395818Y-69434D01*
G01X3404021Y-78457D01*
G01X3413044Y-86660D01*
G01X3422824Y-93978D01*
G01X3433295Y-100346D01*
G01X3444394Y-105701D01*
G01X3456057Y-109978D01*
G01X3468218Y-113112D01*
G01X3468218Y-113112D01*
G01X3480815Y-115040D01*
G01X3493781Y-115697D01*
G01X3506748Y-115040D01*
G01X3519344Y-113112D01*
G01X3531505Y-109978D01*
G01X3543168Y-105701D01*
G01X3554267Y-100346D01*
G01X3564739Y-93978D01*
G01X3574518Y-86660D01*
G01X3583542Y-78457D01*
G01X3591744Y-69434D01*
G01X3599062Y-59655D01*
G01X3605430Y-49183D01*
G01X3610785Y-38084D01*
G01X3615062Y-26421D01*
G01X3618196Y-14260D01*
G01X3620124Y-1664D01*
G01X3620781Y11303D01*
G01X3620124Y24269D01*
G01X3618196Y36866D01*
G01X3615062Y49027D01*
G01X3610785Y60690D01*
G01X3605430Y71789D01*
G01X3599062Y82260D01*
G01X3591744Y92040D01*
G01X3583542Y101063D01*
G01X3574518Y109266D01*
G01X3564739Y116584D01*
G01X3554267Y122952D01*
G01X3543168Y128307D01*
G01X3531505Y132584D01*
G01X3519344Y135718D01*
G01X3506748Y137646D01*
G01X3493781Y138303D01*
G01X3480815Y137646D01*
G01X3468218Y135718D01*
G01X3456057Y132584D01*
G01X3444394Y128307D01*
G01X3433295Y122952D01*
G01X3422824Y116584D01*
G01X3413044Y109266D01*
G01X3404021Y101063D01*
G01X3395818Y92040D01*
G01X3388500Y82260D01*
G01X3382132Y71789D01*
G01X3376777Y60690D01*
G01X3372500Y49027D01*
G01X3369366Y36866D01*
G01X3367438Y24269D01*
G01X3366781Y11303D01*
G01X3341381Y11303D01*
G01X3341579Y19146D01*
G01X3342168Y26886D01*
G01X3343137Y34514D01*
G01X3344477Y42019D01*
G01X3348232Y56625D01*
G01X3353356Y70627D01*
G01X3359774Y83949D01*
G01X3367407Y96515D01*
G01X3376179Y108247D01*
G01X3386015Y119069D01*
G01X3396838Y128905D01*
G01X3408570Y137677D01*
G01X3421135Y145311D01*
G01X3434457Y151728D01*
G01X3448459Y156852D01*
G01X3463065Y160607D01*
G01X3470570Y161947D01*
G01X3478198Y162916D01*
G01X3485938Y163505D01*
G01X3493781Y163703D01*
G01X3501624Y163505D01*
G01X3509364Y162916D01*
G01X3516992Y161947D01*
G01X3524497Y160607D01*
G01X3539103Y156852D01*
G01X3553105Y151728D01*
G01X3566427Y145311D01*
G01X3578993Y137677D01*
G01X3590725Y128905D01*
G01X3601547Y119069D01*
G01X3611383Y108247D01*
G01X3620156Y96515D01*
G01X3627789Y83949D01*
G01X3634206Y70627D01*
G01X3639330Y56625D01*
G01X3643085Y42019D01*
G01X3644425Y34514D01*
G01X3645394Y26886D01*
G01X3645983Y19146D01*
G01X3646181Y11303D01*
G01X3645983Y3460D01*
G01X3645394Y-4280D01*
G01X3644425Y-11908D01*
G01X3643085Y-19413D01*
G01X3639330Y-34019D01*
G01X3634206Y-48021D01*
G01X3627789Y-61343D01*
G01X3620156Y-73909D01*
G01X3611383Y-85641D01*
G01X3601547Y-96463D01*
G01X3590725Y-106299D01*
G01X3578993Y-115071D01*
G01X3566427Y-122705D01*
G01X3553105Y-129122D01*
G01X3539103Y-134246D01*
G01X3524497Y-138001D01*
G01X3516992Y-139341D01*
G01X3509364Y-140310D01*
G37*
G36*
G01X3646181Y-2380249D02*
G01X3563072Y-2380249D01*
G01X3563072Y-2463383D01*
G01X3424515Y-2463383D01*
G01X3424515Y-2380274D01*
G01X3341381Y-2380274D01*
G01X3341381Y-2267117D01*
G01X3366781Y-2267117D01*
G01X3366781Y-2354849D01*
G01X3449915Y-2354849D01*
G01X3449915Y-2437983D01*
G01X3449915Y-2437983D01*
G01X3537647Y-2437983D01*
G01X3537647Y-2354874D01*
G01X3620781Y-2354874D01*
G01X3620781Y-2267117D01*
G01X3537647Y-2267117D01*
G01X3537647Y-2183983D01*
G01X3449915Y-2183983D01*
G01X3449915Y-2267117D01*
G01X3366781Y-2267117D01*
G01X3341381Y-2267117D01*
G01X3341381Y-2241717D01*
G01X3424515Y-2241717D01*
G01X3424515Y-2158583D01*
G01X3563047Y-2158583D01*
G01X3563047Y-2241717D01*
G01X3646181Y-2241717D01*
G01X3646181Y-2380249D01*
G37*
G36*
G01X3646181Y-1578011D02*
G01X3576153Y-1730411D01*
G01X3646181Y-1882811D01*
G01X3493781Y-1812784D01*
G01X3341381Y-1882811D01*
G01X3365144Y-1831097D01*
G01X3393096Y-1831097D01*
G01X3483164Y-1789695D01*
G01X3493781Y-1784818D01*
G01X3504398Y-1789695D01*
G01X3594467Y-1831097D01*
G01X3553065Y-1741029D01*
G01X3548188Y-1730411D01*
G01X3553065Y-1719794D01*
G01X3594467Y-1629726D01*
G01X3504398Y-1671128D01*
G01X3493781Y-1676005D01*
G01X3483164Y-1671128D01*
G01X3393096Y-1629726D01*
G01X3434498Y-1719794D01*
G01X3439374Y-1730411D01*
G01X3439374Y-1730411D01*
G01X3434498Y-1741029D01*
G01X3393096Y-1831097D01*
G01X3365144Y-1831097D01*
G01X3411409Y-1730411D01*
G01X3341381Y-1578011D01*
G01X3493781Y-1648039D01*
G01X3646181Y-1578011D01*
G37*
G36*
G01X3341381Y-416868D02*
G01X3646181Y-416868D01*
G01X3493781Y-680825D01*
G01X3356046Y-442268D01*
G01X3385374Y-442268D01*
G01X3493781Y-630025D01*
G01X3602188Y-442268D01*
G01X3602188Y-442268D01*
G01X3385374Y-442268D01*
G01X3356046Y-442268D01*
G01X3341381Y-416868D01*
G37*
G36*
G01X3620781Y-3018554D02*
G01X3519181Y-3018554D01*
G01X3481081Y-2942354D01*
G01X3442981Y-3018554D01*
G01X3341381Y-3018554D01*
G01X3341381Y-2993154D01*
G01X3366781Y-2993154D01*
G01X3427284Y-2993154D01*
G01X3458348Y-2931000D01*
G01X3481081Y-2885560D01*
G01X3503814Y-2931000D01*
G01X3534878Y-2993154D01*
G01X3595381Y-2993154D01*
G01X3595381Y-2932651D01*
G01X3533227Y-2901562D01*
G01X3487787Y-2878854D01*
G01X3533227Y-2856147D01*
G01X3595381Y-2825057D01*
G01X3595381Y-2764554D01*
G01X3534878Y-2764554D01*
G01X3503814Y-2826708D01*
G01X3481081Y-2872149D01*
G01X3458348Y-2826708D01*
G01X3427284Y-2764554D01*
G01X3366781Y-2764554D01*
G01X3366781Y-2825057D01*
G01X3428935Y-2856147D01*
G01X3474376Y-2878854D01*
G01X3428935Y-2901562D01*
G01X3366781Y-2932651D01*
G01X3366781Y-2993154D01*
G01X3366781Y-2993154D01*
G01X3341381Y-2993154D01*
G01X3341381Y-2916954D01*
G01X3417581Y-2878854D01*
G01X3341381Y-2840754D01*
G01X3341381Y-2739154D01*
G01X3442981Y-2739154D01*
G01X3481081Y-2815354D01*
G01X3519181Y-2739154D01*
G01X3620781Y-2739154D01*
G01X3620781Y-2840754D01*
G01X3544581Y-2878854D01*
G01X3620781Y-2916954D01*
G01X3620781Y-3018554D01*
G37*
G36*
G01X3341381Y744274D02*
G01X3620781Y744274D01*
G01X3620781Y464874D01*
G01X3341381Y464874D01*
G01X3341381Y718874D01*
G01X3366781Y718874D01*
G01X3366781Y490274D01*
G01X3595381Y490274D01*
G01X3595381Y718874D01*
G01X3595381Y718874D01*
G01X3366781Y718874D01*
G01X3341381Y718874D01*
G01X3341381Y744274D01*
G37*

G04 PolygonModel Start*
G54D19*
G01X3051095Y-3755154D02*
G01X19712806Y-3755154D01*
G01X3051095Y-3174583D02*
G01X19712806Y-3174583D01*
G01X3051095Y-2594011D02*
G01X19712806Y-2594011D01*
G01X3051095Y-2013440D02*
G01X19712806Y-2013440D01*
G01X3051095Y-1432868D02*
G01X19712806Y-1432868D01*
G01X3051095Y-852297D02*
G01X19712806Y-852297D01*
G01X3051095Y-271726D02*
G01X19712806Y-271726D01*
G01X3051095Y308846D02*
G01X19712806Y308846D01*
G01X3051095Y889417D02*
G01X19712806Y889417D01*
G01X3051095Y1469989D02*
G01X19712806Y1469989D01*
G01X3051095Y1469989D02*
G01X3051095Y-3729754D01*
G01X4502524Y1469989D02*
G01X4502524Y-3729754D01*
G01X5916687Y1469989D02*
G01X5916687Y-3729754D01*
G01X9753502Y1469989D02*
G01X9753502Y-3729754D01*
G01X11214909Y1469989D02*
G01X11214909Y-3729754D01*
G01X12646091Y1469989D02*
G01X12646091Y-3729754D01*
G01X14315270Y1469989D02*
G01X14315270Y-3729754D01*
G01X16234639Y1469989D02*
G01X16234639Y-3729754D01*
G01X19712806Y1469989D02*
G01X19712806Y-3729754D01*

M02*

