G04 Layer: TopSolderMaskLayer*
G04 EasyEDA Pro v3.2.149.88089769, 2026-07-20 17:43:02*
G04 Gerber Generator version 0.3*
G04 Scale: 100 percent, Rotated: No, Reflected: No*
G04 Dimensions in millimeters*
G04 Leading zeros omitted, absolute positions, 4 integers and 5 decimals*
G04 Generated by one-click*
G04 Object Configs: Pad,Via,Track,Text,Image,Dimension,BoardOutline,BoardCutout,CopperFilled,SolidRegion,FPCStiffener,Line,PlaneZone,ComponentProperty,ComponentSilkscreen,TearDrop*
G04 Layer Configs: 1,2,3,4,5,6,7,8,9,10,11,13,14,56*
G04 Copper Areas: 0*
%FSLAX45Y45*%
%MOMM*%
%AMRoundRect*1,1,$1,$2,$3*1,1,$1,$4,$5*1,1,$1,0-$2,0-$3*1,1,$1,0-$4,0-$5*20,1,$1,$2,$3,$4,$5,0*20,1,$1,$4,$5,0-$2,0-$3,0*20,1,$1,0-$2,0-$3,0-$4,0-$5,0*20,1,$1,0-$4,0-$5,$2,$3,0*4,1,4,$2,$3,$4,$5,0-$2,0-$3,0-$4,0-$5,$2,$3,0*%
%ADD10RoundRect,0.10003X-1.85X-1.85X-1.85X1.85*%
%ADD11RoundRect,0.10003X-0.45X-0.14X-0.45X0.14*%
%ADD12RoundRect,0.10003X-0.14X-0.45X-0.14X0.45*%
%ADD13RoundRect,0.1016X-0.45X-0.4X-0.45X0.4*%
%ADD14RoundRect,0.1016X-0.432X-0.40324X-0.432X0.40324*%
%ADD15RoundRect,0.1016X-0.4X0.45X0.4X0.45*%
%ADD16RoundRect,0.1016X-0.5785X-0.245X-0.5785X0.245*%
%ADD17RoundRect,0.1016X-0.5875X-0.245X-0.5875X0.245*%
%ADD18RoundRect,0.1001X-0.35X-0.52501X-0.35X0.52501*%
%ADD19RoundRect,0.1016X-0.35X-0.52501X-0.35X0.52501*%
%ADD20RoundRect,0.1016X-0.40324X0.432X0.40324X0.432*%
%ADD21O,0.7316X2.35161*%
%ADD22RoundRect,0.1016X-0.40005X-0.40005X-0.40005X0.40005*%
%ADD23RoundRect,0.1016X-0.6X-0.7X-0.6X0.7*%
%ADD24C,1.7526*%
%ADD25RoundRect,0.1016X-0.25X0.27X0.25X0.27*%
%ADD26RoundRect,0.1016X-0.33838X-0.23694X-0.23694X0.33838*%
%ADD27RoundRect,0.1016X-0.54991X0.50038X0.54991X0.50038*%
%ADD28RoundRect,0.1016X-0.54991X0.40005X0.54991X0.40005*%
%ADD29RoundRect,0.10003X-0.27501X0.55X0.27501X0.55*%
%ADD30RoundRect,0.10003X-0.15X0.55X0.15X0.55*%
%ADD31O,1.20002X2.10002*%
%ADD32O,1.30002X1.90002*%
G75*


G04 Pad Start*
G54D10*
G01X-161077Y-27D03*
G54D11*
G01X-416119Y175005D03*
G01X-416119Y124967D03*
G01X-416119Y74929D03*
G01X-416119Y24891D03*
G01X-416119Y-24893D03*
G01X-416119Y-74931D03*
G01X-416119Y-124969D03*
G01X-416119Y-175007D03*
G54D12*
G01X-336109Y-255017D03*
G01X-286071Y-255017D03*
G01X-236033Y-255017D03*
G01X-185995Y-255017D03*
G01X-136211Y-255017D03*
G01X-86173Y-255017D03*
G01X-36135Y-255017D03*
G01X13903Y-255017D03*
G54D11*
G01X93913Y-175007D03*
G01X93913Y-124969D03*
G01X93913Y-74931D03*
G01X93913Y-24893D03*
G01X93913Y24891D03*
G01X93913Y74929D03*
G01X93913Y124967D03*
G01X93913Y175005D03*
G54D12*
G01X13903Y255015D03*
G01X-36135Y255015D03*
G01X-86173Y255015D03*
G01X-136211Y255015D03*
G01X-185995Y255015D03*
G01X-236033Y255015D03*
G01X-286071Y255015D03*
G01X-336109Y255015D03*
G54D13*
G01X-630451Y237823D03*
G01X-630451Y97818D03*
G01X-631313Y-209270D03*
G01X-631313Y-69266D03*
G54D14*
G01X-640418Y-622201D03*
G01X-640418Y-471528D03*
G54D13*
G01X-320326Y594164D03*
G01X-320326Y454159D03*
G54D15*
G01X-223847Y760107D03*
G01X-83842Y760107D03*
G54D13*
G01X459630Y663619D03*
G01X459630Y523615D03*
G54D16*
G01X466982Y-1358953D03*
G01X466982Y-1263957D03*
G01X466982Y-1168961D03*
G54D17*
G01X236248Y-1168961D03*
G01X236248Y-1358953D03*
G54D13*
G01X634969Y-1337648D03*
G01X634969Y-1197643D03*
G01X74779Y-1337648D03*
G01X74779Y-1197643D03*
G54D14*
G01X-491262Y-471528D03*
G01X-491262Y-622201D03*
G54D13*
G01X-630992Y-1333069D03*
G01X-630992Y-1193064D03*
G54D19*
G01X-653412Y-2003090D03*
G01X-653412Y-2423105D03*
G01X-868398Y-2003090D03*
G01X-868398Y-2423105D03*
G54D20*
G01X-278161Y-1539669D03*
G01X-127488Y-1539669D03*
G01X282172Y-1539669D03*
G01X131499Y-1539669D03*
G54D14*
G01X-170308Y-468761D03*
G01X-170308Y-619433D03*
G01X-22366Y-469607D03*
G01X-22366Y-620279D03*
G54D13*
G01X-326403Y-655328D03*
G01X-326403Y-515323D03*
G01X135111Y-613979D03*
G01X135111Y-473974D03*
G54D19*
G01X870588Y-2003106D03*
G01X870588Y-2423121D03*
G01X655602Y-2003106D03*
G01X655602Y-2423121D03*
G54D21*
G01X637755Y274828D03*
G01X510755Y274828D03*
G01X383755Y274828D03*
G01X256755Y274828D03*
G01X637755Y-431191D03*
G01X510755Y-431191D03*
G01X383755Y-431191D03*
G01X256755Y-431191D03*
G54D22*
G01X199826Y-969178D03*
G01X359846Y-968670D03*
G54D20*
G01X500231Y-968776D03*
G01X650904Y-968776D03*
G01X499914Y-818505D03*
G01X650587Y-818505D03*
G54D22*
G01X200250Y-819648D03*
G01X360270Y-819140D03*
G54D23*
G01X284054Y522441D03*
G01X94057Y522441D03*
G01X284054Y742456D03*
G01X94057Y742456D03*
G54D15*
G01X506149Y-657871D03*
G01X646154Y-657871D03*
G54D24*
G01X-887905Y-11D03*
G01X-887905Y-254011D03*
G01X-887905Y-508011D03*
G01X-887905Y-762011D03*
G01X-887905Y-1016011D03*
G01X-887905Y-1270011D03*
G01X-887905Y-1524011D03*
G01X-887905Y-1778011D03*
G01X890095Y761989D03*
G01X890095Y507989D03*
G01X890095Y253989D03*
G01X-889760Y761989D03*
G01X-889760Y507989D03*
G01X-889760Y253989D03*
G01X890095Y-11D03*
G01X890095Y-254011D03*
G01X890095Y-508011D03*
G01X890095Y-762011D03*
G01X890095Y-1016011D03*
G01X890095Y-1270011D03*
G01X890095Y-1524011D03*
G01X890095Y-1778011D03*
G54D25*
G01X-469233Y799314D03*
G01X-553256Y799314D03*
G54D26*
G01X-497752Y565749D03*
G01X-482721Y650998D03*
G54D25*
G01X-599922Y421321D03*
G01X-515899Y421321D03*
G54D15*
G01X-484233Y-1189462D03*
G01X-344228Y-1189462D03*
G54D20*
G01X-641934Y-1539669D03*
G01X-491262Y-1539669D03*
G01X650904Y-1539669D03*
G01X500231Y-1539669D03*
G01X-545128Y-818505D03*
G01X-394455Y-818505D03*
G54D27*
G01X-560010Y-990600D03*
G54D28*
G01X-204410Y-1046480D03*
G01X-204410Y-934720D03*
G54D29*
G01X-318907Y-1814829D03*
G01X-238897Y-1814829D03*
G54D30*
G01X-173898Y-1814829D03*
G01X-123885Y-1814829D03*
G01X-73898Y-1814829D03*
G01X-23911Y-1814829D03*
G01X26102Y-1814829D03*
G01X76089Y-1814829D03*
G01X126101Y-1814829D03*
G01X176114Y-1814829D03*
G54D29*
G01X241113Y-1814829D03*
G01X321097Y-1814829D03*
G54D31*
G01X-431403Y-1869820D03*
G01X433594Y-1869820D03*
G54D32*
G01X-431403Y-2289834D03*
G01X433594Y-2289834D03*
G04 Pad End*

M02*

