G04 Layer: BottomLayer*
G04 EasyEDA Pro v3.2.149.88089769, 2026-07-20 17:43:02*
G04 Gerber Generator version 0.3*
G04 Scale: 100 percent, Rotated: No, Reflected: No*
G04 Dimensions in millimeters*
G04 Leading zeros omitted, absolute positions, 4 integers and 5 decimals*
G04 Generated by one-click*
G04 Object Configs: Pad,Via,Track,Text,Image,Dimension,BoardOutline,BoardCutout,CopperFilled,SolidRegion,FPCStiffener,Line,PlaneZone,ComponentProperty,ComponentSilkscreen,TearDrop*
G04 Layer Configs: 1,2,3,4,5,6,7,8,9,10,11,13,14,56*
G04 Copper Areas: 1*
%FSLAX45Y45*%
%MOMM*%
%ADD10C,0.2032*%
%ADD11C,0.71628*%
%ADD12C,1.02108*%
%ADD13C,0.92118*%
%ADD14C,1.651*%
%ADD15O,1.1X2.0*%
%ADD16O,1.2X1.8*%
%ADD17C,0.6134*%
%ADD18C,0.61*%
%ADD19C,0.9144*%
%ADD20C,0.762*%
%ADD21C,0.6096*%
%ADD22C,0.889*%
%ADD23C,1.016*%
%ADD24C,0.8128*%
%ADD25C,0.254*%
%ADD26C,0.508*%
%ADD27C,0.5842*%
%ADD28C,0.4064*%
%ADD29C,0.381*%
%ADD30C,0.3048*%
G75*


G04 Copper Start*
G36*
G01X-1013091Y-2326811D02*
G01X-1013091Y-2033816D01*
G01X-999719Y-2039549D01*
G01X-985418Y-2042227D01*
G01X-970877Y-2041721D01*
G01X-956797Y-2038055D01*
G01X-943856Y-2031406D01*
G01X-932677Y-2022094D01*
G01X-762000Y-2022094D01*
G01X-730128Y-2020166D01*
G01X-698722Y-2014411D01*
G01X-668238Y-2004911D01*
G01X-639121Y-1991807D01*
G01X-611796Y-1975288D01*
G01X-586661Y-1955597D01*
G01X-564083Y-1933019D01*
G01X-555324Y-1921839D01*
G01X-358708Y-1921839D01*
G01X-356933Y-1937597D01*
G01X-351696Y-1952564D01*
G01X-343259Y-1965991D01*
G01X-332046Y-1977204D01*
G01X-318619Y-1985641D01*
G01X-303651Y-1990879D01*
G01X-287893Y-1992654D01*
G01X-272135Y-1990879D01*
G01X-257168Y-1985641D01*
G01X-243741Y-1977204D01*
G01X-232528Y-1965991D01*
G01X-224091Y-1952564D01*
G01X-218854Y-1937597D01*
G01X-217078Y-1921839D01*
G01X-218854Y-1906081D01*
G01X-224091Y-1891113D01*
G01X-232528Y-1877686D01*
G01X-243741Y-1866473D01*
G01X-257168Y-1858037D01*
G01X-272135Y-1852799D01*
G01X-287893Y-1851024D01*
G01X-303651Y-1852799D01*
G01X-318619Y-1858037D01*
G01X-332046Y-1866473D01*
G01X-343259Y-1877686D01*
G01X-351696Y-1891113D01*
G01X-356933Y-1906081D01*
G01X-358708Y-1921839D01*
G01X-358708Y-1921839D01*
G01X-555324Y-1921839D01*
G01X-544392Y-1907884D01*
G01X-527873Y-1880559D01*
G01X-514769Y-1851442D01*
G01X-505269Y-1820958D01*
G01X-499514Y-1789552D01*
G01X-497586Y-1757680D01*
G01X-497586Y-1700169D01*
G01X-319052Y-1700169D01*
G01X-317973Y-1718107D01*
G01X-312931Y-1735356D01*
G01X-304177Y-1751050D01*
G01X-292151Y-1764404D01*
G01X-291705Y-1765011D01*
G01X-291560Y-1765263D01*
G01X-281941Y-1792155D01*
G01X-268937Y-1817584D01*
G01X-252766Y-1841125D01*
G01X-233697Y-1862387D01*
G01X-212047Y-1881015D01*
G01X-188178Y-1896699D01*
G01X-162488Y-1909177D01*
G01X-135404Y-1918242D01*
G01X-107378Y-1923742D01*
G01X-78877Y-1925585D01*
G01X69675Y-1925585D01*
G01X100588Y-1923772D01*
G01X111474Y-1921839D01*
G01X219294Y-1921839D01*
G01X221069Y-1937597D01*
G01X226307Y-1952564D01*
G01X234744Y-1965991D01*
G01X245957Y-1977204D01*
G01X259384Y-1985641D01*
G01X274351Y-1990879D01*
G01X290109Y-1992654D01*
G01X305867Y-1990879D01*
G01X320835Y-1985641D01*
G01X334262Y-1977204D01*
G01X345475Y-1965991D01*
G01X353911Y-1952564D01*
G01X359149Y-1937597D01*
G01X360924Y-1921839D01*
G01X359149Y-1906081D01*
G01X353911Y-1891113D01*
G01X345475Y-1877686D01*
G01X334262Y-1866473D01*
G01X320835Y-1858037D01*
G01X305867Y-1852799D01*
G01X290109Y-1851024D01*
G01X274351Y-1852799D01*
G01X259384Y-1858037D01*
G01X245957Y-1866473D01*
G01X234744Y-1877686D01*
G01X226307Y-1891113D01*
G01X221069Y-1906081D01*
G01X219294Y-1921839D01*
G01X219294Y-1921839D01*
G01X111474Y-1921839D01*
G01X131077Y-1918357D01*
G01X160723Y-1909415D01*
G01X189121Y-1897068D01*
G01X215881Y-1881486D01*
G01X240635Y-1862883D01*
G01X263045Y-1841512D01*
G01X282803Y-1817669D01*
G01X299638Y-1791679D01*
G01X313318Y-1763899D01*
G01X323657Y-1734710D01*
G01X323869Y-1734296D01*
G01X325208Y-1732112D01*
G01X326766Y-1729933D01*
G01X328342Y-1728023D01*
G01X329948Y-1726345D01*
G01X330514Y-1725823D01*
G01X342597Y-1712561D01*
G01X351688Y-1697095D01*
G01X357398Y-1680087D01*
G01X359482Y-1662268D01*
G01X357850Y-1644402D01*
G01X352573Y-1627256D01*
G01X343876Y-1611564D01*
G01X332133Y-1598001D01*
G01X317847Y-1587148D01*
G01X301632Y-1579471D01*
G01X284183Y-1575299D01*
G01X266249Y-1574811D01*
G01X248600Y-1578029D01*
G01X231992Y-1584814D01*
G01X217138Y-1594874D01*
G01X204675Y-1607780D01*
G01X195138Y-1622975D01*
G01X188937Y-1639810D01*
G01X186337Y-1657561D01*
G01X187449Y-1675467D01*
G01X192227Y-1692760D01*
G01X200465Y-1708697D01*
G01X200584Y-1710302D01*
G01X200549Y-1712448D01*
G01X200164Y-1717142D01*
G01X189082Y-1737996D01*
G01X174697Y-1756725D01*
G01X157407Y-1772810D01*
G01X137690Y-1785807D01*
G01X116091Y-1795356D01*
G01X93209Y-1801194D01*
G01X69675Y-1803157D01*
G01X-78877Y-1803157D01*
G01X-96911Y-1801498D01*
G01X-114340Y-1796574D01*
G01X-130577Y-1788552D01*
G01X-145077Y-1777701D01*
G01X-157353Y-1764386D01*
G01X-166992Y-1749053D01*
G01X-166992Y-1749053D01*
G01X-167482Y-1746797D01*
G01X-168471Y-1742855D01*
G01X-161670Y-1726222D01*
G01X-158740Y-1708492D01*
G01X-159827Y-1690554D01*
G01X-164879Y-1673308D01*
G01X-173641Y-1657619D01*
G01X-185674Y-1644271D01*
G01X-200374Y-1633936D01*
G01X-217006Y-1627130D01*
G01X-234735Y-1624195D01*
G01X-252673Y-1625279D01*
G01X-269920Y-1630326D01*
G01X-285612Y-1639083D01*
G01X-298963Y-1651113D01*
G01X-309302Y-1665811D01*
G01X-316112Y-1682441D01*
G01X-319052Y-1700169D01*
G01X-497586Y-1700169D01*
G01X-497586Y-967994D01*
G01X-387778Y-967994D01*
G01X-387778Y-1280860D01*
G01X-387779Y-1290958D01*
G01X-396696Y-1304799D01*
G01X-402601Y-1320168D01*
G01X-405246Y-1336419D01*
G01X-404520Y-1352867D01*
G01X-400452Y-1368821D01*
G01X-393215Y-1383610D01*
G01X-383112Y-1396611D01*
G01X-370570Y-1407276D01*
G01X-356114Y-1415158D01*
G01X-340355Y-1419925D01*
G01X-323954Y-1421376D01*
G01X-307603Y-1419449D01*
G01X-291989Y-1414227D01*
G01X-277768Y-1405928D01*
G01X-265541Y-1394903D01*
G01X-255820Y-1381614D01*
G01X-249015Y-1366622D01*
G01X-245413Y-1350556D01*
G01X-245164Y-1334094D01*
G01X-248280Y-1317927D01*
G01X-254629Y-1302736D01*
G01X-263944Y-1289160D01*
G01X-264243Y-1288342D01*
G01X-264625Y-1286933D01*
G01X-264966Y-1285170D01*
G01X-265205Y-1283265D01*
G01X-265338Y-1281152D01*
G01X-265351Y-1280320D01*
G01X-265351Y-1205304D01*
G01X-251142Y-1206861D01*
G01X-236929Y-1205336D01*
G01X-223374Y-1200800D01*
G01X-211106Y-1193464D01*
G01X-200696Y-1183668D01*
G01X-192628Y-1171869D01*
G01X-187277Y-1158614D01*
G01X-184891Y-1144521D01*
G01X-185582Y-1130243D01*
G01X-189317Y-1116446D01*
G01X-195923Y-1103770D01*
G01X-205093Y-1092805D01*
G01X-205093Y-691750D01*
G01X-45191Y-531848D01*
G01X-29729Y-535490D01*
G01X-13845Y-535351D01*
G01X1550Y-531436D01*
G01X15572Y-523972D01*
G01X27416Y-513386D01*
G01X36401Y-500287D01*
G01X36401Y-556762D01*
G01X20644Y-556276D01*
G01X5218Y-559525D01*
G01X-9005Y-566324D01*
G01X-21221Y-576289D01*
G01X-30738Y-588857D01*
G01X-37019Y-603316D01*
G01X-39692Y-618878D01*
G01X-38616Y-634632D01*
G01X-33850Y-649686D01*
G01X-25665Y-663189D01*
G01X-14522Y-674377D01*
G01X-1053Y-682618D01*
G01X3169Y-704282D01*
G01X4393Y-726319D01*
G01X2595Y-748316D01*
G01X-9602Y-757703D01*
G01X-19306Y-769649D01*
G01X-25993Y-783511D01*
G01X-29304Y-798541D01*
G01X-29060Y-813930D01*
G01X-25274Y-828847D01*
G01X-18151Y-842490D01*
G01X-18151Y-842490D01*
G01X-16427Y-1011914D01*
G01X-16427Y-1011914D01*
G01X-16826Y-1013152D01*
G01X-17569Y-1014646D01*
G01X-18676Y-1016509D01*
G01X-19968Y-1018398D01*
G01X-23034Y-1022299D01*
G01X-32431Y-1036361D01*
G01X-38726Y-1052059D01*
G01X-41646Y-1068718D01*
G01X-41066Y-1085621D01*
G01X-37012Y-1102041D01*
G01X-29657Y-1117271D01*
G01X-19317Y-1130656D01*
G01X-6439Y-1141619D01*
G01X8424Y-1149690D01*
G01X24632Y-1154521D01*
G01X41489Y-1155904D01*
G01X58268Y-1153779D01*
G01X74247Y-1148238D01*
G01X88740Y-1139520D01*
G01X101122Y-1127999D01*
G01X110861Y-1114171D01*
G01X117537Y-1098631D01*
G01X120864Y-1082049D01*
G01X120698Y-1065137D01*
G01X117046Y-1048623D01*
G01X110065Y-1033217D01*
G01X100057Y-1019584D01*
G01X98014Y-1017250D01*
G01X96432Y-1015238D01*
G01X95099Y-1013319D01*
G01X94100Y-1011645D01*
G01X93284Y-1009972D01*
G01X91577Y-842319D01*
G01X91577Y-842319D01*
G01X98987Y-827768D01*
G01X102614Y-811847D01*
G01X102240Y-795523D01*
G01X97888Y-779785D01*
G01X96250Y-775700D01*
G01X100226Y-749166D01*
G01X119900Y-766283D01*
G01X141513Y-780875D01*
G01X129267Y-787571D01*
G01X118496Y-796448D01*
G01X108873Y-808343D01*
G01X101903Y-821964D01*
G01X97884Y-836728D01*
G01X96989Y-852002D01*
G01X99256Y-867134D01*
G01X104588Y-881475D01*
G01X112756Y-894413D01*
G01X104588Y-907351D01*
G01X99256Y-921692D01*
G01X96989Y-936824D01*
G01X97884Y-952099D01*
G01X101903Y-966862D01*
G01X108873Y-980483D01*
G01X118496Y-992378D01*
G01X132070Y-1003062D01*
G01X147752Y-1010305D01*
G01X164687Y-1013714D01*
G01X181950Y-1013102D01*
G01X198600Y-1008503D01*
G01X213730Y-1000167D01*
G01X226514Y-988549D01*
G01X236254Y-974283D01*
G01X242420Y-958147D01*
G01X247475Y-958147D01*
G01X269537Y-956249D01*
G01X290949Y-950609D01*
G01X311084Y-941394D01*
G01X329348Y-928875D01*
G01X345205Y-913420D01*
G01X358188Y-895482D01*
G01X367916Y-875591D01*
G01X374102Y-854330D01*
G01X376566Y-832324D01*
G01X375233Y-810221D01*
G01X370144Y-788671D01*
G01X361449Y-768307D01*
G01X349402Y-749728D01*
G01X334358Y-733481D01*
G01X316759Y-720042D01*
G01X297124Y-709807D01*
G01X216891Y-676391D01*
G01X202937Y-669013D01*
G01X190564Y-659212D01*
G01X180186Y-647318D01*
G01X172154Y-633731D01*
G01X166735Y-618905D01*
G01X164113Y-603340D01*
G01X177574Y-599819D01*
G01X190096Y-593752D01*
G01X201204Y-585371D01*
G01X210474Y-574995D01*
G01X233054Y-596321D01*
G01X257554Y-615410D01*
G01X283753Y-632091D01*
G01X293172Y-644878D01*
G01X305361Y-655058D01*
G01X319622Y-662047D01*
G01X335135Y-665443D01*
G01X351012Y-665053D01*
G01X366340Y-660898D01*
G01X380239Y-653216D01*
G01X391914Y-642450D01*
G01X400692Y-629215D01*
G01X406071Y-614273D01*
G01X407742Y-598480D01*
G01X405609Y-582743D01*
G01X399794Y-567964D01*
G01X390632Y-554993D01*
G01X378647Y-544573D01*
G01X364528Y-537302D01*
G01X349085Y-533598D01*
G01X333204Y-533673D01*
G01X332475Y-533275D01*
G01X330703Y-532333D01*
G01X309322Y-517061D01*
G01X289939Y-499324D01*
G01X272835Y-479378D01*
G01X258260Y-457517D01*
G01X246428Y-434057D01*
G01X237509Y-409343D01*
G01X231635Y-383733D01*
G01X231448Y-381735D01*
G01X231360Y-380907D01*
G01X232479Y-378869D01*
G01X245724Y-382747D01*
G01X259485Y-383800D01*
G01X273166Y-381981D01*
G01X286174Y-377370D01*
G01X297946Y-370167D01*
G01X307972Y-360683D01*
G01X315818Y-349329D01*
G01X321144Y-336597D01*
G01X326945Y-350160D01*
G01X335600Y-362106D01*
G01X346681Y-371844D01*
G01X359640Y-378892D01*
G01X373836Y-382903D01*
G01X388568Y-383677D01*
G01X403106Y-381177D01*
G01X416733Y-375525D01*
G01X428773Y-367003D01*
G01X429309Y-366519D01*
G01X442108Y-374641D01*
G01X456417Y-379643D01*
G01X471488Y-381264D01*
G01X486533Y-379419D01*
G01X500766Y-374205D01*
G01X513443Y-365894D01*
G01X523900Y-354921D01*
G01X531592Y-341859D01*
G01X536115Y-327392D01*
G01X537234Y-312275D01*
G01X534890Y-297300D01*
G01X529206Y-283248D01*
G01X520479Y-270855D01*
G01X509164Y-260768D01*
G01X506792Y-259055D01*
G01X499564Y-207688D01*
G01X495337Y-155989D01*
G01X497231Y-153832D01*
G01X497961Y-152992D01*
G01X498505Y-152364D01*
G01X506929Y-139853D01*
G01X512310Y-125763D01*
G01X514371Y-110822D01*
G01X513005Y-95801D01*
G01X508282Y-81477D01*
G01X500447Y-68589D01*
G01X489905Y-57803D01*
G01X477199Y-49676D01*
G01X462986Y-44628D01*
G01X448001Y-42919D01*
G01X447950Y-27783D01*
G01X444469Y-13052D01*
G01X437737Y505D01*
G01X428107Y12183D01*
G01X427808Y12491D01*
G01X425529Y14639D01*
G01X425529Y33295D01*
G01X427499Y35419D01*
G01X427854Y35807D01*
G01X428521Y36548D01*
G01X437861Y49677D01*
G01X443759Y64672D01*
G01X445866Y80646D01*
G01X444059Y96658D01*
G01X438443Y111760D01*
G01X429351Y125063D01*
G01X417319Y135780D01*
G01X403057Y143278D01*
G01X387408Y147116D01*
G01X371295Y147066D01*
G01X355670Y143132D01*
G01X341455Y135545D01*
G01X328552Y142609D01*
G01X314409Y146655D01*
G01X299722Y147483D01*
G01X285214Y145053D01*
G01X271599Y139484D01*
G01X259546Y131051D01*
G01X257533Y134094D01*
G01X257783Y137711D01*
G01X257859Y139401D01*
G01X257873Y140033D01*
G01X257300Y151198D01*
G01X254859Y162109D01*
G01X250620Y172455D01*
G01X461122Y172455D01*
G01X463246Y170485D01*
G01X463634Y170130D01*
G01X464374Y169463D01*
G01X477631Y160054D01*
G01X492778Y154153D01*
G01X487153Y139021D01*
G01X485072Y123012D01*
G01X486642Y106945D01*
G01X491783Y91641D01*
G01X500232Y77885D01*
G01X511556Y66379D01*
G01X525177Y57712D01*
G01X540396Y52328D01*
G01X556437Y50503D01*
G01X571981Y50503D01*
G01X567931Y38107D01*
G01X565818Y35927D01*
G01X565004Y35060D01*
G01X564524Y34530D01*
G01X555219Y21667D01*
G01X549238Y6961D01*
G01X546924Y-8745D01*
G01X548409Y-24551D01*
G01X553609Y-39551D01*
G01X562224Y-52886D01*
G01X573762Y-63790D01*
G01X587561Y-71640D01*
G01X587561Y-457211D01*
G01X586236Y-480920D01*
G01X582278Y-504333D01*
G01X575736Y-527159D01*
G01X566691Y-549115D01*
G01X554144Y-579880D01*
G01X545332Y-611915D01*
G01X540379Y-644769D01*
G01X539354Y-677979D01*
G01X540268Y-741796D01*
G01X539363Y-805614D01*
G01X539314Y-807739D01*
G01X539314Y-863100D01*
G01X537353Y-888827D01*
G01X531516Y-913959D01*
G01X521937Y-937916D01*
G01X508838Y-960145D01*
G01X492521Y-980131D01*
G01X473363Y-997414D01*
G01X434877Y-1024628D01*
G01X394222Y-1048481D01*
G01X351691Y-1068801D01*
G01X307590Y-1085443D01*
G01X262238Y-1098285D01*
G01X214703Y-1109591D01*
G01X191268Y-1116974D01*
G01X169129Y-1127632D01*
G01X148741Y-1141346D01*
G01X130523Y-1157833D01*
G01X114848Y-1176756D01*
G01X102040Y-1197724D01*
G01X92361Y-1220309D01*
G01X86010Y-1244045D01*
G01X83117Y-1268445D01*
G01X68352Y-1587257D01*
G01X67304Y-1587257D01*
G01X59464Y-1573476D01*
G01X48575Y-1561950D01*
G01X35261Y-1553339D01*
G01X20283Y-1548136D01*
G01X4498Y-1546639D01*
G01X-11191Y-1548932D01*
G01X-25887Y-1554886D01*
G01X-38748Y-1564159D01*
G01X-49040Y-1576221D01*
G01X-56173Y-1590382D01*
G01X-59740Y-1605832D01*
G01X-59535Y-1621686D01*
G01X-55572Y-1637039D01*
G01X-48077Y-1651011D01*
G01X-55572Y-1664984D01*
G01X-59535Y-1680337D01*
G01X-59740Y-1696191D01*
G01X-56173Y-1711641D01*
G01X-49040Y-1725802D01*
G01X-38748Y-1737864D01*
G01X-25887Y-1747137D01*
G01X-11191Y-1753090D01*
G01X4498Y-1755384D01*
G01X20283Y-1753887D01*
G01X35261Y-1748684D01*
G01X48575Y-1740073D01*
G01X59464Y-1728547D01*
G01X67304Y-1714765D01*
G01X77295Y-1714765D01*
G01X97212Y-1713075D01*
G01X116558Y-1708050D01*
G01X134780Y-1699837D01*
G01X151357Y-1688668D01*
G01X165814Y-1674866D01*
G01X177737Y-1658823D01*
G01X186785Y-1641000D01*
G01X192699Y-1621907D01*
G01X195310Y-1602090D01*
G01X202110Y-1455253D01*
G01X430157Y-1455253D01*
G01X431227Y-1470134D01*
G01X435597Y-1484400D01*
G01X443047Y-1497327D01*
G01X453200Y-1508261D01*
G01X465540Y-1516647D01*
G01X479443Y-1522061D01*
G01X494205Y-1524229D01*
G01X509078Y-1523041D01*
G01X523308Y-1518557D01*
G01X532621Y-1513090D01*
G01X772236Y-1513090D01*
G01X772236Y-1534933D01*
G01X776250Y-1556403D01*
G01X784140Y-1576771D01*
G01X795639Y-1595342D01*
G01X810354Y-1611483D01*
G01X827785Y-1624647D01*
G01X847337Y-1634383D01*
G01X868346Y-1640360D01*
G01X890095Y-1642375D01*
G01X911845Y-1640360D01*
G01X932853Y-1634383D01*
G01X952406Y-1624647D01*
G01X969837Y-1611483D01*
G01X984552Y-1595342D01*
G01X996050Y-1576771D01*
G01X1003941Y-1556403D01*
G01X1007954Y-1534933D01*
G01X1007954Y-1513090D01*
G01X1003941Y-1491620D01*
G01X996050Y-1471252D01*
G01X984552Y-1452681D01*
G01X969837Y-1436539D01*
G01X952406Y-1423376D01*
G01X932853Y-1413640D01*
G01X911845Y-1407663D01*
G01X890095Y-1405647D01*
G01X890095Y-1405647D01*
G01X868346Y-1407663D01*
G01X847337Y-1413640D01*
G01X827785Y-1423376D01*
G01X810354Y-1436539D01*
G01X795639Y-1452681D01*
G01X784140Y-1471252D01*
G01X776250Y-1491620D01*
G01X772236Y-1513090D01*
G01X532621Y-1513090D01*
G01X536175Y-1511004D01*
G01X547028Y-1500765D01*
G01X555315Y-1488358D01*
G01X560618Y-1474412D01*
G01X562668Y-1459633D01*
G01X563060Y-1458727D01*
G01X563060Y-1458727D01*
G01X706012Y-1295197D01*
G01X738488Y-1259090D01*
G01X772236Y-1259090D01*
G01X772236Y-1280933D01*
G01X776250Y-1302403D01*
G01X784140Y-1322771D01*
G01X795639Y-1341342D01*
G01X810354Y-1357483D01*
G01X827785Y-1370647D01*
G01X847337Y-1380383D01*
G01X868346Y-1386360D01*
G01X890095Y-1388375D01*
G01X911845Y-1386360D01*
G01X932853Y-1380383D01*
G01X952406Y-1370647D01*
G01X969837Y-1357483D01*
G01X984552Y-1341342D01*
G01X996050Y-1322771D01*
G01X1003941Y-1302403D01*
G01X1007954Y-1280933D01*
G01X1007954Y-1259090D01*
G01X1003941Y-1237620D01*
G01X996050Y-1217252D01*
G01X984552Y-1198681D01*
G01X969837Y-1182539D01*
G01X952406Y-1169376D01*
G01X932853Y-1159640D01*
G01X911845Y-1153663D01*
G01X890095Y-1151647D01*
G01X890095Y-1151647D01*
G01X868346Y-1153663D01*
G01X847337Y-1159640D01*
G01X827785Y-1169376D01*
G01X810354Y-1182539D01*
G01X795639Y-1198681D01*
G01X784140Y-1217252D01*
G01X776250Y-1237620D01*
G01X772236Y-1259090D01*
G01X738488Y-1259090D01*
G01X851264Y-1133707D01*
G01X853350Y-1131583D01*
G01X854105Y-1130911D01*
G01X857508Y-1131271D01*
G01X870630Y-1133172D01*
G01X872256Y-1133369D01*
G01X878752Y-1134009D01*
G01X880747Y-1134149D01*
G01X886344Y-1134386D01*
G01X888533Y-1134411D01*
G01X890458Y-1134375D01*
G01X894200Y-1134304D01*
G01X894534Y-1134298D01*
G01X896718Y-1134190D01*
G01X902254Y-1133749D01*
G01X922727Y-1129770D01*
G01X942185Y-1122260D01*
G01X960023Y-1111452D01*
G01X975688Y-1097683D01*
G01X988695Y-1081379D01*
G01X998639Y-1063045D01*
G01X1005212Y-1043252D01*
G01X1008210Y-1022612D01*
G01X1007541Y-1001766D01*
G01X1003224Y-981361D01*
G01X995395Y-962030D01*
G01X984295Y-944372D01*
G01X970269Y-928936D01*
G01X953734Y-916228D01*
G01X935226Y-906617D01*
G01X915318Y-900404D01*
G01X894629Y-897779D01*
G01X873801Y-898825D01*
G01X853479Y-903510D01*
G01X834294Y-911687D01*
G01X816842Y-923103D01*
G01X801663Y-937404D01*
G01X789229Y-954146D01*
G01X779925Y-972811D01*
G01X774040Y-992818D01*
G01X771757Y-1013547D01*
G01X771774Y-1019175D01*
G01X771847Y-1021363D01*
G01X771865Y-1021635D01*
G01X772120Y-1025596D01*
G01X772235Y-1027375D01*
G01X772445Y-1029582D01*
G01X773153Y-1035157D01*
G01X773466Y-1037165D01*
G01X774656Y-1043601D01*
G01X775003Y-1045255D01*
G01X778037Y-1058205D01*
G01X778679Y-1061503D01*
G01X778467Y-1061796D01*
G01X776790Y-1063832D01*
G01X776309Y-1064365D01*
G01X776309Y-1064365D01*
G01X629809Y-1227232D01*
G01X485633Y-1392161D01*
G01X485633Y-1392161D01*
G01X485225Y-1392435D01*
G01X485225Y-1392435D01*
G01X484753Y-1392708D01*
G01X470452Y-1396964D01*
G01X457466Y-1404311D01*
G01X446452Y-1414376D01*
G01X437968Y-1426649D01*
G01X432443Y-1440508D01*
G01X430157Y-1455253D01*
G01X202110Y-1455253D01*
G01X207685Y-1334878D01*
G01X222778Y-1342750D01*
G01X239119Y-1347519D01*
G01X256078Y-1349000D01*
G01X272998Y-1347135D01*
G01X289227Y-1341997D01*
G01X304137Y-1333784D01*
G01X317154Y-1322813D01*
G01X354728Y-1315447D01*
G01X391477Y-1304695D01*
G01X427096Y-1290646D01*
G01X461291Y-1273417D01*
G01X493777Y-1253151D01*
G01X524286Y-1230014D01*
G01X552565Y-1204199D01*
G01X696029Y-1060736D01*
G01X713765Y-1040943D01*
G01X729233Y-1019330D01*
G01X742246Y-996156D01*
G01X752649Y-971700D01*
G01X760317Y-946253D01*
G01X770496Y-933604D01*
G01X777970Y-919191D01*
G01X782443Y-903584D01*
G01X783738Y-887401D01*
G01X781805Y-871281D01*
G01X776720Y-855863D01*
G01X768683Y-841756D01*
G01X767792Y-776396D01*
G01X766152Y-751090D01*
G01X772236Y-751090D01*
G01X772236Y-772933D01*
G01X776250Y-794403D01*
G01X784140Y-814771D01*
G01X795639Y-833342D01*
G01X810354Y-849483D01*
G01X827785Y-862647D01*
G01X847337Y-872383D01*
G01X868346Y-878360D01*
G01X890095Y-880375D01*
G01X911845Y-878360D01*
G01X932853Y-872383D01*
G01X952406Y-862647D01*
G01X969837Y-849483D01*
G01X984552Y-833342D01*
G01X996050Y-814771D01*
G01X1003941Y-794403D01*
G01X1007954Y-772933D01*
G01X1007954Y-751090D01*
G01X1003941Y-729620D01*
G01X996050Y-709252D01*
G01X984552Y-690681D01*
G01X969837Y-674539D01*
G01X952406Y-661376D01*
G01X932853Y-651640D01*
G01X911845Y-645663D01*
G01X890095Y-643647D01*
G01X890095Y-643647D01*
G01X868346Y-645663D01*
G01X847337Y-651640D01*
G01X827785Y-661376D01*
G01X810354Y-674539D01*
G01X795639Y-690681D01*
G01X784140Y-709252D01*
G01X776250Y-729620D01*
G01X772236Y-751090D01*
G01X766152Y-751090D01*
G01X763563Y-711166D01*
G01X762177Y-696781D01*
G01X768660Y-681572D01*
G01X771889Y-665358D01*
G01X771728Y-648827D01*
G01X768183Y-632679D01*
G01X761405Y-617600D01*
G01X751681Y-604229D01*
G01X739424Y-593134D01*
G01X725154Y-584786D01*
G01X709477Y-579539D01*
G01X693056Y-577615D01*
G01X702628Y-548385D01*
G01X709521Y-518411D01*
G01X712430Y-497090D01*
G01X772236Y-497090D01*
G01X772236Y-518933D01*
G01X776250Y-540403D01*
G01X784140Y-560771D01*
G01X795639Y-579342D01*
G01X810354Y-595483D01*
G01X827785Y-608647D01*
G01X847337Y-618383D01*
G01X868346Y-624360D01*
G01X890095Y-626375D01*
G01X911845Y-624360D01*
G01X932853Y-618383D01*
G01X952406Y-608647D01*
G01X969837Y-595483D01*
G01X984552Y-579342D01*
G01X996050Y-560771D01*
G01X1003941Y-540403D01*
G01X1007954Y-518933D01*
G01X1007954Y-497090D01*
G01X1003941Y-475620D01*
G01X996050Y-455252D01*
G01X984552Y-436681D01*
G01X969837Y-420539D01*
G01X952406Y-407376D01*
G01X932853Y-397640D01*
G01X911845Y-391663D01*
G01X890095Y-389647D01*
G01X890095Y-389647D01*
G01X868346Y-391663D01*
G01X847337Y-397640D01*
G01X827785Y-407376D01*
G01X810354Y-420539D01*
G01X795639Y-436681D01*
G01X784140Y-455252D01*
G01X776250Y-475620D01*
G01X772236Y-497090D01*
G01X712430Y-497090D01*
G01X713679Y-487937D01*
G01X715069Y-457211D01*
G01X715069Y-243090D01*
G01X772236Y-243090D01*
G01X772236Y-264933D01*
G01X776250Y-286403D01*
G01X784140Y-306771D01*
G01X795639Y-325342D01*
G01X810354Y-341483D01*
G01X827785Y-354647D01*
G01X847337Y-364383D01*
G01X868346Y-370360D01*
G01X890095Y-372375D01*
G01X911845Y-370360D01*
G01X932853Y-364383D01*
G01X952406Y-354647D01*
G01X969837Y-341483D01*
G01X984552Y-325342D01*
G01X996050Y-306771D01*
G01X1003941Y-286403D01*
G01X1007954Y-264933D01*
G01X1007954Y-243090D01*
G01X1003941Y-221620D01*
G01X996050Y-201252D01*
G01X984552Y-182681D01*
G01X969837Y-166539D01*
G01X952406Y-153376D01*
G01X932853Y-143640D01*
G01X911845Y-137663D01*
G01X890095Y-135647D01*
G01X890095Y-135647D01*
G01X868346Y-137663D01*
G01X847337Y-143640D01*
G01X827785Y-153376D01*
G01X810354Y-166539D01*
G01X795639Y-182681D01*
G01X784140Y-201252D01*
G01X776250Y-221620D01*
G01X772236Y-243090D01*
G01X715069Y-243090D01*
G01X715069Y-71640D01*
G01X729181Y-63558D01*
G01X740901Y-52284D01*
G01X749525Y-38497D01*
G01X754534Y-23025D01*
G01X755627Y-6800D01*
G01X752738Y9203D01*
G01X751967Y10910D01*
G01X772236Y10910D01*
G01X772236Y-10933D01*
G01X776250Y-32403D01*
G01X784140Y-52771D01*
G01X795639Y-71342D01*
G01X810354Y-87483D01*
G01X827785Y-100647D01*
G01X847337Y-110383D01*
G01X868346Y-116360D01*
G01X890095Y-118375D01*
G01X911845Y-116360D01*
G01X932853Y-110383D01*
G01X952406Y-100647D01*
G01X969837Y-87483D01*
G01X984552Y-71342D01*
G01X996050Y-52771D01*
G01X1003941Y-32403D01*
G01X1007954Y-10933D01*
G01X1007954Y10910D01*
G01X1003941Y32380D01*
G01X996050Y52748D01*
G01X984552Y71319D01*
G01X969837Y87461D01*
G01X952406Y100624D01*
G01X932853Y110360D01*
G01X911845Y116337D01*
G01X890095Y118353D01*
G01X890095Y118353D01*
G01X868346Y116337D01*
G01X847337Y110360D01*
G01X827785Y100624D01*
G01X810354Y87461D01*
G01X795639Y71319D01*
G01X784140Y52748D01*
G01X776250Y32380D01*
G01X772236Y10910D01*
G01X751967Y10910D01*
G01X746042Y24022D01*
G01X735940Y36766D01*
G01X734710Y38048D01*
G01X732168Y47078D01*
G01X727846Y55404D01*
G01X721924Y62679D01*
G01X715069Y69534D01*
G01X715069Y223018D01*
G01X713719Y242797D01*
G01X709693Y262209D01*
G01X703065Y280894D01*
G01X693960Y298505D01*
G01X682545Y314715D01*
G01X764352Y314715D01*
G01X774450Y304617D01*
G01X774585Y303377D01*
G01X774722Y300284D01*
G01X774640Y294148D01*
G01X772763Y269987D01*
G01X772734Y269594D01*
G01X772703Y269125D01*
G01X771876Y248145D01*
G01X774768Y227349D01*
G01X781289Y207391D01*
G01X791235Y188899D01*
G01X804291Y172456D01*
G01X820047Y158578D01*
G01X838007Y147702D01*
G01X857606Y140171D01*
G01X878228Y136221D01*
G01X899223Y135977D01*
G01X919930Y139446D01*
G01X939699Y146520D01*
G01X957907Y156975D01*
G01X973982Y170483D01*
G01X987416Y186619D01*
G01X997789Y204875D01*
G01X1004772Y224676D01*
G01X1008147Y245399D01*
G01X1007808Y266393D01*
G01X1003764Y286996D01*
G01X996143Y306561D01*
G01X985186Y324471D01*
G01X971236Y340164D01*
G01X954734Y353145D01*
G01X936197Y363005D01*
G01X916209Y369436D01*
G01X895400Y372234D01*
G01X874424Y371311D01*
G01X855094Y369709D01*
G01X845619Y369346D01*
G01X842232Y369408D01*
G01X839489Y369612D01*
G01X828112Y380989D01*
G01X839467Y392343D01*
G01X840707Y392478D01*
G01X843800Y392615D01*
G01X849936Y392533D01*
G01X874097Y390656D01*
G01X874490Y390628D01*
G01X874959Y390596D01*
G01X895939Y389769D01*
G01X916735Y392661D01*
G01X936693Y399183D01*
G01X955185Y409128D01*
G01X971628Y422184D01*
G01X985506Y437940D01*
G01X996382Y455900D01*
G01X1003913Y475499D01*
G01X1007863Y496121D01*
G01X1008107Y517116D01*
G01X1004637Y537824D01*
G01X997564Y557593D01*
G01X987108Y575801D01*
G01X973600Y591875D01*
G01X957465Y605310D01*
G01X939209Y615682D01*
G01X919408Y622665D01*
G01X898685Y626040D01*
G01X877691Y625701D01*
G01X857088Y621657D01*
G01X837523Y614037D01*
G01X819613Y603079D01*
G01X803920Y589130D01*
G01X790939Y572627D01*
G01X781078Y554090D01*
G01X774648Y534103D01*
G01X771850Y513293D01*
G01X772773Y492317D01*
G01X774374Y472987D01*
G01X774738Y463512D01*
G01X774676Y460126D01*
G01X774472Y457382D01*
G01X764352Y447263D01*
G01X687195Y447263D01*
G01X660021Y474437D01*
G01X650499Y481743D01*
G01X639411Y486336D01*
G01X627512Y487903D01*
G01X53198Y487903D01*
G01X48864Y492237D01*
G01X40795Y498669D01*
G01X31495Y503138D01*
G01X21432Y505421D01*
G01X19004Y507673D01*
G01X18617Y508027D01*
G01X17876Y508694D01*
G01X7334Y516556D01*
G01X-4553Y522184D01*
G01X-17316Y525355D01*
G01X-30455Y525944D01*
G01X-43451Y523930D01*
G01X-55794Y519390D01*
G01X-66998Y512504D01*
G01X-76624Y503542D01*
G01X-84291Y492857D01*
G01X-89699Y480869D01*
G01X-90083Y479814D01*
G01X-90679Y478028D01*
G01X-91194Y476341D01*
G01X-111554Y458848D01*
G01X-129346Y438749D01*
G01X-144241Y416417D01*
G01X-155960Y392268D01*
G01X-164287Y366749D01*
G01X-169067Y340335D01*
G01X-170211Y313517D01*
G01X-167698Y286792D01*
G01X-161574Y260657D01*
G01X-151954Y235597D01*
G01X-139015Y212078D01*
G01X-122999Y190537D01*
G01X-104202Y171374D01*
G01X-82975Y154944D01*
G01X-59711Y141553D01*
G01X-35695Y132006D01*
G01X-10515Y126188D01*
G01X15255Y124234D01*
G01X23347Y122625D01*
G01X30208Y118041D01*
G01X34792Y111181D01*
G01X36401Y103088D01*
G01X36401Y-438926D01*
G01X27548Y-425978D01*
G01X15901Y-415472D01*
G01X2111Y-407997D01*
G01X-13049Y-403971D01*
G01X-28730Y-403619D01*
G01X-44056Y-406961D01*
G01X-58167Y-413810D01*
G01X-70274Y-423783D01*
G01X-79699Y-436321D01*
G01X-108220Y-464843D01*
G01X-101167Y-436513D01*
G01X-96809Y-407646D01*
G01X-94372Y-405201D01*
G01X-93474Y-404267D01*
G01X-92956Y-403708D01*
G01X-91880Y-402543D01*
G01X-83048Y-390113D01*
G01X-77287Y-375995D01*
G01X-74901Y-360935D01*
G01X-76017Y-345728D01*
G01X-80576Y-331178D01*
G01X-88336Y-318052D01*
G01X-98887Y-307045D01*
G01X-111672Y-298747D01*
G01X-126013Y-293587D01*
G01X-141154Y-291837D01*
G01X-156294Y-293591D01*
G01X-170634Y-298755D01*
G01X-183416Y-307056D01*
G01X-193965Y-318057D01*
G01X-206937Y-315166D01*
G01X-220224Y-314919D01*
G01X-233294Y-317327D01*
G01X-242016Y-293632D01*
G01X-253593Y-271193D01*
G01X-267848Y-250352D01*
G01X-284565Y-231429D01*
G01X-334014Y-181981D01*
G01X-335407Y-170992D01*
G01X-335407Y-170992D01*
G01X-316448Y20436D01*
G01X-293699Y211451D01*
G01X-267169Y401978D01*
G01X-257665Y414821D01*
G01X-251144Y429406D01*
G01X-247908Y445051D01*
G01X-248111Y461027D01*
G01X-251741Y476585D01*
G01X-258630Y491000D01*
G01X-268456Y503598D01*
G01X-280759Y513791D01*
G01X-294965Y521101D01*
G01X-310410Y525188D01*
G01X-326372Y525861D01*
G01X-342106Y523088D01*
G01X-356877Y516998D01*
G01X-369994Y507877D01*
G01X-380844Y496151D01*
G01X-388922Y482366D01*
G01X-393848Y467168D01*
G01X-395394Y451267D01*
G01X-393486Y435404D01*
G01X-388215Y420322D01*
G01X-413670Y238303D01*
G01X-435716Y55839D01*
G01X-454346Y-127005D01*
G01X-454346Y-127005D01*
G01X-491411Y-133692D01*
G01X-527558Y-144269D01*
G01X-575689Y-162615D01*
G01X-622782Y-183478D01*
G01X-668708Y-206799D01*
G01X-713338Y-232515D01*
G01X-727630Y-239775D01*
G01X-742887Y-244695D01*
G01X-758728Y-247149D01*
G01X-761651Y-243642D01*
G01X-765491Y-238427D01*
G01X-768920Y-233084D01*
G01X-770891Y-229562D01*
G01X-772497Y-226243D01*
G01X-773072Y-224845D01*
G01X-773529Y-223520D01*
G01X-773624Y-223191D01*
G01X-780800Y-203627D01*
G01X-791296Y-185624D01*
G01X-804787Y-169742D01*
G01X-820853Y-156471D01*
G01X-838998Y-146224D01*
G01X-858659Y-139317D01*
G01X-879227Y-135966D01*
G01X-900063Y-136274D01*
G01X-920523Y-140231D01*
G01X-939972Y-147714D01*
G01X-957806Y-158493D01*
G01X-973474Y-172232D01*
G01X-986490Y-188506D01*
G01X-996445Y-206817D01*
G01X-1003034Y-226591D01*
G01X-1006053Y-247213D01*
G01X-1005409Y-268046D01*
G01X-1001122Y-288442D01*
G01X-993323Y-307771D01*
G01X-982256Y-325432D01*
G01X-968264Y-340879D01*
G01X-951779Y-353633D01*
G01X-933313Y-363297D01*
G01X-913438Y-369574D01*
G01X-892770Y-372268D01*
G01X-871951Y-371295D01*
G01X-865083Y-370154D01*
G01X-864770Y-370102D01*
G01X-862605Y-369667D01*
G01X-857000Y-368362D01*
G01X-854952Y-367821D01*
G01X-848528Y-365919D01*
G01X-846402Y-365216D01*
G01X-833173Y-360381D01*
G01X-832048Y-359985D01*
G01X-810892Y-365372D01*
G01X-787260Y-368867D01*
G01X-763390Y-369827D01*
G01X-739554Y-368240D01*
G01X-756919Y-394099D01*
G01X-772070Y-421315D01*
G01X-784902Y-449698D01*
G01X-796799Y-432448D01*
G01X-811551Y-417567D01*
G01X-828696Y-405521D01*
G01X-847696Y-396686D01*
G01X-867957Y-391341D01*
G01X-888842Y-389651D01*
G01X-909698Y-391671D01*
G01X-929872Y-397337D01*
G01X-948730Y-406472D01*
G01X-965682Y-418788D01*
G01X-980196Y-433901D01*
G01X-991818Y-451336D01*
G01X-1000184Y-470548D01*
G01X-1005030Y-490933D01*
G01X-1006206Y-511854D01*
G01X-1003675Y-532655D01*
G01X-997515Y-552683D01*
G01X-987921Y-571311D01*
G01X-987921Y-698712D01*
G01X-995827Y-713403D01*
G01X-1001589Y-729059D01*
G01X-1005093Y-745370D01*
G01X-1006269Y-762011D01*
G01X-1005093Y-778653D01*
G01X-1001589Y-794964D01*
G01X-995827Y-810620D01*
G01X-987921Y-825311D01*
G01X-987921Y-952752D01*
G01X-997146Y-970495D01*
G01X-1003253Y-989538D01*
G01X-1006066Y-1009337D01*
G01X-1005508Y-1029327D01*
G01X-1001591Y-1048938D01*
G01X-994430Y-1067610D01*
G01X-987921Y-1079311D01*
G01X-987921Y-1206816D01*
G01X-996406Y-1222829D01*
G01X-1002347Y-1239949D01*
G01X-1005607Y-1257776D01*
G01X-1006108Y-1275891D01*
G01X-1003839Y-1293871D01*
G01X-997660Y-1314280D01*
G01X-987921Y-1333250D01*
G01X-987921Y-1460831D01*
G01X-997839Y-1480286D01*
G01X-1004017Y-1501230D01*
G01X-1006244Y-1522953D01*
G01X-1004444Y-1544716D01*
G01X-1000791Y-1559574D01*
G01X-995252Y-1573837D01*
G01X-987921Y-1587266D01*
G01X-987921Y-1714712D01*
G01X-997311Y-1732841D01*
G01X-1003446Y-1752315D01*
G01X-1006143Y-1772553D01*
G01X-1005322Y-1792953D01*
G01X-1000809Y-1813529D01*
G01X-992720Y-1832978D01*
G01X-981313Y-1850686D01*
G01X-966948Y-1866092D01*
G01X-950079Y-1878708D01*
G01X-931242Y-1888135D01*
G01X-911032Y-1894073D01*
G01X-890089Y-1896336D01*
G01X-869077Y-1894851D01*
G01X-848661Y-1889666D01*
G01X-829487Y-1880944D01*
G01X-812163Y-1868962D01*
G01X-797236Y-1854099D01*
G01X-786856Y-1839649D01*
G01X-778759Y-1823807D01*
G01X-770627Y-1808391D01*
G01X-767295Y-1802937D01*
G01X-765547Y-1800446D01*
G01X-764879Y-1799628D01*
G01X-762231Y-1798523D01*
G01X-729982Y-1782723D01*
G01X-699687Y-1763440D01*
G01X-671721Y-1740913D01*
G01X-646428Y-1715419D01*
G01X-624122Y-1687276D01*
G01X-605079Y-1656830D01*
G01X-589534Y-1624457D01*
G01X-589534Y-1757680D01*
G01X-591289Y-1782224D01*
G01X-596520Y-1806269D01*
G01X-605119Y-1829325D01*
G01X-616912Y-1850922D01*
G01X-631659Y-1870621D01*
G01X-649059Y-1888021D01*
G01X-668758Y-1902768D01*
G01X-690355Y-1914561D01*
G01X-713411Y-1923160D01*
G01X-737456Y-1928391D01*
G01X-762000Y-1930146D01*
G01X-932677Y-1930146D01*
G01X-943856Y-1920834D01*
G01X-956797Y-1914185D01*
G01X-970877Y-1910519D01*
G01X-985418Y-1910013D01*
G01X-999719Y-1912691D01*
G01X-1013091Y-1918424D01*
G01X-1013091Y512917D01*
G01X-1008022Y512917D01*
G01X-1007017Y491840D01*
G01X-1002287Y471276D01*
G01X-993980Y451878D01*
G01X-982360Y434264D01*
G01X-967798Y418993D01*
G01X-950755Y406551D01*
G01X-931774Y397332D01*
G01X-911458Y391630D01*
G01X-890452Y389627D01*
G01X-869424Y391385D01*
G01X-849042Y396849D01*
G01X-829955Y405845D01*
G01X-812768Y418087D01*
G01X-811572Y419061D01*
G01X-810043Y420380D01*
G01X-804320Y425603D01*
G01X-803149Y426721D01*
G01X-791428Y438433D01*
G01X-788837Y440838D01*
G01X-787951Y441571D01*
G01X-775246Y429627D01*
G01X-764904Y415587D01*
G01X-757264Y399911D01*
G01X-752578Y383115D01*
G01X-750999Y365749D01*
G01X-750999Y246236D01*
G01X-768435Y262374D01*
G01X-768435Y262374D01*
G01X-770679Y267893D01*
G01X-773521Y276314D01*
G01X-777871Y292600D01*
G01X-784491Y308103D01*
G01X-793246Y322509D01*
G01X-806778Y338376D01*
G01X-822884Y351622D01*
G01X-841065Y361838D01*
G01X-860755Y368705D01*
G01X-881345Y372011D01*
G01X-902196Y371652D01*
G01X-922660Y367642D01*
G01X-942104Y360102D01*
G01X-959923Y349269D01*
G01X-975564Y335477D01*
G01X-988544Y319155D01*
G01X-998458Y300808D01*
G01X-1004999Y281007D01*
G01X-1007933Y260357D01*
G01X-1007199Y239512D01*
G01X-1002818Y219120D01*
G01X-994928Y199813D01*
G01X-983772Y182189D01*
G01X-969698Y166797D01*
G01X-953141Y154112D01*
G01X-934615Y144529D01*
G01X-914695Y138345D01*
G01X-894000Y135752D01*
G01X-873170Y136830D01*
G01X-852853Y141546D01*
G01X-833678Y149754D01*
G01X-828669Y152609D01*
G01X-813499Y161289D01*
G01X-807606Y164405D01*
G01X-805392Y165392D01*
G01X-800614Y153947D01*
G01X-797699Y141892D01*
G01X-796719Y129529D01*
G01X-794956Y102641D01*
G01X-789700Y76213D01*
G01X-781038Y50698D01*
G01X-769121Y26532D01*
G01X-754151Y4127D01*
G01X-736385Y-16131D01*
G01X-716126Y-33897D01*
G01X-693722Y-48867D01*
G01X-669555Y-60785D01*
G01X-644040Y-69446D01*
G01X-617612Y-74703D01*
G01X-590725Y-76465D01*
G01X-585358Y-76465D01*
G01X-583234Y-78435D01*
G01X-582846Y-78790D01*
G01X-582106Y-79457D01*
G01X-568771Y-88908D01*
G01X-553530Y-94810D01*
G01X-537308Y-96805D01*
G01X-521091Y-94773D01*
G01X-505863Y-88835D01*
G01X-492551Y-79353D01*
G01X-481962Y-66903D01*
G01X-474739Y-52242D01*
G01X-471322Y-36259D01*
G01X-471918Y-19925D01*
G01X-476491Y-4234D01*
G01X-484762Y9862D01*
G01X-475781Y23178D01*
G01X-470265Y38262D01*
G01X-468537Y54230D01*
G01X-470698Y70145D01*
G01X-476623Y85073D01*
G01X-485962Y98140D01*
G01X-498169Y108578D01*
G01X-512528Y115775D01*
G01X-528195Y119308D01*
G01X-544253Y118972D01*
G01X-559759Y114785D01*
G01X-573803Y106992D01*
G01X-575162Y106028D01*
G01X-595237Y114973D01*
G01X-613420Y127316D01*
G01X-629144Y142670D01*
G01X-641915Y160556D01*
G01X-651334Y180412D01*
G01X-657106Y201618D01*
G01X-659051Y223509D01*
G01X-659051Y365749D01*
G01X-660982Y392642D01*
G01X-666736Y418983D01*
G01X-676195Y444231D01*
G01X-689164Y467869D01*
G01X-705378Y489412D01*
G01X-724503Y508416D01*
G01X-746148Y524493D01*
G01X-769868Y537313D01*
G01X-771214Y539058D01*
G01X-774869Y544514D01*
G01X-781554Y555963D01*
G01X-791936Y574626D01*
G01X-805503Y591119D01*
G01X-821609Y604756D01*
G01X-839881Y615317D01*
G01X-859738Y622465D01*
G01X-880548Y625973D01*
G01X-901651Y625731D01*
G01X-922376Y621746D01*
G01X-942063Y614143D01*
G01X-960088Y603166D01*
G01X-975877Y589163D01*
G01X-988928Y572579D01*
G01X-998828Y553940D01*
G01X-1005260Y533840D01*
G01X-1008022Y512917D01*
G01X-1013091Y512917D01*
G01X-1013091Y934709D01*
G01X1015281Y934709D01*
G01X1015281Y-2326811D01*
G01X1013578Y-2350633D01*
G01X1008501Y-2373969D01*
G01X1000155Y-2396346D01*
G01X988709Y-2417307D01*
G01X974397Y-2436426D01*
G01X957510Y-2453313D01*
G01X938391Y-2467625D01*
G01X917430Y-2479071D01*
G01X895054Y-2487417D01*
G01X871717Y-2492493D01*
G01X847895Y-2494197D01*
G01X-845705Y-2494197D01*
G01X-869526Y-2492493D01*
G01X-892863Y-2487417D01*
G01X-915239Y-2479071D01*
G01X-936200Y-2467625D01*
G01X-955319Y-2453313D01*
G01X-972207Y-2436426D01*
G01X-986519Y-2417307D01*
G01X-997964Y-2396346D01*
G01X-1006310Y-2373969D01*
G01X-1011387Y-2350633D01*
G01X-1013091Y-2326811D01*
G37*
G54D10*
G01X-1013091Y-2326811D02*
G01X-1013091Y-2033816D01*
G03X-932677Y-2022094I32651J57696D01*
G01X-762000Y-2022094D01*
G03X-497586Y-1757680I0J264414D01*
G01X-497586Y-967994D01*
G01X-387778Y-967994D01*
G01X-387778Y-1280860D01*
G01X-387779Y-1290958D01*
G03X-323954Y-1421376I62659J-50162D01*
G03X-263944Y-1289160I-1166J80256D01*
G01X-264243Y-1288342D01*
G01X-264625Y-1286933D01*
G01X-264966Y-1285170D01*
G01X-265205Y-1283265D01*
G01X-265338Y-1281152D01*
G01X-265351Y-1280320D01*
G01X-265351Y-1205304D01*
G03X-192628Y-1171869I14284J64737D01*
G03X-205093Y-1092805I-58439J31301D01*
G01X-205093Y-691750D01*
G01X-45191Y-531848D01*
G03X36401Y-500287I22824J62241D01*
G01X36401Y-556762D01*
G03X-37019Y-603316I-9906J-65550D01*
G03X-1053Y-682618I63642J-18944D01*
G02X2595Y-748316I-155725J-41597D01*
G03X-18151Y-842490I34061J-56875D01*
G03X-16427Y-1011914I11993843J37299D01*
G01X-16427Y-1011914D01*
G01X-16826Y-1013152D01*
G01X-17569Y-1014646D01*
G01X-18676Y-1016509D01*
G01X-19968Y-1018398D01*
G01X-23034Y-1022299D01*
G03X41489Y-1155904I62724J-52091D01*
G03X100057Y-1019584I-1798J81514D01*
G01X98014Y-1017250D01*
G01X96432Y-1015238D01*
G01X95099Y-1013319D01*
G01X94100Y-1011645D01*
G01X93284Y-1009972D01*
G02X91577Y-842319I11882409J204781D01*
G01X91577Y-842319D01*
G03X97888Y-779785I-54922J37128D01*
G01X96250Y-775700D01*
G03X100226Y-749166I-253029J51484D01*
G03X141513Y-780875I149784J152294D01*
G03X118496Y-796448I29203J-67958D01*
G03X112756Y-894413I52384J-52220D01*
G03X118496Y-992378I58124J-45745D01*
G03X242420Y-958147I52220J52384D01*
G01X247475Y-958147D01*
G03X297124Y-709807I0J129133D01*
G01X216891Y-676391D01*
G02X164113Y-603340I33119J79520D01*
G03X210474Y-574995I-11247J70482D01*
G03X283753Y-632091I235756J227003D01*
G03X400692Y-629215I57702J32640D01*
G03X333204Y-533673I-59237J29764D01*
G01X332475Y-533275D01*
G01X330703Y-532333D01*
G02X231635Y-383733I115527J184342D01*
G01X231448Y-381735D01*
G01X231360Y-380907D01*
G01X232479Y-378869D01*
G03X286174Y-377370I25156J61357D01*
G03X321144Y-336597I-28539J59859D01*
G03X428773Y-367003I63519J19146D01*
G01X429309Y-366519D01*
G03X523900Y-354921I41686J51548D01*
G03X509164Y-260768I-52905J39949D01*
G01X506792Y-259055D01*
G02X495337Y-155989I878602J149823D01*
G01X497231Y-153832D01*
G01X497961Y-152992D01*
G01X498505Y-152364D01*
G03X448001Y-42919I-50481J43080D01*
G03X428107Y12183I-65906J7348D01*
G01X427808Y12491D01*
G03X425529Y14639I-25683J-24961D01*
G01X425529Y33295D01*
G01X427499Y35419D01*
G01X427854Y35807D01*
G01X428521Y36548D01*
G03X429351Y125063I-48965J44721D01*
G03X341455Y135545I-49796J-43794D01*
G03X259546Y131051I-38100J-54277D01*
G03X257533Y134094I-227386J-148257D01*
G01X257783Y137711D01*
G01X257859Y139401D01*
G01X257873Y140033D01*
G03X250620Y172455I-66278J2196D01*
G01X461122Y172455D01*
G01X463246Y170485D01*
G01X463634Y170130D01*
G01X464374Y169463D01*
G03X492778Y154153I44721J48965D01*
G03X556437Y50503I63659J-32277D01*
G01X571981Y50503D01*
G03X567931Y38107I41234J-20331D01*
G01X565818Y35927D01*
G01X565004Y35060D01*
G01X564524Y34530D01*
G03X548409Y-24551I48691J-45019D01*
G03X587561Y-71640I64806J14062D01*
G01X587561Y-457211D01*
G02X566691Y-549115I-212781J0D01*
G03X539354Y-677979I252410J-120876D01*
G02X539363Y-805614I-2240041J-63968D01*
G01X539314Y-807739D01*
G01X539314Y-863100D01*
G02X473363Y-997414I-169746J0D01*
G02X262238Y-1098285I-339652J439517D01*
G01X214703Y-1109591D01*
G03X83117Y-1268445I39668J-166786D01*
G01X68352Y-1587257D01*
G01X67304Y-1587257D01*
G03X-25887Y-1554886I-61129J-25654D01*
G03X-48077Y-1651011I32062J-58025D01*
G03X-25887Y-1747137I54252J-38100D01*
G03X67304Y-1714765I32062J58025D01*
G01X77295Y-1714765D01*
G03X195310Y-1602090I0J118141D01*
G01X207685Y-1334878D01*
G03X317154Y-1322813I47410J72486D01*
G03X552565Y-1204199I-62058J416083D01*
G01X696029Y-1060736D01*
G03X760317Y-946253I-171724J171724D01*
G03X768683Y-841756I-58182J57241D01*
G03X763563Y-711166I-1278700J15262D01*
G03X762177Y-696781I-1272318J-115278D01*
G03X693056Y-577615I-70202J38910D01*
G03X715069Y-457211I-318276J120404D01*
G01X715069Y-71640D01*
G03X754534Y-23025I-25654J61151D01*
G03X735940Y36766I-65118J12537D01*
G01X734710Y38048D01*
G03X721924Y62679I-45294J-7877D01*
G01X715069Y69534D01*
G01X715069Y223018D01*
G03X682545Y314715I-145525J0D01*
G01X764352Y314715D01*
G01X774450Y304617D01*
G01X774585Y303377D01*
G01X774722Y300284D01*
G01X774640Y294148D01*
G01X772763Y269987D01*
G01X772734Y269594D01*
G01X772703Y269125D01*
G03X973982Y170483I117392J-15137D01*
G03X874424Y371311I-83886J83505D01*
G01X855094Y369709D01*
G01X845619Y369346D01*
G01X842232Y369408D01*
G01X839489Y369612D01*
G01X828112Y380989D01*
G01X839467Y392343D01*
G01X840707Y392478D01*
G01X843800Y392615D01*
G01X849936Y392533D01*
G01X874097Y390656D01*
G01X874490Y390628D01*
G01X874959Y390596D01*
G03X973600Y591875I15137J117392D01*
G03X772773Y492317I-83505J-83886D01*
G01X774374Y472987D01*
G01X774738Y463512D01*
G01X774676Y460126D01*
G01X774472Y457382D01*
G01X764352Y447263D01*
G01X687195Y447263D01*
G01X660021Y474437D01*
G03X627512Y487903I-32508J-32509D01*
G01X53198Y487903D01*
G01X48864Y492237D01*
G03X21432Y505421I-32508J-32509D01*
G01X19004Y507673D01*
G01X18617Y508027D01*
G01X17876Y508694D01*
G03X-43451Y523930I-44721J-48965D01*
G03X-89699Y480869I16606J-64201D01*
G01X-90083Y479814D01*
G01X-90679Y478028D01*
G01X-91194Y476341D01*
G03X-59711Y141553I117876J-157789D01*
G03X15255Y124234I74966J153587D01*
G02X36401Y103088I0J-21146D01*
G01X36401Y-438926D01*
G03X-79699Y-436321I-58767J-30680D01*
G01X-108220Y-464843D01*
G03X-96809Y-407646I-297207J89034D01*
G01X-94372Y-405201D01*
G01X-93474Y-404267D01*
G01X-92956Y-403708D01*
G01X-91880Y-402543D01*
G03X-98887Y-307045I-49305J44388D01*
G03X-193965Y-318057I-42257J-51106D01*
G03X-233294Y-317327I-20840J-62954D01*
G03X-284565Y-231429I-195773J-58604D01*
G01X-334014Y-181981D01*
G03X-335407Y-170992I-71291J-3451D01*
G02X-267169Y401978I9666682J-860703D01*
G03X-310410Y525188I-54316J50130D01*
G03X-388215Y420322I-11075J-73080D01*
G03X-454346Y-127005I9719490J-1452017D01*
G01X-454346Y-127005D01*
G03X-527558Y-144269I44397J-352146D01*
G03X-713338Y-232515I322955J-919585D01*
G02X-758728Y-247149I-52955J86535D01*
G01X-761651Y-243642D01*
G01X-765491Y-238427D01*
G01X-768920Y-233084D01*
G01X-770891Y-229562D01*
G01X-772497Y-226243D01*
G01X-773072Y-224845D01*
G01X-773529Y-223520D01*
G01X-773624Y-223191D01*
G03X-986490Y-188506I-114281J-30821D01*
G03X-871951Y-371295I98627J-65479D01*
G03X-865083Y-370154I-15954J117284D01*
G01X-864770Y-370102D01*
G01X-862605Y-369667D01*
G01X-857000Y-368362D01*
G01X-854952Y-367821D01*
G01X-848528Y-365919D01*
G01X-846402Y-365216D01*
G01X-833173Y-360381D01*
G01X-832048Y-359985D01*
G03X-810892Y-365372I65755J214006D01*
G03X-739554Y-368240I44557J219633D01*
G03X-784902Y-449698I301229J-221051D01*
G03X-948730Y-406472I-103003J-58314D01*
G03X-987921Y-571311I60825J-101540D01*
G01X-987921Y-698712D01*
G03X-1006269Y-762011I100016J-63299D01*
G03X-987921Y-825311I118364J0D01*
G01X-987921Y-952752D01*
G03X-994430Y-1067610I100039J-63283D01*
G03X-987921Y-1079311I106525J51598D01*
G01X-987921Y-1206816D01*
G03X-1003839Y-1293871I100079J-63283D01*
G03X-987921Y-1333250I115958J23966D01*
G01X-987921Y-1460831D01*
G03X-1004444Y-1544716I100087J-63284D01*
G03X-987921Y-1587266I116558J20778D01*
G01X-987921Y-1714712D01*
G03X-1005322Y-1792953I100016J-63299D01*
G03X-797236Y-1854099I117427J14975D01*
G03X-778759Y-1823807I-90668J76087D01*
G01X-770627Y-1808391D01*
G01X-767295Y-1802937D01*
G01X-765547Y-1800446D01*
G01X-764879Y-1799628D01*
G03X-762231Y-1798523I-123026J298517D01*
G03X-589534Y-1624457I-125746J297459D01*
G01X-589534Y-1757680D01*
G02X-762000Y-1930146I-172466J0D01*
G01X-932677Y-1930146D01*
G03X-1013091Y-1918424I-47763J-45974D01*
G01X-1013091Y934709D01*
G01X1015281Y934709D01*
G01X1015281Y-2326811D01*
G02X847895Y-2494197I-167386J0D01*
G01X-845705Y-2494197D01*
G02X-1013091Y-2326811I0J167386D01*
G01X-768435Y262374D02*
G01X-770679Y267893D01*
G01X-773521Y276314D01*
G03X-793246Y322509I-116240J-22325D01*
G03X-1004999Y281007I-96500J-68595D01*
G03X-833678Y149754I115316J-26917D01*
G03X-828669Y152609I-56082J104235D01*
G01X-813499Y161289D01*
G01X-807606Y164405D01*
G01X-805392Y165392D01*
G02X-796719Y129529I-69813J-35864D01*
G03X-590725Y-76465I205994J0D01*
G01X-585358Y-76465D01*
G01X-583234Y-78435D01*
G01X-582846Y-78790D01*
G01X-582106Y-79457D01*
G03X-492551Y-79353I44721J48965D01*
G03X-484762Y9862I-44834J48862D01*
G03X-485962Y98140I-50082J43466D01*
G03X-573803Y106992I-48882J-44811D01*
G01X-575162Y106028D01*
G02X-659051Y223509I40317J117480D01*
G01X-659051Y365749D01*
G03X-769868Y537313I-188214J0D01*
G01X-771214Y539058D01*
G01X-774869Y544514D01*
G01X-781554Y555963D01*
G03X-805503Y591119I-108206J-47975D01*
G03X-1008022Y512917I-84243J-83168D01*
G03X-812768Y418087I118261J-4929D01*
G01X-811572Y419061D01*
G01X-810043Y420380D01*
G01X-804320Y425603D01*
G01X-803149Y426721D01*
G01X-791428Y438433D01*
G01X-788837Y440838D01*
G01X-787951Y441571D01*
G02X-750999Y365749I-59314J-75822D01*
G01X-750999Y246236D01*
G03X-768435Y262374I-124206J-116707D01*
G01X-358708Y-1921839D02*
G03X-217078Y-1921839I70815J0D01*
G03X-358708Y-1921839I-70815J0D01*
G01X-166992Y-1749053D02*
G01X-167482Y-1746797D01*
G01X-168471Y-1742855D01*
G03X-252673Y-1625279I-70426J38504D01*
G03X-292151Y-1764404I13777J-79073D01*
G01X-291705Y-1765011D01*
G01X-291560Y-1765263D01*
G03X-78877Y-1925585I212683J60912D01*
G01X69675Y-1925585D01*
G03X323657Y-1734710I0J264414D01*
G01X323869Y-1734296D01*
G01X325208Y-1732112D01*
G01X326766Y-1729933D01*
G01X328342Y-1728023D01*
G01X329948Y-1726345D01*
G01X330514Y-1725823D01*
G03X284183Y-1575299I-57638J64651D01*
G03X200465Y-1708697I-11308J-85873D01*
G01X200584Y-1710302D01*
G01X200549Y-1712448D01*
G01X200164Y-1717142D01*
G02X69675Y-1803157I-130489J55971D01*
G01X-78877Y-1803157D01*
G02X-166992Y-1749053I0J98806D01*
G01X219294Y-1921839D02*
G03X360924Y-1921839I70815J0D01*
G03X219294Y-1921839I-70815J0D01*
G01X485225Y-1392435D02*
G01X484753Y-1392708D01*
G03X453200Y-1508261I11643J-65264D01*
G03X562668Y-1459633I43196J50289D01*
G01X563060Y-1458727D01*
G01X563060Y-1458727D01*
G02X851264Y-1133707I11622252J-10015451D01*
G01X853350Y-1131583D01*
G01X854105Y-1130911D01*
G01X857508Y-1131271D01*
G01X870630Y-1133172D01*
G01X872256Y-1133369D01*
G01X878752Y-1134009D01*
G01X880747Y-1134149D01*
G01X886344Y-1134386D01*
G01X888533Y-1134411D01*
G01X890458Y-1134375D01*
G03X894200Y-1134304I-363J118363D01*
G01X894534Y-1134298D01*
G01X896718Y-1134190D01*
G03X902254Y-1133749I-6623J118179D01*
G03X970269Y-928936I-12270J117775D01*
G03X771757Y-1013547I-80138J-87159D01*
G03X771774Y-1019175I118338J-2464D01*
G01X771847Y-1021363D01*
G01X771865Y-1021635D01*
G03X772120Y-1025596I118230J5623D01*
G01X772235Y-1027375D01*
G01X772445Y-1029582D01*
G01X773153Y-1035157D01*
G01X773466Y-1037165D01*
G01X774656Y-1043601D01*
G01X775003Y-1045255D01*
G01X778037Y-1058205D01*
G01X778679Y-1061503D01*
G01X778467Y-1061796D01*
G01X776790Y-1063832D01*
G01X776309Y-1064365D01*
G01X776309Y-1064365D01*
G03X485633Y-1392161I11409003J-10409813D01*
G01X485633Y-1392161D01*
G01X485225Y-1392435D01*
G01X890095Y118353D02*
G03X890095Y-118375I0J-118364D01*
G03X890095Y118353I0J118364D01*
G01X890095Y-135647D02*
G03X890095Y-372375I0J-118364D01*
G03X890095Y-135647I0J118364D01*
G01X890095Y-1151647D02*
G03X890095Y-1388375I0J-118364D01*
G03X890095Y-1151647I0J118364D01*
G01X890095Y-1405647D02*
G03X890095Y-1642375I0J-118364D01*
G03X890095Y-1405647I0J118364D01*
G01X890095Y-389647D02*
G03X890095Y-626375I0J-118364D01*
G03X890095Y-389647I0J118364D01*
G01X890095Y-643647D02*
G03X890095Y-880375I0J-118364D01*
G03X890095Y-643647I0J118364D01*
G04 Copper End*

G04 Circle Start*
G54D11*
G01X-405305Y-185431D03*
G54D12*
G01X255095Y-1262391D03*
G54D13*
G01X702135Y-889011D03*
G04 Circle End*

G04 TearDrop Start*
G36*
G01X-803684Y-330291D02*
G01X-772240Y-283117D01*
G01X-774875Y-281209D01*
G01X-777577Y-278966D01*
G01X-781700Y-275054D01*
G01X-785831Y-270592D01*
G01X-789882Y-265704D01*
G01X-795012Y-258736D01*
G01X-799643Y-251520D01*
G01X-802665Y-246121D01*
G01X-805206Y-240869D01*
G01X-806588Y-237511D01*
G01X-807693Y-234309D01*
G01X-808132Y-232778D01*
G01X-876809Y-335812D01*
G01X-870726Y-334786D01*
G01X-865121Y-333481D01*
G01X-858697Y-331579D01*
G01X-845257Y-326666D01*
G01X-839201Y-324538D01*
G01X-835273Y-323423D01*
G01X-832344Y-322802D01*
G01X-830384Y-322509D01*
G01X-828411Y-322325D01*
G01X-826417Y-322259D01*
G01X-824394Y-322322D01*
G01X-822335Y-322523D01*
G01X-820233Y-322871D01*
G01X-818080Y-323378D01*
G01X-815870Y-324053D01*
G01X-813593Y-324905D01*
G01X-811244Y-325945D01*
G01X-808814Y-327183D01*
G01X-805003Y-329432D01*
G01X-803684Y-330291D01*
G37*
G36*
G01X-783312Y-720747D02*
G01X-791804Y-697143D01*
G01X-796200Y-698521D01*
G01X-800486Y-699470D01*
G01X-804678Y-700020D01*
G01X-808791Y-700204D01*
G01X-812839Y-700052D01*
G01X-816839Y-699598D01*
G01X-820805Y-698870D01*
G01X-824753Y-697903D01*
G01X-830672Y-696068D01*
G01X-840661Y-692253D01*
G01X-857487Y-685270D01*
G01X-815567Y-801783D01*
G01X-814494Y-799671D01*
G01X-812577Y-794982D01*
G01X-810917Y-789762D01*
G01X-808776Y-781168D01*
G01X-803691Y-756286D01*
G01X-801442Y-747234D01*
G01X-799677Y-741570D01*
G01X-797629Y-736325D01*
G01X-796481Y-733893D01*
G01X-795239Y-731606D01*
G01X-793897Y-729476D01*
G01X-792446Y-727517D01*
G01X-790881Y-725742D01*
G01X-789191Y-724164D01*
G01X-787372Y-722797D01*
G01X-785414Y-721654D01*
G01X-783312Y-720747D01*
G37*
G36*
G01X-779320Y-987028D02*
G01X-785174Y-965099D01*
G01X-789088Y-966012D01*
G01X-792787Y-966613D01*
G01X-795143Y-966848D01*
G01X-797420Y-966959D01*
G01X-799622Y-966949D01*
G01X-801757Y-966825D01*
G01X-803830Y-966591D01*
G01X-805848Y-966253D01*
G01X-807816Y-965817D01*
G01X-810690Y-964989D01*
G01X-813487Y-963969D01*
G01X-816229Y-962776D01*
G01X-819834Y-960945D01*
G01X-825234Y-957775D01*
G01X-840765Y-947852D01*
G01X-847488Y-943993D01*
G01X-851120Y-942110D01*
G01X-819181Y-1061745D01*
G01X-817990Y-1059834D01*
G01X-815742Y-1055543D01*
G01X-813637Y-1050715D01*
G01X-809701Y-1039878D01*
G01X-801817Y-1016462D01*
G01X-798449Y-1008185D01*
G01X-795971Y-1003108D01*
G01X-793262Y-998509D01*
G01X-791809Y-996422D01*
G01X-790282Y-994495D01*
G01X-788678Y-992740D01*
G01X-786992Y-991172D01*
G01X-785217Y-989803D01*
G01X-783350Y-988648D01*
G01X-781386Y-987718D01*
G01X-779320Y-987028D01*
G37*
G36*
G01X-777569Y-1248545D02*
G01X-782106Y-1227247D01*
G01X-786327Y-1228007D01*
G01X-790251Y-1228433D01*
G01X-792716Y-1228540D01*
G01X-795069Y-1228514D01*
G01X-797320Y-1228359D01*
G01X-799476Y-1228081D01*
G01X-801546Y-1227687D01*
G01X-803539Y-1227181D01*
G01X-805462Y-1226570D01*
G01X-807326Y-1225860D01*
G01X-809136Y-1225055D01*
G01X-811773Y-1223685D01*
G01X-814341Y-1222135D01*
G01X-817704Y-1219825D01*
G01X-827125Y-1212381D01*
G01X-835780Y-1205620D01*
G01X-841265Y-1201813D01*
G01X-846114Y-1198818D01*
G01X-847400Y-1198082D01*
G01X-821603Y-1319190D01*
G01X-819128Y-1315451D01*
G01X-816745Y-1311125D01*
G01X-813283Y-1303771D01*
G01X-802833Y-1278816D01*
G01X-799017Y-1270729D01*
G01X-796300Y-1265713D01*
G01X-793413Y-1261120D01*
G01X-791897Y-1259016D01*
G01X-790328Y-1257058D01*
G01X-788702Y-1255258D01*
G01X-787016Y-1253631D01*
G01X-785268Y-1252190D01*
G01X-783452Y-1250947D01*
G01X-781566Y-1249916D01*
G01X-779606Y-1249112D01*
G01X-777569Y-1248545D01*
G37*
G36*
G01X-776669Y-1507631D02*
G01X-780393Y-1486649D01*
G01X-784802Y-1487287D01*
G01X-787545Y-1487520D01*
G01X-790141Y-1487608D01*
G01X-792601Y-1487555D01*
G01X-794935Y-1487367D01*
G01X-797153Y-1487050D01*
G01X-799264Y-1486610D01*
G01X-801279Y-1486053D01*
G01X-803206Y-1485385D01*
G01X-805057Y-1484611D01*
G01X-806840Y-1483738D01*
G01X-808567Y-1482770D01*
G01X-811071Y-1481156D01*
G01X-813502Y-1479364D01*
G01X-817482Y-1476034D01*
G01X-828423Y-1465967D01*
G01X-834323Y-1460968D01*
G01X-838746Y-1457623D01*
G01X-843650Y-1454323D01*
G01X-844961Y-1453511D01*
G01X-823325Y-1575431D01*
G01X-820767Y-1571856D01*
G01X-818253Y-1567701D01*
G01X-813281Y-1558071D01*
G01X-801637Y-1533825D01*
G01X-797378Y-1526216D01*
G01X-794375Y-1521581D01*
G01X-791220Y-1517421D01*
G01X-789578Y-1515552D01*
G01X-787891Y-1513841D01*
G01X-786156Y-1512301D01*
G01X-784370Y-1510945D01*
G01X-782530Y-1509787D01*
G01X-780635Y-1508841D01*
G01X-778682Y-1508117D01*
G01X-776669Y-1507631D01*
G37*
G36*
G01X-776132Y-1765517D02*
G01X-779266Y-1744725D01*
G01X-783809Y-1745262D01*
G01X-786619Y-1745427D01*
G01X-789266Y-1745443D01*
G01X-791762Y-1745317D01*
G01X-794117Y-1745055D01*
G01X-796342Y-1744663D01*
G01X-798449Y-1744146D01*
G01X-800448Y-1743510D01*
G01X-802350Y-1742761D01*
G01X-804166Y-1741906D01*
G01X-805907Y-1740949D01*
G01X-807585Y-1739896D01*
G01X-810004Y-1738151D01*
G01X-812341Y-1736224D01*
G01X-816152Y-1732662D01*
G01X-826692Y-1721945D01*
G01X-831460Y-1717515D01*
G01X-835740Y-1713944D01*
G01X-840529Y-1710399D01*
G01X-843142Y-1708652D01*
G01X-824684Y-1831093D01*
G01X-822068Y-1827645D01*
G01X-819461Y-1823621D01*
G01X-814219Y-1814269D01*
G01X-801777Y-1790684D01*
G01X-797264Y-1783295D01*
G01X-794113Y-1778806D01*
G01X-790832Y-1774787D01*
G01X-789139Y-1772988D01*
G01X-787408Y-1771345D01*
G01X-785637Y-1769872D01*
G01X-783825Y-1768582D01*
G01X-781970Y-1767489D01*
G01X-780071Y-1766605D01*
G01X-778126Y-1765943D01*
G01X-776132Y-1765517D01*
G37*
G36*
G01X803442Y435703D02*
G01X817810Y421335D01*
G01X819194Y422561D01*
G01X820745Y423649D01*
G01X822453Y424606D01*
G01X824308Y425439D01*
G01X826301Y426155D01*
G01X828421Y426760D01*
G01X833002Y427664D01*
G01X837971Y428206D01*
G01X843248Y428440D01*
G01X851564Y428329D01*
G01X876872Y426362D01*
G01X889171Y425543D01*
G01X893364Y425520D01*
G01X895265Y425601D01*
G01X807707Y513158D01*
G01X807610Y509223D01*
G01X807873Y502416D01*
G01X810132Y475152D01*
G01X810564Y463870D01*
G01X810465Y458469D01*
G01X810084Y453337D01*
G01X809367Y448552D01*
G01X808867Y446315D01*
G01X808262Y444195D01*
G01X807546Y442202D01*
G01X806713Y440346D01*
G01X805756Y438638D01*
G01X804667Y437087D01*
G01X803442Y435703D01*
G37*
G36*
G01X817810Y340642D02*
G01X803442Y326274D01*
G01X804667Y324890D01*
G01X805756Y323339D01*
G01X806713Y321631D01*
G01X807546Y319775D01*
G01X808262Y317782D01*
G01X808867Y315663D01*
G01X809771Y311082D01*
G01X810313Y306113D01*
G01X810547Y300836D01*
G01X810435Y292519D01*
G01X808469Y267212D01*
G01X807649Y254913D01*
G01X807627Y250720D01*
G01X807707Y248819D01*
G01X895265Y336377D01*
G01X891330Y336474D01*
G01X884523Y336210D01*
G01X857259Y333952D01*
G01X845977Y333520D01*
G01X840576Y333619D01*
G01X835443Y334000D01*
G01X830658Y334716D01*
G01X828421Y335217D01*
G01X826301Y335822D01*
G01X824308Y336538D01*
G01X822453Y337371D01*
G01X820745Y338328D01*
G01X819194Y339416D01*
G01X817810Y340642D01*
G37*
G36*
G01X-779118Y478891D02*
G01X-777569Y501278D01*
G01X-779696Y501557D01*
G01X-781774Y502087D01*
G01X-783805Y502853D01*
G01X-785792Y503843D01*
G01X-787735Y505042D01*
G01X-789638Y506436D01*
G01X-791502Y508012D01*
G01X-793329Y509756D01*
G01X-796879Y513692D01*
G01X-800303Y518133D01*
G01X-805238Y525500D01*
G01X-819073Y549191D01*
G01X-823533Y556374D01*
G01X-826509Y560641D01*
G01X-829505Y564363D01*
G01X-831015Y565984D01*
G01X-839563Y442455D01*
G01X-834186Y446833D01*
G01X-828463Y452055D01*
G01X-816276Y464234D01*
G01X-812452Y467783D01*
G01X-809335Y470361D01*
G01X-806921Y472121D01*
G01X-804412Y473715D01*
G01X-802673Y474678D01*
G01X-800871Y475558D01*
G01X-799000Y476348D01*
G01X-797050Y477046D01*
G01X-795013Y477647D01*
G01X-792882Y478147D01*
G01X-790649Y478540D01*
G01X-788306Y478824D01*
G01X-784566Y479035D01*
G01X-780533Y478974D01*
G01X-779118Y478891D01*
G37*
G36*
G01X-786578Y201707D02*
G01X-780967Y225662D01*
G01X-783140Y226315D01*
G01X-785200Y227217D01*
G01X-787152Y228357D01*
G01X-789003Y229718D01*
G01X-790758Y231288D01*
G01X-792422Y233053D01*
G01X-794002Y234999D01*
G01X-795502Y237112D01*
G01X-798288Y241782D01*
G01X-800826Y246954D01*
G01X-804265Y255409D01*
G01X-812359Y279399D01*
G01X-815426Y287867D01*
G01X-817603Y293052D01*
G01X-819938Y297738D01*
G01X-821179Y299860D01*
G01X-822477Y301816D01*
G01X-850718Y181254D01*
G01X-830768Y192670D01*
G01X-823287Y196626D01*
G01X-817679Y199127D01*
G01X-813894Y200513D01*
G01X-810044Y201637D01*
G01X-806103Y202466D01*
G01X-802046Y202970D01*
G01X-797849Y203116D01*
G01X-793486Y202873D01*
G01X-788934Y202208D01*
G01X-786578Y201707D01*
G37*
G36*
G01X802831Y-1088432D02*
G01X825252Y-1109080D01*
G01X828547Y-1105725D01*
G01X830685Y-1103794D01*
G01X832781Y-1102093D01*
G01X834843Y-1100609D01*
G01X836874Y-1099332D01*
G01X838881Y-1098247D01*
G01X840868Y-1097344D01*
G01X842842Y-1096610D01*
G01X844808Y-1096033D01*
G01X846771Y-1095600D01*
G01X848737Y-1095299D01*
G01X850712Y-1095119D01*
G01X853700Y-1095047D01*
G01X856737Y-1095176D01*
G01X861959Y-1095728D01*
G01X875764Y-1097728D01*
G01X882260Y-1098367D01*
G01X887857Y-1098604D01*
G01X893858Y-1098490D01*
G01X898649Y-1098117D01*
G01X807564Y-1014235D01*
G01X807587Y-1019062D01*
G01X807975Y-1025074D01*
G01X808682Y-1030650D01*
G01X809873Y-1037086D01*
G01X813061Y-1050694D01*
G01X814066Y-1055853D01*
G01X814459Y-1058870D01*
G01X814609Y-1060862D01*
G01X814656Y-1062846D01*
G01X814587Y-1064829D01*
G01X814391Y-1066818D01*
G01X814056Y-1068818D01*
G01X813570Y-1070836D01*
G01X812922Y-1072880D01*
G01X812099Y-1074955D01*
G01X811089Y-1077068D01*
G01X809881Y-1079225D01*
G01X808463Y-1081434D01*
G01X806824Y-1083700D01*
G01X803922Y-1087222D01*
G01X802831Y-1088432D01*
G37*
G36*
G01X-224965Y-422535D02*
G01X-204645Y-422535D01*
G01X-204572Y-420791D01*
G01X-204359Y-419154D01*
G01X-204016Y-417614D01*
G01X-203552Y-416158D01*
G01X-202976Y-414776D01*
G01X-202298Y-413457D01*
G01X-201527Y-412188D01*
G01X-200671Y-410959D01*
G01X-198747Y-408574D01*
G01X-193120Y-402507D01*
G01X-191930Y-401185D01*
G01X-237680Y-401185D01*
G01X-231914Y-407395D01*
G01X-229868Y-409758D01*
G01X-228938Y-410959D01*
G01X-228083Y-412188D01*
G01X-227311Y-413457D01*
G01X-226633Y-414776D01*
G01X-226057Y-416158D01*
G01X-225593Y-417614D01*
G01X-225250Y-419154D01*
G01X-225038Y-420791D01*
G01X-224965Y-422535D01*
G37*
G36*
G01X-152417Y-399562D02*
G01X-132033Y-399771D01*
G01X-131938Y-397953D01*
G01X-131697Y-396272D01*
G01X-131322Y-394712D01*
G01X-130820Y-393257D01*
G01X-130202Y-391893D01*
G01X-129477Y-390604D01*
G01X-128655Y-389376D01*
G01X-127746Y-388194D01*
G01X-125704Y-385905D01*
G01X-119740Y-379921D01*
G01X-118477Y-378558D01*
G01X-164225Y-378090D01*
G01X-158834Y-384288D01*
G01X-156924Y-386744D01*
G01X-155262Y-389276D01*
G01X-154545Y-390587D01*
G01X-153918Y-391940D01*
G01X-153387Y-393339D01*
G01X-152963Y-394794D01*
G01X-152654Y-396312D01*
G01X-152469Y-397898D01*
G01X-152417Y-399562D01*
G37*
G36*
G01X-367007Y-418864D02*
G01X-344994Y-420408D01*
G01X-344760Y-418343D01*
G01X-344372Y-416517D01*
G01X-343839Y-414902D01*
G01X-343171Y-413470D01*
G01X-342377Y-412193D01*
G01X-341466Y-411041D01*
G01X-340448Y-409987D01*
G01X-339332Y-409001D01*
G01X-336845Y-407124D01*
G01X-331113Y-402949D01*
G01X-328017Y-400197D01*
G01X-373655Y-396995D01*
G01X-372276Y-399090D01*
G01X-370975Y-401615D01*
G01X-369791Y-404446D01*
G01X-368764Y-407460D01*
G01X-367933Y-410532D01*
G01X-367337Y-413540D01*
G01X-367015Y-416358D01*
G01X-367007Y-418864D01*
G37*
G36*
G01X-470115Y-348304D02*
G01X-469077Y-368676D01*
G01X-467427Y-368661D01*
G01X-465842Y-368779D01*
G01X-464319Y-369023D01*
G01X-462848Y-369384D01*
G01X-461426Y-369851D01*
G01X-460046Y-370417D01*
G01X-458700Y-371072D01*
G01X-456090Y-372613D01*
G01X-453546Y-374402D01*
G01X-447149Y-379483D01*
G01X-449476Y-333793D01*
G01X-453211Y-337724D01*
G01X-457612Y-342477D01*
G01X-458716Y-343517D01*
G01X-459854Y-344480D01*
G01X-461042Y-345357D01*
G01X-462295Y-346139D01*
G01X-463631Y-346817D01*
G01X-465065Y-347381D01*
G01X-466612Y-347823D01*
G01X-468290Y-348134D01*
G01X-470115Y-348304D01*
G37*
G36*
G01X-480245Y-254083D02*
G01X-479297Y-274446D01*
G01X-477638Y-274438D01*
G01X-476049Y-274564D01*
G01X-474523Y-274817D01*
G01X-473054Y-275186D01*
G01X-471635Y-275663D01*
G01X-470259Y-276239D01*
G01X-468920Y-276904D01*
G01X-466325Y-278467D01*
G01X-463796Y-280279D01*
G01X-457412Y-285421D01*
G01X-459541Y-239720D01*
G01X-464421Y-244867D01*
G01X-467717Y-248332D01*
G01X-468829Y-249364D01*
G01X-469975Y-250318D01*
G01X-471170Y-251187D01*
G01X-472429Y-251960D01*
G01X-473769Y-252629D01*
G01X-475205Y-253185D01*
G01X-476752Y-253619D01*
G01X-478427Y-253921D01*
G01X-480245Y-254083D01*
G37*
G36*
G01X-575158Y68650D02*
G01X-577001Y48165D01*
G01X-575125Y47916D01*
G01X-573422Y47528D01*
G01X-571874Y47011D01*
G01X-570462Y46373D01*
G01X-569165Y45621D01*
G01X-567964Y44766D01*
G01X-566841Y43815D01*
G01X-565775Y42776D01*
G01X-563738Y40472D01*
G01X-558292Y33783D01*
G01X-556987Y32353D01*
G01X-552888Y77919D01*
G01X-558065Y74246D01*
G01X-560712Y72579D01*
G01X-563419Y71116D01*
G01X-564799Y70482D01*
G01X-566201Y69925D01*
G01X-567625Y69451D01*
G01X-569074Y69071D01*
G01X-570550Y68793D01*
G01X-572055Y68624D01*
G01X-573590Y68573D01*
G01X-575158Y68650D01*
G37*
G36*
G01X-578909Y-20331D02*
G01X-578909Y-40651D01*
G01X-577164Y-40724D01*
G01X-575527Y-40937D01*
G01X-573987Y-41280D01*
G01X-572531Y-41744D01*
G01X-571150Y-42320D01*
G01X-569830Y-42998D01*
G01X-568562Y-43770D01*
G01X-567333Y-44625D01*
G01X-564948Y-46550D01*
G01X-558881Y-52176D01*
G01X-557559Y-53366D01*
G01X-557559Y-7616D01*
G01X-563769Y-13382D01*
G01X-566132Y-15428D01*
G01X-567333Y-16358D01*
G01X-568562Y-17213D01*
G01X-569830Y-17985D01*
G01X-571150Y-18663D01*
G01X-572531Y-19239D01*
G01X-573987Y-19703D01*
G01X-575527Y-20046D01*
G01X-577164Y-20259D01*
G01X-578909Y-20331D01*
G37*
G36*
G01X121359Y332729D02*
G01X121359Y353049D01*
G01X119615Y353121D01*
G01X117978Y353334D01*
G01X116437Y353677D01*
G01X114982Y354141D01*
G01X113600Y354717D01*
G01X112281Y355395D01*
G01X111012Y356167D01*
G01X109783Y357022D01*
G01X107398Y358947D01*
G01X101331Y364573D01*
G01X100009Y365764D01*
G01X100009Y320014D01*
G01X106219Y325780D01*
G01X108582Y327825D01*
G01X109783Y328755D01*
G01X111012Y329610D01*
G01X112281Y330382D01*
G01X113600Y331060D01*
G01X114982Y331636D01*
G01X116437Y332100D01*
G01X117978Y332443D01*
G01X119615Y332656D01*
G01X121359Y332729D01*
G37*
G36*
G01X123035Y256529D02*
G01X123035Y276849D01*
G01X121300Y276921D01*
G01X119691Y277134D01*
G01X118193Y277477D01*
G01X116793Y277941D01*
G01X115477Y278517D01*
G01X114230Y279195D01*
G01X113040Y279967D01*
G01X111891Y280822D01*
G01X109665Y282747D01*
G01X103862Y288373D01*
G01X102549Y289564D01*
G01X102549Y243814D01*
G01X108559Y249580D01*
G01X110771Y251625D01*
G01X111891Y252555D01*
G01X113040Y253410D01*
G01X114230Y254182D01*
G01X115477Y254860D01*
G01X116793Y255436D01*
G01X118193Y255900D01*
G01X119691Y256243D01*
G01X121300Y256456D01*
G01X123035Y256529D01*
G37*
G36*
G01X-67910Y449011D02*
G01X-58683Y430552D01*
G01X-57274Y431186D01*
G01X-55842Y431696D01*
G01X-54390Y432089D01*
G01X-52919Y432375D01*
G01X-51432Y432561D01*
G01X-49931Y432654D01*
G01X-48419Y432663D01*
G01X-45368Y432460D01*
G01X-42299Y432013D01*
G01X-37698Y431025D01*
G01X-34661Y430247D01*
G01X-55118Y471168D01*
G01X-56425Y467575D01*
G01X-58409Y461072D01*
G01X-59438Y458172D01*
G01X-60040Y456811D01*
G01X-60727Y455511D01*
G01X-61524Y454272D01*
G01X-62452Y453094D01*
G01X-63532Y451979D01*
G01X-64788Y450926D01*
G01X-66239Y449936D01*
G01X-67910Y449011D01*
G37*
G36*
G01X14679Y449569D02*
G01X14679Y469889D01*
G01X12935Y469961D01*
G01X11298Y470174D01*
G01X9757Y470517D01*
G01X8302Y470981D01*
G01X6920Y471557D01*
G01X5601Y472235D01*
G01X4332Y473007D01*
G01X3103Y473862D01*
G01X718Y475787D01*
G01X-5349Y481413D01*
G01X-6671Y482604D01*
G01X-6671Y436854D01*
G01X-461Y442620D01*
G01X1902Y444665D01*
G01X3103Y445595D01*
G01X4332Y446450D01*
G01X5601Y447222D01*
G01X6920Y447900D01*
G01X8302Y448476D01*
G01X9757Y448940D01*
G01X11298Y449283D01*
G01X12935Y449496D01*
G01X14679Y449569D01*
G37*
G36*
G01X-64325Y363915D02*
G01X-51129Y347401D01*
G01X-49999Y348231D01*
G01X-48789Y348988D01*
G01X-47508Y349673D01*
G01X-46163Y350289D01*
G01X-44765Y350838D01*
G01X-41840Y351743D01*
G01X-38805Y352405D01*
G01X-35730Y352843D01*
G01X-32684Y353072D01*
G01X-29739Y353111D01*
G01X-28326Y353065D01*
G01X-56885Y388806D01*
G01X-57402Y384859D01*
G01X-57785Y377929D01*
G01X-58053Y374847D01*
G01X-58294Y373381D01*
G01X-58640Y371955D01*
G01X-59116Y370564D01*
G01X-59747Y369201D01*
G01X-60558Y367862D01*
G01X-61575Y366538D01*
G01X-62822Y365225D01*
G01X-64325Y363915D01*
G37*
G36*
G01X14679Y373369D02*
G01X14679Y393689D01*
G01X12935Y393761D01*
G01X11298Y393974D01*
G01X9757Y394317D01*
G01X8302Y394781D01*
G01X6920Y395357D01*
G01X5601Y396035D01*
G01X4332Y396807D01*
G01X3103Y397662D01*
G01X718Y399587D01*
G01X-5349Y405213D01*
G01X-6671Y406404D01*
G01X-6671Y360654D01*
G01X-461Y366420D01*
G01X1902Y368465D01*
G01X3103Y369395D01*
G01X4332Y370250D01*
G01X5601Y371022D01*
G01X6920Y371700D01*
G01X8302Y372276D01*
G01X9757Y372740D01*
G01X11298Y373083D01*
G01X12935Y373296D01*
G01X14679Y373369D01*
G37*
G36*
G01X210259Y208269D02*
G01X210259Y228589D01*
G01X208515Y228661D01*
G01X206878Y228874D01*
G01X205337Y229217D01*
G01X203882Y229681D01*
G01X202500Y230257D01*
G01X201181Y230935D01*
G01X199912Y231707D01*
G01X198683Y232562D01*
G01X196298Y234487D01*
G01X190231Y240113D01*
G01X188909Y241304D01*
G01X188909Y195554D01*
G01X195119Y201320D01*
G01X197482Y203365D01*
G01X198683Y204295D01*
G01X199912Y205150D01*
G01X201181Y205922D01*
G01X202500Y206600D01*
G01X203882Y207176D01*
G01X205337Y207640D01*
G01X206878Y207983D01*
G01X208515Y208196D01*
G01X210259Y208269D01*
G37*
G36*
G01X467571Y228589D02*
G01X467571Y208269D01*
G01X469316Y208196D01*
G01X470953Y207983D01*
G01X472493Y207640D01*
G01X473949Y207176D01*
G01X475330Y206600D01*
G01X476650Y205922D01*
G01X477918Y205150D01*
G01X479147Y204295D01*
G01X481532Y202370D01*
G01X487599Y196744D01*
G01X488921Y195554D01*
G01X488921Y241304D01*
G01X482711Y235538D01*
G01X480348Y233492D01*
G01X479147Y232562D01*
G01X477918Y231707D01*
G01X476650Y230935D01*
G01X475330Y230257D01*
G01X473949Y229681D01*
G01X472493Y229217D01*
G01X470953Y228874D01*
G01X469316Y228661D01*
G01X467571Y228589D01*
G37*
G36*
G01X210427Y103547D02*
G01X225840Y117003D01*
G01X224677Y118454D01*
G01X223726Y119891D01*
G01X222966Y121322D01*
G01X222381Y122751D01*
G01X221950Y124186D01*
G01X221655Y125632D01*
G01X221478Y127096D01*
G01X221400Y128583D01*
G01X221465Y131654D01*
G01X222054Y140177D01*
G01X222095Y142075D01*
G01X187631Y111987D01*
G01X195614Y110857D01*
G01X198654Y110218D01*
G01X201569Y109360D01*
G01X202972Y108825D01*
G01X204334Y108208D01*
G01X205653Y107498D01*
G01X206924Y106686D01*
G01X208146Y105764D01*
G01X209315Y104720D01*
G01X210427Y103547D01*
G37*
G36*
G01X267795Y-275988D02*
G01X247475Y-275988D01*
G01X247402Y-277732D01*
G01X247190Y-279369D01*
G01X246847Y-280909D01*
G01X246383Y-282365D01*
G01X245807Y-283746D01*
G01X245129Y-285066D01*
G01X244357Y-286334D01*
G01X243502Y-287564D01*
G01X241577Y-289949D01*
G01X235951Y-296015D01*
G01X234760Y-297337D01*
G01X280510Y-297337D01*
G01X274744Y-291127D01*
G01X272698Y-288764D01*
G01X271769Y-287564D01*
G01X270913Y-286334D01*
G01X270142Y-285066D01*
G01X269464Y-283746D01*
G01X268888Y-282365D01*
G01X268424Y-280909D01*
G01X268081Y-279369D01*
G01X267868Y-277732D01*
G01X267795Y-275988D01*
G37*
G36*
G01X293195Y39745D02*
G01X313515Y39745D01*
G01X313588Y41489D01*
G01X313801Y43126D01*
G01X314144Y44666D01*
G01X314608Y46122D01*
G01X315184Y47504D01*
G01X315862Y48823D01*
G01X316633Y50092D01*
G01X317489Y51321D01*
G01X319413Y53706D01*
G01X325040Y59773D01*
G01X326230Y61095D01*
G01X280480Y61095D01*
G01X286246Y54885D01*
G01X288292Y52522D01*
G01X289222Y51321D01*
G01X290077Y50092D01*
G01X290849Y48823D01*
G01X291527Y47504D01*
G01X292103Y46122D01*
G01X292567Y44666D01*
G01X292910Y43126D01*
G01X293122Y41489D01*
G01X293195Y39745D01*
G37*
G36*
G01X365242Y-279164D02*
G01X350008Y-292759D01*
G01X351176Y-294184D01*
G01X352137Y-295601D01*
G01X352911Y-297016D01*
G01X353516Y-298435D01*
G01X353969Y-299862D01*
G01X354289Y-301304D01*
G01X354494Y-302765D01*
G01X354602Y-304252D01*
G01X354598Y-307322D01*
G01X354154Y-315811D01*
G01X354136Y-317692D01*
G01X388269Y-287229D01*
G01X380198Y-286228D01*
G01X377142Y-285658D01*
G01X374213Y-284867D01*
G01X372803Y-284362D01*
G01X371431Y-283771D01*
G01X370101Y-283084D01*
G01X368814Y-282290D01*
G01X367574Y-281379D01*
G01X366382Y-280340D01*
G01X365242Y-279164D01*
G37*
G36*
G01X389715Y5952D02*
G01X369395Y5952D01*
G01X369337Y4509D01*
G01X369167Y3063D01*
G01X368892Y1620D01*
G01X368521Y183D01*
G01X368060Y-1246D01*
G01X366900Y-4062D01*
G01X365471Y-6802D01*
G01X363834Y-9439D01*
G01X362048Y-11944D01*
G01X359220Y-15397D01*
G01X404970Y-15397D01*
G01X402125Y-12470D01*
G01X396792Y-7882D01*
G01X394483Y-5804D01*
G01X393456Y-4727D01*
G01X392531Y-3590D01*
G01X391717Y-2367D01*
G01X391026Y-1032D01*
G01X390469Y441D01*
G01X390058Y2079D01*
G01X389803Y3907D01*
G01X389715Y5952D01*
G37*
G36*
G01X369395Y39745D02*
G01X389715Y39745D01*
G01X389788Y41489D01*
G01X390001Y43126D01*
G01X390344Y44666D01*
G01X390808Y46122D01*
G01X391384Y47504D01*
G01X392062Y48823D01*
G01X392833Y50092D01*
G01X393689Y51321D01*
G01X395613Y53706D01*
G01X401240Y59773D01*
G01X402430Y61095D01*
G01X356680Y61095D01*
G01X362446Y54885D01*
G01X364492Y52522D01*
G01X365422Y51321D01*
G01X366277Y50092D01*
G01X367049Y48823D01*
G01X367727Y47504D01*
G01X368303Y46122D01*
G01X368767Y44666D01*
G01X369110Y43126D01*
G01X369322Y41489D01*
G01X369395Y39745D01*
G37*
G36*
G01X658935Y-52013D02*
G01X659466Y-49175D01*
G01X660821Y-46306D01*
G01X662649Y-43446D01*
G01X666312Y-37912D01*
G01X667443Y-35316D01*
G01X667637Y-32886D01*
G01X666540Y-30663D01*
G01X712290Y-30663D01*
G01X710558Y-32309D01*
G01X708500Y-33757D01*
G01X706175Y-35041D01*
G01X703645Y-36193D01*
G01X692676Y-40167D01*
G01X687530Y-42240D01*
G01X685254Y-43414D01*
G01X683256Y-44726D01*
G01X681596Y-46208D01*
G01X680336Y-47895D01*
G01X679536Y-49818D01*
G01X679255Y-52013D01*
G01X658935Y-52013D01*
G37*
G36*
G01X699575Y30171D02*
G01X699648Y28436D01*
G01X699861Y26827D01*
G01X700204Y25329D01*
G01X700668Y23929D01*
G01X701244Y22613D01*
G01X701922Y21366D01*
G01X702694Y20175D01*
G01X703549Y19027D01*
G01X704479Y17906D01*
G01X706524Y15695D01*
G01X712290Y9685D01*
G01X666540Y9685D01*
G01X667731Y10997D01*
G01X673357Y16801D01*
G01X675282Y19027D01*
G01X676137Y20175D01*
G01X676909Y21366D01*
G01X677587Y22613D01*
G01X678163Y23929D01*
G01X678627Y25329D01*
G01X678970Y26827D01*
G01X679183Y28436D01*
G01X679255Y30171D01*
G01X699575Y30171D01*
G37*
G36*
G01X623375Y30171D02*
G01X603055Y30171D01*
G01X602982Y28436D01*
G01X602770Y26827D01*
G01X602427Y25329D01*
G01X601962Y23929D01*
G01X601387Y22613D01*
G01X600708Y21366D01*
G01X599937Y20175D01*
G01X599082Y19027D01*
G01X597157Y16801D01*
G01X591531Y10997D01*
G01X590340Y9685D01*
G01X636090Y9685D01*
G01X630324Y15695D01*
G01X628278Y17906D01*
G01X627349Y19027D01*
G01X626493Y20175D01*
G01X625722Y21366D01*
G01X625044Y22613D01*
G01X624468Y23929D01*
G01X624004Y25329D01*
G01X623661Y26827D01*
G01X623448Y28436D01*
G01X623375Y30171D01*
G37*
G36*
G01X623375Y-52013D02*
G01X643695Y-52013D01*
G01X643555Y-50600D01*
G01X643165Y-49175D01*
G01X642569Y-47742D01*
G01X641810Y-46306D01*
G01X639982Y-43446D01*
G01X637125Y-39260D01*
G01X636319Y-37912D01*
G01X635658Y-36596D01*
G01X635187Y-35316D01*
G01X634951Y-34078D01*
G01X634994Y-32886D01*
G01X635359Y-31746D01*
G01X636090Y-30663D01*
G01X590340Y-30663D01*
G01X592072Y-32309D01*
G01X594131Y-33757D01*
G01X596456Y-35041D01*
G01X598986Y-36194D01*
G01X609955Y-40167D01*
G01X615100Y-42240D01*
G01X617377Y-43414D01*
G01X619375Y-44726D01*
G01X621035Y-46208D01*
G01X622295Y-47895D01*
G01X623095Y-49818D01*
G01X623375Y-52013D01*
G37*
G36*
G01X438892Y-150911D02*
G01X459218Y-150581D01*
G01X459261Y-148864D01*
G01X459444Y-147243D01*
G01X459755Y-145707D01*
G01X460186Y-144246D01*
G01X460728Y-142851D01*
G01X461371Y-141511D01*
G01X462107Y-140218D01*
G01X462925Y-138960D01*
G01X464773Y-136515D01*
G01X470190Y-130350D01*
G01X471336Y-129030D01*
G01X425591Y-129775D01*
G01X431567Y-135912D01*
G01X433690Y-138215D01*
G01X434656Y-139386D01*
G01X435547Y-140586D01*
G01X436353Y-141829D01*
G01X437065Y-143128D01*
G01X437675Y-144496D01*
G01X438171Y-145945D01*
G01X438546Y-147489D01*
G01X438789Y-149140D01*
G01X438892Y-150911D01*
G37*
G36*
G01X57495Y-1011764D02*
G01X19403Y-1012550D01*
G01X19360Y-1014720D01*
G01X19150Y-1016893D01*
G01X18782Y-1019066D01*
G01X18269Y-1021232D01*
G01X17621Y-1023386D01*
G01X15966Y-1027641D01*
G01X13905Y-1031788D01*
G01X11529Y-1035786D01*
G01X8924Y-1039595D01*
G01X4784Y-1044863D01*
G01X73349Y-1043448D01*
G01X70446Y-1040129D01*
G01X67625Y-1036545D01*
G01X64979Y-1032735D01*
G01X62596Y-1028741D01*
G01X60566Y-1024606D01*
G01X59712Y-1022499D01*
G01X58979Y-1020371D01*
G01X58380Y-1018228D01*
G01X57926Y-1016076D01*
G01X57627Y-1013920D01*
G01X57495Y-1011764D01*
G37*
G36*
G01X-354342Y404629D02*
G01X-304117Y397009D01*
G01X-303677Y401098D01*
G01X-303443Y408267D01*
G01X-303236Y411459D01*
G01X-303021Y412981D01*
G01X-302696Y414463D01*
G01X-302236Y415912D01*
G01X-301616Y417335D01*
G01X-300809Y418740D01*
G01X-299790Y420131D01*
G01X-298534Y421518D01*
G01X-297013Y422906D01*
G01X-353517Y431479D01*
G01X-352480Y429708D01*
G01X-351691Y428013D01*
G01X-351130Y426382D01*
G01X-350773Y424801D01*
G01X-350598Y423255D01*
G01X-350583Y421731D01*
G01X-350705Y420215D01*
G01X-350944Y418693D01*
G01X-351678Y415575D01*
G01X-353555Y408655D01*
G01X-354342Y404629D01*
G37*
G36*
G01X191517Y-883837D02*
G01X205885Y-869469D01*
G01X204615Y-867346D01*
G01X204324Y-864753D01*
G01X204755Y-861815D01*
G01X205654Y-858657D01*
G01X207825Y-852181D01*
G01X208585Y-849114D01*
G01X208786Y-846327D01*
G01X168375Y-886738D01*
G01X169726Y-886723D01*
G01X171162Y-886537D01*
G01X172669Y-886211D01*
G01X175829Y-885267D01*
G01X182304Y-883114D01*
G01X183863Y-882707D01*
G01X185368Y-882417D01*
G01X186802Y-882276D01*
G01X188149Y-882315D01*
G01X189394Y-882567D01*
G01X190522Y-883064D01*
G01X191517Y-883837D01*
G37*
G36*
G01X205885Y-919357D02*
G01X191517Y-904989D01*
G01X189394Y-906260D01*
G01X186802Y-906551D01*
G01X183863Y-906119D01*
G01X180706Y-905221D01*
G01X174230Y-903050D01*
G01X171162Y-902289D01*
G01X168375Y-902088D01*
G01X208786Y-942499D01*
G01X208771Y-941148D01*
G01X208585Y-939712D01*
G01X208259Y-938206D01*
G01X207315Y-935045D01*
G01X205162Y-928570D01*
G01X204755Y-927011D01*
G01X204465Y-925506D01*
G01X204324Y-924073D01*
G01X204363Y-922725D01*
G01X204615Y-921480D01*
G01X205112Y-920352D01*
G01X205885Y-919357D01*
G37*
G36*
G01X161344Y-256222D02*
G01X186744Y-256222D01*
G01X186802Y-254780D01*
G01X186972Y-253336D01*
G01X187246Y-251894D01*
G01X187617Y-250458D01*
G01X188077Y-249030D01*
G01X189236Y-246214D01*
G01X190662Y-243475D01*
G01X192296Y-240840D01*
G01X194080Y-238336D01*
G01X196904Y-234886D01*
G01X151184Y-234886D01*
G01X154008Y-238336D01*
G01X155791Y-240840D01*
G01X157426Y-243475D01*
G01X158852Y-246214D01*
G01X160011Y-249030D01*
G01X160471Y-250458D01*
G01X160841Y-251894D01*
G01X161116Y-253336D01*
G01X161286Y-254780D01*
G01X161344Y-256222D01*
G37*
G36*
G01X186744Y-306495D02*
G01X161344Y-306495D01*
G01X161284Y-307964D01*
G01X161110Y-309425D01*
G01X160830Y-310875D01*
G01X160451Y-312313D01*
G01X159981Y-313737D01*
G01X159426Y-315144D01*
G01X158097Y-317899D01*
G01X156525Y-320562D01*
G01X154770Y-323117D01*
G01X151928Y-326707D01*
G01X150955Y-327831D01*
G01X196675Y-327831D01*
G01X194823Y-325605D01*
G01X193029Y-323177D01*
G01X191351Y-320585D01*
G01X189847Y-317867D01*
G01X188577Y-315060D01*
G01X188047Y-313636D01*
G01X187597Y-312204D01*
G01X187235Y-310769D01*
G01X186967Y-309336D01*
G01X186801Y-307910D01*
G01X186744Y-306495D01*
G37*
G36*
G01X157874Y-390446D02*
G01X196093Y-388305D01*
G01X195791Y-385083D01*
G01X194926Y-379421D01*
G01X194644Y-376852D01*
G01X194601Y-375606D01*
G01X194648Y-374375D01*
G01X194800Y-373149D01*
G01X195076Y-371923D01*
G01X195494Y-370687D01*
G01X196069Y-369433D01*
G01X196822Y-368154D01*
G01X197767Y-366842D01*
G01X152119Y-369399D01*
G01X153113Y-370495D01*
G01X153977Y-371624D01*
G01X154718Y-372786D01*
G01X155348Y-373980D01*
G01X155877Y-375204D01*
G01X156314Y-376459D01*
G01X156670Y-377743D01*
G01X157178Y-380394D01*
G01X157482Y-383149D01*
G01X157874Y-390446D01*
G37*
G36*
G01X312811Y-563382D02*
G01X296135Y-597838D01*
G01X302720Y-601006D01*
G01X305146Y-602347D01*
G01X307398Y-603835D01*
G01X308446Y-604657D01*
G01X309436Y-605544D01*
G01X310363Y-606502D01*
G01X311223Y-607543D01*
G01X312011Y-608675D01*
G01X312721Y-609906D01*
G01X313349Y-611245D01*
G01X333268Y-570092D01*
G01X331692Y-570460D01*
G01X330222Y-570662D01*
G01X328844Y-570712D01*
G01X327542Y-570622D01*
G01X326303Y-570405D01*
G01X325114Y-570074D01*
G01X323959Y-569643D01*
G01X322825Y-569124D01*
G01X320563Y-567876D01*
G01X315669Y-564901D01*
G01X312811Y-563382D01*
G37*
G36*
G01X317242Y-1286551D02*
G01X313570Y-1227902D01*
G01X311023Y-1228135D01*
G01X307514Y-1228689D01*
G01X302338Y-1229890D01*
G01X297739Y-1230999D01*
G01X295994Y-1231303D01*
G01X294273Y-1231480D01*
G01X293416Y-1231511D01*
G01X292558Y-1231497D01*
G01X291696Y-1231435D01*
G01X290828Y-1231321D01*
G01X289952Y-1231151D01*
G01X289066Y-1230921D01*
G01X288166Y-1230626D01*
G01X287251Y-1230263D01*
G01X286317Y-1229827D01*
G01X285363Y-1229316D01*
G01X283385Y-1228047D01*
G01X282356Y-1227282D01*
G01X286522Y-1293826D01*
G01X288190Y-1292294D01*
G01X289873Y-1291003D01*
G01X291576Y-1289933D01*
G01X293302Y-1289063D01*
G01X295055Y-1288372D01*
G01X296839Y-1287838D01*
G01X298658Y-1287441D01*
G01X300516Y-1287160D01*
G01X304363Y-1286861D01*
G01X314934Y-1286664D01*
G01X317242Y-1286551D01*
G37*
G36*
G01X-301165Y-1280604D02*
G01X-351965Y-1280604D01*
G01X-351888Y-1291289D01*
G01X-352068Y-1295315D01*
G01X-352554Y-1299200D01*
G01X-352951Y-1301091D01*
G01X-353471Y-1302948D01*
G01X-354129Y-1304770D01*
G01X-354941Y-1306558D01*
G01X-355923Y-1308312D01*
G01X-357090Y-1310032D01*
G01X-358457Y-1311719D01*
G01X-291782Y-1311719D01*
G01X-293004Y-1310217D01*
G01X-294130Y-1308597D01*
G01X-295163Y-1306874D01*
G01X-296105Y-1305058D01*
G01X-296959Y-1303162D01*
G01X-298411Y-1299182D01*
G01X-299536Y-1295031D01*
G01X-300353Y-1290811D01*
G01X-300879Y-1286619D01*
G01X-301134Y-1282556D01*
G01X-301165Y-1280604D01*
G37*
G36*
G01X31362Y-665804D02*
G01X54583Y-655021D01*
G01X53984Y-653579D01*
G01X53513Y-652123D01*
G01X53163Y-650654D01*
G01X52924Y-649172D01*
G01X52789Y-647681D01*
G01X52749Y-646181D01*
G01X52795Y-644674D01*
G01X53114Y-641640D01*
G01X53678Y-638591D01*
G01X54837Y-634011D01*
G01X55720Y-630969D01*
G01X14252Y-650225D01*
G01X16650Y-651423D01*
G01X19140Y-652943D01*
G01X21639Y-654730D01*
G01X24063Y-656731D01*
G01X26330Y-658893D01*
G01X28357Y-661161D01*
G01X29255Y-662319D01*
G01X30062Y-663483D01*
G01X30768Y-664647D01*
G01X31362Y-665804D01*
G37*
G36*
G01X17677Y-846712D02*
G01X55777Y-846664D01*
G01X55512Y-839227D01*
G01X55486Y-836512D01*
G01X55545Y-835197D01*
G01X55670Y-833908D01*
G01X55875Y-832640D01*
G01X56173Y-831391D01*
G01X56578Y-830158D01*
G01X57103Y-828937D01*
G01X57763Y-827727D01*
G01X58571Y-826523D01*
G01X59541Y-825323D01*
G01X13821Y-825381D01*
G01X14792Y-826576D01*
G01X15602Y-827777D01*
G01X16266Y-828985D01*
G01X16797Y-830205D01*
G01X17207Y-831438D01*
G01X17512Y-832687D01*
G01X17723Y-833956D01*
G01X17856Y-835248D01*
G01X17936Y-837907D01*
G01X17694Y-845142D01*
G01X17677Y-846712D01*
G37*
G36*
G01X60947Y-769571D02*
G01X36674Y-761428D01*
G01X36212Y-762643D01*
G01X35640Y-763878D01*
G01X34967Y-765125D01*
G01X33357Y-767620D01*
G01X31458Y-770067D01*
G01X29348Y-772403D01*
G01X27103Y-774566D01*
G01X24798Y-776494D01*
G01X22509Y-778123D01*
G01X21396Y-778806D01*
G01X64741Y-793349D01*
G01X62388Y-787480D01*
G01X61392Y-784519D01*
G01X60608Y-781545D01*
G01X60317Y-780054D01*
G01X60104Y-778560D01*
G01X59977Y-777065D01*
G01X59946Y-775568D01*
G01X60019Y-774070D01*
G01X60205Y-772571D01*
G01X60511Y-771071D01*
G01X60947Y-769571D01*
G37*
G36*
G01X535001Y-1436425D02*
G01X511876Y-1416569D01*
G01X511043Y-1417478D01*
G01X509063Y-1419315D01*
G01X506744Y-1421125D01*
G01X504180Y-1422845D01*
G01X501467Y-1424412D01*
G01X498702Y-1425763D01*
G01X495979Y-1426836D01*
G01X494664Y-1427248D01*
G01X493395Y-1427566D01*
G01X492185Y-1427784D01*
G01X526872Y-1457567D01*
G01X526904Y-1456335D01*
G01X527028Y-1455032D01*
G01X527525Y-1452261D01*
G01X528316Y-1449356D01*
G01X529353Y-1446421D01*
G01X530588Y-1443558D01*
G01X531973Y-1440870D01*
G01X533460Y-1438458D01*
G01X534227Y-1437388D01*
G01X535001Y-1436425D01*
G37*
G36*
G01X669880Y-721524D02*
G01X669506Y-716749D01*
G01X669460Y-708382D01*
G01X669318Y-704650D01*
G01X669113Y-702865D01*
G01X668780Y-701124D01*
G01X668289Y-699417D01*
G01X667611Y-697736D01*
G01X666716Y-696070D01*
G01X665575Y-694413D01*
G01X664158Y-692754D01*
G01X662435Y-691086D01*
G01X728622Y-683028D01*
G01X727384Y-685005D01*
G01X726414Y-686926D01*
G01X725689Y-688802D01*
G01X725185Y-690646D01*
G01X724878Y-692468D01*
G01X724747Y-694281D01*
G01X724766Y-696095D01*
G01X724913Y-697924D01*
G01X725499Y-701670D01*
G01X727179Y-709845D01*
G01X727901Y-714460D01*
G01X669880Y-721524D01*
G37*
G36*
G01X-253223Y-1767469D02*
G01X-201367Y-1760196D01*
G01X-202219Y-1755515D01*
G01X-204254Y-1747406D01*
G01X-205031Y-1743738D01*
G01X-205271Y-1741948D01*
G01X-205378Y-1740168D01*
G01X-205325Y-1738381D01*
G01X-205090Y-1736574D01*
G01X-204644Y-1734731D01*
G01X-203965Y-1732838D01*
G01X-203024Y-1730878D01*
G01X-201799Y-1728837D01*
G01X-267828Y-1738098D01*
G01X-266468Y-1739359D01*
G01X-265147Y-1740774D01*
G01X-263869Y-1742325D01*
G01X-261458Y-1745770D01*
G01X-259272Y-1749565D01*
G01X-257350Y-1753578D01*
G01X-255727Y-1757681D01*
G01X-254441Y-1761741D01*
G01X-253528Y-1765630D01*
G01X-253223Y-1767469D01*
G37*
G36*
G01X235184Y-1726131D02*
G01X286818Y-1732636D01*
G01X287182Y-1730450D01*
G01X287722Y-1728215D01*
G01X288425Y-1725943D01*
G01X290268Y-1721346D01*
G01X292607Y-1716766D01*
G01X295338Y-1712311D01*
G01X298356Y-1708091D01*
G01X301558Y-1704212D01*
G01X304839Y-1700783D01*
G01X306476Y-1699271D01*
G01X230874Y-1689746D01*
G01X232124Y-1691757D01*
G01X233188Y-1693823D01*
G01X234078Y-1695941D01*
G01X234804Y-1698106D01*
G01X235380Y-1700313D01*
G01X235817Y-1702558D01*
G01X236128Y-1704838D01*
G01X236416Y-1709479D01*
G01X236340Y-1714202D01*
G01X235752Y-1721361D01*
G01X235184Y-1726131D01*
G37*
G36*
G01X472736Y-272225D02*
G01X452833Y-276364D01*
G01X453122Y-278113D01*
G01X453246Y-279776D01*
G01X453220Y-281363D01*
G01X453054Y-282885D01*
G01X452760Y-284352D01*
G01X452351Y-285774D01*
G01X451838Y-287164D01*
G01X451234Y-288530D01*
G01X449795Y-291235D01*
G01X445422Y-298328D01*
G01X444509Y-299888D01*
G01X489271Y-290579D01*
G01X482484Y-285677D01*
G01X480036Y-283746D01*
G01X477824Y-281694D01*
G01X476824Y-280594D01*
G01X475903Y-279428D01*
G01X475069Y-278187D01*
G01X474328Y-276857D01*
G01X473687Y-275428D01*
G01X473155Y-273888D01*
G01X472736Y-272225D01*
G37*
G36*
G01X47672Y-1678951D02*
G01X47672Y-1658631D01*
G01X46259Y-1658771D01*
G01X44834Y-1659162D01*
G01X43402Y-1659759D01*
G01X41967Y-1660519D01*
G01X39110Y-1662349D01*
G01X34928Y-1665211D01*
G01X33581Y-1666019D01*
G01X32266Y-1666681D01*
G01X30987Y-1667152D01*
G01X29750Y-1667389D01*
G01X28559Y-1667347D01*
G01X27420Y-1666983D01*
G01X26336Y-1666251D01*
G01X26336Y-1711971D01*
G01X27981Y-1710240D01*
G01X29428Y-1708183D01*
G01X30711Y-1705859D01*
G01X31863Y-1703330D01*
G01X35834Y-1692366D01*
G01X37904Y-1687222D01*
G01X39078Y-1684947D01*
G01X40389Y-1682950D01*
G01X41871Y-1681291D01*
G01X43556Y-1680031D01*
G01X45478Y-1679231D01*
G01X47672Y-1678951D01*
G37*
G36*
G01X47672Y-1643392D02*
G01X47672Y-1623072D01*
G01X45478Y-1622792D01*
G01X43556Y-1621991D01*
G01X41871Y-1620732D01*
G01X40389Y-1619073D01*
G01X39078Y-1617076D01*
G01X37904Y-1614800D01*
G01X35834Y-1609657D01*
G01X31863Y-1598693D01*
G01X30711Y-1596164D01*
G01X29428Y-1593840D01*
G01X27981Y-1591782D01*
G01X26336Y-1590051D01*
G01X26336Y-1635771D01*
G01X28559Y-1634676D01*
G01X30987Y-1634871D01*
G01X33581Y-1636004D01*
G01X39110Y-1639673D01*
G01X41967Y-1641504D01*
G01X44834Y-1642861D01*
G01X47672Y-1643392D01*
G37*
G36*
G01X-283807Y-484784D02*
G01X-316995Y-460129D01*
G01X-320488Y-464591D01*
G01X-323015Y-467478D01*
G01X-325709Y-470204D01*
G01X-328576Y-472692D01*
G01X-330077Y-473823D01*
G01X-331624Y-474865D01*
G01X-333219Y-475810D01*
G01X-334860Y-476647D01*
G01X-336551Y-477367D01*
G01X-338291Y-477960D01*
G01X-340081Y-478417D01*
G01X-291147Y-514770D01*
G01X-291271Y-511187D01*
G01X-291081Y-507298D01*
G01X-290583Y-503232D01*
G01X-289789Y-499118D01*
G01X-288705Y-495088D01*
G01X-287341Y-491269D01*
G01X-286557Y-489479D01*
G01X-285706Y-487791D01*
G01X-284789Y-486221D01*
G01X-283807Y-484784D01*
G37*
G04 TearDrop End*

G04 Pad Start*
G54D14*
G01X-887905Y-11D03*
G01X-887905Y-254011D03*
G01X-887905Y-508011D03*
G01X-887905Y-762011D03*
G01X-887905Y-1016011D03*
G01X-887905Y-1270011D03*
G01X-887905Y-1524011D03*
G01X-887905Y-1778011D03*
G01X890095Y761989D03*
G01X890095Y507989D03*
G01X890095Y253989D03*
G01X-889760Y761989D03*
G01X-889760Y507989D03*
G01X-889760Y253989D03*
G01X890095Y-11D03*
G01X890095Y-254011D03*
G01X890095Y-508011D03*
G01X890095Y-762011D03*
G01X890095Y-1016011D03*
G01X890095Y-1270011D03*
G01X890095Y-1524011D03*
G01X890095Y-1778011D03*
G54D15*
G01X-431403Y-1869820D03*
G01X433594Y-1869820D03*
G54D16*
G01X-431403Y-2289834D03*
G01X433594Y-2289834D03*
G04 Pad End*

G04 Via Start*
G54D18*
G01X-214805Y-381011D03*
G01X-141145Y-358151D03*
G01X-349425Y-378471D03*
G01X-428165Y-355611D03*
G01X-438325Y-261631D03*
G01X-534845Y53329D03*
G01X-537385Y-30491D03*
G01X79835Y342889D03*
G01X82375Y266689D03*
G01X-26845Y459729D03*
G01X-26845Y383529D03*
G01X104054Y522441D03*
G01X274056Y742456D03*
G01X168735Y218429D03*
G01X509095Y218429D03*
G01X191595Y142229D03*
G01X257635Y-317511D03*
G01X303355Y81269D03*
G01X384635Y-317511D03*
G01X382095Y-35571D03*
G01X379555Y81269D03*
G01X689415Y-10489D03*
G01X613215Y-10489D03*
G01X448135Y-109231D03*
G54D19*
G01X39691Y-1074390D03*
G54D20*
G01X-321485Y452109D03*
G01X170761Y-848713D03*
G01X170761Y-940113D03*
G54D21*
G01X174044Y-214725D03*
G01X173815Y-347991D03*
G01X341455Y-599451D03*
G54D22*
G01X255095Y-1262391D03*
G54D21*
G01X702135Y-889011D03*
G54D22*
G01X-325120Y-1341120D03*
G54D23*
G01X-467076Y-716177D03*
G54D21*
G01X26495Y-622311D03*
G01X36655Y-805191D03*
G01X496395Y-1457971D03*
G54D22*
G01X691975Y-657871D03*
G01X-238897Y-1704351D03*
G54D23*
G01X272875Y-1661171D03*
G54D21*
G01X410035Y-660411D03*
G01X143335Y-1061731D03*
G01X293195Y-1452891D03*
G01X224615Y-1452891D03*
G01X-116627Y-133378D03*
G01X-116627Y44422D03*
G01X-27727Y44422D03*
G01X-116627Y-44478D03*
G01X-27727Y-44478D03*
G01X-205527Y-133378D03*
G01X-294427Y-44478D03*
G01X-205527Y-44478D03*
G01X-205527Y133322D03*
G01X-205527Y44422D03*
G01X-294427Y44422D03*
G01X-116627Y133322D03*
G01X199215Y-642631D03*
G01X-776145Y373369D03*
G01X295735Y160009D03*
G01X470995Y-314971D03*
G01X-560245Y731509D03*
G01X661495Y657849D03*
G01X-824852Y897835D03*
G01X-558152Y897835D03*
G01X-380352Y897835D03*
G01X-46977Y897835D03*
G01X-203629Y897835D03*
G01X117173Y897835D03*
G01X433149Y897835D03*
G01X286398Y897835D03*
G01X619773Y897835D03*
G01X953148Y897835D03*
G01X781383Y897835D03*
G01X-913752Y897835D03*
G01X-369745Y822949D03*
G01X-382445Y726429D03*
G01X-397685Y631880D03*
G01X-418005Y535929D03*
G01X-429320Y273285D03*
G01X-425625Y441949D03*
G01X-570405Y651075D03*
G01X-585645Y570642D03*
G01X-603425Y490209D03*
G01X-594808Y346810D03*
G01X-590725Y193029D03*
G01X-588185Y269229D03*
G01X-430705Y345276D03*
G01X557355Y-1247151D03*
G01X635240Y-1147877D03*
G01X23955Y-1506231D03*
G01X-245285Y543549D03*
G01X-260525Y673089D03*
G01X-179245Y703569D03*
G01X760555Y119369D03*
G01X976455Y119369D03*
G01X976455Y380989D03*
G01X-976805Y-381011D03*
G01X747855Y-1351291D03*
G01X801195Y-1409711D03*
G01X-24305Y-1168411D03*
G01X-796465Y-386091D03*
G01X242395Y-1087131D03*
G01X6175Y-1689111D03*
G01X6175Y-1612911D03*
G01X1095Y-2413011D03*
G01X255095Y-2413011D03*
G01X-252905Y-2413011D03*
G01X-506905Y-2413011D03*
G01X-760905Y-2413011D03*
G01X-760905Y-2159011D03*
G01X-760905Y-1905011D03*
G01X509095Y-2413011D03*
G01X763095Y-2413011D03*
G01X763095Y-2159011D03*
G01X763095Y-1905011D03*
G01X-90345Y-1953271D03*
G01X77295Y-1945651D03*
G54D24*
G01X-331645Y-518171D03*
G54D21*
G01X433594Y-2042523D03*
G01X343128Y-2042523D03*
G01X-174165Y-1953271D03*
G01X-743125Y-223531D03*
G01X-743125Y-162571D03*
G01X-449580Y-1287780D03*
G01X-349425Y-1534171D03*
G01X-384985Y-1704351D03*
G01X379555Y-1729751D03*
G01X760555Y182869D03*
G01X760555Y-55891D03*
G01X976455Y-381011D03*
G01X976455Y-127011D03*
G01X-25400Y-1247140D03*
G01X-752688Y673089D03*
G01X-752688Y761989D03*
G01X-752688Y584189D03*
G01X-588389Y-708540D03*
G01X-251067Y-1140567D03*
G01X-22366Y-469607D03*
G01X-980440Y-1976120D03*
G01X-545128Y-818505D03*
G04 Via End*

G04 Track Start*
G54D10*
G01X168735Y218429D02*
G01X509095Y218429D01*
G01X257635Y-17206D02*
G01X257635Y-317511D01*
G01X379555Y81269D02*
G01X379555Y-33031D01*
G01X303355Y81269D02*
G01X303355Y-124876D01*
G01X16355Y459729D02*
G01X-26845Y459729D01*
G01X34155Y441929D02*
G01X16355Y459729D01*
G01X890095Y507989D02*
G01X783395Y401289D01*
G01X668152Y401289D02*
G01X783395Y401289D01*
G01X-705025Y223509D02*
G01X-705025Y365749D01*
G01X-847265Y507989D02*
G01X-887905Y507989D01*
G01X-537385Y-30491D02*
G01X-590725Y-30491D01*
G01X-875205Y253989D02*
G01X-887905Y253989D01*
G01X-765985Y-640091D02*
G01X-765985Y-589291D01*
G01X-727885Y-855991D02*
G01X-727885Y-655331D01*
G01X-689785Y-1071891D02*
G01X-689785Y-690842D01*
G01X-456155Y-457211D02*
G01X-420545Y-457211D01*
G01X-651685Y-738366D02*
G01X-651685Y-1287791D01*
G01X16355Y383529D02*
G01X34155Y401329D01*
G01X289266Y401329D01*
G01X328865Y361729D02*
G01X340066Y361729D01*
G01X379665Y401329D02*
G01X390866Y401329D01*
G01X430465Y361729D02*
G01X441666Y361729D01*
G01X610695Y401329D02*
G01X651335Y360689D01*
G01X783395Y360689D01*
G01X890095Y253989D01*
G01X481265Y401329D02*
G01X610695Y401329D01*
G54D25*
G01X174044Y-214725D02*
G01X174044Y-321269D01*
G54D10*
G01X170761Y-848713D02*
G01X198701Y-876653D01*
G01X185559Y-751621D02*
G01X265791Y-785037D01*
G01X247475Y-876653D02*
G01X198701Y-876653D01*
G01X-26845Y383529D02*
G01X16355Y383529D01*
G01X82375Y-596872D02*
G01X82375Y103088D01*
G01X117895Y105139D02*
G01X117895Y-482058D01*
G01X143295Y-507458D02*
G01X152865Y-507458D01*
G01X152865Y-558258D02*
G01X143295Y-558258D01*
G01X117895Y-583658D02*
G01X117895Y-596872D01*
G01X199215Y-718831D02*
G01X279448Y-752247D01*
G01X247475Y-912173D02*
G01X198701Y-912173D01*
G01X170761Y-940113D01*
G01X303355Y-124876D02*
G01X305895Y-127416D01*
G01X379555Y-33031D02*
G01X382095Y-35571D01*
G54D26*
G01X69675Y-1864371D02*
G01X-78877Y-1864371D01*
G54D10*
G01X79835Y342889D02*
G01X123035Y342889D01*
G01X143355Y322569D01*
G01X569545Y322569D01*
G01X554815Y287009D02*
G01X143355Y287009D01*
G01X123035Y266689D01*
G01X82375Y266689D01*
G01X689415Y-10489D02*
G01X689415Y30171D01*
G01X669095Y50491D01*
G01X669095Y223018D02*
G01X669095Y50491D01*
G01X613215Y-10489D02*
G01X613215Y30171D01*
G01X633535Y50491D01*
G01X633535Y71077D01*
G01X608135Y96477D02*
G01X556437Y96477D01*
G01X556437Y147277D02*
G01X608135Y147277D01*
G01X633535Y172677D02*
G01X633535Y208289D01*
G01X613215Y-10489D02*
G01X633535Y-30809D01*
G01X689415Y-10489D02*
G01X669095Y-30809D01*
G01X633535Y-30809D02*
G01X633535Y-457211D01*
G01X669095Y-30809D02*
G01X669095Y-457211D01*
G54D27*
G01X506586Y-1158220D02*
G01X650050Y-1014757D01*
G54D10*
G01X6175Y-1612911D02*
G01X26496Y-1633232D01*
G01X6175Y-1689111D02*
G01X26496Y-1668791D01*
G01X585288Y-863100D02*
G01X585288Y-807739D01*
G01X272875Y-1143011D02*
G01X225341Y-1154317D01*
G01X281103Y-1177606D02*
G01X233264Y-1188985D01*
G01X129042Y-1270572D02*
G01X113863Y-1598318D01*
G01X164578Y-1271903D02*
G01X149385Y-1599963D01*
G01X26496Y-1633232D02*
G01X77295Y-1633231D01*
G01X26496Y-1668791D02*
G01X77295Y-1668791D01*
G01X-214805Y-428015D02*
G01X-214805Y-381011D01*
G01X-141145Y-375809D02*
G01X-141145Y-358151D01*
G01X-480701Y-640091D02*
G01X-405427Y-640091D01*
G01X-512771Y-599451D02*
G01X-386242Y-599451D01*
G54D28*
G01X-409949Y-185431D02*
G01X-324258Y-271122D01*
G01X-280845Y-375931D02*
G01X-280845Y-387909D01*
G54D26*
G01X-326565Y-1339675D02*
G01X-326565Y-802099D01*
G54D10*
G01X627512Y441929D02*
G01X34155Y441929D01*
G01X627512Y441929D02*
G01X668152Y401289D01*
G01X620848Y-864123D02*
G01X620848Y-863100D01*
G01X620848Y-808762D01*
G54D26*
G01X-326565Y-1339675D02*
G01X-325120Y-1341120D01*
G54D10*
G01X191595Y142229D02*
G02X257635Y-17206I-159435J-159435D01*
G01X305895Y-127416D02*
G03X384635Y-317511I268835J0D01*
G01X-534845Y53329D02*
G02X-705025Y223509I0J170180D01*
G01X-705025Y365749D02*
G03X-847265Y507989I-142240J0D01*
G01X-590725Y-30491D02*
G02X-750745Y129529I0J160020D01*
G01X-750745Y129529D02*
G03X-875205Y253989I-124460J0D01*
G01X-887905Y-762011D02*
G03X-765985Y-640091I0J121920D01*
G01X-765985Y-589291D02*
G02X-438325Y-261631I327660J0D01*
G01X-887905Y-1016011D02*
G03X-727885Y-855991I0J160020D01*
G01X-428165Y-355611D02*
G03X-727885Y-655331I0J-299720D01*
G01X-887905Y-1270011D02*
G03X-689785Y-1071891I0J198120D01*
G01X-887905Y-1524011D02*
G03X-651685Y-1287791I0J236220D01*
G01X-611005Y-1501112D02*
G02X-887905Y-1778011I-276900J0D01*
G01X-689785Y-690842D02*
G02X-456155Y-457211I233630J0D01*
G01X-420545Y-457211D02*
G03X-349425Y-378471I3658J68184D01*
G01X289266Y401329D02*
G02X309066Y381529I0J-19800D01*
G03X328865Y361729I19800J0D01*
G01X340066Y361729D02*
G03X359866Y381529I0J19800D01*
G02X379665Y401329I19800J0D01*
G01X390866Y401329D02*
G02X410666Y381529I0J-19800D01*
G03X430465Y361729I19800J0D01*
G01X441666Y361729D02*
G03X461466Y381529I0J19800D01*
G02X481265Y401329I19800J0D01*
G54D25*
G01X174044Y-321269D02*
G03X173815Y-347991I28477J-13606D01*
G54D10*
G01X15255Y170208D02*
G02X82375Y103088I0J-67120D01*
G01X82375Y-596872D02*
G03X185559Y-751621I167635J0D01*
G01X265791Y-785037D02*
G02X247475Y-876653I-18316J-43977D01*
G54D29*
G01X173815Y-347991D02*
G03X341455Y-599451I272415J0D01*
G54D10*
G01X15255Y170208D02*
G02X-39545Y182869I0J124932D01*
G01X-39545Y182869D02*
G02X-26845Y459729I66227J135683D01*
G01X-26845Y383529D02*
G03X-57325Y243829I47174J-83467D01*
G01X-57325Y243829D02*
G03X17306Y205729I74631J54043D01*
G01X17306Y205729D02*
G02X117895Y105139I0J-100590D01*
G01X117895Y-482058D02*
G03X143295Y-507458I25400J0D01*
G01X152865Y-507458D02*
G02X152865Y-558258I0J-25400D01*
G01X143295Y-558258D02*
G03X117895Y-583658I0J-25400D01*
G01X117895Y-596872D02*
G03X199215Y-718831I132115J0D01*
G01X279448Y-752247D02*
G02X247475Y-912173I-31973J-76767D01*
G54D25*
G01X26495Y-622311D02*
G02X36655Y-805191I-183274J-101904D01*
G54D27*
G01X702135Y-889011D02*
G03X691975Y-657871I-1210890J62567D01*
G54D29*
G01X36655Y-805191D02*
G01X37414Y-939799D01*
G01X39691Y-1074390D01*
G54D10*
G01X448135Y-109231D02*
G03X470995Y-314971I937259J0D01*
G54D26*
G01X-238897Y-1704351D02*
G03X-78877Y-1864371I160020J0D01*
G01X272875Y-1661171D02*
G02X69675Y-1864371I-203200J0D01*
G01X-397685Y-180351D02*
G01X-385748Y-53483D01*
G01X-372158Y73218D01*
G01X-356915Y199732D01*
G01X-340023Y326036D01*
G01X-321485Y452109D01*
G54D10*
G01X669095Y223018D02*
G03X569545Y322569I-99551J0D01*
G01X632890Y218351D02*
G03X554815Y287009I-78074J-10063D01*
G01X633535Y71077D02*
G03X608135Y96477I-25400J0D01*
G01X556437Y96477D02*
G02X556437Y147277I0J25400D01*
G01X608135Y147277D02*
G03X633535Y172677I0J25400D01*
G01X633535Y208289D02*
G01X632890Y218351D01*
G01X585310Y-676666D02*
G01X586242Y-742199D01*
G01X585295Y-807731D01*
G01X608155Y-568971D02*
G03X585310Y-676666I210946J-101019D01*
G01X633535Y-457211D02*
G02X608155Y-568971I-258755J0D01*
G01X620841Y-808754D02*
G01X621802Y-742203D01*
G01X620855Y-675651D01*
G01X640227Y-584330D02*
G03X620855Y-675651I178874J-85660D01*
G01X669095Y-457211D02*
G02X640227Y-584330I-294315J0D01*
G54D27*
G01X255095Y-1262391D02*
G03X506586Y-1158220I0J355662D01*
G01X650050Y-1014757D02*
G03X702135Y-889011I-125745J125746D01*
G54D10*
G01X585288Y-863100D02*
G02X501475Y-1033791I-215720J0D01*
G01X620848Y-863100D02*
G02X523219Y-1061929I-251280J0D01*
G01X501475Y-1033791D02*
G02X272875Y-1143011I-367764J475895D01*
G01X225341Y-1154317D02*
G03X129042Y-1270572I29030J-122059D01*
G01X523219Y-1061929D02*
G02X281103Y-1177606I-389508J504032D01*
G01X233264Y-1188985D02*
G03X164578Y-1271903I20706J-87059D01*
G01X113863Y-1598318D02*
G02X77295Y-1633231I-36568J1694D01*
G01X149385Y-1599963D02*
G02X77295Y-1668791I-72090J3339D01*
G01X-386242Y-599451D02*
G03X-214805Y-428015I0J171437D01*
G01X-405427Y-640091D02*
G03X-141145Y-375809I0J264282D01*
G01X-651685Y-738366D02*
G02X-512771Y-599451I138914J0D01*
G54D26*
G01X-409949Y-185431D02*
G03X-397685Y-180351I0J17344D01*
G54D28*
G01X-324258Y-271122D02*
G02X-280845Y-375931I-104809J-104809D01*
G01X-280845Y-387909D02*
G02X-331645Y-518171I-191688J-282D01*
G54D26*
G01X-326565Y-802099D02*
G03X-402212Y-726451I-75647J0D01*
G01X-409949Y-185431D02*
G03X-507275Y-202025I-0J-293719D01*
G01X-507275Y-202025D02*
G03X-681386Y-284728I302671J-861829D01*
G01X-681386Y-284728D02*
G02X-887905Y-254011I-84907J138749D01*
G54D30*
G01X890095Y-1016011D02*
G01X790082Y-1125077D01*
G01X691121Y-1235099D01*
G01X593222Y-1346067D01*
G01X496395Y-1457971D01*
G54D10*
G01X-251067Y-1140567D02*
G01X-251067Y-672707D01*
G01X-38100Y-459740D01*
G01X-611005Y-770395D02*
G01X-611005Y-1501112D01*
G01X-480701Y-640091D02*
G03X-593692Y-705494I0J-130304D01*
G03X-611005Y-770395I112991J-64901D01*
G54D26*
G01X-402212Y-726451D02*
G01X-412486Y-716177D01*
G01X-467076Y-716177D01*
G54D10*
G01X-980440Y-1976120D02*
G01X-762000Y-1976120D01*
G03X-543560Y-1757680I0J218440D01*
G01X-543560Y-825500D01*
G04 Track End*

M02*

